G04 #@! TF.GenerationSoftware,KiCad,Pcbnew,8.0.8*
G04 #@! TF.CreationDate,2025-08-03T03:16:57+05:30*
G04 #@! TF.ProjectId,main,6d61696e-2e6b-4696-9361-645f70636258,rev?*
G04 #@! TF.SameCoordinates,Original*
G04 #@! TF.FileFunction,Legend,Top*
G04 #@! TF.FilePolarity,Positive*
%FSLAX46Y46*%
G04 Gerber Fmt 4.6, Leading zero omitted, Abs format (unit mm)*
G04 Created by KiCad (PCBNEW 8.0.8) date 2025-08-03 03:16:57*
%MOMM*%
%LPD*%
G01*
G04 APERTURE LIST*
G04 Aperture macros list*
%AMRoundRect*
0 Rectangle with rounded corners*
0 $1 Rounding radius*
0 $2 $3 $4 $5 $6 $7 $8 $9 X,Y pos of 4 corners*
0 Add a 4 corners polygon primitive as box body*
4,1,4,$2,$3,$4,$5,$6,$7,$8,$9,$2,$3,0*
0 Add four circle primitives for the rounded corners*
1,1,$1+$1,$2,$3*
1,1,$1+$1,$4,$5*
1,1,$1+$1,$6,$7*
1,1,$1+$1,$8,$9*
0 Add four rect primitives between the rounded corners*
20,1,$1+$1,$2,$3,$4,$5,0*
20,1,$1+$1,$4,$5,$6,$7,0*
20,1,$1+$1,$6,$7,$8,$9,0*
20,1,$1+$1,$8,$9,$2,$3,0*%
%AMFreePoly0*
4,1,55,-0.481452,0.792129,-0.309719,0.732037,-0.155665,0.635238,-0.027012,0.506585,0.069787,0.352531,0.129879,0.180798,0.150250,0.000000,0.129879,-0.180798,0.069787,-0.352531,-0.027012,-0.506585,-0.155665,-0.635238,-0.309719,-0.732037,-0.481452,-0.792129,-0.662250,-0.812500,-0.843048,-0.792129,-1.014781,-0.732037,-1.168835,-0.635238,-1.297488,-0.506585,-1.394287,-0.352531,-1.454379,-0.180798,
-1.474750,0.000000,-1.179515,0.000000,-1.158562,-0.145730,-1.097401,-0.279655,-1.000987,-0.390923,-0.877130,-0.470521,-0.735864,-0.512000,-0.588636,-0.512000,-0.447370,-0.470521,-0.323513,-0.390923,-0.227099,-0.279655,-0.165938,-0.145730,-0.146823,-0.012788,-0.150250,0.000000,-0.146823,0.012788,-0.165938,0.145730,-0.227099,0.279655,-0.323513,0.390923,-0.447370,0.470521,-0.588636,0.512000,
-0.735864,0.512000,-0.877130,0.470521,-1.000987,0.390923,-1.097401,0.279655,-1.158562,0.145730,-1.179515,0.000000,-1.474750,0.000000,-1.454379,0.180798,-1.394287,0.352531,-1.297488,0.506585,-1.168835,0.635238,-1.014781,0.732037,-0.843048,0.792129,-0.662250,0.812500,-0.481452,0.792129,-0.481452,0.792129,$1*%
G04 Aperture macros list end*
%ADD10C,0.150000*%
%ADD11C,0.254000*%
%ADD12C,0.015000*%
%ADD13C,0.120000*%
%ADD14C,0.200000*%
%ADD15C,0.300000*%
%ADD16C,0.127000*%
%ADD17C,0.100000*%
%ADD18C,0.010000*%
%ADD19R,0.600000X0.522000*%
%ADD20FreePoly0,0.000000*%
%ADD21C,0.325000*%
%ADD22R,0.700000X1.600000*%
%ADD23C,1.100000*%
%ADD24R,2.500000X1.000000*%
%ADD25R,1.400000X1.700000*%
%ADD26RoundRect,0.062500X0.062500X-0.337500X0.062500X0.337500X-0.062500X0.337500X-0.062500X-0.337500X0*%
%ADD27RoundRect,0.062500X0.287500X0.062500X-0.287500X0.062500X-0.287500X-0.062500X0.287500X-0.062500X0*%
%ADD28R,0.800000X1.600000*%
%ADD29RoundRect,0.150000X-0.587500X-0.150000X0.587500X-0.150000X0.587500X0.150000X-0.587500X0.150000X0*%
%ADD30RoundRect,0.150000X-0.512500X-0.150000X0.512500X-0.150000X0.512500X0.150000X-0.512500X0.150000X0*%
%ADD31R,2.600000X2.600000*%
%ADD32RoundRect,0.062500X0.350000X-0.062500X0.350000X0.062500X-0.350000X0.062500X-0.350000X-0.062500X0*%
%ADD33RoundRect,0.062500X0.062500X-0.350000X0.062500X0.350000X-0.062500X0.350000X-0.062500X-0.350000X0*%
%ADD34RoundRect,0.050000X0.050000X-0.225000X0.050000X0.225000X-0.050000X0.225000X-0.050000X-0.225000X0*%
%ADD35RoundRect,0.050000X-0.225000X-0.050000X0.225000X-0.050000X0.225000X0.050000X-0.225000X0.050000X0*%
%ADD36R,1.550000X1.000000*%
%ADD37C,0.750000*%
%ADD38RoundRect,0.135000X-0.185000X0.135000X-0.185000X-0.135000X0.185000X-0.135000X0.185000X0.135000X0*%
%ADD39RoundRect,0.135000X0.185000X-0.135000X0.185000X0.135000X-0.185000X0.135000X-0.185000X-0.135000X0*%
%ADD40RoundRect,0.135000X0.135000X0.185000X-0.135000X0.185000X-0.135000X-0.185000X0.135000X-0.185000X0*%
%ADD41RoundRect,0.135000X-0.135000X-0.185000X0.135000X-0.185000X0.135000X0.185000X-0.135000X0.185000X0*%
%ADD42R,0.400000X0.500000*%
%ADD43R,0.170000X0.280000*%
%ADD44R,0.520000X0.280000*%
%ADD45R,0.280000X0.520000*%
%ADD46R,0.280000X0.170000*%
%ADD47R,0.400000X0.600000*%
%ADD48R,0.500000X0.600000*%
%ADD49R,2.300000X1.600000*%
%ADD50O,1.200000X1.900000*%
%ADD51R,1.200000X1.900000*%
%ADD52C,1.450000*%
%ADD53R,1.500000X1.900000*%
%ADD54R,0.400000X1.350000*%
%ADD55RoundRect,0.250000X0.450000X-0.262500X0.450000X0.262500X-0.450000X0.262500X-0.450000X-0.262500X0*%
%ADD56RoundRect,0.102000X-0.600000X0.425000X-0.600000X-0.425000X0.600000X-0.425000X0.600000X0.425000X0*%
%ADD57RoundRect,0.147500X0.147500X0.172500X-0.147500X0.172500X-0.147500X-0.172500X0.147500X-0.172500X0*%
%ADD58RoundRect,0.102000X0.600000X-0.425000X0.600000X0.425000X-0.600000X0.425000X-0.600000X-0.425000X0*%
%ADD59R,0.700000X0.700000*%
%ADD60RoundRect,0.140000X-0.140000X-0.170000X0.140000X-0.170000X0.140000X0.170000X-0.140000X0.170000X0*%
%ADD61RoundRect,0.140000X0.140000X0.170000X-0.140000X0.170000X-0.140000X-0.170000X0.140000X-0.170000X0*%
%ADD62RoundRect,0.140000X0.170000X-0.140000X0.170000X0.140000X-0.170000X0.140000X-0.170000X-0.140000X0*%
%ADD63RoundRect,0.140000X-0.170000X0.140000X-0.170000X-0.140000X0.170000X-0.140000X0.170000X0.140000X0*%
%ADD64R,0.900000X0.900000*%
%ADD65R,0.900000X1.500000*%
%ADD66R,1.500000X0.900000*%
%ADD67C,3.200000*%
%ADD68C,2.200000*%
G04 APERTURE END LIST*
D10*
X180479819Y-78458618D02*
X179479819Y-78458618D01*
X179479819Y-78458618D02*
X180194104Y-78125285D01*
X180194104Y-78125285D02*
X179479819Y-77791952D01*
X179479819Y-77791952D02*
X180479819Y-77791952D01*
X180479819Y-77315761D02*
X179479819Y-77315761D01*
X180384580Y-76268143D02*
X180432200Y-76315762D01*
X180432200Y-76315762D02*
X180479819Y-76458619D01*
X180479819Y-76458619D02*
X180479819Y-76553857D01*
X180479819Y-76553857D02*
X180432200Y-76696714D01*
X180432200Y-76696714D02*
X180336961Y-76791952D01*
X180336961Y-76791952D02*
X180241723Y-76839571D01*
X180241723Y-76839571D02*
X180051247Y-76887190D01*
X180051247Y-76887190D02*
X179908390Y-76887190D01*
X179908390Y-76887190D02*
X179717914Y-76839571D01*
X179717914Y-76839571D02*
X179622676Y-76791952D01*
X179622676Y-76791952D02*
X179527438Y-76696714D01*
X179527438Y-76696714D02*
X179479819Y-76553857D01*
X179479819Y-76553857D02*
X179479819Y-76458619D01*
X179479819Y-76458619D02*
X179527438Y-76315762D01*
X179527438Y-76315762D02*
X179575057Y-76268143D01*
X179575057Y-75887190D02*
X179527438Y-75839571D01*
X179527438Y-75839571D02*
X179479819Y-75744333D01*
X179479819Y-75744333D02*
X179479819Y-75506238D01*
X179479819Y-75506238D02*
X179527438Y-75411000D01*
X179527438Y-75411000D02*
X179575057Y-75363381D01*
X179575057Y-75363381D02*
X179670295Y-75315762D01*
X179670295Y-75315762D02*
X179765533Y-75315762D01*
X179765533Y-75315762D02*
X179908390Y-75363381D01*
X179908390Y-75363381D02*
X180479819Y-75934809D01*
X180479819Y-75934809D02*
X180479819Y-75315762D01*
X173479819Y-78458618D02*
X172479819Y-78458618D01*
X172479819Y-78458618D02*
X173194104Y-78125285D01*
X173194104Y-78125285D02*
X172479819Y-77791952D01*
X172479819Y-77791952D02*
X173479819Y-77791952D01*
X173479819Y-77315761D02*
X172479819Y-77315761D01*
X173384580Y-76268143D02*
X173432200Y-76315762D01*
X173432200Y-76315762D02*
X173479819Y-76458619D01*
X173479819Y-76458619D02*
X173479819Y-76553857D01*
X173479819Y-76553857D02*
X173432200Y-76696714D01*
X173432200Y-76696714D02*
X173336961Y-76791952D01*
X173336961Y-76791952D02*
X173241723Y-76839571D01*
X173241723Y-76839571D02*
X173051247Y-76887190D01*
X173051247Y-76887190D02*
X172908390Y-76887190D01*
X172908390Y-76887190D02*
X172717914Y-76839571D01*
X172717914Y-76839571D02*
X172622676Y-76791952D01*
X172622676Y-76791952D02*
X172527438Y-76696714D01*
X172527438Y-76696714D02*
X172479819Y-76553857D01*
X172479819Y-76553857D02*
X172479819Y-76458619D01*
X172479819Y-76458619D02*
X172527438Y-76315762D01*
X172527438Y-76315762D02*
X172575057Y-76268143D01*
X173479819Y-75315762D02*
X173479819Y-75887190D01*
X173479819Y-75601476D02*
X172479819Y-75601476D01*
X172479819Y-75601476D02*
X172622676Y-75696714D01*
X172622676Y-75696714D02*
X172717914Y-75791952D01*
X172717914Y-75791952D02*
X172765533Y-75887190D01*
X218204167Y-81469700D02*
X218347024Y-81517319D01*
X218347024Y-81517319D02*
X218585119Y-81517319D01*
X218585119Y-81517319D02*
X218680357Y-81469700D01*
X218680357Y-81469700D02*
X218727976Y-81422080D01*
X218727976Y-81422080D02*
X218775595Y-81326842D01*
X218775595Y-81326842D02*
X218775595Y-81231604D01*
X218775595Y-81231604D02*
X218727976Y-81136366D01*
X218727976Y-81136366D02*
X218680357Y-81088747D01*
X218680357Y-81088747D02*
X218585119Y-81041128D01*
X218585119Y-81041128D02*
X218394643Y-80993509D01*
X218394643Y-80993509D02*
X218299405Y-80945890D01*
X218299405Y-80945890D02*
X218251786Y-80898271D01*
X218251786Y-80898271D02*
X218204167Y-80803033D01*
X218204167Y-80803033D02*
X218204167Y-80707795D01*
X218204167Y-80707795D02*
X218251786Y-80612557D01*
X218251786Y-80612557D02*
X218299405Y-80564938D01*
X218299405Y-80564938D02*
X218394643Y-80517319D01*
X218394643Y-80517319D02*
X218632738Y-80517319D01*
X218632738Y-80517319D02*
X218775595Y-80564938D01*
X219108929Y-80517319D02*
X219347024Y-81517319D01*
X219347024Y-81517319D02*
X219537500Y-80803033D01*
X219537500Y-80803033D02*
X219727976Y-81517319D01*
X219727976Y-81517319D02*
X219966072Y-80517319D01*
X220299405Y-80612557D02*
X220347024Y-80564938D01*
X220347024Y-80564938D02*
X220442262Y-80517319D01*
X220442262Y-80517319D02*
X220680357Y-80517319D01*
X220680357Y-80517319D02*
X220775595Y-80564938D01*
X220775595Y-80564938D02*
X220823214Y-80612557D01*
X220823214Y-80612557D02*
X220870833Y-80707795D01*
X220870833Y-80707795D02*
X220870833Y-80803033D01*
X220870833Y-80803033D02*
X220823214Y-80945890D01*
X220823214Y-80945890D02*
X220251786Y-81517319D01*
X220251786Y-81517319D02*
X220870833Y-81517319D01*
D11*
X175237587Y-65741318D02*
X175237587Y-64471318D01*
X176568064Y-65620365D02*
X176507588Y-65680842D01*
X176507588Y-65680842D02*
X176326159Y-65741318D01*
X176326159Y-65741318D02*
X176205207Y-65741318D01*
X176205207Y-65741318D02*
X176023778Y-65680842D01*
X176023778Y-65680842D02*
X175902826Y-65559889D01*
X175902826Y-65559889D02*
X175842349Y-65438937D01*
X175842349Y-65438937D02*
X175781873Y-65197032D01*
X175781873Y-65197032D02*
X175781873Y-65015603D01*
X175781873Y-65015603D02*
X175842349Y-64773699D01*
X175842349Y-64773699D02*
X175902826Y-64652746D01*
X175902826Y-64652746D02*
X176023778Y-64531794D01*
X176023778Y-64531794D02*
X176205207Y-64471318D01*
X176205207Y-64471318D02*
X176326159Y-64471318D01*
X176326159Y-64471318D02*
X176507588Y-64531794D01*
X176507588Y-64531794D02*
X176568064Y-64592270D01*
X177051873Y-64592270D02*
X177112349Y-64531794D01*
X177112349Y-64531794D02*
X177233302Y-64471318D01*
X177233302Y-64471318D02*
X177535683Y-64471318D01*
X177535683Y-64471318D02*
X177656635Y-64531794D01*
X177656635Y-64531794D02*
X177717111Y-64592270D01*
X177717111Y-64592270D02*
X177777588Y-64713222D01*
X177777588Y-64713222D02*
X177777588Y-64834175D01*
X177777588Y-64834175D02*
X177717111Y-65015603D01*
X177717111Y-65015603D02*
X176991397Y-65741318D01*
X176991397Y-65741318D02*
X177777588Y-65741318D01*
D10*
X240419380Y-74966876D02*
X240419380Y-75484971D01*
X240419380Y-75484971D02*
X240449857Y-75545923D01*
X240449857Y-75545923D02*
X240480333Y-75576400D01*
X240480333Y-75576400D02*
X240541285Y-75606876D01*
X240541285Y-75606876D02*
X240663190Y-75606876D01*
X240663190Y-75606876D02*
X240724142Y-75576400D01*
X240724142Y-75576400D02*
X240754619Y-75545923D01*
X240754619Y-75545923D02*
X240785095Y-75484971D01*
X240785095Y-75484971D02*
X240785095Y-74966876D01*
X241028904Y-74966876D02*
X241455571Y-74966876D01*
X241455571Y-74966876D02*
X241181285Y-75606876D01*
X239654819Y-68336904D02*
X240464342Y-68336904D01*
X240464342Y-68336904D02*
X240559580Y-68289285D01*
X240559580Y-68289285D02*
X240607200Y-68241666D01*
X240607200Y-68241666D02*
X240654819Y-68146428D01*
X240654819Y-68146428D02*
X240654819Y-67955952D01*
X240654819Y-67955952D02*
X240607200Y-67860714D01*
X240607200Y-67860714D02*
X240559580Y-67813095D01*
X240559580Y-67813095D02*
X240464342Y-67765476D01*
X240464342Y-67765476D02*
X239654819Y-67765476D01*
X239654819Y-66860714D02*
X239654819Y-67051190D01*
X239654819Y-67051190D02*
X239702438Y-67146428D01*
X239702438Y-67146428D02*
X239750057Y-67194047D01*
X239750057Y-67194047D02*
X239892914Y-67289285D01*
X239892914Y-67289285D02*
X240083390Y-67336904D01*
X240083390Y-67336904D02*
X240464342Y-67336904D01*
X240464342Y-67336904D02*
X240559580Y-67289285D01*
X240559580Y-67289285D02*
X240607200Y-67241666D01*
X240607200Y-67241666D02*
X240654819Y-67146428D01*
X240654819Y-67146428D02*
X240654819Y-66955952D01*
X240654819Y-66955952D02*
X240607200Y-66860714D01*
X240607200Y-66860714D02*
X240559580Y-66813095D01*
X240559580Y-66813095D02*
X240464342Y-66765476D01*
X240464342Y-66765476D02*
X240226247Y-66765476D01*
X240226247Y-66765476D02*
X240131009Y-66813095D01*
X240131009Y-66813095D02*
X240083390Y-66860714D01*
X240083390Y-66860714D02*
X240035771Y-66955952D01*
X240035771Y-66955952D02*
X240035771Y-67146428D01*
X240035771Y-67146428D02*
X240083390Y-67241666D01*
X240083390Y-67241666D02*
X240131009Y-67289285D01*
X240131009Y-67289285D02*
X240226247Y-67336904D01*
X250638095Y-75240433D02*
X250638095Y-76049956D01*
X250638095Y-76049956D02*
X250685714Y-76145194D01*
X250685714Y-76145194D02*
X250733333Y-76192814D01*
X250733333Y-76192814D02*
X250828571Y-76240433D01*
X250828571Y-76240433D02*
X251019047Y-76240433D01*
X251019047Y-76240433D02*
X251114285Y-76192814D01*
X251114285Y-76192814D02*
X251161904Y-76145194D01*
X251161904Y-76145194D02*
X251209523Y-76049956D01*
X251209523Y-76049956D02*
X251209523Y-75240433D01*
X252161904Y-75240433D02*
X251685714Y-75240433D01*
X251685714Y-75240433D02*
X251638095Y-75716623D01*
X251638095Y-75716623D02*
X251685714Y-75669004D01*
X251685714Y-75669004D02*
X251780952Y-75621385D01*
X251780952Y-75621385D02*
X252019047Y-75621385D01*
X252019047Y-75621385D02*
X252114285Y-75669004D01*
X252114285Y-75669004D02*
X252161904Y-75716623D01*
X252161904Y-75716623D02*
X252209523Y-75811861D01*
X252209523Y-75811861D02*
X252209523Y-76049956D01*
X252209523Y-76049956D02*
X252161904Y-76145194D01*
X252161904Y-76145194D02*
X252114285Y-76192814D01*
X252114285Y-76192814D02*
X252019047Y-76240433D01*
X252019047Y-76240433D02*
X251780952Y-76240433D01*
X251780952Y-76240433D02*
X251685714Y-76192814D01*
X251685714Y-76192814D02*
X251638095Y-76145194D01*
X243150595Y-73254819D02*
X243150595Y-74064342D01*
X243150595Y-74064342D02*
X243198214Y-74159580D01*
X243198214Y-74159580D02*
X243245833Y-74207200D01*
X243245833Y-74207200D02*
X243341071Y-74254819D01*
X243341071Y-74254819D02*
X243531547Y-74254819D01*
X243531547Y-74254819D02*
X243626785Y-74207200D01*
X243626785Y-74207200D02*
X243674404Y-74159580D01*
X243674404Y-74159580D02*
X243722023Y-74064342D01*
X243722023Y-74064342D02*
X243722023Y-73254819D01*
X244626785Y-73588152D02*
X244626785Y-74254819D01*
X244388690Y-73207200D02*
X244150595Y-73921485D01*
X244150595Y-73921485D02*
X244769642Y-73921485D01*
X220600595Y-67554819D02*
X220600595Y-68364342D01*
X220600595Y-68364342D02*
X220648214Y-68459580D01*
X220648214Y-68459580D02*
X220695833Y-68507200D01*
X220695833Y-68507200D02*
X220791071Y-68554819D01*
X220791071Y-68554819D02*
X220981547Y-68554819D01*
X220981547Y-68554819D02*
X221076785Y-68507200D01*
X221076785Y-68507200D02*
X221124404Y-68459580D01*
X221124404Y-68459580D02*
X221172023Y-68364342D01*
X221172023Y-68364342D02*
X221172023Y-67554819D01*
X221552976Y-67554819D02*
X222172023Y-67554819D01*
X222172023Y-67554819D02*
X221838690Y-67935771D01*
X221838690Y-67935771D02*
X221981547Y-67935771D01*
X221981547Y-67935771D02*
X222076785Y-67983390D01*
X222076785Y-67983390D02*
X222124404Y-68031009D01*
X222124404Y-68031009D02*
X222172023Y-68126247D01*
X222172023Y-68126247D02*
X222172023Y-68364342D01*
X222172023Y-68364342D02*
X222124404Y-68459580D01*
X222124404Y-68459580D02*
X222076785Y-68507200D01*
X222076785Y-68507200D02*
X221981547Y-68554819D01*
X221981547Y-68554819D02*
X221695833Y-68554819D01*
X221695833Y-68554819D02*
X221600595Y-68507200D01*
X221600595Y-68507200D02*
X221552976Y-68459580D01*
X212254819Y-65111904D02*
X213064342Y-65111904D01*
X213064342Y-65111904D02*
X213159580Y-65064285D01*
X213159580Y-65064285D02*
X213207200Y-65016666D01*
X213207200Y-65016666D02*
X213254819Y-64921428D01*
X213254819Y-64921428D02*
X213254819Y-64730952D01*
X213254819Y-64730952D02*
X213207200Y-64635714D01*
X213207200Y-64635714D02*
X213159580Y-64588095D01*
X213159580Y-64588095D02*
X213064342Y-64540476D01*
X213064342Y-64540476D02*
X212254819Y-64540476D01*
X212350057Y-64111904D02*
X212302438Y-64064285D01*
X212302438Y-64064285D02*
X212254819Y-63969047D01*
X212254819Y-63969047D02*
X212254819Y-63730952D01*
X212254819Y-63730952D02*
X212302438Y-63635714D01*
X212302438Y-63635714D02*
X212350057Y-63588095D01*
X212350057Y-63588095D02*
X212445295Y-63540476D01*
X212445295Y-63540476D02*
X212540533Y-63540476D01*
X212540533Y-63540476D02*
X212683390Y-63588095D01*
X212683390Y-63588095D02*
X213254819Y-64159523D01*
X213254819Y-64159523D02*
X213254819Y-63540476D01*
X163238095Y-57379819D02*
X163238095Y-58189342D01*
X163238095Y-58189342D02*
X163285714Y-58284580D01*
X163285714Y-58284580D02*
X163333333Y-58332200D01*
X163333333Y-58332200D02*
X163428571Y-58379819D01*
X163428571Y-58379819D02*
X163619047Y-58379819D01*
X163619047Y-58379819D02*
X163714285Y-58332200D01*
X163714285Y-58332200D02*
X163761904Y-58284580D01*
X163761904Y-58284580D02*
X163809523Y-58189342D01*
X163809523Y-58189342D02*
X163809523Y-57379819D01*
X164809523Y-58379819D02*
X164238095Y-58379819D01*
X164523809Y-58379819D02*
X164523809Y-57379819D01*
X164523809Y-57379819D02*
X164428571Y-57522676D01*
X164428571Y-57522676D02*
X164333333Y-57617914D01*
X164333333Y-57617914D02*
X164238095Y-57665533D01*
X160241667Y-73457200D02*
X160384524Y-73504819D01*
X160384524Y-73504819D02*
X160622619Y-73504819D01*
X160622619Y-73504819D02*
X160717857Y-73457200D01*
X160717857Y-73457200D02*
X160765476Y-73409580D01*
X160765476Y-73409580D02*
X160813095Y-73314342D01*
X160813095Y-73314342D02*
X160813095Y-73219104D01*
X160813095Y-73219104D02*
X160765476Y-73123866D01*
X160765476Y-73123866D02*
X160717857Y-73076247D01*
X160717857Y-73076247D02*
X160622619Y-73028628D01*
X160622619Y-73028628D02*
X160432143Y-72981009D01*
X160432143Y-72981009D02*
X160336905Y-72933390D01*
X160336905Y-72933390D02*
X160289286Y-72885771D01*
X160289286Y-72885771D02*
X160241667Y-72790533D01*
X160241667Y-72790533D02*
X160241667Y-72695295D01*
X160241667Y-72695295D02*
X160289286Y-72600057D01*
X160289286Y-72600057D02*
X160336905Y-72552438D01*
X160336905Y-72552438D02*
X160432143Y-72504819D01*
X160432143Y-72504819D02*
X160670238Y-72504819D01*
X160670238Y-72504819D02*
X160813095Y-72552438D01*
X161146429Y-72504819D02*
X161384524Y-73504819D01*
X161384524Y-73504819D02*
X161575000Y-72790533D01*
X161575000Y-72790533D02*
X161765476Y-73504819D01*
X161765476Y-73504819D02*
X162003572Y-72504819D01*
X162908333Y-73504819D02*
X162336905Y-73504819D01*
X162622619Y-73504819D02*
X162622619Y-72504819D01*
X162622619Y-72504819D02*
X162527381Y-72647676D01*
X162527381Y-72647676D02*
X162432143Y-72742914D01*
X162432143Y-72742914D02*
X162336905Y-72790533D01*
X247124819Y-68442857D02*
X246648628Y-68776190D01*
X247124819Y-69014285D02*
X246124819Y-69014285D01*
X246124819Y-69014285D02*
X246124819Y-68633333D01*
X246124819Y-68633333D02*
X246172438Y-68538095D01*
X246172438Y-68538095D02*
X246220057Y-68490476D01*
X246220057Y-68490476D02*
X246315295Y-68442857D01*
X246315295Y-68442857D02*
X246458152Y-68442857D01*
X246458152Y-68442857D02*
X246553390Y-68490476D01*
X246553390Y-68490476D02*
X246601009Y-68538095D01*
X246601009Y-68538095D02*
X246648628Y-68633333D01*
X246648628Y-68633333D02*
X246648628Y-69014285D01*
X246124819Y-68109523D02*
X246124819Y-67490476D01*
X246124819Y-67490476D02*
X246505771Y-67823809D01*
X246505771Y-67823809D02*
X246505771Y-67680952D01*
X246505771Y-67680952D02*
X246553390Y-67585714D01*
X246553390Y-67585714D02*
X246601009Y-67538095D01*
X246601009Y-67538095D02*
X246696247Y-67490476D01*
X246696247Y-67490476D02*
X246934342Y-67490476D01*
X246934342Y-67490476D02*
X247029580Y-67538095D01*
X247029580Y-67538095D02*
X247077200Y-67585714D01*
X247077200Y-67585714D02*
X247124819Y-67680952D01*
X247124819Y-67680952D02*
X247124819Y-67966666D01*
X247124819Y-67966666D02*
X247077200Y-68061904D01*
X247077200Y-68061904D02*
X247029580Y-68109523D01*
X247124819Y-66538095D02*
X247124819Y-67109523D01*
X247124819Y-66823809D02*
X246124819Y-66823809D01*
X246124819Y-66823809D02*
X246267676Y-66919047D01*
X246267676Y-66919047D02*
X246362914Y-67014285D01*
X246362914Y-67014285D02*
X246410533Y-67109523D01*
X243534819Y-68342857D02*
X243058628Y-68676190D01*
X243534819Y-68914285D02*
X242534819Y-68914285D01*
X242534819Y-68914285D02*
X242534819Y-68533333D01*
X242534819Y-68533333D02*
X242582438Y-68438095D01*
X242582438Y-68438095D02*
X242630057Y-68390476D01*
X242630057Y-68390476D02*
X242725295Y-68342857D01*
X242725295Y-68342857D02*
X242868152Y-68342857D01*
X242868152Y-68342857D02*
X242963390Y-68390476D01*
X242963390Y-68390476D02*
X243011009Y-68438095D01*
X243011009Y-68438095D02*
X243058628Y-68533333D01*
X243058628Y-68533333D02*
X243058628Y-68914285D01*
X242534819Y-68009523D02*
X242534819Y-67390476D01*
X242534819Y-67390476D02*
X242915771Y-67723809D01*
X242915771Y-67723809D02*
X242915771Y-67580952D01*
X242915771Y-67580952D02*
X242963390Y-67485714D01*
X242963390Y-67485714D02*
X243011009Y-67438095D01*
X243011009Y-67438095D02*
X243106247Y-67390476D01*
X243106247Y-67390476D02*
X243344342Y-67390476D01*
X243344342Y-67390476D02*
X243439580Y-67438095D01*
X243439580Y-67438095D02*
X243487200Y-67485714D01*
X243487200Y-67485714D02*
X243534819Y-67580952D01*
X243534819Y-67580952D02*
X243534819Y-67866666D01*
X243534819Y-67866666D02*
X243487200Y-67961904D01*
X243487200Y-67961904D02*
X243439580Y-68009523D01*
X242534819Y-66771428D02*
X242534819Y-66676190D01*
X242534819Y-66676190D02*
X242582438Y-66580952D01*
X242582438Y-66580952D02*
X242630057Y-66533333D01*
X242630057Y-66533333D02*
X242725295Y-66485714D01*
X242725295Y-66485714D02*
X242915771Y-66438095D01*
X242915771Y-66438095D02*
X243153866Y-66438095D01*
X243153866Y-66438095D02*
X243344342Y-66485714D01*
X243344342Y-66485714D02*
X243439580Y-66533333D01*
X243439580Y-66533333D02*
X243487200Y-66580952D01*
X243487200Y-66580952D02*
X243534819Y-66676190D01*
X243534819Y-66676190D02*
X243534819Y-66771428D01*
X243534819Y-66771428D02*
X243487200Y-66866666D01*
X243487200Y-66866666D02*
X243439580Y-66914285D01*
X243439580Y-66914285D02*
X243344342Y-66961904D01*
X243344342Y-66961904D02*
X243153866Y-67009523D01*
X243153866Y-67009523D02*
X242915771Y-67009523D01*
X242915771Y-67009523D02*
X242725295Y-66961904D01*
X242725295Y-66961904D02*
X242630057Y-66914285D01*
X242630057Y-66914285D02*
X242582438Y-66866666D01*
X242582438Y-66866666D02*
X242534819Y-66771428D01*
X248047142Y-76224819D02*
X247713809Y-75748628D01*
X247475714Y-76224819D02*
X247475714Y-75224819D01*
X247475714Y-75224819D02*
X247856666Y-75224819D01*
X247856666Y-75224819D02*
X247951904Y-75272438D01*
X247951904Y-75272438D02*
X247999523Y-75320057D01*
X247999523Y-75320057D02*
X248047142Y-75415295D01*
X248047142Y-75415295D02*
X248047142Y-75558152D01*
X248047142Y-75558152D02*
X247999523Y-75653390D01*
X247999523Y-75653390D02*
X247951904Y-75701009D01*
X247951904Y-75701009D02*
X247856666Y-75748628D01*
X247856666Y-75748628D02*
X247475714Y-75748628D01*
X248428095Y-75320057D02*
X248475714Y-75272438D01*
X248475714Y-75272438D02*
X248570952Y-75224819D01*
X248570952Y-75224819D02*
X248809047Y-75224819D01*
X248809047Y-75224819D02*
X248904285Y-75272438D01*
X248904285Y-75272438D02*
X248951904Y-75320057D01*
X248951904Y-75320057D02*
X248999523Y-75415295D01*
X248999523Y-75415295D02*
X248999523Y-75510533D01*
X248999523Y-75510533D02*
X248951904Y-75653390D01*
X248951904Y-75653390D02*
X248380476Y-76224819D01*
X248380476Y-76224819D02*
X248999523Y-76224819D01*
X249475714Y-76224819D02*
X249666190Y-76224819D01*
X249666190Y-76224819D02*
X249761428Y-76177200D01*
X249761428Y-76177200D02*
X249809047Y-76129580D01*
X249809047Y-76129580D02*
X249904285Y-75986723D01*
X249904285Y-75986723D02*
X249951904Y-75796247D01*
X249951904Y-75796247D02*
X249951904Y-75415295D01*
X249951904Y-75415295D02*
X249904285Y-75320057D01*
X249904285Y-75320057D02*
X249856666Y-75272438D01*
X249856666Y-75272438D02*
X249761428Y-75224819D01*
X249761428Y-75224819D02*
X249570952Y-75224819D01*
X249570952Y-75224819D02*
X249475714Y-75272438D01*
X249475714Y-75272438D02*
X249428095Y-75320057D01*
X249428095Y-75320057D02*
X249380476Y-75415295D01*
X249380476Y-75415295D02*
X249380476Y-75653390D01*
X249380476Y-75653390D02*
X249428095Y-75748628D01*
X249428095Y-75748628D02*
X249475714Y-75796247D01*
X249475714Y-75796247D02*
X249570952Y-75843866D01*
X249570952Y-75843866D02*
X249761428Y-75843866D01*
X249761428Y-75843866D02*
X249856666Y-75796247D01*
X249856666Y-75796247D02*
X249904285Y-75748628D01*
X249904285Y-75748628D02*
X249951904Y-75653390D01*
X234054819Y-76480357D02*
X233578628Y-76813690D01*
X234054819Y-77051785D02*
X233054819Y-77051785D01*
X233054819Y-77051785D02*
X233054819Y-76670833D01*
X233054819Y-76670833D02*
X233102438Y-76575595D01*
X233102438Y-76575595D02*
X233150057Y-76527976D01*
X233150057Y-76527976D02*
X233245295Y-76480357D01*
X233245295Y-76480357D02*
X233388152Y-76480357D01*
X233388152Y-76480357D02*
X233483390Y-76527976D01*
X233483390Y-76527976D02*
X233531009Y-76575595D01*
X233531009Y-76575595D02*
X233578628Y-76670833D01*
X233578628Y-76670833D02*
X233578628Y-77051785D01*
X233150057Y-76099404D02*
X233102438Y-76051785D01*
X233102438Y-76051785D02*
X233054819Y-75956547D01*
X233054819Y-75956547D02*
X233054819Y-75718452D01*
X233054819Y-75718452D02*
X233102438Y-75623214D01*
X233102438Y-75623214D02*
X233150057Y-75575595D01*
X233150057Y-75575595D02*
X233245295Y-75527976D01*
X233245295Y-75527976D02*
X233340533Y-75527976D01*
X233340533Y-75527976D02*
X233483390Y-75575595D01*
X233483390Y-75575595D02*
X234054819Y-76147023D01*
X234054819Y-76147023D02*
X234054819Y-75527976D01*
X233483390Y-74956547D02*
X233435771Y-75051785D01*
X233435771Y-75051785D02*
X233388152Y-75099404D01*
X233388152Y-75099404D02*
X233292914Y-75147023D01*
X233292914Y-75147023D02*
X233245295Y-75147023D01*
X233245295Y-75147023D02*
X233150057Y-75099404D01*
X233150057Y-75099404D02*
X233102438Y-75051785D01*
X233102438Y-75051785D02*
X233054819Y-74956547D01*
X233054819Y-74956547D02*
X233054819Y-74766071D01*
X233054819Y-74766071D02*
X233102438Y-74670833D01*
X233102438Y-74670833D02*
X233150057Y-74623214D01*
X233150057Y-74623214D02*
X233245295Y-74575595D01*
X233245295Y-74575595D02*
X233292914Y-74575595D01*
X233292914Y-74575595D02*
X233388152Y-74623214D01*
X233388152Y-74623214D02*
X233435771Y-74670833D01*
X233435771Y-74670833D02*
X233483390Y-74766071D01*
X233483390Y-74766071D02*
X233483390Y-74956547D01*
X233483390Y-74956547D02*
X233531009Y-75051785D01*
X233531009Y-75051785D02*
X233578628Y-75099404D01*
X233578628Y-75099404D02*
X233673866Y-75147023D01*
X233673866Y-75147023D02*
X233864342Y-75147023D01*
X233864342Y-75147023D02*
X233959580Y-75099404D01*
X233959580Y-75099404D02*
X234007200Y-75051785D01*
X234007200Y-75051785D02*
X234054819Y-74956547D01*
X234054819Y-74956547D02*
X234054819Y-74766071D01*
X234054819Y-74766071D02*
X234007200Y-74670833D01*
X234007200Y-74670833D02*
X233959580Y-74623214D01*
X233959580Y-74623214D02*
X233864342Y-74575595D01*
X233864342Y-74575595D02*
X233673866Y-74575595D01*
X233673866Y-74575595D02*
X233578628Y-74623214D01*
X233578628Y-74623214D02*
X233531009Y-74670833D01*
X233531009Y-74670833D02*
X233483390Y-74766071D01*
X248057142Y-77224819D02*
X247723809Y-76748628D01*
X247485714Y-77224819D02*
X247485714Y-76224819D01*
X247485714Y-76224819D02*
X247866666Y-76224819D01*
X247866666Y-76224819D02*
X247961904Y-76272438D01*
X247961904Y-76272438D02*
X248009523Y-76320057D01*
X248009523Y-76320057D02*
X248057142Y-76415295D01*
X248057142Y-76415295D02*
X248057142Y-76558152D01*
X248057142Y-76558152D02*
X248009523Y-76653390D01*
X248009523Y-76653390D02*
X247961904Y-76701009D01*
X247961904Y-76701009D02*
X247866666Y-76748628D01*
X247866666Y-76748628D02*
X247485714Y-76748628D01*
X248438095Y-76320057D02*
X248485714Y-76272438D01*
X248485714Y-76272438D02*
X248580952Y-76224819D01*
X248580952Y-76224819D02*
X248819047Y-76224819D01*
X248819047Y-76224819D02*
X248914285Y-76272438D01*
X248914285Y-76272438D02*
X248961904Y-76320057D01*
X248961904Y-76320057D02*
X249009523Y-76415295D01*
X249009523Y-76415295D02*
X249009523Y-76510533D01*
X249009523Y-76510533D02*
X248961904Y-76653390D01*
X248961904Y-76653390D02*
X248390476Y-77224819D01*
X248390476Y-77224819D02*
X249009523Y-77224819D01*
X249342857Y-76224819D02*
X250009523Y-76224819D01*
X250009523Y-76224819D02*
X249580952Y-77224819D01*
X248007142Y-74474819D02*
X247673809Y-73998628D01*
X247435714Y-74474819D02*
X247435714Y-73474819D01*
X247435714Y-73474819D02*
X247816666Y-73474819D01*
X247816666Y-73474819D02*
X247911904Y-73522438D01*
X247911904Y-73522438D02*
X247959523Y-73570057D01*
X247959523Y-73570057D02*
X248007142Y-73665295D01*
X248007142Y-73665295D02*
X248007142Y-73808152D01*
X248007142Y-73808152D02*
X247959523Y-73903390D01*
X247959523Y-73903390D02*
X247911904Y-73951009D01*
X247911904Y-73951009D02*
X247816666Y-73998628D01*
X247816666Y-73998628D02*
X247435714Y-73998628D01*
X248388095Y-73570057D02*
X248435714Y-73522438D01*
X248435714Y-73522438D02*
X248530952Y-73474819D01*
X248530952Y-73474819D02*
X248769047Y-73474819D01*
X248769047Y-73474819D02*
X248864285Y-73522438D01*
X248864285Y-73522438D02*
X248911904Y-73570057D01*
X248911904Y-73570057D02*
X248959523Y-73665295D01*
X248959523Y-73665295D02*
X248959523Y-73760533D01*
X248959523Y-73760533D02*
X248911904Y-73903390D01*
X248911904Y-73903390D02*
X248340476Y-74474819D01*
X248340476Y-74474819D02*
X248959523Y-74474819D01*
X249816666Y-73474819D02*
X249626190Y-73474819D01*
X249626190Y-73474819D02*
X249530952Y-73522438D01*
X249530952Y-73522438D02*
X249483333Y-73570057D01*
X249483333Y-73570057D02*
X249388095Y-73712914D01*
X249388095Y-73712914D02*
X249340476Y-73903390D01*
X249340476Y-73903390D02*
X249340476Y-74284342D01*
X249340476Y-74284342D02*
X249388095Y-74379580D01*
X249388095Y-74379580D02*
X249435714Y-74427200D01*
X249435714Y-74427200D02*
X249530952Y-74474819D01*
X249530952Y-74474819D02*
X249721428Y-74474819D01*
X249721428Y-74474819D02*
X249816666Y-74427200D01*
X249816666Y-74427200D02*
X249864285Y-74379580D01*
X249864285Y-74379580D02*
X249911904Y-74284342D01*
X249911904Y-74284342D02*
X249911904Y-74046247D01*
X249911904Y-74046247D02*
X249864285Y-73951009D01*
X249864285Y-73951009D02*
X249816666Y-73903390D01*
X249816666Y-73903390D02*
X249721428Y-73855771D01*
X249721428Y-73855771D02*
X249530952Y-73855771D01*
X249530952Y-73855771D02*
X249435714Y-73903390D01*
X249435714Y-73903390D02*
X249388095Y-73951009D01*
X249388095Y-73951009D02*
X249340476Y-74046247D01*
X246697142Y-70084819D02*
X246363809Y-69608628D01*
X246125714Y-70084819D02*
X246125714Y-69084819D01*
X246125714Y-69084819D02*
X246506666Y-69084819D01*
X246506666Y-69084819D02*
X246601904Y-69132438D01*
X246601904Y-69132438D02*
X246649523Y-69180057D01*
X246649523Y-69180057D02*
X246697142Y-69275295D01*
X246697142Y-69275295D02*
X246697142Y-69418152D01*
X246697142Y-69418152D02*
X246649523Y-69513390D01*
X246649523Y-69513390D02*
X246601904Y-69561009D01*
X246601904Y-69561009D02*
X246506666Y-69608628D01*
X246506666Y-69608628D02*
X246125714Y-69608628D01*
X247078095Y-69180057D02*
X247125714Y-69132438D01*
X247125714Y-69132438D02*
X247220952Y-69084819D01*
X247220952Y-69084819D02*
X247459047Y-69084819D01*
X247459047Y-69084819D02*
X247554285Y-69132438D01*
X247554285Y-69132438D02*
X247601904Y-69180057D01*
X247601904Y-69180057D02*
X247649523Y-69275295D01*
X247649523Y-69275295D02*
X247649523Y-69370533D01*
X247649523Y-69370533D02*
X247601904Y-69513390D01*
X247601904Y-69513390D02*
X247030476Y-70084819D01*
X247030476Y-70084819D02*
X247649523Y-70084819D01*
X248554285Y-69084819D02*
X248078095Y-69084819D01*
X248078095Y-69084819D02*
X248030476Y-69561009D01*
X248030476Y-69561009D02*
X248078095Y-69513390D01*
X248078095Y-69513390D02*
X248173333Y-69465771D01*
X248173333Y-69465771D02*
X248411428Y-69465771D01*
X248411428Y-69465771D02*
X248506666Y-69513390D01*
X248506666Y-69513390D02*
X248554285Y-69561009D01*
X248554285Y-69561009D02*
X248601904Y-69656247D01*
X248601904Y-69656247D02*
X248601904Y-69894342D01*
X248601904Y-69894342D02*
X248554285Y-69989580D01*
X248554285Y-69989580D02*
X248506666Y-70037200D01*
X248506666Y-70037200D02*
X248411428Y-70084819D01*
X248411428Y-70084819D02*
X248173333Y-70084819D01*
X248173333Y-70084819D02*
X248078095Y-70037200D01*
X248078095Y-70037200D02*
X248030476Y-69989580D01*
X243572142Y-74149819D02*
X243238809Y-73673628D01*
X243000714Y-74149819D02*
X243000714Y-73149819D01*
X243000714Y-73149819D02*
X243381666Y-73149819D01*
X243381666Y-73149819D02*
X243476904Y-73197438D01*
X243476904Y-73197438D02*
X243524523Y-73245057D01*
X243524523Y-73245057D02*
X243572142Y-73340295D01*
X243572142Y-73340295D02*
X243572142Y-73483152D01*
X243572142Y-73483152D02*
X243524523Y-73578390D01*
X243524523Y-73578390D02*
X243476904Y-73626009D01*
X243476904Y-73626009D02*
X243381666Y-73673628D01*
X243381666Y-73673628D02*
X243000714Y-73673628D01*
X243953095Y-73245057D02*
X244000714Y-73197438D01*
X244000714Y-73197438D02*
X244095952Y-73149819D01*
X244095952Y-73149819D02*
X244334047Y-73149819D01*
X244334047Y-73149819D02*
X244429285Y-73197438D01*
X244429285Y-73197438D02*
X244476904Y-73245057D01*
X244476904Y-73245057D02*
X244524523Y-73340295D01*
X244524523Y-73340295D02*
X244524523Y-73435533D01*
X244524523Y-73435533D02*
X244476904Y-73578390D01*
X244476904Y-73578390D02*
X243905476Y-74149819D01*
X243905476Y-74149819D02*
X244524523Y-74149819D01*
X245381666Y-73483152D02*
X245381666Y-74149819D01*
X245143571Y-73102200D02*
X244905476Y-73816485D01*
X244905476Y-73816485D02*
X245524523Y-73816485D01*
X227774819Y-73832857D02*
X227298628Y-74166190D01*
X227774819Y-74404285D02*
X226774819Y-74404285D01*
X226774819Y-74404285D02*
X226774819Y-74023333D01*
X226774819Y-74023333D02*
X226822438Y-73928095D01*
X226822438Y-73928095D02*
X226870057Y-73880476D01*
X226870057Y-73880476D02*
X226965295Y-73832857D01*
X226965295Y-73832857D02*
X227108152Y-73832857D01*
X227108152Y-73832857D02*
X227203390Y-73880476D01*
X227203390Y-73880476D02*
X227251009Y-73928095D01*
X227251009Y-73928095D02*
X227298628Y-74023333D01*
X227298628Y-74023333D02*
X227298628Y-74404285D01*
X226870057Y-73451904D02*
X226822438Y-73404285D01*
X226822438Y-73404285D02*
X226774819Y-73309047D01*
X226774819Y-73309047D02*
X226774819Y-73070952D01*
X226774819Y-73070952D02*
X226822438Y-72975714D01*
X226822438Y-72975714D02*
X226870057Y-72928095D01*
X226870057Y-72928095D02*
X226965295Y-72880476D01*
X226965295Y-72880476D02*
X227060533Y-72880476D01*
X227060533Y-72880476D02*
X227203390Y-72928095D01*
X227203390Y-72928095D02*
X227774819Y-73499523D01*
X227774819Y-73499523D02*
X227774819Y-72880476D01*
X226774819Y-72547142D02*
X226774819Y-71928095D01*
X226774819Y-71928095D02*
X227155771Y-72261428D01*
X227155771Y-72261428D02*
X227155771Y-72118571D01*
X227155771Y-72118571D02*
X227203390Y-72023333D01*
X227203390Y-72023333D02*
X227251009Y-71975714D01*
X227251009Y-71975714D02*
X227346247Y-71928095D01*
X227346247Y-71928095D02*
X227584342Y-71928095D01*
X227584342Y-71928095D02*
X227679580Y-71975714D01*
X227679580Y-71975714D02*
X227727200Y-72023333D01*
X227727200Y-72023333D02*
X227774819Y-72118571D01*
X227774819Y-72118571D02*
X227774819Y-72404285D01*
X227774819Y-72404285D02*
X227727200Y-72499523D01*
X227727200Y-72499523D02*
X227679580Y-72547142D01*
X245474819Y-71692857D02*
X244998628Y-72026190D01*
X245474819Y-72264285D02*
X244474819Y-72264285D01*
X244474819Y-72264285D02*
X244474819Y-71883333D01*
X244474819Y-71883333D02*
X244522438Y-71788095D01*
X244522438Y-71788095D02*
X244570057Y-71740476D01*
X244570057Y-71740476D02*
X244665295Y-71692857D01*
X244665295Y-71692857D02*
X244808152Y-71692857D01*
X244808152Y-71692857D02*
X244903390Y-71740476D01*
X244903390Y-71740476D02*
X244951009Y-71788095D01*
X244951009Y-71788095D02*
X244998628Y-71883333D01*
X244998628Y-71883333D02*
X244998628Y-72264285D01*
X244570057Y-71311904D02*
X244522438Y-71264285D01*
X244522438Y-71264285D02*
X244474819Y-71169047D01*
X244474819Y-71169047D02*
X244474819Y-70930952D01*
X244474819Y-70930952D02*
X244522438Y-70835714D01*
X244522438Y-70835714D02*
X244570057Y-70788095D01*
X244570057Y-70788095D02*
X244665295Y-70740476D01*
X244665295Y-70740476D02*
X244760533Y-70740476D01*
X244760533Y-70740476D02*
X244903390Y-70788095D01*
X244903390Y-70788095D02*
X245474819Y-71359523D01*
X245474819Y-71359523D02*
X245474819Y-70740476D01*
X244570057Y-70359523D02*
X244522438Y-70311904D01*
X244522438Y-70311904D02*
X244474819Y-70216666D01*
X244474819Y-70216666D02*
X244474819Y-69978571D01*
X244474819Y-69978571D02*
X244522438Y-69883333D01*
X244522438Y-69883333D02*
X244570057Y-69835714D01*
X244570057Y-69835714D02*
X244665295Y-69788095D01*
X244665295Y-69788095D02*
X244760533Y-69788095D01*
X244760533Y-69788095D02*
X244903390Y-69835714D01*
X244903390Y-69835714D02*
X245474819Y-70407142D01*
X245474819Y-70407142D02*
X245474819Y-69788095D01*
X240684819Y-75192857D02*
X240208628Y-75526190D01*
X240684819Y-75764285D02*
X239684819Y-75764285D01*
X239684819Y-75764285D02*
X239684819Y-75383333D01*
X239684819Y-75383333D02*
X239732438Y-75288095D01*
X239732438Y-75288095D02*
X239780057Y-75240476D01*
X239780057Y-75240476D02*
X239875295Y-75192857D01*
X239875295Y-75192857D02*
X240018152Y-75192857D01*
X240018152Y-75192857D02*
X240113390Y-75240476D01*
X240113390Y-75240476D02*
X240161009Y-75288095D01*
X240161009Y-75288095D02*
X240208628Y-75383333D01*
X240208628Y-75383333D02*
X240208628Y-75764285D01*
X239780057Y-74811904D02*
X239732438Y-74764285D01*
X239732438Y-74764285D02*
X239684819Y-74669047D01*
X239684819Y-74669047D02*
X239684819Y-74430952D01*
X239684819Y-74430952D02*
X239732438Y-74335714D01*
X239732438Y-74335714D02*
X239780057Y-74288095D01*
X239780057Y-74288095D02*
X239875295Y-74240476D01*
X239875295Y-74240476D02*
X239970533Y-74240476D01*
X239970533Y-74240476D02*
X240113390Y-74288095D01*
X240113390Y-74288095D02*
X240684819Y-74859523D01*
X240684819Y-74859523D02*
X240684819Y-74240476D01*
X240684819Y-73288095D02*
X240684819Y-73859523D01*
X240684819Y-73573809D02*
X239684819Y-73573809D01*
X239684819Y-73573809D02*
X239827676Y-73669047D01*
X239827676Y-73669047D02*
X239922914Y-73764285D01*
X239922914Y-73764285D02*
X239970533Y-73859523D01*
X221607142Y-69774819D02*
X221273809Y-69298628D01*
X221035714Y-69774819D02*
X221035714Y-68774819D01*
X221035714Y-68774819D02*
X221416666Y-68774819D01*
X221416666Y-68774819D02*
X221511904Y-68822438D01*
X221511904Y-68822438D02*
X221559523Y-68870057D01*
X221559523Y-68870057D02*
X221607142Y-68965295D01*
X221607142Y-68965295D02*
X221607142Y-69108152D01*
X221607142Y-69108152D02*
X221559523Y-69203390D01*
X221559523Y-69203390D02*
X221511904Y-69251009D01*
X221511904Y-69251009D02*
X221416666Y-69298628D01*
X221416666Y-69298628D02*
X221035714Y-69298628D01*
X221988095Y-68870057D02*
X222035714Y-68822438D01*
X222035714Y-68822438D02*
X222130952Y-68774819D01*
X222130952Y-68774819D02*
X222369047Y-68774819D01*
X222369047Y-68774819D02*
X222464285Y-68822438D01*
X222464285Y-68822438D02*
X222511904Y-68870057D01*
X222511904Y-68870057D02*
X222559523Y-68965295D01*
X222559523Y-68965295D02*
X222559523Y-69060533D01*
X222559523Y-69060533D02*
X222511904Y-69203390D01*
X222511904Y-69203390D02*
X221940476Y-69774819D01*
X221940476Y-69774819D02*
X222559523Y-69774819D01*
X223178571Y-68774819D02*
X223273809Y-68774819D01*
X223273809Y-68774819D02*
X223369047Y-68822438D01*
X223369047Y-68822438D02*
X223416666Y-68870057D01*
X223416666Y-68870057D02*
X223464285Y-68965295D01*
X223464285Y-68965295D02*
X223511904Y-69155771D01*
X223511904Y-69155771D02*
X223511904Y-69393866D01*
X223511904Y-69393866D02*
X223464285Y-69584342D01*
X223464285Y-69584342D02*
X223416666Y-69679580D01*
X223416666Y-69679580D02*
X223369047Y-69727200D01*
X223369047Y-69727200D02*
X223273809Y-69774819D01*
X223273809Y-69774819D02*
X223178571Y-69774819D01*
X223178571Y-69774819D02*
X223083333Y-69727200D01*
X223083333Y-69727200D02*
X223035714Y-69679580D01*
X223035714Y-69679580D02*
X222988095Y-69584342D01*
X222988095Y-69584342D02*
X222940476Y-69393866D01*
X222940476Y-69393866D02*
X222940476Y-69155771D01*
X222940476Y-69155771D02*
X222988095Y-68965295D01*
X222988095Y-68965295D02*
X223035714Y-68870057D01*
X223035714Y-68870057D02*
X223083333Y-68822438D01*
X223083333Y-68822438D02*
X223178571Y-68774819D01*
X179234819Y-76812857D02*
X178758628Y-77146190D01*
X179234819Y-77384285D02*
X178234819Y-77384285D01*
X178234819Y-77384285D02*
X178234819Y-77003333D01*
X178234819Y-77003333D02*
X178282438Y-76908095D01*
X178282438Y-76908095D02*
X178330057Y-76860476D01*
X178330057Y-76860476D02*
X178425295Y-76812857D01*
X178425295Y-76812857D02*
X178568152Y-76812857D01*
X178568152Y-76812857D02*
X178663390Y-76860476D01*
X178663390Y-76860476D02*
X178711009Y-76908095D01*
X178711009Y-76908095D02*
X178758628Y-77003333D01*
X178758628Y-77003333D02*
X178758628Y-77384285D01*
X179234819Y-75860476D02*
X179234819Y-76431904D01*
X179234819Y-76146190D02*
X178234819Y-76146190D01*
X178234819Y-76146190D02*
X178377676Y-76241428D01*
X178377676Y-76241428D02*
X178472914Y-76336666D01*
X178472914Y-76336666D02*
X178520533Y-76431904D01*
X179234819Y-75384285D02*
X179234819Y-75193809D01*
X179234819Y-75193809D02*
X179187200Y-75098571D01*
X179187200Y-75098571D02*
X179139580Y-75050952D01*
X179139580Y-75050952D02*
X178996723Y-74955714D01*
X178996723Y-74955714D02*
X178806247Y-74908095D01*
X178806247Y-74908095D02*
X178425295Y-74908095D01*
X178425295Y-74908095D02*
X178330057Y-74955714D01*
X178330057Y-74955714D02*
X178282438Y-75003333D01*
X178282438Y-75003333D02*
X178234819Y-75098571D01*
X178234819Y-75098571D02*
X178234819Y-75289047D01*
X178234819Y-75289047D02*
X178282438Y-75384285D01*
X178282438Y-75384285D02*
X178330057Y-75431904D01*
X178330057Y-75431904D02*
X178425295Y-75479523D01*
X178425295Y-75479523D02*
X178663390Y-75479523D01*
X178663390Y-75479523D02*
X178758628Y-75431904D01*
X178758628Y-75431904D02*
X178806247Y-75384285D01*
X178806247Y-75384285D02*
X178853866Y-75289047D01*
X178853866Y-75289047D02*
X178853866Y-75098571D01*
X178853866Y-75098571D02*
X178806247Y-75003333D01*
X178806247Y-75003333D02*
X178758628Y-74955714D01*
X178758628Y-74955714D02*
X178663390Y-74908095D01*
X174324819Y-78735857D02*
X173848628Y-79069190D01*
X174324819Y-79307285D02*
X173324819Y-79307285D01*
X173324819Y-79307285D02*
X173324819Y-78926333D01*
X173324819Y-78926333D02*
X173372438Y-78831095D01*
X173372438Y-78831095D02*
X173420057Y-78783476D01*
X173420057Y-78783476D02*
X173515295Y-78735857D01*
X173515295Y-78735857D02*
X173658152Y-78735857D01*
X173658152Y-78735857D02*
X173753390Y-78783476D01*
X173753390Y-78783476D02*
X173801009Y-78831095D01*
X173801009Y-78831095D02*
X173848628Y-78926333D01*
X173848628Y-78926333D02*
X173848628Y-79307285D01*
X174324819Y-77783476D02*
X174324819Y-78354904D01*
X174324819Y-78069190D02*
X173324819Y-78069190D01*
X173324819Y-78069190D02*
X173467676Y-78164428D01*
X173467676Y-78164428D02*
X173562914Y-78259666D01*
X173562914Y-78259666D02*
X173610533Y-78354904D01*
X173753390Y-77212047D02*
X173705771Y-77307285D01*
X173705771Y-77307285D02*
X173658152Y-77354904D01*
X173658152Y-77354904D02*
X173562914Y-77402523D01*
X173562914Y-77402523D02*
X173515295Y-77402523D01*
X173515295Y-77402523D02*
X173420057Y-77354904D01*
X173420057Y-77354904D02*
X173372438Y-77307285D01*
X173372438Y-77307285D02*
X173324819Y-77212047D01*
X173324819Y-77212047D02*
X173324819Y-77021571D01*
X173324819Y-77021571D02*
X173372438Y-76926333D01*
X173372438Y-76926333D02*
X173420057Y-76878714D01*
X173420057Y-76878714D02*
X173515295Y-76831095D01*
X173515295Y-76831095D02*
X173562914Y-76831095D01*
X173562914Y-76831095D02*
X173658152Y-76878714D01*
X173658152Y-76878714D02*
X173705771Y-76926333D01*
X173705771Y-76926333D02*
X173753390Y-77021571D01*
X173753390Y-77021571D02*
X173753390Y-77212047D01*
X173753390Y-77212047D02*
X173801009Y-77307285D01*
X173801009Y-77307285D02*
X173848628Y-77354904D01*
X173848628Y-77354904D02*
X173943866Y-77402523D01*
X173943866Y-77402523D02*
X174134342Y-77402523D01*
X174134342Y-77402523D02*
X174229580Y-77354904D01*
X174229580Y-77354904D02*
X174277200Y-77307285D01*
X174277200Y-77307285D02*
X174324819Y-77212047D01*
X174324819Y-77212047D02*
X174324819Y-77021571D01*
X174324819Y-77021571D02*
X174277200Y-76926333D01*
X174277200Y-76926333D02*
X174229580Y-76878714D01*
X174229580Y-76878714D02*
X174134342Y-76831095D01*
X174134342Y-76831095D02*
X173943866Y-76831095D01*
X173943866Y-76831095D02*
X173848628Y-76878714D01*
X173848628Y-76878714D02*
X173801009Y-76926333D01*
X173801009Y-76926333D02*
X173753390Y-77021571D01*
X168817142Y-76124819D02*
X168483809Y-75648628D01*
X168245714Y-76124819D02*
X168245714Y-75124819D01*
X168245714Y-75124819D02*
X168626666Y-75124819D01*
X168626666Y-75124819D02*
X168721904Y-75172438D01*
X168721904Y-75172438D02*
X168769523Y-75220057D01*
X168769523Y-75220057D02*
X168817142Y-75315295D01*
X168817142Y-75315295D02*
X168817142Y-75458152D01*
X168817142Y-75458152D02*
X168769523Y-75553390D01*
X168769523Y-75553390D02*
X168721904Y-75601009D01*
X168721904Y-75601009D02*
X168626666Y-75648628D01*
X168626666Y-75648628D02*
X168245714Y-75648628D01*
X169769523Y-76124819D02*
X169198095Y-76124819D01*
X169483809Y-76124819D02*
X169483809Y-75124819D01*
X169483809Y-75124819D02*
X169388571Y-75267676D01*
X169388571Y-75267676D02*
X169293333Y-75362914D01*
X169293333Y-75362914D02*
X169198095Y-75410533D01*
X170102857Y-75124819D02*
X170769523Y-75124819D01*
X170769523Y-75124819D02*
X170340952Y-76124819D01*
X161507142Y-72784819D02*
X161173809Y-72308628D01*
X160935714Y-72784819D02*
X160935714Y-71784819D01*
X160935714Y-71784819D02*
X161316666Y-71784819D01*
X161316666Y-71784819D02*
X161411904Y-71832438D01*
X161411904Y-71832438D02*
X161459523Y-71880057D01*
X161459523Y-71880057D02*
X161507142Y-71975295D01*
X161507142Y-71975295D02*
X161507142Y-72118152D01*
X161507142Y-72118152D02*
X161459523Y-72213390D01*
X161459523Y-72213390D02*
X161411904Y-72261009D01*
X161411904Y-72261009D02*
X161316666Y-72308628D01*
X161316666Y-72308628D02*
X160935714Y-72308628D01*
X162459523Y-72784819D02*
X161888095Y-72784819D01*
X162173809Y-72784819D02*
X162173809Y-71784819D01*
X162173809Y-71784819D02*
X162078571Y-71927676D01*
X162078571Y-71927676D02*
X161983333Y-72022914D01*
X161983333Y-72022914D02*
X161888095Y-72070533D01*
X163316666Y-71784819D02*
X163126190Y-71784819D01*
X163126190Y-71784819D02*
X163030952Y-71832438D01*
X163030952Y-71832438D02*
X162983333Y-71880057D01*
X162983333Y-71880057D02*
X162888095Y-72022914D01*
X162888095Y-72022914D02*
X162840476Y-72213390D01*
X162840476Y-72213390D02*
X162840476Y-72594342D01*
X162840476Y-72594342D02*
X162888095Y-72689580D01*
X162888095Y-72689580D02*
X162935714Y-72737200D01*
X162935714Y-72737200D02*
X163030952Y-72784819D01*
X163030952Y-72784819D02*
X163221428Y-72784819D01*
X163221428Y-72784819D02*
X163316666Y-72737200D01*
X163316666Y-72737200D02*
X163364285Y-72689580D01*
X163364285Y-72689580D02*
X163411904Y-72594342D01*
X163411904Y-72594342D02*
X163411904Y-72356247D01*
X163411904Y-72356247D02*
X163364285Y-72261009D01*
X163364285Y-72261009D02*
X163316666Y-72213390D01*
X163316666Y-72213390D02*
X163221428Y-72165771D01*
X163221428Y-72165771D02*
X163030952Y-72165771D01*
X163030952Y-72165771D02*
X162935714Y-72213390D01*
X162935714Y-72213390D02*
X162888095Y-72261009D01*
X162888095Y-72261009D02*
X162840476Y-72356247D01*
X170917142Y-76124819D02*
X170583809Y-75648628D01*
X170345714Y-76124819D02*
X170345714Y-75124819D01*
X170345714Y-75124819D02*
X170726666Y-75124819D01*
X170726666Y-75124819D02*
X170821904Y-75172438D01*
X170821904Y-75172438D02*
X170869523Y-75220057D01*
X170869523Y-75220057D02*
X170917142Y-75315295D01*
X170917142Y-75315295D02*
X170917142Y-75458152D01*
X170917142Y-75458152D02*
X170869523Y-75553390D01*
X170869523Y-75553390D02*
X170821904Y-75601009D01*
X170821904Y-75601009D02*
X170726666Y-75648628D01*
X170726666Y-75648628D02*
X170345714Y-75648628D01*
X171869523Y-76124819D02*
X171298095Y-76124819D01*
X171583809Y-76124819D02*
X171583809Y-75124819D01*
X171583809Y-75124819D02*
X171488571Y-75267676D01*
X171488571Y-75267676D02*
X171393333Y-75362914D01*
X171393333Y-75362914D02*
X171298095Y-75410533D01*
X172774285Y-75124819D02*
X172298095Y-75124819D01*
X172298095Y-75124819D02*
X172250476Y-75601009D01*
X172250476Y-75601009D02*
X172298095Y-75553390D01*
X172298095Y-75553390D02*
X172393333Y-75505771D01*
X172393333Y-75505771D02*
X172631428Y-75505771D01*
X172631428Y-75505771D02*
X172726666Y-75553390D01*
X172726666Y-75553390D02*
X172774285Y-75601009D01*
X172774285Y-75601009D02*
X172821904Y-75696247D01*
X172821904Y-75696247D02*
X172821904Y-75934342D01*
X172821904Y-75934342D02*
X172774285Y-76029580D01*
X172774285Y-76029580D02*
X172726666Y-76077200D01*
X172726666Y-76077200D02*
X172631428Y-76124819D01*
X172631428Y-76124819D02*
X172393333Y-76124819D01*
X172393333Y-76124819D02*
X172298095Y-76077200D01*
X172298095Y-76077200D02*
X172250476Y-76029580D01*
X190657142Y-81084819D02*
X190323809Y-80608628D01*
X190085714Y-81084819D02*
X190085714Y-80084819D01*
X190085714Y-80084819D02*
X190466666Y-80084819D01*
X190466666Y-80084819D02*
X190561904Y-80132438D01*
X190561904Y-80132438D02*
X190609523Y-80180057D01*
X190609523Y-80180057D02*
X190657142Y-80275295D01*
X190657142Y-80275295D02*
X190657142Y-80418152D01*
X190657142Y-80418152D02*
X190609523Y-80513390D01*
X190609523Y-80513390D02*
X190561904Y-80561009D01*
X190561904Y-80561009D02*
X190466666Y-80608628D01*
X190466666Y-80608628D02*
X190085714Y-80608628D01*
X191609523Y-81084819D02*
X191038095Y-81084819D01*
X191323809Y-81084819D02*
X191323809Y-80084819D01*
X191323809Y-80084819D02*
X191228571Y-80227676D01*
X191228571Y-80227676D02*
X191133333Y-80322914D01*
X191133333Y-80322914D02*
X191038095Y-80370533D01*
X192466666Y-80418152D02*
X192466666Y-81084819D01*
X192228571Y-80037200D02*
X191990476Y-80751485D01*
X191990476Y-80751485D02*
X192609523Y-80751485D01*
X170647142Y-55434819D02*
X170313809Y-54958628D01*
X170075714Y-55434819D02*
X170075714Y-54434819D01*
X170075714Y-54434819D02*
X170456666Y-54434819D01*
X170456666Y-54434819D02*
X170551904Y-54482438D01*
X170551904Y-54482438D02*
X170599523Y-54530057D01*
X170599523Y-54530057D02*
X170647142Y-54625295D01*
X170647142Y-54625295D02*
X170647142Y-54768152D01*
X170647142Y-54768152D02*
X170599523Y-54863390D01*
X170599523Y-54863390D02*
X170551904Y-54911009D01*
X170551904Y-54911009D02*
X170456666Y-54958628D01*
X170456666Y-54958628D02*
X170075714Y-54958628D01*
X171599523Y-55434819D02*
X171028095Y-55434819D01*
X171313809Y-55434819D02*
X171313809Y-54434819D01*
X171313809Y-54434819D02*
X171218571Y-54577676D01*
X171218571Y-54577676D02*
X171123333Y-54672914D01*
X171123333Y-54672914D02*
X171028095Y-54720533D01*
X171932857Y-54434819D02*
X172551904Y-54434819D01*
X172551904Y-54434819D02*
X172218571Y-54815771D01*
X172218571Y-54815771D02*
X172361428Y-54815771D01*
X172361428Y-54815771D02*
X172456666Y-54863390D01*
X172456666Y-54863390D02*
X172504285Y-54911009D01*
X172504285Y-54911009D02*
X172551904Y-55006247D01*
X172551904Y-55006247D02*
X172551904Y-55244342D01*
X172551904Y-55244342D02*
X172504285Y-55339580D01*
X172504285Y-55339580D02*
X172456666Y-55387200D01*
X172456666Y-55387200D02*
X172361428Y-55434819D01*
X172361428Y-55434819D02*
X172075714Y-55434819D01*
X172075714Y-55434819D02*
X171980476Y-55387200D01*
X171980476Y-55387200D02*
X171932857Y-55339580D01*
X168624819Y-68742857D02*
X168148628Y-69076190D01*
X168624819Y-69314285D02*
X167624819Y-69314285D01*
X167624819Y-69314285D02*
X167624819Y-68933333D01*
X167624819Y-68933333D02*
X167672438Y-68838095D01*
X167672438Y-68838095D02*
X167720057Y-68790476D01*
X167720057Y-68790476D02*
X167815295Y-68742857D01*
X167815295Y-68742857D02*
X167958152Y-68742857D01*
X167958152Y-68742857D02*
X168053390Y-68790476D01*
X168053390Y-68790476D02*
X168101009Y-68838095D01*
X168101009Y-68838095D02*
X168148628Y-68933333D01*
X168148628Y-68933333D02*
X168148628Y-69314285D01*
X168624819Y-67790476D02*
X168624819Y-68361904D01*
X168624819Y-68076190D02*
X167624819Y-68076190D01*
X167624819Y-68076190D02*
X167767676Y-68171428D01*
X167767676Y-68171428D02*
X167862914Y-68266666D01*
X167862914Y-68266666D02*
X167910533Y-68361904D01*
X167720057Y-67409523D02*
X167672438Y-67361904D01*
X167672438Y-67361904D02*
X167624819Y-67266666D01*
X167624819Y-67266666D02*
X167624819Y-67028571D01*
X167624819Y-67028571D02*
X167672438Y-66933333D01*
X167672438Y-66933333D02*
X167720057Y-66885714D01*
X167720057Y-66885714D02*
X167815295Y-66838095D01*
X167815295Y-66838095D02*
X167910533Y-66838095D01*
X167910533Y-66838095D02*
X168053390Y-66885714D01*
X168053390Y-66885714D02*
X168624819Y-67457142D01*
X168624819Y-67457142D02*
X168624819Y-66838095D01*
X208534819Y-79782857D02*
X208058628Y-80116190D01*
X208534819Y-80354285D02*
X207534819Y-80354285D01*
X207534819Y-80354285D02*
X207534819Y-79973333D01*
X207534819Y-79973333D02*
X207582438Y-79878095D01*
X207582438Y-79878095D02*
X207630057Y-79830476D01*
X207630057Y-79830476D02*
X207725295Y-79782857D01*
X207725295Y-79782857D02*
X207868152Y-79782857D01*
X207868152Y-79782857D02*
X207963390Y-79830476D01*
X207963390Y-79830476D02*
X208011009Y-79878095D01*
X208011009Y-79878095D02*
X208058628Y-79973333D01*
X208058628Y-79973333D02*
X208058628Y-80354285D01*
X208534819Y-78830476D02*
X208534819Y-79401904D01*
X208534819Y-79116190D02*
X207534819Y-79116190D01*
X207534819Y-79116190D02*
X207677676Y-79211428D01*
X207677676Y-79211428D02*
X207772914Y-79306666D01*
X207772914Y-79306666D02*
X207820533Y-79401904D01*
X208534819Y-77878095D02*
X208534819Y-78449523D01*
X208534819Y-78163809D02*
X207534819Y-78163809D01*
X207534819Y-78163809D02*
X207677676Y-78259047D01*
X207677676Y-78259047D02*
X207772914Y-78354285D01*
X207772914Y-78354285D02*
X207820533Y-78449523D01*
X164957142Y-67234819D02*
X164623809Y-66758628D01*
X164385714Y-67234819D02*
X164385714Y-66234819D01*
X164385714Y-66234819D02*
X164766666Y-66234819D01*
X164766666Y-66234819D02*
X164861904Y-66282438D01*
X164861904Y-66282438D02*
X164909523Y-66330057D01*
X164909523Y-66330057D02*
X164957142Y-66425295D01*
X164957142Y-66425295D02*
X164957142Y-66568152D01*
X164957142Y-66568152D02*
X164909523Y-66663390D01*
X164909523Y-66663390D02*
X164861904Y-66711009D01*
X164861904Y-66711009D02*
X164766666Y-66758628D01*
X164766666Y-66758628D02*
X164385714Y-66758628D01*
X165909523Y-67234819D02*
X165338095Y-67234819D01*
X165623809Y-67234819D02*
X165623809Y-66234819D01*
X165623809Y-66234819D02*
X165528571Y-66377676D01*
X165528571Y-66377676D02*
X165433333Y-66472914D01*
X165433333Y-66472914D02*
X165338095Y-66520533D01*
X166528571Y-66234819D02*
X166623809Y-66234819D01*
X166623809Y-66234819D02*
X166719047Y-66282438D01*
X166719047Y-66282438D02*
X166766666Y-66330057D01*
X166766666Y-66330057D02*
X166814285Y-66425295D01*
X166814285Y-66425295D02*
X166861904Y-66615771D01*
X166861904Y-66615771D02*
X166861904Y-66853866D01*
X166861904Y-66853866D02*
X166814285Y-67044342D01*
X166814285Y-67044342D02*
X166766666Y-67139580D01*
X166766666Y-67139580D02*
X166719047Y-67187200D01*
X166719047Y-67187200D02*
X166623809Y-67234819D01*
X166623809Y-67234819D02*
X166528571Y-67234819D01*
X166528571Y-67234819D02*
X166433333Y-67187200D01*
X166433333Y-67187200D02*
X166385714Y-67139580D01*
X166385714Y-67139580D02*
X166338095Y-67044342D01*
X166338095Y-67044342D02*
X166290476Y-66853866D01*
X166290476Y-66853866D02*
X166290476Y-66615771D01*
X166290476Y-66615771D02*
X166338095Y-66425295D01*
X166338095Y-66425295D02*
X166385714Y-66330057D01*
X166385714Y-66330057D02*
X166433333Y-66282438D01*
X166433333Y-66282438D02*
X166528571Y-66234819D01*
X164643333Y-65484819D02*
X164310000Y-65008628D01*
X164071905Y-65484819D02*
X164071905Y-64484819D01*
X164071905Y-64484819D02*
X164452857Y-64484819D01*
X164452857Y-64484819D02*
X164548095Y-64532438D01*
X164548095Y-64532438D02*
X164595714Y-64580057D01*
X164595714Y-64580057D02*
X164643333Y-64675295D01*
X164643333Y-64675295D02*
X164643333Y-64818152D01*
X164643333Y-64818152D02*
X164595714Y-64913390D01*
X164595714Y-64913390D02*
X164548095Y-64961009D01*
X164548095Y-64961009D02*
X164452857Y-65008628D01*
X164452857Y-65008628D02*
X164071905Y-65008628D01*
X165119524Y-65484819D02*
X165310000Y-65484819D01*
X165310000Y-65484819D02*
X165405238Y-65437200D01*
X165405238Y-65437200D02*
X165452857Y-65389580D01*
X165452857Y-65389580D02*
X165548095Y-65246723D01*
X165548095Y-65246723D02*
X165595714Y-65056247D01*
X165595714Y-65056247D02*
X165595714Y-64675295D01*
X165595714Y-64675295D02*
X165548095Y-64580057D01*
X165548095Y-64580057D02*
X165500476Y-64532438D01*
X165500476Y-64532438D02*
X165405238Y-64484819D01*
X165405238Y-64484819D02*
X165214762Y-64484819D01*
X165214762Y-64484819D02*
X165119524Y-64532438D01*
X165119524Y-64532438D02*
X165071905Y-64580057D01*
X165071905Y-64580057D02*
X165024286Y-64675295D01*
X165024286Y-64675295D02*
X165024286Y-64913390D01*
X165024286Y-64913390D02*
X165071905Y-65008628D01*
X165071905Y-65008628D02*
X165119524Y-65056247D01*
X165119524Y-65056247D02*
X165214762Y-65103866D01*
X165214762Y-65103866D02*
X165405238Y-65103866D01*
X165405238Y-65103866D02*
X165500476Y-65056247D01*
X165500476Y-65056247D02*
X165548095Y-65008628D01*
X165548095Y-65008628D02*
X165595714Y-64913390D01*
X213433333Y-57284819D02*
X213100000Y-56808628D01*
X212861905Y-57284819D02*
X212861905Y-56284819D01*
X212861905Y-56284819D02*
X213242857Y-56284819D01*
X213242857Y-56284819D02*
X213338095Y-56332438D01*
X213338095Y-56332438D02*
X213385714Y-56380057D01*
X213385714Y-56380057D02*
X213433333Y-56475295D01*
X213433333Y-56475295D02*
X213433333Y-56618152D01*
X213433333Y-56618152D02*
X213385714Y-56713390D01*
X213385714Y-56713390D02*
X213338095Y-56761009D01*
X213338095Y-56761009D02*
X213242857Y-56808628D01*
X213242857Y-56808628D02*
X212861905Y-56808628D01*
X214004762Y-56713390D02*
X213909524Y-56665771D01*
X213909524Y-56665771D02*
X213861905Y-56618152D01*
X213861905Y-56618152D02*
X213814286Y-56522914D01*
X213814286Y-56522914D02*
X213814286Y-56475295D01*
X213814286Y-56475295D02*
X213861905Y-56380057D01*
X213861905Y-56380057D02*
X213909524Y-56332438D01*
X213909524Y-56332438D02*
X214004762Y-56284819D01*
X214004762Y-56284819D02*
X214195238Y-56284819D01*
X214195238Y-56284819D02*
X214290476Y-56332438D01*
X214290476Y-56332438D02*
X214338095Y-56380057D01*
X214338095Y-56380057D02*
X214385714Y-56475295D01*
X214385714Y-56475295D02*
X214385714Y-56522914D01*
X214385714Y-56522914D02*
X214338095Y-56618152D01*
X214338095Y-56618152D02*
X214290476Y-56665771D01*
X214290476Y-56665771D02*
X214195238Y-56713390D01*
X214195238Y-56713390D02*
X214004762Y-56713390D01*
X214004762Y-56713390D02*
X213909524Y-56761009D01*
X213909524Y-56761009D02*
X213861905Y-56808628D01*
X213861905Y-56808628D02*
X213814286Y-56903866D01*
X213814286Y-56903866D02*
X213814286Y-57094342D01*
X213814286Y-57094342D02*
X213861905Y-57189580D01*
X213861905Y-57189580D02*
X213909524Y-57237200D01*
X213909524Y-57237200D02*
X214004762Y-57284819D01*
X214004762Y-57284819D02*
X214195238Y-57284819D01*
X214195238Y-57284819D02*
X214290476Y-57237200D01*
X214290476Y-57237200D02*
X214338095Y-57189580D01*
X214338095Y-57189580D02*
X214385714Y-57094342D01*
X214385714Y-57094342D02*
X214385714Y-56903866D01*
X214385714Y-56903866D02*
X214338095Y-56808628D01*
X214338095Y-56808628D02*
X214290476Y-56761009D01*
X214290476Y-56761009D02*
X214195238Y-56713390D01*
X163884819Y-58166666D02*
X163408628Y-58499999D01*
X163884819Y-58738094D02*
X162884819Y-58738094D01*
X162884819Y-58738094D02*
X162884819Y-58357142D01*
X162884819Y-58357142D02*
X162932438Y-58261904D01*
X162932438Y-58261904D02*
X162980057Y-58214285D01*
X162980057Y-58214285D02*
X163075295Y-58166666D01*
X163075295Y-58166666D02*
X163218152Y-58166666D01*
X163218152Y-58166666D02*
X163313390Y-58214285D01*
X163313390Y-58214285D02*
X163361009Y-58261904D01*
X163361009Y-58261904D02*
X163408628Y-58357142D01*
X163408628Y-58357142D02*
X163408628Y-58738094D01*
X162884819Y-57833332D02*
X162884819Y-57166666D01*
X162884819Y-57166666D02*
X163884819Y-57595237D01*
X161884819Y-58156666D02*
X161408628Y-58489999D01*
X161884819Y-58728094D02*
X160884819Y-58728094D01*
X160884819Y-58728094D02*
X160884819Y-58347142D01*
X160884819Y-58347142D02*
X160932438Y-58251904D01*
X160932438Y-58251904D02*
X160980057Y-58204285D01*
X160980057Y-58204285D02*
X161075295Y-58156666D01*
X161075295Y-58156666D02*
X161218152Y-58156666D01*
X161218152Y-58156666D02*
X161313390Y-58204285D01*
X161313390Y-58204285D02*
X161361009Y-58251904D01*
X161361009Y-58251904D02*
X161408628Y-58347142D01*
X161408628Y-58347142D02*
X161408628Y-58728094D01*
X160884819Y-57299523D02*
X160884819Y-57489999D01*
X160884819Y-57489999D02*
X160932438Y-57585237D01*
X160932438Y-57585237D02*
X160980057Y-57632856D01*
X160980057Y-57632856D02*
X161122914Y-57728094D01*
X161122914Y-57728094D02*
X161313390Y-57775713D01*
X161313390Y-57775713D02*
X161694342Y-57775713D01*
X161694342Y-57775713D02*
X161789580Y-57728094D01*
X161789580Y-57728094D02*
X161837200Y-57680475D01*
X161837200Y-57680475D02*
X161884819Y-57585237D01*
X161884819Y-57585237D02*
X161884819Y-57394761D01*
X161884819Y-57394761D02*
X161837200Y-57299523D01*
X161837200Y-57299523D02*
X161789580Y-57251904D01*
X161789580Y-57251904D02*
X161694342Y-57204285D01*
X161694342Y-57204285D02*
X161456247Y-57204285D01*
X161456247Y-57204285D02*
X161361009Y-57251904D01*
X161361009Y-57251904D02*
X161313390Y-57299523D01*
X161313390Y-57299523D02*
X161265771Y-57394761D01*
X161265771Y-57394761D02*
X161265771Y-57585237D01*
X161265771Y-57585237D02*
X161313390Y-57680475D01*
X161313390Y-57680475D02*
X161361009Y-57728094D01*
X161361009Y-57728094D02*
X161456247Y-57775713D01*
X162884819Y-58166666D02*
X162408628Y-58499999D01*
X162884819Y-58738094D02*
X161884819Y-58738094D01*
X161884819Y-58738094D02*
X161884819Y-58357142D01*
X161884819Y-58357142D02*
X161932438Y-58261904D01*
X161932438Y-58261904D02*
X161980057Y-58214285D01*
X161980057Y-58214285D02*
X162075295Y-58166666D01*
X162075295Y-58166666D02*
X162218152Y-58166666D01*
X162218152Y-58166666D02*
X162313390Y-58214285D01*
X162313390Y-58214285D02*
X162361009Y-58261904D01*
X162361009Y-58261904D02*
X162408628Y-58357142D01*
X162408628Y-58357142D02*
X162408628Y-58738094D01*
X161884819Y-57261904D02*
X161884819Y-57738094D01*
X161884819Y-57738094D02*
X162361009Y-57785713D01*
X162361009Y-57785713D02*
X162313390Y-57738094D01*
X162313390Y-57738094D02*
X162265771Y-57642856D01*
X162265771Y-57642856D02*
X162265771Y-57404761D01*
X162265771Y-57404761D02*
X162313390Y-57309523D01*
X162313390Y-57309523D02*
X162361009Y-57261904D01*
X162361009Y-57261904D02*
X162456247Y-57214285D01*
X162456247Y-57214285D02*
X162694342Y-57214285D01*
X162694342Y-57214285D02*
X162789580Y-57261904D01*
X162789580Y-57261904D02*
X162837200Y-57309523D01*
X162837200Y-57309523D02*
X162884819Y-57404761D01*
X162884819Y-57404761D02*
X162884819Y-57642856D01*
X162884819Y-57642856D02*
X162837200Y-57738094D01*
X162837200Y-57738094D02*
X162789580Y-57785713D01*
X213674819Y-74956666D02*
X213198628Y-75289999D01*
X213674819Y-75528094D02*
X212674819Y-75528094D01*
X212674819Y-75528094D02*
X212674819Y-75147142D01*
X212674819Y-75147142D02*
X212722438Y-75051904D01*
X212722438Y-75051904D02*
X212770057Y-75004285D01*
X212770057Y-75004285D02*
X212865295Y-74956666D01*
X212865295Y-74956666D02*
X213008152Y-74956666D01*
X213008152Y-74956666D02*
X213103390Y-75004285D01*
X213103390Y-75004285D02*
X213151009Y-75051904D01*
X213151009Y-75051904D02*
X213198628Y-75147142D01*
X213198628Y-75147142D02*
X213198628Y-75528094D01*
X213008152Y-74099523D02*
X213674819Y-74099523D01*
X212627200Y-74337618D02*
X213341485Y-74575713D01*
X213341485Y-74575713D02*
X213341485Y-73956666D01*
X220674819Y-60716666D02*
X220198628Y-61049999D01*
X220674819Y-61288094D02*
X219674819Y-61288094D01*
X219674819Y-61288094D02*
X219674819Y-60907142D01*
X219674819Y-60907142D02*
X219722438Y-60811904D01*
X219722438Y-60811904D02*
X219770057Y-60764285D01*
X219770057Y-60764285D02*
X219865295Y-60716666D01*
X219865295Y-60716666D02*
X220008152Y-60716666D01*
X220008152Y-60716666D02*
X220103390Y-60764285D01*
X220103390Y-60764285D02*
X220151009Y-60811904D01*
X220151009Y-60811904D02*
X220198628Y-60907142D01*
X220198628Y-60907142D02*
X220198628Y-61288094D01*
X219674819Y-60383332D02*
X219674819Y-59764285D01*
X219674819Y-59764285D02*
X220055771Y-60097618D01*
X220055771Y-60097618D02*
X220055771Y-59954761D01*
X220055771Y-59954761D02*
X220103390Y-59859523D01*
X220103390Y-59859523D02*
X220151009Y-59811904D01*
X220151009Y-59811904D02*
X220246247Y-59764285D01*
X220246247Y-59764285D02*
X220484342Y-59764285D01*
X220484342Y-59764285D02*
X220579580Y-59811904D01*
X220579580Y-59811904D02*
X220627200Y-59859523D01*
X220627200Y-59859523D02*
X220674819Y-59954761D01*
X220674819Y-59954761D02*
X220674819Y-60240475D01*
X220674819Y-60240475D02*
X220627200Y-60335713D01*
X220627200Y-60335713D02*
X220579580Y-60383332D01*
X213334819Y-60716666D02*
X212858628Y-61049999D01*
X213334819Y-61288094D02*
X212334819Y-61288094D01*
X212334819Y-61288094D02*
X212334819Y-60907142D01*
X212334819Y-60907142D02*
X212382438Y-60811904D01*
X212382438Y-60811904D02*
X212430057Y-60764285D01*
X212430057Y-60764285D02*
X212525295Y-60716666D01*
X212525295Y-60716666D02*
X212668152Y-60716666D01*
X212668152Y-60716666D02*
X212763390Y-60764285D01*
X212763390Y-60764285D02*
X212811009Y-60811904D01*
X212811009Y-60811904D02*
X212858628Y-60907142D01*
X212858628Y-60907142D02*
X212858628Y-61288094D01*
X212430057Y-60335713D02*
X212382438Y-60288094D01*
X212382438Y-60288094D02*
X212334819Y-60192856D01*
X212334819Y-60192856D02*
X212334819Y-59954761D01*
X212334819Y-59954761D02*
X212382438Y-59859523D01*
X212382438Y-59859523D02*
X212430057Y-59811904D01*
X212430057Y-59811904D02*
X212525295Y-59764285D01*
X212525295Y-59764285D02*
X212620533Y-59764285D01*
X212620533Y-59764285D02*
X212763390Y-59811904D01*
X212763390Y-59811904D02*
X213334819Y-60383332D01*
X213334819Y-60383332D02*
X213334819Y-59764285D01*
X213674819Y-77066666D02*
X213198628Y-77399999D01*
X213674819Y-77638094D02*
X212674819Y-77638094D01*
X212674819Y-77638094D02*
X212674819Y-77257142D01*
X212674819Y-77257142D02*
X212722438Y-77161904D01*
X212722438Y-77161904D02*
X212770057Y-77114285D01*
X212770057Y-77114285D02*
X212865295Y-77066666D01*
X212865295Y-77066666D02*
X213008152Y-77066666D01*
X213008152Y-77066666D02*
X213103390Y-77114285D01*
X213103390Y-77114285D02*
X213151009Y-77161904D01*
X213151009Y-77161904D02*
X213198628Y-77257142D01*
X213198628Y-77257142D02*
X213198628Y-77638094D01*
X213674819Y-76114285D02*
X213674819Y-76685713D01*
X213674819Y-76399999D02*
X212674819Y-76399999D01*
X212674819Y-76399999D02*
X212817676Y-76495237D01*
X212817676Y-76495237D02*
X212912914Y-76590475D01*
X212912914Y-76590475D02*
X212960533Y-76685713D01*
X236944761Y-73780057D02*
X236849523Y-73732438D01*
X236849523Y-73732438D02*
X236754285Y-73637200D01*
X236754285Y-73637200D02*
X236611428Y-73494342D01*
X236611428Y-73494342D02*
X236516190Y-73446723D01*
X236516190Y-73446723D02*
X236420952Y-73446723D01*
X236468571Y-73684819D02*
X236373333Y-73637200D01*
X236373333Y-73637200D02*
X236278095Y-73541961D01*
X236278095Y-73541961D02*
X236230476Y-73351485D01*
X236230476Y-73351485D02*
X236230476Y-73018152D01*
X236230476Y-73018152D02*
X236278095Y-72827676D01*
X236278095Y-72827676D02*
X236373333Y-72732438D01*
X236373333Y-72732438D02*
X236468571Y-72684819D01*
X236468571Y-72684819D02*
X236659047Y-72684819D01*
X236659047Y-72684819D02*
X236754285Y-72732438D01*
X236754285Y-72732438D02*
X236849523Y-72827676D01*
X236849523Y-72827676D02*
X236897142Y-73018152D01*
X236897142Y-73018152D02*
X236897142Y-73351485D01*
X236897142Y-73351485D02*
X236849523Y-73541961D01*
X236849523Y-73541961D02*
X236754285Y-73637200D01*
X236754285Y-73637200D02*
X236659047Y-73684819D01*
X236659047Y-73684819D02*
X236468571Y-73684819D01*
X237754285Y-72684819D02*
X237563809Y-72684819D01*
X237563809Y-72684819D02*
X237468571Y-72732438D01*
X237468571Y-72732438D02*
X237420952Y-72780057D01*
X237420952Y-72780057D02*
X237325714Y-72922914D01*
X237325714Y-72922914D02*
X237278095Y-73113390D01*
X237278095Y-73113390D02*
X237278095Y-73494342D01*
X237278095Y-73494342D02*
X237325714Y-73589580D01*
X237325714Y-73589580D02*
X237373333Y-73637200D01*
X237373333Y-73637200D02*
X237468571Y-73684819D01*
X237468571Y-73684819D02*
X237659047Y-73684819D01*
X237659047Y-73684819D02*
X237754285Y-73637200D01*
X237754285Y-73637200D02*
X237801904Y-73589580D01*
X237801904Y-73589580D02*
X237849523Y-73494342D01*
X237849523Y-73494342D02*
X237849523Y-73256247D01*
X237849523Y-73256247D02*
X237801904Y-73161009D01*
X237801904Y-73161009D02*
X237754285Y-73113390D01*
X237754285Y-73113390D02*
X237659047Y-73065771D01*
X237659047Y-73065771D02*
X237468571Y-73065771D01*
X237468571Y-73065771D02*
X237373333Y-73113390D01*
X237373333Y-73113390D02*
X237325714Y-73161009D01*
X237325714Y-73161009D02*
X237278095Y-73256247D01*
D12*
X244700626Y-70209992D02*
X244670630Y-70269984D01*
X244670630Y-70269984D02*
X244610638Y-70329977D01*
X244610638Y-70329977D02*
X244520649Y-70419966D01*
X244520649Y-70419966D02*
X244490653Y-70479958D01*
X244490653Y-70479958D02*
X244490653Y-70539951D01*
X244640634Y-70509954D02*
X244610638Y-70569947D01*
X244610638Y-70569947D02*
X244550645Y-70629939D01*
X244550645Y-70629939D02*
X244430660Y-70659936D01*
X244430660Y-70659936D02*
X244220686Y-70659936D01*
X244220686Y-70659936D02*
X244100701Y-70629939D01*
X244100701Y-70629939D02*
X244040709Y-70569947D01*
X244040709Y-70569947D02*
X244010713Y-70509954D01*
X244010713Y-70509954D02*
X244010713Y-70389969D01*
X244010713Y-70389969D02*
X244040709Y-70329977D01*
X244040709Y-70329977D02*
X244100701Y-70269984D01*
X244100701Y-70269984D02*
X244220686Y-70239988D01*
X244220686Y-70239988D02*
X244430660Y-70239988D01*
X244430660Y-70239988D02*
X244550645Y-70269984D01*
X244550645Y-70269984D02*
X244610638Y-70329977D01*
X244610638Y-70329977D02*
X244640634Y-70389969D01*
X244640634Y-70389969D02*
X244640634Y-70509954D01*
X244010713Y-69670060D02*
X244010713Y-69970022D01*
X244010713Y-69970022D02*
X244310675Y-70000019D01*
X244310675Y-70000019D02*
X244280679Y-69970022D01*
X244280679Y-69970022D02*
X244250683Y-69910030D01*
X244250683Y-69910030D02*
X244250683Y-69760049D01*
X244250683Y-69760049D02*
X244280679Y-69700056D01*
X244280679Y-69700056D02*
X244310675Y-69670060D01*
X244310675Y-69670060D02*
X244370668Y-69640064D01*
X244370668Y-69640064D02*
X244520649Y-69640064D01*
X244520649Y-69640064D02*
X244580641Y-69670060D01*
X244580641Y-69670060D02*
X244610638Y-69700056D01*
X244610638Y-69700056D02*
X244640634Y-69760049D01*
X244640634Y-69760049D02*
X244640634Y-69910030D01*
X244640634Y-69910030D02*
X244610638Y-69970022D01*
X244610638Y-69970022D02*
X244580641Y-70000019D01*
X171935626Y-77719992D02*
X171905630Y-77779984D01*
X171905630Y-77779984D02*
X171845638Y-77839977D01*
X171845638Y-77839977D02*
X171755649Y-77929966D01*
X171755649Y-77929966D02*
X171725653Y-77989958D01*
X171725653Y-77989958D02*
X171725653Y-78049951D01*
X171875634Y-78019954D02*
X171845638Y-78079947D01*
X171845638Y-78079947D02*
X171785645Y-78139939D01*
X171785645Y-78139939D02*
X171665660Y-78169936D01*
X171665660Y-78169936D02*
X171455686Y-78169936D01*
X171455686Y-78169936D02*
X171335701Y-78139939D01*
X171335701Y-78139939D02*
X171275709Y-78079947D01*
X171275709Y-78079947D02*
X171245713Y-78019954D01*
X171245713Y-78019954D02*
X171245713Y-77899969D01*
X171245713Y-77899969D02*
X171275709Y-77839977D01*
X171275709Y-77839977D02*
X171335701Y-77779984D01*
X171335701Y-77779984D02*
X171455686Y-77749988D01*
X171455686Y-77749988D02*
X171665660Y-77749988D01*
X171665660Y-77749988D02*
X171785645Y-77779984D01*
X171785645Y-77779984D02*
X171845638Y-77839977D01*
X171845638Y-77839977D02*
X171875634Y-77899969D01*
X171875634Y-77899969D02*
X171875634Y-78019954D01*
X171455686Y-77210056D02*
X171875634Y-77210056D01*
X171215717Y-77360037D02*
X171665660Y-77510019D01*
X171665660Y-77510019D02*
X171665660Y-77120067D01*
X165140007Y-67000626D02*
X165080015Y-66970630D01*
X165080015Y-66970630D02*
X165020022Y-66910638D01*
X165020022Y-66910638D02*
X164930033Y-66820649D01*
X164930033Y-66820649D02*
X164870041Y-66790653D01*
X164870041Y-66790653D02*
X164810048Y-66790653D01*
X164840045Y-66940634D02*
X164780052Y-66910638D01*
X164780052Y-66910638D02*
X164720060Y-66850645D01*
X164720060Y-66850645D02*
X164690063Y-66730660D01*
X164690063Y-66730660D02*
X164690063Y-66520686D01*
X164690063Y-66520686D02*
X164720060Y-66400701D01*
X164720060Y-66400701D02*
X164780052Y-66340709D01*
X164780052Y-66340709D02*
X164840045Y-66310713D01*
X164840045Y-66310713D02*
X164960030Y-66310713D01*
X164960030Y-66310713D02*
X165020022Y-66340709D01*
X165020022Y-66340709D02*
X165080015Y-66400701D01*
X165080015Y-66400701D02*
X165110011Y-66520686D01*
X165110011Y-66520686D02*
X165110011Y-66730660D01*
X165110011Y-66730660D02*
X165080015Y-66850645D01*
X165080015Y-66850645D02*
X165020022Y-66910638D01*
X165020022Y-66910638D02*
X164960030Y-66940634D01*
X164960030Y-66940634D02*
X164840045Y-66940634D01*
X165319984Y-66310713D02*
X165709935Y-66310713D01*
X165709935Y-66310713D02*
X165499962Y-66550683D01*
X165499962Y-66550683D02*
X165589950Y-66550683D01*
X165589950Y-66550683D02*
X165649943Y-66580679D01*
X165649943Y-66580679D02*
X165679939Y-66610675D01*
X165679939Y-66610675D02*
X165709935Y-66670668D01*
X165709935Y-66670668D02*
X165709935Y-66820649D01*
X165709935Y-66820649D02*
X165679939Y-66880641D01*
X165679939Y-66880641D02*
X165649943Y-66910638D01*
X165649943Y-66910638D02*
X165589950Y-66940634D01*
X165589950Y-66940634D02*
X165409973Y-66940634D01*
X165409973Y-66940634D02*
X165349980Y-66910638D01*
X165349980Y-66910638D02*
X165319984Y-66880641D01*
D11*
X221879047Y-63915270D02*
X221758095Y-63854794D01*
X221758095Y-63854794D02*
X221637142Y-63733842D01*
X221637142Y-63733842D02*
X221455714Y-63552413D01*
X221455714Y-63552413D02*
X221334761Y-63491937D01*
X221334761Y-63491937D02*
X221213809Y-63491937D01*
X221274285Y-63794318D02*
X221153333Y-63733842D01*
X221153333Y-63733842D02*
X221032380Y-63612889D01*
X221032380Y-63612889D02*
X220971904Y-63370984D01*
X220971904Y-63370984D02*
X220971904Y-62947651D01*
X220971904Y-62947651D02*
X221032380Y-62705746D01*
X221032380Y-62705746D02*
X221153333Y-62584794D01*
X221153333Y-62584794D02*
X221274285Y-62524318D01*
X221274285Y-62524318D02*
X221516190Y-62524318D01*
X221516190Y-62524318D02*
X221637142Y-62584794D01*
X221637142Y-62584794D02*
X221758095Y-62705746D01*
X221758095Y-62705746D02*
X221818571Y-62947651D01*
X221818571Y-62947651D02*
X221818571Y-63370984D01*
X221818571Y-63370984D02*
X221758095Y-63612889D01*
X221758095Y-63612889D02*
X221637142Y-63733842D01*
X221637142Y-63733842D02*
X221516190Y-63794318D01*
X221516190Y-63794318D02*
X221274285Y-63794318D01*
X222302380Y-62645270D02*
X222362856Y-62584794D01*
X222362856Y-62584794D02*
X222483809Y-62524318D01*
X222483809Y-62524318D02*
X222786190Y-62524318D01*
X222786190Y-62524318D02*
X222907142Y-62584794D01*
X222907142Y-62584794D02*
X222967618Y-62645270D01*
X222967618Y-62645270D02*
X223028095Y-62766222D01*
X223028095Y-62766222D02*
X223028095Y-62887175D01*
X223028095Y-62887175D02*
X222967618Y-63068603D01*
X222967618Y-63068603D02*
X222241904Y-63794318D01*
X222241904Y-63794318D02*
X223028095Y-63794318D01*
X216429047Y-60275270D02*
X216308095Y-60214794D01*
X216308095Y-60214794D02*
X216187142Y-60093842D01*
X216187142Y-60093842D02*
X216005714Y-59912413D01*
X216005714Y-59912413D02*
X215884761Y-59851937D01*
X215884761Y-59851937D02*
X215763809Y-59851937D01*
X215824285Y-60154318D02*
X215703333Y-60093842D01*
X215703333Y-60093842D02*
X215582380Y-59972889D01*
X215582380Y-59972889D02*
X215521904Y-59730984D01*
X215521904Y-59730984D02*
X215521904Y-59307651D01*
X215521904Y-59307651D02*
X215582380Y-59065746D01*
X215582380Y-59065746D02*
X215703333Y-58944794D01*
X215703333Y-58944794D02*
X215824285Y-58884318D01*
X215824285Y-58884318D02*
X216066190Y-58884318D01*
X216066190Y-58884318D02*
X216187142Y-58944794D01*
X216187142Y-58944794D02*
X216308095Y-59065746D01*
X216308095Y-59065746D02*
X216368571Y-59307651D01*
X216368571Y-59307651D02*
X216368571Y-59730984D01*
X216368571Y-59730984D02*
X216308095Y-59972889D01*
X216308095Y-59972889D02*
X216187142Y-60093842D01*
X216187142Y-60093842D02*
X216066190Y-60154318D01*
X216066190Y-60154318D02*
X215824285Y-60154318D01*
X217578095Y-60154318D02*
X216852380Y-60154318D01*
X217215237Y-60154318D02*
X217215237Y-58884318D01*
X217215237Y-58884318D02*
X217094285Y-59065746D01*
X217094285Y-59065746D02*
X216973333Y-59186699D01*
X216973333Y-59186699D02*
X216852380Y-59247175D01*
D10*
X235654819Y-70546666D02*
X235654819Y-71022856D01*
X235654819Y-71022856D02*
X234654819Y-71022856D01*
X235654819Y-69689523D02*
X235654819Y-70260951D01*
X235654819Y-69975237D02*
X234654819Y-69975237D01*
X234654819Y-69975237D02*
X234797676Y-70070475D01*
X234797676Y-70070475D02*
X234892914Y-70165713D01*
X234892914Y-70165713D02*
X234940533Y-70260951D01*
X216866666Y-74654819D02*
X216866666Y-75369104D01*
X216866666Y-75369104D02*
X216819047Y-75511961D01*
X216819047Y-75511961D02*
X216723809Y-75607200D01*
X216723809Y-75607200D02*
X216580952Y-75654819D01*
X216580952Y-75654819D02*
X216485714Y-75654819D01*
X217247619Y-74654819D02*
X217866666Y-74654819D01*
X217866666Y-74654819D02*
X217533333Y-75035771D01*
X217533333Y-75035771D02*
X217676190Y-75035771D01*
X217676190Y-75035771D02*
X217771428Y-75083390D01*
X217771428Y-75083390D02*
X217819047Y-75131009D01*
X217819047Y-75131009D02*
X217866666Y-75226247D01*
X217866666Y-75226247D02*
X217866666Y-75464342D01*
X217866666Y-75464342D02*
X217819047Y-75559580D01*
X217819047Y-75559580D02*
X217771428Y-75607200D01*
X217771428Y-75607200D02*
X217676190Y-75654819D01*
X217676190Y-75654819D02*
X217390476Y-75654819D01*
X217390476Y-75654819D02*
X217295238Y-75607200D01*
X217295238Y-75607200D02*
X217247619Y-75559580D01*
X211931009Y-73583333D02*
X211931009Y-73916666D01*
X212454819Y-73916666D02*
X211454819Y-73916666D01*
X211454819Y-73916666D02*
X211454819Y-73440476D01*
X212454819Y-72535714D02*
X212454819Y-73107142D01*
X212454819Y-72821428D02*
X211454819Y-72821428D01*
X211454819Y-72821428D02*
X211597676Y-72916666D01*
X211597676Y-72916666D02*
X211692914Y-73011904D01*
X211692914Y-73011904D02*
X211740533Y-73107142D01*
X236640295Y-76627975D02*
X235840295Y-76627975D01*
X235840295Y-76627975D02*
X235840295Y-76437499D01*
X235840295Y-76437499D02*
X235878390Y-76323213D01*
X235878390Y-76323213D02*
X235954580Y-76247023D01*
X235954580Y-76247023D02*
X236030771Y-76208928D01*
X236030771Y-76208928D02*
X236183152Y-76170832D01*
X236183152Y-76170832D02*
X236297438Y-76170832D01*
X236297438Y-76170832D02*
X236449819Y-76208928D01*
X236449819Y-76208928D02*
X236526009Y-76247023D01*
X236526009Y-76247023D02*
X236602200Y-76323213D01*
X236602200Y-76323213D02*
X236640295Y-76437499D01*
X236640295Y-76437499D02*
X236640295Y-76627975D01*
X236106961Y-75485118D02*
X236640295Y-75485118D01*
X235802200Y-75675594D02*
X236373628Y-75866071D01*
X236373628Y-75866071D02*
X236373628Y-75370832D01*
X217446905Y-71174819D02*
X217446905Y-70174819D01*
X217446905Y-70174819D02*
X217685000Y-70174819D01*
X217685000Y-70174819D02*
X217827857Y-70222438D01*
X217827857Y-70222438D02*
X217923095Y-70317676D01*
X217923095Y-70317676D02*
X217970714Y-70412914D01*
X217970714Y-70412914D02*
X218018333Y-70603390D01*
X218018333Y-70603390D02*
X218018333Y-70746247D01*
X218018333Y-70746247D02*
X217970714Y-70936723D01*
X217970714Y-70936723D02*
X217923095Y-71031961D01*
X217923095Y-71031961D02*
X217827857Y-71127200D01*
X217827857Y-71127200D02*
X217685000Y-71174819D01*
X217685000Y-71174819D02*
X217446905Y-71174819D01*
X218351667Y-70174819D02*
X218970714Y-70174819D01*
X218970714Y-70174819D02*
X218637381Y-70555771D01*
X218637381Y-70555771D02*
X218780238Y-70555771D01*
X218780238Y-70555771D02*
X218875476Y-70603390D01*
X218875476Y-70603390D02*
X218923095Y-70651009D01*
X218923095Y-70651009D02*
X218970714Y-70746247D01*
X218970714Y-70746247D02*
X218970714Y-70984342D01*
X218970714Y-70984342D02*
X218923095Y-71079580D01*
X218923095Y-71079580D02*
X218875476Y-71127200D01*
X218875476Y-71127200D02*
X218780238Y-71174819D01*
X218780238Y-71174819D02*
X218494524Y-71174819D01*
X218494524Y-71174819D02*
X218399286Y-71127200D01*
X218399286Y-71127200D02*
X218351667Y-71079580D01*
X186634295Y-60190475D02*
X185834295Y-60190475D01*
X185834295Y-60190475D02*
X185834295Y-59999999D01*
X185834295Y-59999999D02*
X185872390Y-59885713D01*
X185872390Y-59885713D02*
X185948580Y-59809523D01*
X185948580Y-59809523D02*
X186024771Y-59771428D01*
X186024771Y-59771428D02*
X186177152Y-59733332D01*
X186177152Y-59733332D02*
X186291438Y-59733332D01*
X186291438Y-59733332D02*
X186443819Y-59771428D01*
X186443819Y-59771428D02*
X186520009Y-59809523D01*
X186520009Y-59809523D02*
X186596200Y-59885713D01*
X186596200Y-59885713D02*
X186634295Y-59999999D01*
X186634295Y-59999999D02*
X186634295Y-60190475D01*
X185910485Y-59428571D02*
X185872390Y-59390475D01*
X185872390Y-59390475D02*
X185834295Y-59314285D01*
X185834295Y-59314285D02*
X185834295Y-59123809D01*
X185834295Y-59123809D02*
X185872390Y-59047618D01*
X185872390Y-59047618D02*
X185910485Y-59009523D01*
X185910485Y-59009523D02*
X185986676Y-58971428D01*
X185986676Y-58971428D02*
X186062866Y-58971428D01*
X186062866Y-58971428D02*
X186177152Y-59009523D01*
X186177152Y-59009523D02*
X186634295Y-59466666D01*
X186634295Y-59466666D02*
X186634295Y-58971428D01*
X162526905Y-69654819D02*
X162526905Y-68654819D01*
X162526905Y-68654819D02*
X162765000Y-68654819D01*
X162765000Y-68654819D02*
X162907857Y-68702438D01*
X162907857Y-68702438D02*
X163003095Y-68797676D01*
X163003095Y-68797676D02*
X163050714Y-68892914D01*
X163050714Y-68892914D02*
X163098333Y-69083390D01*
X163098333Y-69083390D02*
X163098333Y-69226247D01*
X163098333Y-69226247D02*
X163050714Y-69416723D01*
X163050714Y-69416723D02*
X163003095Y-69511961D01*
X163003095Y-69511961D02*
X162907857Y-69607200D01*
X162907857Y-69607200D02*
X162765000Y-69654819D01*
X162765000Y-69654819D02*
X162526905Y-69654819D01*
X164050714Y-69654819D02*
X163479286Y-69654819D01*
X163765000Y-69654819D02*
X163765000Y-68654819D01*
X163765000Y-68654819D02*
X163669762Y-68797676D01*
X163669762Y-68797676D02*
X163574524Y-68892914D01*
X163574524Y-68892914D02*
X163479286Y-68940533D01*
X239227142Y-74499580D02*
X239179523Y-74547200D01*
X239179523Y-74547200D02*
X239036666Y-74594819D01*
X239036666Y-74594819D02*
X238941428Y-74594819D01*
X238941428Y-74594819D02*
X238798571Y-74547200D01*
X238798571Y-74547200D02*
X238703333Y-74451961D01*
X238703333Y-74451961D02*
X238655714Y-74356723D01*
X238655714Y-74356723D02*
X238608095Y-74166247D01*
X238608095Y-74166247D02*
X238608095Y-74023390D01*
X238608095Y-74023390D02*
X238655714Y-73832914D01*
X238655714Y-73832914D02*
X238703333Y-73737676D01*
X238703333Y-73737676D02*
X238798571Y-73642438D01*
X238798571Y-73642438D02*
X238941428Y-73594819D01*
X238941428Y-73594819D02*
X239036666Y-73594819D01*
X239036666Y-73594819D02*
X239179523Y-73642438D01*
X239179523Y-73642438D02*
X239227142Y-73690057D01*
X239608095Y-73690057D02*
X239655714Y-73642438D01*
X239655714Y-73642438D02*
X239750952Y-73594819D01*
X239750952Y-73594819D02*
X239989047Y-73594819D01*
X239989047Y-73594819D02*
X240084285Y-73642438D01*
X240084285Y-73642438D02*
X240131904Y-73690057D01*
X240131904Y-73690057D02*
X240179523Y-73785295D01*
X240179523Y-73785295D02*
X240179523Y-73880533D01*
X240179523Y-73880533D02*
X240131904Y-74023390D01*
X240131904Y-74023390D02*
X239560476Y-74594819D01*
X239560476Y-74594819D02*
X240179523Y-74594819D01*
X240655714Y-74594819D02*
X240846190Y-74594819D01*
X240846190Y-74594819D02*
X240941428Y-74547200D01*
X240941428Y-74547200D02*
X240989047Y-74499580D01*
X240989047Y-74499580D02*
X241084285Y-74356723D01*
X241084285Y-74356723D02*
X241131904Y-74166247D01*
X241131904Y-74166247D02*
X241131904Y-73785295D01*
X241131904Y-73785295D02*
X241084285Y-73690057D01*
X241084285Y-73690057D02*
X241036666Y-73642438D01*
X241036666Y-73642438D02*
X240941428Y-73594819D01*
X240941428Y-73594819D02*
X240750952Y-73594819D01*
X240750952Y-73594819D02*
X240655714Y-73642438D01*
X240655714Y-73642438D02*
X240608095Y-73690057D01*
X240608095Y-73690057D02*
X240560476Y-73785295D01*
X240560476Y-73785295D02*
X240560476Y-74023390D01*
X240560476Y-74023390D02*
X240608095Y-74118628D01*
X240608095Y-74118628D02*
X240655714Y-74166247D01*
X240655714Y-74166247D02*
X240750952Y-74213866D01*
X240750952Y-74213866D02*
X240941428Y-74213866D01*
X240941428Y-74213866D02*
X241036666Y-74166247D01*
X241036666Y-74166247D02*
X241084285Y-74118628D01*
X241084285Y-74118628D02*
X241131904Y-74023390D01*
X244227142Y-65149580D02*
X244179523Y-65197200D01*
X244179523Y-65197200D02*
X244036666Y-65244819D01*
X244036666Y-65244819D02*
X243941428Y-65244819D01*
X243941428Y-65244819D02*
X243798571Y-65197200D01*
X243798571Y-65197200D02*
X243703333Y-65101961D01*
X243703333Y-65101961D02*
X243655714Y-65006723D01*
X243655714Y-65006723D02*
X243608095Y-64816247D01*
X243608095Y-64816247D02*
X243608095Y-64673390D01*
X243608095Y-64673390D02*
X243655714Y-64482914D01*
X243655714Y-64482914D02*
X243703333Y-64387676D01*
X243703333Y-64387676D02*
X243798571Y-64292438D01*
X243798571Y-64292438D02*
X243941428Y-64244819D01*
X243941428Y-64244819D02*
X244036666Y-64244819D01*
X244036666Y-64244819D02*
X244179523Y-64292438D01*
X244179523Y-64292438D02*
X244227142Y-64340057D01*
X244608095Y-64340057D02*
X244655714Y-64292438D01*
X244655714Y-64292438D02*
X244750952Y-64244819D01*
X244750952Y-64244819D02*
X244989047Y-64244819D01*
X244989047Y-64244819D02*
X245084285Y-64292438D01*
X245084285Y-64292438D02*
X245131904Y-64340057D01*
X245131904Y-64340057D02*
X245179523Y-64435295D01*
X245179523Y-64435295D02*
X245179523Y-64530533D01*
X245179523Y-64530533D02*
X245131904Y-64673390D01*
X245131904Y-64673390D02*
X244560476Y-65244819D01*
X244560476Y-65244819D02*
X245179523Y-65244819D01*
X245750952Y-64673390D02*
X245655714Y-64625771D01*
X245655714Y-64625771D02*
X245608095Y-64578152D01*
X245608095Y-64578152D02*
X245560476Y-64482914D01*
X245560476Y-64482914D02*
X245560476Y-64435295D01*
X245560476Y-64435295D02*
X245608095Y-64340057D01*
X245608095Y-64340057D02*
X245655714Y-64292438D01*
X245655714Y-64292438D02*
X245750952Y-64244819D01*
X245750952Y-64244819D02*
X245941428Y-64244819D01*
X245941428Y-64244819D02*
X246036666Y-64292438D01*
X246036666Y-64292438D02*
X246084285Y-64340057D01*
X246084285Y-64340057D02*
X246131904Y-64435295D01*
X246131904Y-64435295D02*
X246131904Y-64482914D01*
X246131904Y-64482914D02*
X246084285Y-64578152D01*
X246084285Y-64578152D02*
X246036666Y-64625771D01*
X246036666Y-64625771D02*
X245941428Y-64673390D01*
X245941428Y-64673390D02*
X245750952Y-64673390D01*
X245750952Y-64673390D02*
X245655714Y-64721009D01*
X245655714Y-64721009D02*
X245608095Y-64768628D01*
X245608095Y-64768628D02*
X245560476Y-64863866D01*
X245560476Y-64863866D02*
X245560476Y-65054342D01*
X245560476Y-65054342D02*
X245608095Y-65149580D01*
X245608095Y-65149580D02*
X245655714Y-65197200D01*
X245655714Y-65197200D02*
X245750952Y-65244819D01*
X245750952Y-65244819D02*
X245941428Y-65244819D01*
X245941428Y-65244819D02*
X246036666Y-65197200D01*
X246036666Y-65197200D02*
X246084285Y-65149580D01*
X246084285Y-65149580D02*
X246131904Y-65054342D01*
X246131904Y-65054342D02*
X246131904Y-64863866D01*
X246131904Y-64863866D02*
X246084285Y-64768628D01*
X246084285Y-64768628D02*
X246036666Y-64721009D01*
X246036666Y-64721009D02*
X245941428Y-64673390D01*
X239707142Y-79469580D02*
X239659523Y-79517200D01*
X239659523Y-79517200D02*
X239516666Y-79564819D01*
X239516666Y-79564819D02*
X239421428Y-79564819D01*
X239421428Y-79564819D02*
X239278571Y-79517200D01*
X239278571Y-79517200D02*
X239183333Y-79421961D01*
X239183333Y-79421961D02*
X239135714Y-79326723D01*
X239135714Y-79326723D02*
X239088095Y-79136247D01*
X239088095Y-79136247D02*
X239088095Y-78993390D01*
X239088095Y-78993390D02*
X239135714Y-78802914D01*
X239135714Y-78802914D02*
X239183333Y-78707676D01*
X239183333Y-78707676D02*
X239278571Y-78612438D01*
X239278571Y-78612438D02*
X239421428Y-78564819D01*
X239421428Y-78564819D02*
X239516666Y-78564819D01*
X239516666Y-78564819D02*
X239659523Y-78612438D01*
X239659523Y-78612438D02*
X239707142Y-78660057D01*
X240088095Y-78660057D02*
X240135714Y-78612438D01*
X240135714Y-78612438D02*
X240230952Y-78564819D01*
X240230952Y-78564819D02*
X240469047Y-78564819D01*
X240469047Y-78564819D02*
X240564285Y-78612438D01*
X240564285Y-78612438D02*
X240611904Y-78660057D01*
X240611904Y-78660057D02*
X240659523Y-78755295D01*
X240659523Y-78755295D02*
X240659523Y-78850533D01*
X240659523Y-78850533D02*
X240611904Y-78993390D01*
X240611904Y-78993390D02*
X240040476Y-79564819D01*
X240040476Y-79564819D02*
X240659523Y-79564819D01*
X240992857Y-78564819D02*
X241659523Y-78564819D01*
X241659523Y-78564819D02*
X241230952Y-79564819D01*
X233099580Y-73062857D02*
X233147200Y-73110476D01*
X233147200Y-73110476D02*
X233194819Y-73253333D01*
X233194819Y-73253333D02*
X233194819Y-73348571D01*
X233194819Y-73348571D02*
X233147200Y-73491428D01*
X233147200Y-73491428D02*
X233051961Y-73586666D01*
X233051961Y-73586666D02*
X232956723Y-73634285D01*
X232956723Y-73634285D02*
X232766247Y-73681904D01*
X232766247Y-73681904D02*
X232623390Y-73681904D01*
X232623390Y-73681904D02*
X232432914Y-73634285D01*
X232432914Y-73634285D02*
X232337676Y-73586666D01*
X232337676Y-73586666D02*
X232242438Y-73491428D01*
X232242438Y-73491428D02*
X232194819Y-73348571D01*
X232194819Y-73348571D02*
X232194819Y-73253333D01*
X232194819Y-73253333D02*
X232242438Y-73110476D01*
X232242438Y-73110476D02*
X232290057Y-73062857D01*
X232290057Y-72681904D02*
X232242438Y-72634285D01*
X232242438Y-72634285D02*
X232194819Y-72539047D01*
X232194819Y-72539047D02*
X232194819Y-72300952D01*
X232194819Y-72300952D02*
X232242438Y-72205714D01*
X232242438Y-72205714D02*
X232290057Y-72158095D01*
X232290057Y-72158095D02*
X232385295Y-72110476D01*
X232385295Y-72110476D02*
X232480533Y-72110476D01*
X232480533Y-72110476D02*
X232623390Y-72158095D01*
X232623390Y-72158095D02*
X233194819Y-72729523D01*
X233194819Y-72729523D02*
X233194819Y-72110476D01*
X232194819Y-71253333D02*
X232194819Y-71443809D01*
X232194819Y-71443809D02*
X232242438Y-71539047D01*
X232242438Y-71539047D02*
X232290057Y-71586666D01*
X232290057Y-71586666D02*
X232432914Y-71681904D01*
X232432914Y-71681904D02*
X232623390Y-71729523D01*
X232623390Y-71729523D02*
X233004342Y-71729523D01*
X233004342Y-71729523D02*
X233099580Y-71681904D01*
X233099580Y-71681904D02*
X233147200Y-71634285D01*
X233147200Y-71634285D02*
X233194819Y-71539047D01*
X233194819Y-71539047D02*
X233194819Y-71348571D01*
X233194819Y-71348571D02*
X233147200Y-71253333D01*
X233147200Y-71253333D02*
X233099580Y-71205714D01*
X233099580Y-71205714D02*
X233004342Y-71158095D01*
X233004342Y-71158095D02*
X232766247Y-71158095D01*
X232766247Y-71158095D02*
X232671009Y-71205714D01*
X232671009Y-71205714D02*
X232623390Y-71253333D01*
X232623390Y-71253333D02*
X232575771Y-71348571D01*
X232575771Y-71348571D02*
X232575771Y-71539047D01*
X232575771Y-71539047D02*
X232623390Y-71634285D01*
X232623390Y-71634285D02*
X232671009Y-71681904D01*
X232671009Y-71681904D02*
X232766247Y-71729523D01*
X234249580Y-73032857D02*
X234297200Y-73080476D01*
X234297200Y-73080476D02*
X234344819Y-73223333D01*
X234344819Y-73223333D02*
X234344819Y-73318571D01*
X234344819Y-73318571D02*
X234297200Y-73461428D01*
X234297200Y-73461428D02*
X234201961Y-73556666D01*
X234201961Y-73556666D02*
X234106723Y-73604285D01*
X234106723Y-73604285D02*
X233916247Y-73651904D01*
X233916247Y-73651904D02*
X233773390Y-73651904D01*
X233773390Y-73651904D02*
X233582914Y-73604285D01*
X233582914Y-73604285D02*
X233487676Y-73556666D01*
X233487676Y-73556666D02*
X233392438Y-73461428D01*
X233392438Y-73461428D02*
X233344819Y-73318571D01*
X233344819Y-73318571D02*
X233344819Y-73223333D01*
X233344819Y-73223333D02*
X233392438Y-73080476D01*
X233392438Y-73080476D02*
X233440057Y-73032857D01*
X233440057Y-72651904D02*
X233392438Y-72604285D01*
X233392438Y-72604285D02*
X233344819Y-72509047D01*
X233344819Y-72509047D02*
X233344819Y-72270952D01*
X233344819Y-72270952D02*
X233392438Y-72175714D01*
X233392438Y-72175714D02*
X233440057Y-72128095D01*
X233440057Y-72128095D02*
X233535295Y-72080476D01*
X233535295Y-72080476D02*
X233630533Y-72080476D01*
X233630533Y-72080476D02*
X233773390Y-72128095D01*
X233773390Y-72128095D02*
X234344819Y-72699523D01*
X234344819Y-72699523D02*
X234344819Y-72080476D01*
X233344819Y-71175714D02*
X233344819Y-71651904D01*
X233344819Y-71651904D02*
X233821009Y-71699523D01*
X233821009Y-71699523D02*
X233773390Y-71651904D01*
X233773390Y-71651904D02*
X233725771Y-71556666D01*
X233725771Y-71556666D02*
X233725771Y-71318571D01*
X233725771Y-71318571D02*
X233773390Y-71223333D01*
X233773390Y-71223333D02*
X233821009Y-71175714D01*
X233821009Y-71175714D02*
X233916247Y-71128095D01*
X233916247Y-71128095D02*
X234154342Y-71128095D01*
X234154342Y-71128095D02*
X234249580Y-71175714D01*
X234249580Y-71175714D02*
X234297200Y-71223333D01*
X234297200Y-71223333D02*
X234344819Y-71318571D01*
X234344819Y-71318571D02*
X234344819Y-71556666D01*
X234344819Y-71556666D02*
X234297200Y-71651904D01*
X234297200Y-71651904D02*
X234249580Y-71699523D01*
X252999580Y-74362857D02*
X253047200Y-74410476D01*
X253047200Y-74410476D02*
X253094819Y-74553333D01*
X253094819Y-74553333D02*
X253094819Y-74648571D01*
X253094819Y-74648571D02*
X253047200Y-74791428D01*
X253047200Y-74791428D02*
X252951961Y-74886666D01*
X252951961Y-74886666D02*
X252856723Y-74934285D01*
X252856723Y-74934285D02*
X252666247Y-74981904D01*
X252666247Y-74981904D02*
X252523390Y-74981904D01*
X252523390Y-74981904D02*
X252332914Y-74934285D01*
X252332914Y-74934285D02*
X252237676Y-74886666D01*
X252237676Y-74886666D02*
X252142438Y-74791428D01*
X252142438Y-74791428D02*
X252094819Y-74648571D01*
X252094819Y-74648571D02*
X252094819Y-74553333D01*
X252094819Y-74553333D02*
X252142438Y-74410476D01*
X252142438Y-74410476D02*
X252190057Y-74362857D01*
X252190057Y-73981904D02*
X252142438Y-73934285D01*
X252142438Y-73934285D02*
X252094819Y-73839047D01*
X252094819Y-73839047D02*
X252094819Y-73600952D01*
X252094819Y-73600952D02*
X252142438Y-73505714D01*
X252142438Y-73505714D02*
X252190057Y-73458095D01*
X252190057Y-73458095D02*
X252285295Y-73410476D01*
X252285295Y-73410476D02*
X252380533Y-73410476D01*
X252380533Y-73410476D02*
X252523390Y-73458095D01*
X252523390Y-73458095D02*
X253094819Y-74029523D01*
X253094819Y-74029523D02*
X253094819Y-73410476D01*
X252428152Y-72553333D02*
X253094819Y-72553333D01*
X252047200Y-72791428D02*
X252761485Y-73029523D01*
X252761485Y-73029523D02*
X252761485Y-72410476D01*
X250519580Y-71992857D02*
X250567200Y-72040476D01*
X250567200Y-72040476D02*
X250614819Y-72183333D01*
X250614819Y-72183333D02*
X250614819Y-72278571D01*
X250614819Y-72278571D02*
X250567200Y-72421428D01*
X250567200Y-72421428D02*
X250471961Y-72516666D01*
X250471961Y-72516666D02*
X250376723Y-72564285D01*
X250376723Y-72564285D02*
X250186247Y-72611904D01*
X250186247Y-72611904D02*
X250043390Y-72611904D01*
X250043390Y-72611904D02*
X249852914Y-72564285D01*
X249852914Y-72564285D02*
X249757676Y-72516666D01*
X249757676Y-72516666D02*
X249662438Y-72421428D01*
X249662438Y-72421428D02*
X249614819Y-72278571D01*
X249614819Y-72278571D02*
X249614819Y-72183333D01*
X249614819Y-72183333D02*
X249662438Y-72040476D01*
X249662438Y-72040476D02*
X249710057Y-71992857D01*
X249710057Y-71611904D02*
X249662438Y-71564285D01*
X249662438Y-71564285D02*
X249614819Y-71469047D01*
X249614819Y-71469047D02*
X249614819Y-71230952D01*
X249614819Y-71230952D02*
X249662438Y-71135714D01*
X249662438Y-71135714D02*
X249710057Y-71088095D01*
X249710057Y-71088095D02*
X249805295Y-71040476D01*
X249805295Y-71040476D02*
X249900533Y-71040476D01*
X249900533Y-71040476D02*
X250043390Y-71088095D01*
X250043390Y-71088095D02*
X250614819Y-71659523D01*
X250614819Y-71659523D02*
X250614819Y-71040476D01*
X249614819Y-70707142D02*
X249614819Y-70088095D01*
X249614819Y-70088095D02*
X249995771Y-70421428D01*
X249995771Y-70421428D02*
X249995771Y-70278571D01*
X249995771Y-70278571D02*
X250043390Y-70183333D01*
X250043390Y-70183333D02*
X250091009Y-70135714D01*
X250091009Y-70135714D02*
X250186247Y-70088095D01*
X250186247Y-70088095D02*
X250424342Y-70088095D01*
X250424342Y-70088095D02*
X250519580Y-70135714D01*
X250519580Y-70135714D02*
X250567200Y-70183333D01*
X250567200Y-70183333D02*
X250614819Y-70278571D01*
X250614819Y-70278571D02*
X250614819Y-70564285D01*
X250614819Y-70564285D02*
X250567200Y-70659523D01*
X250567200Y-70659523D02*
X250519580Y-70707142D01*
X245599580Y-76142857D02*
X245647200Y-76190476D01*
X245647200Y-76190476D02*
X245694819Y-76333333D01*
X245694819Y-76333333D02*
X245694819Y-76428571D01*
X245694819Y-76428571D02*
X245647200Y-76571428D01*
X245647200Y-76571428D02*
X245551961Y-76666666D01*
X245551961Y-76666666D02*
X245456723Y-76714285D01*
X245456723Y-76714285D02*
X245266247Y-76761904D01*
X245266247Y-76761904D02*
X245123390Y-76761904D01*
X245123390Y-76761904D02*
X244932914Y-76714285D01*
X244932914Y-76714285D02*
X244837676Y-76666666D01*
X244837676Y-76666666D02*
X244742438Y-76571428D01*
X244742438Y-76571428D02*
X244694819Y-76428571D01*
X244694819Y-76428571D02*
X244694819Y-76333333D01*
X244694819Y-76333333D02*
X244742438Y-76190476D01*
X244742438Y-76190476D02*
X244790057Y-76142857D01*
X244790057Y-75761904D02*
X244742438Y-75714285D01*
X244742438Y-75714285D02*
X244694819Y-75619047D01*
X244694819Y-75619047D02*
X244694819Y-75380952D01*
X244694819Y-75380952D02*
X244742438Y-75285714D01*
X244742438Y-75285714D02*
X244790057Y-75238095D01*
X244790057Y-75238095D02*
X244885295Y-75190476D01*
X244885295Y-75190476D02*
X244980533Y-75190476D01*
X244980533Y-75190476D02*
X245123390Y-75238095D01*
X245123390Y-75238095D02*
X245694819Y-75809523D01*
X245694819Y-75809523D02*
X245694819Y-75190476D01*
X244790057Y-74809523D02*
X244742438Y-74761904D01*
X244742438Y-74761904D02*
X244694819Y-74666666D01*
X244694819Y-74666666D02*
X244694819Y-74428571D01*
X244694819Y-74428571D02*
X244742438Y-74333333D01*
X244742438Y-74333333D02*
X244790057Y-74285714D01*
X244790057Y-74285714D02*
X244885295Y-74238095D01*
X244885295Y-74238095D02*
X244980533Y-74238095D01*
X244980533Y-74238095D02*
X245123390Y-74285714D01*
X245123390Y-74285714D02*
X245694819Y-74857142D01*
X245694819Y-74857142D02*
X245694819Y-74238095D01*
X183699580Y-78872857D02*
X183747200Y-78920476D01*
X183747200Y-78920476D02*
X183794819Y-79063333D01*
X183794819Y-79063333D02*
X183794819Y-79158571D01*
X183794819Y-79158571D02*
X183747200Y-79301428D01*
X183747200Y-79301428D02*
X183651961Y-79396666D01*
X183651961Y-79396666D02*
X183556723Y-79444285D01*
X183556723Y-79444285D02*
X183366247Y-79491904D01*
X183366247Y-79491904D02*
X183223390Y-79491904D01*
X183223390Y-79491904D02*
X183032914Y-79444285D01*
X183032914Y-79444285D02*
X182937676Y-79396666D01*
X182937676Y-79396666D02*
X182842438Y-79301428D01*
X182842438Y-79301428D02*
X182794819Y-79158571D01*
X182794819Y-79158571D02*
X182794819Y-79063333D01*
X182794819Y-79063333D02*
X182842438Y-78920476D01*
X182842438Y-78920476D02*
X182890057Y-78872857D01*
X182890057Y-78491904D02*
X182842438Y-78444285D01*
X182842438Y-78444285D02*
X182794819Y-78349047D01*
X182794819Y-78349047D02*
X182794819Y-78110952D01*
X182794819Y-78110952D02*
X182842438Y-78015714D01*
X182842438Y-78015714D02*
X182890057Y-77968095D01*
X182890057Y-77968095D02*
X182985295Y-77920476D01*
X182985295Y-77920476D02*
X183080533Y-77920476D01*
X183080533Y-77920476D02*
X183223390Y-77968095D01*
X183223390Y-77968095D02*
X183794819Y-78539523D01*
X183794819Y-78539523D02*
X183794819Y-77920476D01*
X183794819Y-76968095D02*
X183794819Y-77539523D01*
X183794819Y-77253809D02*
X182794819Y-77253809D01*
X182794819Y-77253809D02*
X182937676Y-77349047D01*
X182937676Y-77349047D02*
X183032914Y-77444285D01*
X183032914Y-77444285D02*
X183080533Y-77539523D01*
X176599580Y-78965857D02*
X176647200Y-79013476D01*
X176647200Y-79013476D02*
X176694819Y-79156333D01*
X176694819Y-79156333D02*
X176694819Y-79251571D01*
X176694819Y-79251571D02*
X176647200Y-79394428D01*
X176647200Y-79394428D02*
X176551961Y-79489666D01*
X176551961Y-79489666D02*
X176456723Y-79537285D01*
X176456723Y-79537285D02*
X176266247Y-79584904D01*
X176266247Y-79584904D02*
X176123390Y-79584904D01*
X176123390Y-79584904D02*
X175932914Y-79537285D01*
X175932914Y-79537285D02*
X175837676Y-79489666D01*
X175837676Y-79489666D02*
X175742438Y-79394428D01*
X175742438Y-79394428D02*
X175694819Y-79251571D01*
X175694819Y-79251571D02*
X175694819Y-79156333D01*
X175694819Y-79156333D02*
X175742438Y-79013476D01*
X175742438Y-79013476D02*
X175790057Y-78965857D01*
X175790057Y-78584904D02*
X175742438Y-78537285D01*
X175742438Y-78537285D02*
X175694819Y-78442047D01*
X175694819Y-78442047D02*
X175694819Y-78203952D01*
X175694819Y-78203952D02*
X175742438Y-78108714D01*
X175742438Y-78108714D02*
X175790057Y-78061095D01*
X175790057Y-78061095D02*
X175885295Y-78013476D01*
X175885295Y-78013476D02*
X175980533Y-78013476D01*
X175980533Y-78013476D02*
X176123390Y-78061095D01*
X176123390Y-78061095D02*
X176694819Y-78632523D01*
X176694819Y-78632523D02*
X176694819Y-78013476D01*
X175694819Y-77394428D02*
X175694819Y-77299190D01*
X175694819Y-77299190D02*
X175742438Y-77203952D01*
X175742438Y-77203952D02*
X175790057Y-77156333D01*
X175790057Y-77156333D02*
X175885295Y-77108714D01*
X175885295Y-77108714D02*
X176075771Y-77061095D01*
X176075771Y-77061095D02*
X176313866Y-77061095D01*
X176313866Y-77061095D02*
X176504342Y-77108714D01*
X176504342Y-77108714D02*
X176599580Y-77156333D01*
X176599580Y-77156333D02*
X176647200Y-77203952D01*
X176647200Y-77203952D02*
X176694819Y-77299190D01*
X176694819Y-77299190D02*
X176694819Y-77394428D01*
X176694819Y-77394428D02*
X176647200Y-77489666D01*
X176647200Y-77489666D02*
X176599580Y-77537285D01*
X176599580Y-77537285D02*
X176504342Y-77584904D01*
X176504342Y-77584904D02*
X176313866Y-77632523D01*
X176313866Y-77632523D02*
X176075771Y-77632523D01*
X176075771Y-77632523D02*
X175885295Y-77584904D01*
X175885295Y-77584904D02*
X175790057Y-77537285D01*
X175790057Y-77537285D02*
X175742438Y-77489666D01*
X175742438Y-77489666D02*
X175694819Y-77394428D01*
X184699580Y-78852857D02*
X184747200Y-78900476D01*
X184747200Y-78900476D02*
X184794819Y-79043333D01*
X184794819Y-79043333D02*
X184794819Y-79138571D01*
X184794819Y-79138571D02*
X184747200Y-79281428D01*
X184747200Y-79281428D02*
X184651961Y-79376666D01*
X184651961Y-79376666D02*
X184556723Y-79424285D01*
X184556723Y-79424285D02*
X184366247Y-79471904D01*
X184366247Y-79471904D02*
X184223390Y-79471904D01*
X184223390Y-79471904D02*
X184032914Y-79424285D01*
X184032914Y-79424285D02*
X183937676Y-79376666D01*
X183937676Y-79376666D02*
X183842438Y-79281428D01*
X183842438Y-79281428D02*
X183794819Y-79138571D01*
X183794819Y-79138571D02*
X183794819Y-79043333D01*
X183794819Y-79043333D02*
X183842438Y-78900476D01*
X183842438Y-78900476D02*
X183890057Y-78852857D01*
X184794819Y-77900476D02*
X184794819Y-78471904D01*
X184794819Y-78186190D02*
X183794819Y-78186190D01*
X183794819Y-78186190D02*
X183937676Y-78281428D01*
X183937676Y-78281428D02*
X184032914Y-78376666D01*
X184032914Y-78376666D02*
X184080533Y-78471904D01*
X184794819Y-77424285D02*
X184794819Y-77233809D01*
X184794819Y-77233809D02*
X184747200Y-77138571D01*
X184747200Y-77138571D02*
X184699580Y-77090952D01*
X184699580Y-77090952D02*
X184556723Y-76995714D01*
X184556723Y-76995714D02*
X184366247Y-76948095D01*
X184366247Y-76948095D02*
X183985295Y-76948095D01*
X183985295Y-76948095D02*
X183890057Y-76995714D01*
X183890057Y-76995714D02*
X183842438Y-77043333D01*
X183842438Y-77043333D02*
X183794819Y-77138571D01*
X183794819Y-77138571D02*
X183794819Y-77329047D01*
X183794819Y-77329047D02*
X183842438Y-77424285D01*
X183842438Y-77424285D02*
X183890057Y-77471904D01*
X183890057Y-77471904D02*
X183985295Y-77519523D01*
X183985295Y-77519523D02*
X184223390Y-77519523D01*
X184223390Y-77519523D02*
X184318628Y-77471904D01*
X184318628Y-77471904D02*
X184366247Y-77424285D01*
X184366247Y-77424285D02*
X184413866Y-77329047D01*
X184413866Y-77329047D02*
X184413866Y-77138571D01*
X184413866Y-77138571D02*
X184366247Y-77043333D01*
X184366247Y-77043333D02*
X184318628Y-76995714D01*
X184318628Y-76995714D02*
X184223390Y-76948095D01*
X177599580Y-78945857D02*
X177647200Y-78993476D01*
X177647200Y-78993476D02*
X177694819Y-79136333D01*
X177694819Y-79136333D02*
X177694819Y-79231571D01*
X177694819Y-79231571D02*
X177647200Y-79374428D01*
X177647200Y-79374428D02*
X177551961Y-79469666D01*
X177551961Y-79469666D02*
X177456723Y-79517285D01*
X177456723Y-79517285D02*
X177266247Y-79564904D01*
X177266247Y-79564904D02*
X177123390Y-79564904D01*
X177123390Y-79564904D02*
X176932914Y-79517285D01*
X176932914Y-79517285D02*
X176837676Y-79469666D01*
X176837676Y-79469666D02*
X176742438Y-79374428D01*
X176742438Y-79374428D02*
X176694819Y-79231571D01*
X176694819Y-79231571D02*
X176694819Y-79136333D01*
X176694819Y-79136333D02*
X176742438Y-78993476D01*
X176742438Y-78993476D02*
X176790057Y-78945857D01*
X177694819Y-77993476D02*
X177694819Y-78564904D01*
X177694819Y-78279190D02*
X176694819Y-78279190D01*
X176694819Y-78279190D02*
X176837676Y-78374428D01*
X176837676Y-78374428D02*
X176932914Y-78469666D01*
X176932914Y-78469666D02*
X176980533Y-78564904D01*
X177123390Y-77422047D02*
X177075771Y-77517285D01*
X177075771Y-77517285D02*
X177028152Y-77564904D01*
X177028152Y-77564904D02*
X176932914Y-77612523D01*
X176932914Y-77612523D02*
X176885295Y-77612523D01*
X176885295Y-77612523D02*
X176790057Y-77564904D01*
X176790057Y-77564904D02*
X176742438Y-77517285D01*
X176742438Y-77517285D02*
X176694819Y-77422047D01*
X176694819Y-77422047D02*
X176694819Y-77231571D01*
X176694819Y-77231571D02*
X176742438Y-77136333D01*
X176742438Y-77136333D02*
X176790057Y-77088714D01*
X176790057Y-77088714D02*
X176885295Y-77041095D01*
X176885295Y-77041095D02*
X176932914Y-77041095D01*
X176932914Y-77041095D02*
X177028152Y-77088714D01*
X177028152Y-77088714D02*
X177075771Y-77136333D01*
X177075771Y-77136333D02*
X177123390Y-77231571D01*
X177123390Y-77231571D02*
X177123390Y-77422047D01*
X177123390Y-77422047D02*
X177171009Y-77517285D01*
X177171009Y-77517285D02*
X177218628Y-77564904D01*
X177218628Y-77564904D02*
X177313866Y-77612523D01*
X177313866Y-77612523D02*
X177504342Y-77612523D01*
X177504342Y-77612523D02*
X177599580Y-77564904D01*
X177599580Y-77564904D02*
X177647200Y-77517285D01*
X177647200Y-77517285D02*
X177694819Y-77422047D01*
X177694819Y-77422047D02*
X177694819Y-77231571D01*
X177694819Y-77231571D02*
X177647200Y-77136333D01*
X177647200Y-77136333D02*
X177599580Y-77088714D01*
X177599580Y-77088714D02*
X177504342Y-77041095D01*
X177504342Y-77041095D02*
X177313866Y-77041095D01*
X177313866Y-77041095D02*
X177218628Y-77088714D01*
X177218628Y-77088714D02*
X177171009Y-77136333D01*
X177171009Y-77136333D02*
X177123390Y-77231571D01*
X217552142Y-70094580D02*
X217504523Y-70142200D01*
X217504523Y-70142200D02*
X217361666Y-70189819D01*
X217361666Y-70189819D02*
X217266428Y-70189819D01*
X217266428Y-70189819D02*
X217123571Y-70142200D01*
X217123571Y-70142200D02*
X217028333Y-70046961D01*
X217028333Y-70046961D02*
X216980714Y-69951723D01*
X216980714Y-69951723D02*
X216933095Y-69761247D01*
X216933095Y-69761247D02*
X216933095Y-69618390D01*
X216933095Y-69618390D02*
X216980714Y-69427914D01*
X216980714Y-69427914D02*
X217028333Y-69332676D01*
X217028333Y-69332676D02*
X217123571Y-69237438D01*
X217123571Y-69237438D02*
X217266428Y-69189819D01*
X217266428Y-69189819D02*
X217361666Y-69189819D01*
X217361666Y-69189819D02*
X217504523Y-69237438D01*
X217504523Y-69237438D02*
X217552142Y-69285057D01*
X218504523Y-70189819D02*
X217933095Y-70189819D01*
X218218809Y-70189819D02*
X218218809Y-69189819D01*
X218218809Y-69189819D02*
X218123571Y-69332676D01*
X218123571Y-69332676D02*
X218028333Y-69427914D01*
X218028333Y-69427914D02*
X217933095Y-69475533D01*
X218837857Y-69189819D02*
X219504523Y-69189819D01*
X219504523Y-69189819D02*
X219075952Y-70189819D01*
X218277142Y-66749580D02*
X218229523Y-66797200D01*
X218229523Y-66797200D02*
X218086666Y-66844819D01*
X218086666Y-66844819D02*
X217991428Y-66844819D01*
X217991428Y-66844819D02*
X217848571Y-66797200D01*
X217848571Y-66797200D02*
X217753333Y-66701961D01*
X217753333Y-66701961D02*
X217705714Y-66606723D01*
X217705714Y-66606723D02*
X217658095Y-66416247D01*
X217658095Y-66416247D02*
X217658095Y-66273390D01*
X217658095Y-66273390D02*
X217705714Y-66082914D01*
X217705714Y-66082914D02*
X217753333Y-65987676D01*
X217753333Y-65987676D02*
X217848571Y-65892438D01*
X217848571Y-65892438D02*
X217991428Y-65844819D01*
X217991428Y-65844819D02*
X218086666Y-65844819D01*
X218086666Y-65844819D02*
X218229523Y-65892438D01*
X218229523Y-65892438D02*
X218277142Y-65940057D01*
X219229523Y-66844819D02*
X218658095Y-66844819D01*
X218943809Y-66844819D02*
X218943809Y-65844819D01*
X218943809Y-65844819D02*
X218848571Y-65987676D01*
X218848571Y-65987676D02*
X218753333Y-66082914D01*
X218753333Y-66082914D02*
X218658095Y-66130533D01*
X220086666Y-65844819D02*
X219896190Y-65844819D01*
X219896190Y-65844819D02*
X219800952Y-65892438D01*
X219800952Y-65892438D02*
X219753333Y-65940057D01*
X219753333Y-65940057D02*
X219658095Y-66082914D01*
X219658095Y-66082914D02*
X219610476Y-66273390D01*
X219610476Y-66273390D02*
X219610476Y-66654342D01*
X219610476Y-66654342D02*
X219658095Y-66749580D01*
X219658095Y-66749580D02*
X219705714Y-66797200D01*
X219705714Y-66797200D02*
X219800952Y-66844819D01*
X219800952Y-66844819D02*
X219991428Y-66844819D01*
X219991428Y-66844819D02*
X220086666Y-66797200D01*
X220086666Y-66797200D02*
X220134285Y-66749580D01*
X220134285Y-66749580D02*
X220181904Y-66654342D01*
X220181904Y-66654342D02*
X220181904Y-66416247D01*
X220181904Y-66416247D02*
X220134285Y-66321009D01*
X220134285Y-66321009D02*
X220086666Y-66273390D01*
X220086666Y-66273390D02*
X219991428Y-66225771D01*
X219991428Y-66225771D02*
X219800952Y-66225771D01*
X219800952Y-66225771D02*
X219705714Y-66273390D01*
X219705714Y-66273390D02*
X219658095Y-66321009D01*
X219658095Y-66321009D02*
X219610476Y-66416247D01*
X218699580Y-66592857D02*
X218747200Y-66640476D01*
X218747200Y-66640476D02*
X218794819Y-66783333D01*
X218794819Y-66783333D02*
X218794819Y-66878571D01*
X218794819Y-66878571D02*
X218747200Y-67021428D01*
X218747200Y-67021428D02*
X218651961Y-67116666D01*
X218651961Y-67116666D02*
X218556723Y-67164285D01*
X218556723Y-67164285D02*
X218366247Y-67211904D01*
X218366247Y-67211904D02*
X218223390Y-67211904D01*
X218223390Y-67211904D02*
X218032914Y-67164285D01*
X218032914Y-67164285D02*
X217937676Y-67116666D01*
X217937676Y-67116666D02*
X217842438Y-67021428D01*
X217842438Y-67021428D02*
X217794819Y-66878571D01*
X217794819Y-66878571D02*
X217794819Y-66783333D01*
X217794819Y-66783333D02*
X217842438Y-66640476D01*
X217842438Y-66640476D02*
X217890057Y-66592857D01*
X218794819Y-65640476D02*
X218794819Y-66211904D01*
X218794819Y-65926190D02*
X217794819Y-65926190D01*
X217794819Y-65926190D02*
X217937676Y-66021428D01*
X217937676Y-66021428D02*
X218032914Y-66116666D01*
X218032914Y-66116666D02*
X218080533Y-66211904D01*
X217794819Y-64735714D02*
X217794819Y-65211904D01*
X217794819Y-65211904D02*
X218271009Y-65259523D01*
X218271009Y-65259523D02*
X218223390Y-65211904D01*
X218223390Y-65211904D02*
X218175771Y-65116666D01*
X218175771Y-65116666D02*
X218175771Y-64878571D01*
X218175771Y-64878571D02*
X218223390Y-64783333D01*
X218223390Y-64783333D02*
X218271009Y-64735714D01*
X218271009Y-64735714D02*
X218366247Y-64688095D01*
X218366247Y-64688095D02*
X218604342Y-64688095D01*
X218604342Y-64688095D02*
X218699580Y-64735714D01*
X218699580Y-64735714D02*
X218747200Y-64783333D01*
X218747200Y-64783333D02*
X218794819Y-64878571D01*
X218794819Y-64878571D02*
X218794819Y-65116666D01*
X218794819Y-65116666D02*
X218747200Y-65211904D01*
X218747200Y-65211904D02*
X218699580Y-65259523D01*
X168619580Y-74882857D02*
X168667200Y-74930476D01*
X168667200Y-74930476D02*
X168714819Y-75073333D01*
X168714819Y-75073333D02*
X168714819Y-75168571D01*
X168714819Y-75168571D02*
X168667200Y-75311428D01*
X168667200Y-75311428D02*
X168571961Y-75406666D01*
X168571961Y-75406666D02*
X168476723Y-75454285D01*
X168476723Y-75454285D02*
X168286247Y-75501904D01*
X168286247Y-75501904D02*
X168143390Y-75501904D01*
X168143390Y-75501904D02*
X167952914Y-75454285D01*
X167952914Y-75454285D02*
X167857676Y-75406666D01*
X167857676Y-75406666D02*
X167762438Y-75311428D01*
X167762438Y-75311428D02*
X167714819Y-75168571D01*
X167714819Y-75168571D02*
X167714819Y-75073333D01*
X167714819Y-75073333D02*
X167762438Y-74930476D01*
X167762438Y-74930476D02*
X167810057Y-74882857D01*
X168714819Y-73930476D02*
X168714819Y-74501904D01*
X168714819Y-74216190D02*
X167714819Y-74216190D01*
X167714819Y-74216190D02*
X167857676Y-74311428D01*
X167857676Y-74311428D02*
X167952914Y-74406666D01*
X167952914Y-74406666D02*
X168000533Y-74501904D01*
X168048152Y-73073333D02*
X168714819Y-73073333D01*
X167667200Y-73311428D02*
X168381485Y-73549523D01*
X168381485Y-73549523D02*
X168381485Y-72930476D01*
X167619580Y-74862857D02*
X167667200Y-74910476D01*
X167667200Y-74910476D02*
X167714819Y-75053333D01*
X167714819Y-75053333D02*
X167714819Y-75148571D01*
X167714819Y-75148571D02*
X167667200Y-75291428D01*
X167667200Y-75291428D02*
X167571961Y-75386666D01*
X167571961Y-75386666D02*
X167476723Y-75434285D01*
X167476723Y-75434285D02*
X167286247Y-75481904D01*
X167286247Y-75481904D02*
X167143390Y-75481904D01*
X167143390Y-75481904D02*
X166952914Y-75434285D01*
X166952914Y-75434285D02*
X166857676Y-75386666D01*
X166857676Y-75386666D02*
X166762438Y-75291428D01*
X166762438Y-75291428D02*
X166714819Y-75148571D01*
X166714819Y-75148571D02*
X166714819Y-75053333D01*
X166714819Y-75053333D02*
X166762438Y-74910476D01*
X166762438Y-74910476D02*
X166810057Y-74862857D01*
X167714819Y-73910476D02*
X167714819Y-74481904D01*
X167714819Y-74196190D02*
X166714819Y-74196190D01*
X166714819Y-74196190D02*
X166857676Y-74291428D01*
X166857676Y-74291428D02*
X166952914Y-74386666D01*
X166952914Y-74386666D02*
X167000533Y-74481904D01*
X166714819Y-73577142D02*
X166714819Y-72958095D01*
X166714819Y-72958095D02*
X167095771Y-73291428D01*
X167095771Y-73291428D02*
X167095771Y-73148571D01*
X167095771Y-73148571D02*
X167143390Y-73053333D01*
X167143390Y-73053333D02*
X167191009Y-73005714D01*
X167191009Y-73005714D02*
X167286247Y-72958095D01*
X167286247Y-72958095D02*
X167524342Y-72958095D01*
X167524342Y-72958095D02*
X167619580Y-73005714D01*
X167619580Y-73005714D02*
X167667200Y-73053333D01*
X167667200Y-73053333D02*
X167714819Y-73148571D01*
X167714819Y-73148571D02*
X167714819Y-73434285D01*
X167714819Y-73434285D02*
X167667200Y-73529523D01*
X167667200Y-73529523D02*
X167619580Y-73577142D01*
X189969580Y-64162857D02*
X190017200Y-64210476D01*
X190017200Y-64210476D02*
X190064819Y-64353333D01*
X190064819Y-64353333D02*
X190064819Y-64448571D01*
X190064819Y-64448571D02*
X190017200Y-64591428D01*
X190017200Y-64591428D02*
X189921961Y-64686666D01*
X189921961Y-64686666D02*
X189826723Y-64734285D01*
X189826723Y-64734285D02*
X189636247Y-64781904D01*
X189636247Y-64781904D02*
X189493390Y-64781904D01*
X189493390Y-64781904D02*
X189302914Y-64734285D01*
X189302914Y-64734285D02*
X189207676Y-64686666D01*
X189207676Y-64686666D02*
X189112438Y-64591428D01*
X189112438Y-64591428D02*
X189064819Y-64448571D01*
X189064819Y-64448571D02*
X189064819Y-64353333D01*
X189064819Y-64353333D02*
X189112438Y-64210476D01*
X189112438Y-64210476D02*
X189160057Y-64162857D01*
X190064819Y-63210476D02*
X190064819Y-63781904D01*
X190064819Y-63496190D02*
X189064819Y-63496190D01*
X189064819Y-63496190D02*
X189207676Y-63591428D01*
X189207676Y-63591428D02*
X189302914Y-63686666D01*
X189302914Y-63686666D02*
X189350533Y-63781904D01*
X189160057Y-62829523D02*
X189112438Y-62781904D01*
X189112438Y-62781904D02*
X189064819Y-62686666D01*
X189064819Y-62686666D02*
X189064819Y-62448571D01*
X189064819Y-62448571D02*
X189112438Y-62353333D01*
X189112438Y-62353333D02*
X189160057Y-62305714D01*
X189160057Y-62305714D02*
X189255295Y-62258095D01*
X189255295Y-62258095D02*
X189350533Y-62258095D01*
X189350533Y-62258095D02*
X189493390Y-62305714D01*
X189493390Y-62305714D02*
X190064819Y-62877142D01*
X190064819Y-62877142D02*
X190064819Y-62258095D01*
X189869580Y-66682857D02*
X189917200Y-66730476D01*
X189917200Y-66730476D02*
X189964819Y-66873333D01*
X189964819Y-66873333D02*
X189964819Y-66968571D01*
X189964819Y-66968571D02*
X189917200Y-67111428D01*
X189917200Y-67111428D02*
X189821961Y-67206666D01*
X189821961Y-67206666D02*
X189726723Y-67254285D01*
X189726723Y-67254285D02*
X189536247Y-67301904D01*
X189536247Y-67301904D02*
X189393390Y-67301904D01*
X189393390Y-67301904D02*
X189202914Y-67254285D01*
X189202914Y-67254285D02*
X189107676Y-67206666D01*
X189107676Y-67206666D02*
X189012438Y-67111428D01*
X189012438Y-67111428D02*
X188964819Y-66968571D01*
X188964819Y-66968571D02*
X188964819Y-66873333D01*
X188964819Y-66873333D02*
X189012438Y-66730476D01*
X189012438Y-66730476D02*
X189060057Y-66682857D01*
X189964819Y-65730476D02*
X189964819Y-66301904D01*
X189964819Y-66016190D02*
X188964819Y-66016190D01*
X188964819Y-66016190D02*
X189107676Y-66111428D01*
X189107676Y-66111428D02*
X189202914Y-66206666D01*
X189202914Y-66206666D02*
X189250533Y-66301904D01*
X189964819Y-64778095D02*
X189964819Y-65349523D01*
X189964819Y-65063809D02*
X188964819Y-65063809D01*
X188964819Y-65063809D02*
X189107676Y-65159047D01*
X189107676Y-65159047D02*
X189202914Y-65254285D01*
X189202914Y-65254285D02*
X189250533Y-65349523D01*
X186599580Y-64172857D02*
X186647200Y-64220476D01*
X186647200Y-64220476D02*
X186694819Y-64363333D01*
X186694819Y-64363333D02*
X186694819Y-64458571D01*
X186694819Y-64458571D02*
X186647200Y-64601428D01*
X186647200Y-64601428D02*
X186551961Y-64696666D01*
X186551961Y-64696666D02*
X186456723Y-64744285D01*
X186456723Y-64744285D02*
X186266247Y-64791904D01*
X186266247Y-64791904D02*
X186123390Y-64791904D01*
X186123390Y-64791904D02*
X185932914Y-64744285D01*
X185932914Y-64744285D02*
X185837676Y-64696666D01*
X185837676Y-64696666D02*
X185742438Y-64601428D01*
X185742438Y-64601428D02*
X185694819Y-64458571D01*
X185694819Y-64458571D02*
X185694819Y-64363333D01*
X185694819Y-64363333D02*
X185742438Y-64220476D01*
X185742438Y-64220476D02*
X185790057Y-64172857D01*
X186694819Y-63220476D02*
X186694819Y-63791904D01*
X186694819Y-63506190D02*
X185694819Y-63506190D01*
X185694819Y-63506190D02*
X185837676Y-63601428D01*
X185837676Y-63601428D02*
X185932914Y-63696666D01*
X185932914Y-63696666D02*
X185980533Y-63791904D01*
X185694819Y-62601428D02*
X185694819Y-62506190D01*
X185694819Y-62506190D02*
X185742438Y-62410952D01*
X185742438Y-62410952D02*
X185790057Y-62363333D01*
X185790057Y-62363333D02*
X185885295Y-62315714D01*
X185885295Y-62315714D02*
X186075771Y-62268095D01*
X186075771Y-62268095D02*
X186313866Y-62268095D01*
X186313866Y-62268095D02*
X186504342Y-62315714D01*
X186504342Y-62315714D02*
X186599580Y-62363333D01*
X186599580Y-62363333D02*
X186647200Y-62410952D01*
X186647200Y-62410952D02*
X186694819Y-62506190D01*
X186694819Y-62506190D02*
X186694819Y-62601428D01*
X186694819Y-62601428D02*
X186647200Y-62696666D01*
X186647200Y-62696666D02*
X186599580Y-62744285D01*
X186599580Y-62744285D02*
X186504342Y-62791904D01*
X186504342Y-62791904D02*
X186313866Y-62839523D01*
X186313866Y-62839523D02*
X186075771Y-62839523D01*
X186075771Y-62839523D02*
X185885295Y-62791904D01*
X185885295Y-62791904D02*
X185790057Y-62744285D01*
X185790057Y-62744285D02*
X185742438Y-62696666D01*
X185742438Y-62696666D02*
X185694819Y-62601428D01*
X186449580Y-66236666D02*
X186497200Y-66284285D01*
X186497200Y-66284285D02*
X186544819Y-66427142D01*
X186544819Y-66427142D02*
X186544819Y-66522380D01*
X186544819Y-66522380D02*
X186497200Y-66665237D01*
X186497200Y-66665237D02*
X186401961Y-66760475D01*
X186401961Y-66760475D02*
X186306723Y-66808094D01*
X186306723Y-66808094D02*
X186116247Y-66855713D01*
X186116247Y-66855713D02*
X185973390Y-66855713D01*
X185973390Y-66855713D02*
X185782914Y-66808094D01*
X185782914Y-66808094D02*
X185687676Y-66760475D01*
X185687676Y-66760475D02*
X185592438Y-66665237D01*
X185592438Y-66665237D02*
X185544819Y-66522380D01*
X185544819Y-66522380D02*
X185544819Y-66427142D01*
X185544819Y-66427142D02*
X185592438Y-66284285D01*
X185592438Y-66284285D02*
X185640057Y-66236666D01*
X186544819Y-65760475D02*
X186544819Y-65569999D01*
X186544819Y-65569999D02*
X186497200Y-65474761D01*
X186497200Y-65474761D02*
X186449580Y-65427142D01*
X186449580Y-65427142D02*
X186306723Y-65331904D01*
X186306723Y-65331904D02*
X186116247Y-65284285D01*
X186116247Y-65284285D02*
X185735295Y-65284285D01*
X185735295Y-65284285D02*
X185640057Y-65331904D01*
X185640057Y-65331904D02*
X185592438Y-65379523D01*
X185592438Y-65379523D02*
X185544819Y-65474761D01*
X185544819Y-65474761D02*
X185544819Y-65665237D01*
X185544819Y-65665237D02*
X185592438Y-65760475D01*
X185592438Y-65760475D02*
X185640057Y-65808094D01*
X185640057Y-65808094D02*
X185735295Y-65855713D01*
X185735295Y-65855713D02*
X185973390Y-65855713D01*
X185973390Y-65855713D02*
X186068628Y-65808094D01*
X186068628Y-65808094D02*
X186116247Y-65760475D01*
X186116247Y-65760475D02*
X186163866Y-65665237D01*
X186163866Y-65665237D02*
X186163866Y-65474761D01*
X186163866Y-65474761D02*
X186116247Y-65379523D01*
X186116247Y-65379523D02*
X186068628Y-65331904D01*
X186068628Y-65331904D02*
X185973390Y-65284285D01*
X164233333Y-72699580D02*
X164185714Y-72747200D01*
X164185714Y-72747200D02*
X164042857Y-72794819D01*
X164042857Y-72794819D02*
X163947619Y-72794819D01*
X163947619Y-72794819D02*
X163804762Y-72747200D01*
X163804762Y-72747200D02*
X163709524Y-72651961D01*
X163709524Y-72651961D02*
X163661905Y-72556723D01*
X163661905Y-72556723D02*
X163614286Y-72366247D01*
X163614286Y-72366247D02*
X163614286Y-72223390D01*
X163614286Y-72223390D02*
X163661905Y-72032914D01*
X163661905Y-72032914D02*
X163709524Y-71937676D01*
X163709524Y-71937676D02*
X163804762Y-71842438D01*
X163804762Y-71842438D02*
X163947619Y-71794819D01*
X163947619Y-71794819D02*
X164042857Y-71794819D01*
X164042857Y-71794819D02*
X164185714Y-71842438D01*
X164185714Y-71842438D02*
X164233333Y-71890057D01*
X164804762Y-72223390D02*
X164709524Y-72175771D01*
X164709524Y-72175771D02*
X164661905Y-72128152D01*
X164661905Y-72128152D02*
X164614286Y-72032914D01*
X164614286Y-72032914D02*
X164614286Y-71985295D01*
X164614286Y-71985295D02*
X164661905Y-71890057D01*
X164661905Y-71890057D02*
X164709524Y-71842438D01*
X164709524Y-71842438D02*
X164804762Y-71794819D01*
X164804762Y-71794819D02*
X164995238Y-71794819D01*
X164995238Y-71794819D02*
X165090476Y-71842438D01*
X165090476Y-71842438D02*
X165138095Y-71890057D01*
X165138095Y-71890057D02*
X165185714Y-71985295D01*
X165185714Y-71985295D02*
X165185714Y-72032914D01*
X165185714Y-72032914D02*
X165138095Y-72128152D01*
X165138095Y-72128152D02*
X165090476Y-72175771D01*
X165090476Y-72175771D02*
X164995238Y-72223390D01*
X164995238Y-72223390D02*
X164804762Y-72223390D01*
X164804762Y-72223390D02*
X164709524Y-72271009D01*
X164709524Y-72271009D02*
X164661905Y-72318628D01*
X164661905Y-72318628D02*
X164614286Y-72413866D01*
X164614286Y-72413866D02*
X164614286Y-72604342D01*
X164614286Y-72604342D02*
X164661905Y-72699580D01*
X164661905Y-72699580D02*
X164709524Y-72747200D01*
X164709524Y-72747200D02*
X164804762Y-72794819D01*
X164804762Y-72794819D02*
X164995238Y-72794819D01*
X164995238Y-72794819D02*
X165090476Y-72747200D01*
X165090476Y-72747200D02*
X165138095Y-72699580D01*
X165138095Y-72699580D02*
X165185714Y-72604342D01*
X165185714Y-72604342D02*
X165185714Y-72413866D01*
X165185714Y-72413866D02*
X165138095Y-72318628D01*
X165138095Y-72318628D02*
X165090476Y-72271009D01*
X165090476Y-72271009D02*
X164995238Y-72223390D01*
X192973333Y-80869580D02*
X192925714Y-80917200D01*
X192925714Y-80917200D02*
X192782857Y-80964819D01*
X192782857Y-80964819D02*
X192687619Y-80964819D01*
X192687619Y-80964819D02*
X192544762Y-80917200D01*
X192544762Y-80917200D02*
X192449524Y-80821961D01*
X192449524Y-80821961D02*
X192401905Y-80726723D01*
X192401905Y-80726723D02*
X192354286Y-80536247D01*
X192354286Y-80536247D02*
X192354286Y-80393390D01*
X192354286Y-80393390D02*
X192401905Y-80202914D01*
X192401905Y-80202914D02*
X192449524Y-80107676D01*
X192449524Y-80107676D02*
X192544762Y-80012438D01*
X192544762Y-80012438D02*
X192687619Y-79964819D01*
X192687619Y-79964819D02*
X192782857Y-79964819D01*
X192782857Y-79964819D02*
X192925714Y-80012438D01*
X192925714Y-80012438D02*
X192973333Y-80060057D01*
X193306667Y-79964819D02*
X193973333Y-79964819D01*
X193973333Y-79964819D02*
X193544762Y-80964819D01*
X210613333Y-78799580D02*
X210565714Y-78847200D01*
X210565714Y-78847200D02*
X210422857Y-78894819D01*
X210422857Y-78894819D02*
X210327619Y-78894819D01*
X210327619Y-78894819D02*
X210184762Y-78847200D01*
X210184762Y-78847200D02*
X210089524Y-78751961D01*
X210089524Y-78751961D02*
X210041905Y-78656723D01*
X210041905Y-78656723D02*
X209994286Y-78466247D01*
X209994286Y-78466247D02*
X209994286Y-78323390D01*
X209994286Y-78323390D02*
X210041905Y-78132914D01*
X210041905Y-78132914D02*
X210089524Y-78037676D01*
X210089524Y-78037676D02*
X210184762Y-77942438D01*
X210184762Y-77942438D02*
X210327619Y-77894819D01*
X210327619Y-77894819D02*
X210422857Y-77894819D01*
X210422857Y-77894819D02*
X210565714Y-77942438D01*
X210565714Y-77942438D02*
X210613333Y-77990057D01*
X211470476Y-77894819D02*
X211280000Y-77894819D01*
X211280000Y-77894819D02*
X211184762Y-77942438D01*
X211184762Y-77942438D02*
X211137143Y-77990057D01*
X211137143Y-77990057D02*
X211041905Y-78132914D01*
X211041905Y-78132914D02*
X210994286Y-78323390D01*
X210994286Y-78323390D02*
X210994286Y-78704342D01*
X210994286Y-78704342D02*
X211041905Y-78799580D01*
X211041905Y-78799580D02*
X211089524Y-78847200D01*
X211089524Y-78847200D02*
X211184762Y-78894819D01*
X211184762Y-78894819D02*
X211375238Y-78894819D01*
X211375238Y-78894819D02*
X211470476Y-78847200D01*
X211470476Y-78847200D02*
X211518095Y-78799580D01*
X211518095Y-78799580D02*
X211565714Y-78704342D01*
X211565714Y-78704342D02*
X211565714Y-78466247D01*
X211565714Y-78466247D02*
X211518095Y-78371009D01*
X211518095Y-78371009D02*
X211470476Y-78323390D01*
X211470476Y-78323390D02*
X211375238Y-78275771D01*
X211375238Y-78275771D02*
X211184762Y-78275771D01*
X211184762Y-78275771D02*
X211089524Y-78323390D01*
X211089524Y-78323390D02*
X211041905Y-78371009D01*
X211041905Y-78371009D02*
X210994286Y-78466247D01*
X205399580Y-79266666D02*
X205447200Y-79314285D01*
X205447200Y-79314285D02*
X205494819Y-79457142D01*
X205494819Y-79457142D02*
X205494819Y-79552380D01*
X205494819Y-79552380D02*
X205447200Y-79695237D01*
X205447200Y-79695237D02*
X205351961Y-79790475D01*
X205351961Y-79790475D02*
X205256723Y-79838094D01*
X205256723Y-79838094D02*
X205066247Y-79885713D01*
X205066247Y-79885713D02*
X204923390Y-79885713D01*
X204923390Y-79885713D02*
X204732914Y-79838094D01*
X204732914Y-79838094D02*
X204637676Y-79790475D01*
X204637676Y-79790475D02*
X204542438Y-79695237D01*
X204542438Y-79695237D02*
X204494819Y-79552380D01*
X204494819Y-79552380D02*
X204494819Y-79457142D01*
X204494819Y-79457142D02*
X204542438Y-79314285D01*
X204542438Y-79314285D02*
X204590057Y-79266666D01*
X204494819Y-78361904D02*
X204494819Y-78838094D01*
X204494819Y-78838094D02*
X204971009Y-78885713D01*
X204971009Y-78885713D02*
X204923390Y-78838094D01*
X204923390Y-78838094D02*
X204875771Y-78742856D01*
X204875771Y-78742856D02*
X204875771Y-78504761D01*
X204875771Y-78504761D02*
X204923390Y-78409523D01*
X204923390Y-78409523D02*
X204971009Y-78361904D01*
X204971009Y-78361904D02*
X205066247Y-78314285D01*
X205066247Y-78314285D02*
X205304342Y-78314285D01*
X205304342Y-78314285D02*
X205399580Y-78361904D01*
X205399580Y-78361904D02*
X205447200Y-78409523D01*
X205447200Y-78409523D02*
X205494819Y-78504761D01*
X205494819Y-78504761D02*
X205494819Y-78742856D01*
X205494819Y-78742856D02*
X205447200Y-78838094D01*
X205447200Y-78838094D02*
X205399580Y-78885713D01*
X204449580Y-79266666D02*
X204497200Y-79314285D01*
X204497200Y-79314285D02*
X204544819Y-79457142D01*
X204544819Y-79457142D02*
X204544819Y-79552380D01*
X204544819Y-79552380D02*
X204497200Y-79695237D01*
X204497200Y-79695237D02*
X204401961Y-79790475D01*
X204401961Y-79790475D02*
X204306723Y-79838094D01*
X204306723Y-79838094D02*
X204116247Y-79885713D01*
X204116247Y-79885713D02*
X203973390Y-79885713D01*
X203973390Y-79885713D02*
X203782914Y-79838094D01*
X203782914Y-79838094D02*
X203687676Y-79790475D01*
X203687676Y-79790475D02*
X203592438Y-79695237D01*
X203592438Y-79695237D02*
X203544819Y-79552380D01*
X203544819Y-79552380D02*
X203544819Y-79457142D01*
X203544819Y-79457142D02*
X203592438Y-79314285D01*
X203592438Y-79314285D02*
X203640057Y-79266666D01*
X203878152Y-78409523D02*
X204544819Y-78409523D01*
X203497200Y-78647618D02*
X204211485Y-78885713D01*
X204211485Y-78885713D02*
X204211485Y-78266666D01*
X168419580Y-61916666D02*
X168467200Y-61964285D01*
X168467200Y-61964285D02*
X168514819Y-62107142D01*
X168514819Y-62107142D02*
X168514819Y-62202380D01*
X168514819Y-62202380D02*
X168467200Y-62345237D01*
X168467200Y-62345237D02*
X168371961Y-62440475D01*
X168371961Y-62440475D02*
X168276723Y-62488094D01*
X168276723Y-62488094D02*
X168086247Y-62535713D01*
X168086247Y-62535713D02*
X167943390Y-62535713D01*
X167943390Y-62535713D02*
X167752914Y-62488094D01*
X167752914Y-62488094D02*
X167657676Y-62440475D01*
X167657676Y-62440475D02*
X167562438Y-62345237D01*
X167562438Y-62345237D02*
X167514819Y-62202380D01*
X167514819Y-62202380D02*
X167514819Y-62107142D01*
X167514819Y-62107142D02*
X167562438Y-61964285D01*
X167562438Y-61964285D02*
X167610057Y-61916666D01*
X167514819Y-61583332D02*
X167514819Y-60964285D01*
X167514819Y-60964285D02*
X167895771Y-61297618D01*
X167895771Y-61297618D02*
X167895771Y-61154761D01*
X167895771Y-61154761D02*
X167943390Y-61059523D01*
X167943390Y-61059523D02*
X167991009Y-61011904D01*
X167991009Y-61011904D02*
X168086247Y-60964285D01*
X168086247Y-60964285D02*
X168324342Y-60964285D01*
X168324342Y-60964285D02*
X168419580Y-61011904D01*
X168419580Y-61011904D02*
X168467200Y-61059523D01*
X168467200Y-61059523D02*
X168514819Y-61154761D01*
X168514819Y-61154761D02*
X168514819Y-61440475D01*
X168514819Y-61440475D02*
X168467200Y-61535713D01*
X168467200Y-61535713D02*
X168419580Y-61583332D01*
X160249580Y-71286666D02*
X160297200Y-71334285D01*
X160297200Y-71334285D02*
X160344819Y-71477142D01*
X160344819Y-71477142D02*
X160344819Y-71572380D01*
X160344819Y-71572380D02*
X160297200Y-71715237D01*
X160297200Y-71715237D02*
X160201961Y-71810475D01*
X160201961Y-71810475D02*
X160106723Y-71858094D01*
X160106723Y-71858094D02*
X159916247Y-71905713D01*
X159916247Y-71905713D02*
X159773390Y-71905713D01*
X159773390Y-71905713D02*
X159582914Y-71858094D01*
X159582914Y-71858094D02*
X159487676Y-71810475D01*
X159487676Y-71810475D02*
X159392438Y-71715237D01*
X159392438Y-71715237D02*
X159344819Y-71572380D01*
X159344819Y-71572380D02*
X159344819Y-71477142D01*
X159344819Y-71477142D02*
X159392438Y-71334285D01*
X159392438Y-71334285D02*
X159440057Y-71286666D01*
X159440057Y-70905713D02*
X159392438Y-70858094D01*
X159392438Y-70858094D02*
X159344819Y-70762856D01*
X159344819Y-70762856D02*
X159344819Y-70524761D01*
X159344819Y-70524761D02*
X159392438Y-70429523D01*
X159392438Y-70429523D02*
X159440057Y-70381904D01*
X159440057Y-70381904D02*
X159535295Y-70334285D01*
X159535295Y-70334285D02*
X159630533Y-70334285D01*
X159630533Y-70334285D02*
X159773390Y-70381904D01*
X159773390Y-70381904D02*
X160344819Y-70953332D01*
X160344819Y-70953332D02*
X160344819Y-70334285D01*
X164303333Y-65719580D02*
X164255714Y-65767200D01*
X164255714Y-65767200D02*
X164112857Y-65814819D01*
X164112857Y-65814819D02*
X164017619Y-65814819D01*
X164017619Y-65814819D02*
X163874762Y-65767200D01*
X163874762Y-65767200D02*
X163779524Y-65671961D01*
X163779524Y-65671961D02*
X163731905Y-65576723D01*
X163731905Y-65576723D02*
X163684286Y-65386247D01*
X163684286Y-65386247D02*
X163684286Y-65243390D01*
X163684286Y-65243390D02*
X163731905Y-65052914D01*
X163731905Y-65052914D02*
X163779524Y-64957676D01*
X163779524Y-64957676D02*
X163874762Y-64862438D01*
X163874762Y-64862438D02*
X164017619Y-64814819D01*
X164017619Y-64814819D02*
X164112857Y-64814819D01*
X164112857Y-64814819D02*
X164255714Y-64862438D01*
X164255714Y-64862438D02*
X164303333Y-64910057D01*
X165255714Y-65814819D02*
X164684286Y-65814819D01*
X164970000Y-65814819D02*
X164970000Y-64814819D01*
X164970000Y-64814819D02*
X164874762Y-64957676D01*
X164874762Y-64957676D02*
X164779524Y-65052914D01*
X164779524Y-65052914D02*
X164684286Y-65100533D01*
D11*
X195138318Y-66771762D02*
X193868318Y-66771762D01*
X195017365Y-65441285D02*
X195077842Y-65501761D01*
X195077842Y-65501761D02*
X195138318Y-65683190D01*
X195138318Y-65683190D02*
X195138318Y-65804142D01*
X195138318Y-65804142D02*
X195077842Y-65985571D01*
X195077842Y-65985571D02*
X194956889Y-66106523D01*
X194956889Y-66106523D02*
X194835937Y-66167000D01*
X194835937Y-66167000D02*
X194594032Y-66227476D01*
X194594032Y-66227476D02*
X194412603Y-66227476D01*
X194412603Y-66227476D02*
X194170699Y-66167000D01*
X194170699Y-66167000D02*
X194049746Y-66106523D01*
X194049746Y-66106523D02*
X193928794Y-65985571D01*
X193928794Y-65985571D02*
X193868318Y-65804142D01*
X193868318Y-65804142D02*
X193868318Y-65683190D01*
X193868318Y-65683190D02*
X193928794Y-65501761D01*
X193928794Y-65501761D02*
X193989270Y-65441285D01*
X195138318Y-64231761D02*
X195138318Y-64957476D01*
X195138318Y-64594619D02*
X193868318Y-64594619D01*
X193868318Y-64594619D02*
X194049746Y-64715571D01*
X194049746Y-64715571D02*
X194170699Y-64836523D01*
X194170699Y-64836523D02*
X194231175Y-64957476D01*
D10*
X228866666Y-61154819D02*
X228533333Y-60678628D01*
X228295238Y-61154819D02*
X228295238Y-60154819D01*
X228295238Y-60154819D02*
X228676190Y-60154819D01*
X228676190Y-60154819D02*
X228771428Y-60202438D01*
X228771428Y-60202438D02*
X228819047Y-60250057D01*
X228819047Y-60250057D02*
X228866666Y-60345295D01*
X228866666Y-60345295D02*
X228866666Y-60488152D01*
X228866666Y-60488152D02*
X228819047Y-60583390D01*
X228819047Y-60583390D02*
X228771428Y-60631009D01*
X228771428Y-60631009D02*
X228676190Y-60678628D01*
X228676190Y-60678628D02*
X228295238Y-60678628D01*
X229295238Y-60631009D02*
X229628571Y-60631009D01*
X229771428Y-61154819D02*
X229295238Y-61154819D01*
X229295238Y-61154819D02*
X229295238Y-60154819D01*
X229295238Y-60154819D02*
X229771428Y-60154819D01*
X230533333Y-60631009D02*
X230200000Y-60631009D01*
X230200000Y-61154819D02*
X230200000Y-60154819D01*
X230200000Y-60154819D02*
X230676190Y-60154819D01*
X231200000Y-60154819D02*
X231200000Y-60392914D01*
X230961905Y-60297676D02*
X231200000Y-60392914D01*
X231200000Y-60392914D02*
X231438095Y-60297676D01*
X231057143Y-60583390D02*
X231200000Y-60392914D01*
X231200000Y-60392914D02*
X231342857Y-60583390D01*
X231961905Y-60154819D02*
X231961905Y-60392914D01*
X231723810Y-60297676D02*
X231961905Y-60392914D01*
X231961905Y-60392914D02*
X232200000Y-60297676D01*
X231819048Y-60583390D02*
X231961905Y-60392914D01*
X231961905Y-60392914D02*
X232104762Y-60583390D01*
X158266666Y-64154819D02*
X157933333Y-63678628D01*
X157695238Y-64154819D02*
X157695238Y-63154819D01*
X157695238Y-63154819D02*
X158076190Y-63154819D01*
X158076190Y-63154819D02*
X158171428Y-63202438D01*
X158171428Y-63202438D02*
X158219047Y-63250057D01*
X158219047Y-63250057D02*
X158266666Y-63345295D01*
X158266666Y-63345295D02*
X158266666Y-63488152D01*
X158266666Y-63488152D02*
X158219047Y-63583390D01*
X158219047Y-63583390D02*
X158171428Y-63631009D01*
X158171428Y-63631009D02*
X158076190Y-63678628D01*
X158076190Y-63678628D02*
X157695238Y-63678628D01*
X158695238Y-63631009D02*
X159028571Y-63631009D01*
X159171428Y-64154819D02*
X158695238Y-64154819D01*
X158695238Y-64154819D02*
X158695238Y-63154819D01*
X158695238Y-63154819D02*
X159171428Y-63154819D01*
X159933333Y-63631009D02*
X159600000Y-63631009D01*
X159600000Y-64154819D02*
X159600000Y-63154819D01*
X159600000Y-63154819D02*
X160076190Y-63154819D01*
X160600000Y-63154819D02*
X160600000Y-63392914D01*
X160361905Y-63297676D02*
X160600000Y-63392914D01*
X160600000Y-63392914D02*
X160838095Y-63297676D01*
X160457143Y-63583390D02*
X160600000Y-63392914D01*
X160600000Y-63392914D02*
X160742857Y-63583390D01*
X161361905Y-63154819D02*
X161361905Y-63392914D01*
X161123810Y-63297676D02*
X161361905Y-63392914D01*
X161361905Y-63392914D02*
X161600000Y-63297676D01*
X161219048Y-63583390D02*
X161361905Y-63392914D01*
X161361905Y-63392914D02*
X161504762Y-63583390D01*
D13*
X180725000Y-75411000D02*
X180725000Y-75811000D01*
X180725000Y-75811000D02*
X180725000Y-75811000D01*
X180725000Y-75811000D02*
X180725000Y-75411000D01*
X180725000Y-75411000D02*
X180725000Y-75411000D01*
X181125000Y-75411000D02*
X181125000Y-75411000D01*
X181125000Y-75411000D02*
X180725000Y-75411000D01*
X180725000Y-75411000D02*
X180725000Y-75411000D01*
X180725000Y-75411000D02*
X181125000Y-75411000D01*
X183725000Y-75411000D02*
X183725000Y-75811000D01*
X183725000Y-75811000D02*
X183725000Y-75811000D01*
X183725000Y-75811000D02*
X183725000Y-75411000D01*
X183725000Y-75411000D02*
X183725000Y-75411000D01*
X183325000Y-75411000D02*
X183325000Y-75411000D01*
X183325000Y-75411000D02*
X183725000Y-75411000D01*
X183725000Y-75411000D02*
X183725000Y-75411000D01*
X183725000Y-75411000D02*
X183325000Y-75411000D01*
X180725000Y-78811000D02*
X180725000Y-79211000D01*
X180725000Y-79211000D02*
X180725000Y-79211000D01*
X180725000Y-79211000D02*
X180725000Y-78811000D01*
X180725000Y-78811000D02*
X180725000Y-78811000D01*
X180725000Y-79211000D02*
X180725000Y-79211000D01*
X180725000Y-79211000D02*
X181125000Y-79211000D01*
X181125000Y-79211000D02*
X181125000Y-79211000D01*
X181125000Y-79211000D02*
X180725000Y-79211000D01*
X183725000Y-78811000D02*
X183725000Y-79211000D01*
X183725000Y-79211000D02*
X183725000Y-79211000D01*
X183725000Y-79211000D02*
X183725000Y-78811000D01*
X183725000Y-78811000D02*
X183725000Y-78811000D01*
X183725000Y-79211000D02*
X183725000Y-79211000D01*
X183725000Y-79211000D02*
X183325000Y-79211000D01*
X183325000Y-79211000D02*
X183325000Y-79211000D01*
X183325000Y-79211000D02*
X183725000Y-79211000D01*
X176325000Y-79211000D02*
X176725000Y-79211000D01*
X176325000Y-79211000D02*
X176325000Y-79211000D01*
X176725000Y-79211000D02*
X176325000Y-79211000D01*
X176725000Y-79211000D02*
X176725000Y-79211000D01*
X176725000Y-78811000D02*
X176725000Y-78811000D01*
X176725000Y-79211000D02*
X176725000Y-78811000D01*
X176725000Y-79211000D02*
X176725000Y-79211000D01*
X176725000Y-78811000D02*
X176725000Y-79211000D01*
X174125000Y-79211000D02*
X173725000Y-79211000D01*
X174125000Y-79211000D02*
X174125000Y-79211000D01*
X173725000Y-79211000D02*
X174125000Y-79211000D01*
X173725000Y-79211000D02*
X173725000Y-79211000D01*
X173725000Y-78811000D02*
X173725000Y-78811000D01*
X173725000Y-79211000D02*
X173725000Y-78811000D01*
X173725000Y-79211000D02*
X173725000Y-79211000D01*
X173725000Y-78811000D02*
X173725000Y-79211000D01*
X176725000Y-75411000D02*
X176325000Y-75411000D01*
X176725000Y-75411000D02*
X176725000Y-75411000D01*
X176325000Y-75411000D02*
X176725000Y-75411000D01*
X176325000Y-75411000D02*
X176325000Y-75411000D01*
X176725000Y-75411000D02*
X176725000Y-75411000D01*
X176725000Y-75811000D02*
X176725000Y-75411000D01*
X176725000Y-75811000D02*
X176725000Y-75811000D01*
X176725000Y-75411000D02*
X176725000Y-75811000D01*
X173725000Y-75411000D02*
X174125000Y-75411000D01*
X173725000Y-75411000D02*
X173725000Y-75411000D01*
X174125000Y-75411000D02*
X173725000Y-75411000D01*
X174125000Y-75411000D02*
X174125000Y-75411000D01*
X173725000Y-75411000D02*
X173725000Y-75411000D01*
X173725000Y-75811000D02*
X173725000Y-75411000D01*
X173725000Y-75811000D02*
X173725000Y-75811000D01*
X173725000Y-75411000D02*
X173725000Y-75811000D01*
D10*
X231437500Y-80062500D02*
X222737500Y-80062500D01*
X222737500Y-80062500D02*
X222737500Y-77062500D01*
X223737500Y-82062500D02*
X225337500Y-82062500D01*
X231437500Y-77062500D02*
X231437500Y-80062500D01*
X225337500Y-82062500D02*
X225337500Y-80062500D01*
X222737500Y-77062500D02*
X231437500Y-77062500D01*
X223737500Y-80062500D02*
X223737500Y-82062500D01*
D14*
X169073350Y-57250000D02*
X185073350Y-57250000D01*
X169073350Y-59740000D02*
X169073350Y-60600000D01*
X169073350Y-62280000D02*
X169073350Y-63140000D01*
X169073350Y-64820000D02*
X169073350Y-65680000D01*
X169073350Y-67360000D02*
X169073350Y-68220000D01*
X169073350Y-69900000D02*
X169073350Y-70760000D01*
X169073350Y-73250000D02*
X185073350Y-73250000D01*
X185073350Y-59740000D02*
X185073350Y-60600000D01*
X185073350Y-62280000D02*
X185073350Y-63140000D01*
X185073350Y-64820000D02*
X185073350Y-65680000D01*
X185073350Y-67360000D02*
X185073350Y-68220000D01*
X185073350Y-69900000D02*
X185073350Y-70760000D01*
D15*
X186976650Y-72635000D02*
G75*
G02*
X186692050Y-72635000I-142300J0D01*
G01*
X186692050Y-72635000D02*
G75*
G02*
X186976650Y-72635000I142300J0D01*
G01*
D14*
X239225000Y-76375000D02*
G75*
G02*
X239025000Y-76375000I-100000J0D01*
G01*
X239025000Y-76375000D02*
G75*
G02*
X239225000Y-76375000I100000J0D01*
G01*
D13*
X241100000Y-69875000D02*
X240820000Y-69595000D01*
X241100000Y-69595000D01*
X241100000Y-69875000D01*
G36*
X241100000Y-69875000D02*
G01*
X240820000Y-69595000D01*
X241100000Y-69595000D01*
X241100000Y-69875000D01*
G37*
X243285000Y-69075000D02*
X243285000Y-66075000D01*
X241015000Y-69075000D02*
X241015000Y-66075000D01*
X252400000Y-74970614D02*
X250400000Y-74970614D01*
X252400000Y-72700614D02*
X250400000Y-72700614D01*
X252920000Y-75165614D02*
X252920000Y-74885614D01*
X253200000Y-74885614D01*
X252920000Y-75165614D01*
G36*
X252920000Y-75165614D02*
G01*
X252920000Y-74885614D01*
X253200000Y-74885614D01*
X252920000Y-75165614D01*
G37*
X243912500Y-74640000D02*
X243262500Y-74640000D01*
X243912500Y-74640000D02*
X244562500Y-74640000D01*
X243912500Y-77760000D02*
X243262500Y-77760000D01*
X243912500Y-77760000D02*
X244562500Y-77760000D01*
X242750000Y-74690000D02*
X242510000Y-74360000D01*
X242990000Y-74360000D01*
X242750000Y-74690000D01*
G36*
X242750000Y-74690000D02*
G01*
X242510000Y-74360000D01*
X242990000Y-74360000D01*
X242750000Y-74690000D01*
G37*
X221362500Y-68940000D02*
X220562500Y-68940000D01*
X221362500Y-68940000D02*
X222162500Y-68940000D01*
X221362500Y-72060000D02*
X220562500Y-72060000D01*
X221362500Y-72060000D02*
X222162500Y-72060000D01*
X220062500Y-68990000D02*
X219822500Y-68660000D01*
X220302500Y-68660000D01*
X220062500Y-68990000D01*
G36*
X220062500Y-68990000D02*
G01*
X219822500Y-68660000D01*
X220302500Y-68660000D01*
X220062500Y-68990000D01*
G37*
X213990000Y-66460000D02*
X213660000Y-66700000D01*
X213660000Y-66220000D01*
X213990000Y-66460000D01*
G36*
X213990000Y-66460000D02*
G01*
X213660000Y-66700000D01*
X213660000Y-66220000D01*
X213990000Y-66460000D01*
G37*
X218210000Y-62240000D02*
X217735000Y-62240000D01*
X213990000Y-62240000D02*
X214465000Y-62240000D01*
X218210000Y-62715000D02*
X218210000Y-62240000D01*
X213990000Y-62715000D02*
X213990000Y-62240000D01*
X218210000Y-65985000D02*
X218210000Y-66460000D01*
X213990000Y-65985000D02*
X213990000Y-66160000D01*
X218210000Y-66460000D02*
X217735000Y-66460000D01*
X214465000Y-66460000D02*
X214230000Y-66460000D01*
X162650000Y-60075000D02*
X162410000Y-59745000D01*
X162890000Y-59745000D01*
X162650000Y-60075000D01*
G36*
X162650000Y-60075000D02*
G01*
X162410000Y-59745000D01*
X162890000Y-59745000D01*
X162650000Y-60075000D01*
G37*
X165850000Y-63275000D02*
X165850000Y-63025000D01*
X165850000Y-63275000D02*
X165600000Y-63275000D01*
X165850000Y-60075000D02*
X165850000Y-60325000D01*
X165850000Y-60075000D02*
X165600000Y-60075000D01*
X162650000Y-63275000D02*
X162900000Y-63275000D01*
X162650000Y-63275000D02*
X162650000Y-63025000D01*
X164025000Y-77825000D02*
X164025000Y-77275000D01*
X163925000Y-79400000D02*
X159225000Y-79400000D01*
X159125000Y-77825000D02*
X159125000Y-77275000D01*
X163925000Y-75700000D02*
X163000000Y-75700000D01*
X160150000Y-75700000D02*
X159225000Y-75700000D01*
X245120000Y-67646359D02*
X245120000Y-67953641D01*
X245880000Y-67646359D02*
X245880000Y-67953641D01*
X243870000Y-67853641D02*
X243870000Y-67546359D01*
X244630000Y-67853641D02*
X244630000Y-67546359D01*
X248843641Y-74220000D02*
X248536359Y-74220000D01*
X248843641Y-74980000D02*
X248536359Y-74980000D01*
X232980000Y-75983859D02*
X232980000Y-76291141D01*
X232220000Y-75983859D02*
X232220000Y-76291141D01*
X248853641Y-75980000D02*
X248546359Y-75980000D01*
X248853641Y-75220000D02*
X248546359Y-75220000D01*
X248803641Y-73230000D02*
X248496359Y-73230000D01*
X248803641Y-72470000D02*
X248496359Y-72470000D01*
X247186359Y-70420000D02*
X247493641Y-70420000D01*
X247186359Y-71180000D02*
X247493641Y-71180000D01*
X244368641Y-72905000D02*
X244061359Y-72905000D01*
X244368641Y-72145000D02*
X244061359Y-72145000D01*
X226530000Y-73036359D02*
X226530000Y-73343641D01*
X225770000Y-73036359D02*
X225770000Y-73343641D01*
X244230000Y-70896359D02*
X244230000Y-71203641D01*
X243470000Y-70896359D02*
X243470000Y-71203641D01*
X241020000Y-74703641D02*
X241020000Y-74396359D01*
X241780000Y-74703641D02*
X241780000Y-74396359D01*
X222403641Y-68530000D02*
X222096359Y-68530000D01*
X222403641Y-67770000D02*
X222096359Y-67770000D01*
X179570000Y-76323641D02*
X179570000Y-76016359D01*
X180330000Y-76323641D02*
X180330000Y-76016359D01*
X173080000Y-77939359D02*
X173080000Y-78246641D01*
X172320000Y-77939359D02*
X172320000Y-78246641D01*
X169613641Y-74880000D02*
X169306359Y-74880000D01*
X169613641Y-74120000D02*
X169306359Y-74120000D01*
X161996359Y-73120000D02*
X162303641Y-73120000D01*
X161996359Y-73880000D02*
X162303641Y-73880000D01*
X171713641Y-74880000D02*
X171406359Y-74880000D01*
X171713641Y-74120000D02*
X171406359Y-74120000D01*
X191453641Y-79080000D02*
X191146359Y-79080000D01*
X191453641Y-79840000D02*
X191146359Y-79840000D01*
X171136359Y-55770000D02*
X171443641Y-55770000D01*
X171136359Y-56530000D02*
X171443641Y-56530000D01*
X167380000Y-67946359D02*
X167380000Y-68253641D01*
X166620000Y-67946359D02*
X166620000Y-68253641D01*
X208870000Y-79293641D02*
X208870000Y-78986359D01*
X209630000Y-79293641D02*
X209630000Y-78986359D01*
X165446359Y-67570000D02*
X165753641Y-67570000D01*
X165446359Y-68330000D02*
X165753641Y-68330000D01*
X164656359Y-66580000D02*
X164963641Y-66580000D01*
X164656359Y-65820000D02*
X164963641Y-65820000D01*
X213446359Y-57620000D02*
X213753641Y-57620000D01*
X213446359Y-58380000D02*
X213753641Y-58380000D01*
X164980000Y-58153641D02*
X164980000Y-57846359D01*
X164220000Y-58153641D02*
X164220000Y-57846359D01*
X162220000Y-58143641D02*
X162220000Y-57836359D01*
X162980000Y-58143641D02*
X162980000Y-57836359D01*
X163980000Y-58153641D02*
X163980000Y-57846359D01*
X163220000Y-58153641D02*
X163220000Y-57846359D01*
X211670000Y-74636359D02*
X211670000Y-74943641D01*
X212430000Y-74636359D02*
X212430000Y-74943641D01*
X218670000Y-60396359D02*
X218670000Y-60703641D01*
X219430000Y-60396359D02*
X219430000Y-60703641D01*
X213670000Y-60703641D02*
X213670000Y-60396359D01*
X214430000Y-60703641D02*
X214430000Y-60396359D01*
X212430000Y-76746359D02*
X212430000Y-77053641D01*
X211670000Y-76746359D02*
X211670000Y-77053641D01*
D10*
X235960000Y-77620000D02*
X235960000Y-75190000D01*
X238420000Y-74490000D02*
X238060000Y-74490000D01*
X238570000Y-77630000D02*
X238570000Y-74680000D01*
D16*
X246005000Y-70245000D02*
X246005000Y-71805000D01*
X244845000Y-71805000D02*
X244845000Y-70245000D01*
X246005000Y-71805000D02*
X244845000Y-71805000D01*
X244845000Y-70245000D02*
X246005000Y-70245000D01*
D17*
X245173000Y-72127000D02*
G75*
G02*
X245073000Y-72127000I-50000J0D01*
G01*
X245073000Y-72127000D02*
G75*
G02*
X245173000Y-72127000I50000J0D01*
G01*
D16*
X168945000Y-76905000D02*
X168945000Y-75345000D01*
X170105000Y-75345000D02*
X170105000Y-76905000D01*
X168945000Y-75345000D02*
X170105000Y-75345000D01*
X170105000Y-76905000D02*
X168945000Y-76905000D01*
D17*
X169877000Y-75023000D02*
G75*
G02*
X169777000Y-75023000I-50000J0D01*
G01*
X169777000Y-75023000D02*
G75*
G02*
X169877000Y-75023000I50000J0D01*
G01*
X165873000Y-66148000D02*
G75*
G02*
X165773000Y-66148000I-50000J0D01*
G01*
X165773000Y-66148000D02*
G75*
G02*
X165873000Y-66148000I50000J0D01*
G01*
D16*
X167705000Y-65870000D02*
X167705000Y-67030000D01*
X166145000Y-67030000D02*
X166145000Y-65870000D01*
X166145000Y-65870000D02*
X167705000Y-65870000D01*
X167705000Y-67030000D02*
X166145000Y-67030000D01*
D17*
X222500000Y-61920000D02*
X222500000Y-61920000D01*
X222500000Y-61820000D02*
X222500000Y-61820000D01*
X222500000Y-61820000D02*
G75*
G02*
X222500000Y-61920000I0J-50000D01*
G01*
X222500000Y-61920000D02*
G75*
G02*
X222500000Y-61820000I0J50000D01*
G01*
X216050000Y-60880000D02*
G75*
G02*
X216050000Y-60980000I0J-50000D01*
G01*
X216050000Y-60980000D02*
G75*
G02*
X216050000Y-60880000I0J50000D01*
G01*
X216050000Y-60980000D02*
X216050000Y-60980000D01*
X216050000Y-60880000D02*
X216050000Y-60880000D01*
D13*
X239400000Y-68240000D02*
X240240000Y-68240000D01*
X236240000Y-68240000D02*
X236240000Y-72690000D01*
X239400000Y-68240000D02*
X236240000Y-68240000D01*
X240240000Y-72690000D02*
X240240000Y-68260000D01*
X239400000Y-72690000D02*
X240240000Y-72690000D01*
X239400000Y-72690000D02*
X236240000Y-72690000D01*
X221100000Y-80950000D02*
X221100000Y-80700000D01*
X221100000Y-78400000D02*
X221100000Y-76550000D01*
X221100000Y-76550000D02*
X220650000Y-76550000D01*
X215500000Y-76000000D02*
X215950000Y-76000000D01*
X215500000Y-76000000D02*
X215500000Y-76450000D01*
X213300000Y-80950000D02*
X213300000Y-80700000D01*
X213300000Y-78400000D02*
X213300000Y-76550000D01*
X213300000Y-76550000D02*
X213750000Y-76550000D01*
X212915000Y-73477064D02*
X212915000Y-73022936D01*
X214385000Y-73477064D02*
X214385000Y-73022936D01*
D16*
X235300000Y-75257500D02*
X235300000Y-76817500D01*
X233700000Y-76817500D02*
X233700000Y-75257500D01*
D14*
X234600000Y-73537500D02*
G75*
G02*
X234400000Y-73537500I-100000J0D01*
G01*
X234400000Y-73537500D02*
G75*
G02*
X234600000Y-73537500I100000J0D01*
G01*
D17*
X219325000Y-69550000D02*
G75*
G02*
X219225000Y-69550000I-50000J0D01*
G01*
X219225000Y-69550000D02*
G75*
G02*
X219325000Y-69550000I50000J0D01*
G01*
D16*
X187250000Y-60380000D02*
X187250000Y-58820000D01*
X188850000Y-58820000D02*
X188850000Y-60380000D01*
D14*
X188150000Y-62100000D02*
G75*
G02*
X187950000Y-62100000I-100000J0D01*
G01*
X187950000Y-62100000D02*
G75*
G02*
X188150000Y-62100000I100000J0D01*
G01*
D13*
X161665000Y-72350000D02*
X161665000Y-70350000D01*
X161665000Y-72350000D02*
X164865000Y-72350000D01*
X161965000Y-70050000D02*
X161665000Y-70350000D01*
X161965000Y-70050000D02*
X164865000Y-70050000D01*
X164865000Y-70050000D02*
X164865000Y-72350000D01*
X239762164Y-74940000D02*
X239977836Y-74940000D01*
X239762164Y-75660000D02*
X239977836Y-75660000D01*
X244762164Y-65590000D02*
X244977836Y-65590000D01*
X244762164Y-66310000D02*
X244977836Y-66310000D01*
X240457836Y-78310000D02*
X240242164Y-78310000D01*
X240457836Y-77590000D02*
X240242164Y-77590000D01*
X233540000Y-72527836D02*
X233540000Y-72312164D01*
X234260000Y-72527836D02*
X234260000Y-72312164D01*
X234690000Y-72497836D02*
X234690000Y-72282164D01*
X235410000Y-72497836D02*
X235410000Y-72282164D01*
X253440000Y-73827836D02*
X253440000Y-73612164D01*
X254160000Y-73827836D02*
X254160000Y-73612164D01*
X249360000Y-71242164D02*
X249360000Y-71457836D01*
X248640000Y-71242164D02*
X248640000Y-71457836D01*
X246040000Y-75607836D02*
X246040000Y-75392164D01*
X246760000Y-75607836D02*
X246760000Y-75392164D01*
X184140000Y-78337836D02*
X184140000Y-78122164D01*
X184860000Y-78337836D02*
X184860000Y-78122164D01*
X177040000Y-78430836D02*
X177040000Y-78215164D01*
X177760000Y-78430836D02*
X177760000Y-78215164D01*
X185140000Y-78317836D02*
X185140000Y-78102164D01*
X185860000Y-78317836D02*
X185860000Y-78102164D01*
X178040000Y-78410836D02*
X178040000Y-78195164D01*
X178760000Y-78410836D02*
X178760000Y-78195164D01*
X218302836Y-68935000D02*
X218087164Y-68935000D01*
X218302836Y-68215000D02*
X218087164Y-68215000D01*
X218812164Y-67190000D02*
X219027836Y-67190000D01*
X218812164Y-67910000D02*
X219027836Y-67910000D01*
X219860000Y-66057836D02*
X219860000Y-65842164D01*
X219140000Y-66057836D02*
X219140000Y-65842164D01*
X167460000Y-74132164D02*
X167460000Y-74347836D01*
X166740000Y-74132164D02*
X166740000Y-74347836D01*
X165740000Y-74112164D02*
X165740000Y-74327836D01*
X166460000Y-74112164D02*
X166460000Y-74327836D01*
X188810000Y-63412164D02*
X188810000Y-63627836D01*
X188090000Y-63412164D02*
X188090000Y-63627836D01*
X188710000Y-65932164D02*
X188710000Y-66147836D01*
X187990000Y-65932164D02*
X187990000Y-66147836D01*
X187040000Y-63637836D02*
X187040000Y-63422164D01*
X187760000Y-63637836D02*
X187760000Y-63422164D01*
X186890000Y-66177836D02*
X186890000Y-65962164D01*
X187610000Y-66177836D02*
X187610000Y-65962164D01*
X164292164Y-73140000D02*
X164507836Y-73140000D01*
X164292164Y-73860000D02*
X164507836Y-73860000D01*
X193247836Y-79710000D02*
X193032164Y-79710000D01*
X193247836Y-78990000D02*
X193032164Y-78990000D01*
X210672164Y-79240000D02*
X210887836Y-79240000D01*
X210672164Y-79960000D02*
X210887836Y-79960000D01*
X205840000Y-79207836D02*
X205840000Y-78992164D01*
X206560000Y-79207836D02*
X206560000Y-78992164D01*
X204890000Y-79207836D02*
X204890000Y-78992164D01*
X205610000Y-79207836D02*
X205610000Y-78992164D01*
X167260000Y-61642164D02*
X167260000Y-61857836D01*
X166540000Y-61642164D02*
X166540000Y-61857836D01*
X160690000Y-71227836D02*
X160690000Y-71012164D01*
X161410000Y-71227836D02*
X161410000Y-71012164D01*
X164577836Y-64560000D02*
X164362164Y-64560000D01*
X164577836Y-63840000D02*
X164362164Y-63840000D01*
D17*
X191855000Y-77489000D02*
G75*
G02*
X191855000Y-77389000I0J50000D01*
G01*
X191855000Y-77389000D02*
G75*
G02*
X191855000Y-77489000I0J-50000D01*
G01*
D14*
X190655000Y-76489000D02*
X190655000Y-58489000D01*
D17*
X191855000Y-77389000D02*
X191855000Y-77389000D01*
X191855000Y-77489000D02*
X191855000Y-77489000D01*
%LPC*%
D18*
X240215000Y-76405000D02*
X240040000Y-76580000D01*
X239725000Y-76580000D01*
X239725000Y-76220000D01*
X240215000Y-76220000D01*
X240215000Y-76405000D01*
G36*
X240215000Y-76405000D02*
G01*
X240040000Y-76580000D01*
X239725000Y-76580000D01*
X239725000Y-76220000D01*
X240215000Y-76220000D01*
X240215000Y-76405000D01*
G37*
X240215000Y-77045000D02*
X240215000Y-77230000D01*
X239725000Y-77230000D01*
X239725000Y-76870000D01*
X240040000Y-76870000D01*
X240215000Y-77045000D01*
G36*
X240215000Y-77045000D02*
G01*
X240215000Y-77230000D01*
X239725000Y-77230000D01*
X239725000Y-76870000D01*
X240040000Y-76870000D01*
X240215000Y-77045000D01*
G37*
X241025000Y-77230000D02*
X240535000Y-77230000D01*
X240535000Y-77045000D01*
X240710000Y-76870000D01*
X241025000Y-76870000D01*
X241025000Y-77230000D01*
G36*
X241025000Y-77230000D02*
G01*
X240535000Y-77230000D01*
X240535000Y-77045000D01*
X240710000Y-76870000D01*
X241025000Y-76870000D01*
X241025000Y-77230000D01*
G37*
X241025000Y-76580000D02*
X240710000Y-76580000D01*
X240535000Y-76405000D01*
X240535000Y-76220000D01*
X241025000Y-76220000D01*
X241025000Y-76580000D01*
G36*
X241025000Y-76580000D02*
G01*
X240710000Y-76580000D01*
X240535000Y-76405000D01*
X240535000Y-76220000D01*
X241025000Y-76220000D01*
X241025000Y-76580000D01*
G37*
X240813406Y-76725000D02*
X240375000Y-77163406D01*
X239936594Y-76725000D01*
X240375000Y-76286594D01*
X240813406Y-76725000D01*
G36*
X240813406Y-76725000D02*
G01*
X240375000Y-77163406D01*
X239936594Y-76725000D01*
X240375000Y-76286594D01*
X240813406Y-76725000D01*
G37*
D13*
X238200000Y-77205000D02*
X237700000Y-77205000D01*
X237700000Y-76355000D01*
X238200000Y-76355000D01*
X238200000Y-77205000D01*
G36*
X238200000Y-77205000D02*
G01*
X237700000Y-77205000D01*
X237700000Y-76355000D01*
X238200000Y-76355000D01*
X238200000Y-77205000D01*
G37*
X236900000Y-77205000D02*
X236400000Y-77205000D01*
X236400000Y-76355000D01*
X236900000Y-76355000D01*
X236900000Y-77205000D01*
G36*
X236900000Y-77205000D02*
G01*
X236400000Y-77205000D01*
X236400000Y-76355000D01*
X236900000Y-76355000D01*
X236900000Y-77205000D01*
G37*
D19*
X181325000Y-75937000D03*
X181325000Y-76759000D03*
D20*
X182887250Y-78011000D03*
D19*
X183125000Y-76759000D03*
X183125000Y-75937000D03*
X182225000Y-75937000D03*
D21*
X182225000Y-78011000D03*
X175225000Y-78011000D03*
D19*
X175225000Y-75937000D03*
X176125000Y-75937000D03*
X176125000Y-76759000D03*
D20*
X175887250Y-78011000D03*
D19*
X174325000Y-76759000D03*
X174325000Y-75937000D03*
D22*
X226137500Y-76262500D03*
X228237500Y-76262500D03*
X224237500Y-76262500D03*
D23*
X223917500Y-80052500D03*
X230437500Y-80062500D03*
D24*
X184823350Y-71600000D03*
X184823350Y-69060000D03*
X184823350Y-66520000D03*
X184823350Y-63980000D03*
X184823350Y-61440000D03*
X184823350Y-58900000D03*
X169323350Y-58900000D03*
X169323350Y-61440000D03*
X169323350Y-63980000D03*
X169323350Y-66520000D03*
X169323350Y-69060000D03*
X169323350Y-71600000D03*
D25*
X242150000Y-67575000D03*
D26*
X241400000Y-66125000D03*
X241900000Y-66125000D03*
X242400000Y-66125000D03*
X242900000Y-66125000D03*
X242900000Y-69025000D03*
X242400000Y-69025000D03*
X241900000Y-69025000D03*
X241400000Y-69025000D03*
D27*
X252400000Y-74585614D03*
X252400000Y-74085614D03*
X252400000Y-73585614D03*
X252400000Y-73085614D03*
X250400000Y-73085614D03*
X250400000Y-73585614D03*
X250400000Y-74085614D03*
X250400000Y-74585614D03*
D28*
X251400000Y-73835614D03*
D29*
X242975000Y-75250000D03*
X242975000Y-77150000D03*
X244850000Y-76200000D03*
D30*
X220225000Y-69550000D03*
X220225000Y-70500000D03*
X220225000Y-71450000D03*
X222500000Y-71450000D03*
X222500000Y-70500000D03*
X222500000Y-69550000D03*
D31*
X216100000Y-64350000D03*
D32*
X214162500Y-65600000D03*
X214162500Y-65100000D03*
X214162500Y-64600000D03*
X214162500Y-64100000D03*
X214162500Y-63600000D03*
X214162500Y-63100000D03*
D33*
X214850000Y-62412500D03*
X215350000Y-62412500D03*
X215850000Y-62412500D03*
X216350000Y-62412500D03*
X216850000Y-62412500D03*
X217350000Y-62412500D03*
D32*
X218037500Y-63100000D03*
X218037500Y-63600000D03*
X218037500Y-64100000D03*
X218037500Y-64600000D03*
X218037500Y-65100000D03*
X218037500Y-65600000D03*
D33*
X217350000Y-66287500D03*
X216850000Y-66287500D03*
X216350000Y-66287500D03*
X215850000Y-66287500D03*
X215350000Y-66287500D03*
X214850000Y-66287500D03*
D34*
X163250000Y-60175000D03*
X163650000Y-60175000D03*
X164050000Y-60175000D03*
X164450000Y-60175000D03*
X164850000Y-60175000D03*
X165250000Y-60175000D03*
D35*
X165750000Y-60675000D03*
X165750000Y-61075000D03*
X165750000Y-61475000D03*
X165750000Y-61875000D03*
X165750000Y-62275000D03*
X165750000Y-62675000D03*
D34*
X165250000Y-63175000D03*
X164850000Y-63175000D03*
X164450000Y-63175000D03*
X164050000Y-63175000D03*
X163650000Y-63175000D03*
X163250000Y-63175000D03*
D35*
X162750000Y-62675000D03*
X162750000Y-62275000D03*
X162750000Y-61875000D03*
X162750000Y-61475000D03*
X162750000Y-61075000D03*
X162750000Y-60675000D03*
D36*
X158950000Y-78400000D03*
X164200000Y-78400000D03*
X158950000Y-76700000D03*
X164200000Y-76700000D03*
D37*
X161575000Y-78925000D03*
X161575000Y-76175000D03*
D38*
X245500000Y-68310000D03*
X245500000Y-67290000D03*
D39*
X244250000Y-68210000D03*
X244250000Y-67190000D03*
D40*
X248180000Y-74600000D03*
X249200000Y-74600000D03*
D38*
X232600000Y-75627500D03*
X232600000Y-76647500D03*
D40*
X249210000Y-75600000D03*
X248190000Y-75600000D03*
X249160000Y-72850000D03*
X248140000Y-72850000D03*
D41*
X246830000Y-70800000D03*
X247850000Y-70800000D03*
D40*
X244725000Y-72525000D03*
X243705000Y-72525000D03*
D38*
X226150000Y-72680000D03*
X226150000Y-73700000D03*
X243850000Y-70540000D03*
X243850000Y-71560000D03*
D39*
X241400000Y-75060000D03*
X241400000Y-74040000D03*
D40*
X222760000Y-68150000D03*
X221740000Y-68150000D03*
D39*
X179950000Y-76680000D03*
X179950000Y-75660000D03*
D38*
X172700000Y-77583000D03*
X172700000Y-78603000D03*
D40*
X169970000Y-74500000D03*
X168950000Y-74500000D03*
D41*
X161640000Y-73500000D03*
X162660000Y-73500000D03*
D40*
X172070000Y-74500000D03*
X171050000Y-74500000D03*
X190790000Y-79460000D03*
X191810000Y-79460000D03*
D41*
X170780000Y-56150000D03*
X171800000Y-56150000D03*
D38*
X167000000Y-67590000D03*
X167000000Y-68610000D03*
D39*
X209250000Y-79650000D03*
X209250000Y-78630000D03*
D41*
X165090000Y-67950000D03*
X166110000Y-67950000D03*
X165320000Y-66200000D03*
X164300000Y-66200000D03*
X213090000Y-58000000D03*
X214110000Y-58000000D03*
D39*
X164600000Y-57490000D03*
X164600000Y-58510000D03*
X162600000Y-58500000D03*
X162600000Y-57480000D03*
X163600000Y-57490000D03*
X163600000Y-58510000D03*
D38*
X212050000Y-75300000D03*
X212050000Y-74280000D03*
X219050000Y-61060000D03*
X219050000Y-60040000D03*
D39*
X214050000Y-61060000D03*
X214050000Y-60040000D03*
D38*
X212050000Y-76390000D03*
X212050000Y-77410000D03*
D42*
X238230000Y-74900000D03*
X237580000Y-74900000D03*
X236930000Y-74900000D03*
X236280000Y-74900000D03*
X236290000Y-77870000D03*
X236940000Y-77870000D03*
X237590000Y-77870000D03*
X238240000Y-77870000D03*
D43*
X245250000Y-71350000D03*
X245600000Y-71350000D03*
D44*
X245425000Y-70700000D03*
D43*
X169700000Y-75800000D03*
X169350000Y-75800000D03*
D44*
X169525000Y-76450000D03*
D45*
X167250000Y-66450000D03*
D46*
X166600000Y-66625000D03*
X166600000Y-66275000D03*
D47*
X222500000Y-62600000D03*
X221500000Y-62600000D03*
D48*
X222000000Y-63840000D03*
X216550000Y-58960000D03*
D47*
X217050000Y-60200000D03*
X216050000Y-60200000D03*
D49*
X238250000Y-72050000D03*
X238250000Y-68890000D03*
D50*
X220700000Y-79550000D03*
D51*
X220100000Y-79550000D03*
D52*
X219700000Y-76850000D03*
D53*
X218200000Y-79550000D03*
X216200000Y-79550000D03*
D52*
X214700000Y-76850000D03*
D51*
X214300000Y-79550000D03*
D50*
X213700000Y-79550000D03*
D54*
X218500000Y-76850000D03*
X217850000Y-76850000D03*
X217200000Y-76850000D03*
X216550000Y-76850000D03*
X215900000Y-76850000D03*
D55*
X213650000Y-74162500D03*
X213650000Y-72337500D03*
D56*
X234500000Y-74512500D03*
X234500000Y-77562500D03*
D57*
X217700000Y-69550000D03*
X218670000Y-69550000D03*
D58*
X188050000Y-61125000D03*
X188050000Y-58075000D03*
D59*
X162350000Y-70650000D03*
X162350000Y-71750000D03*
X164180000Y-71750000D03*
X164180000Y-70650000D03*
D60*
X239390000Y-75300000D03*
X240350000Y-75300000D03*
X244390000Y-65950000D03*
X245350000Y-65950000D03*
D61*
X240830000Y-77950000D03*
X239870000Y-77950000D03*
D62*
X233900000Y-72900000D03*
X233900000Y-71940000D03*
X235050000Y-72870000D03*
X235050000Y-71910000D03*
X253800000Y-74200000D03*
X253800000Y-73240000D03*
D63*
X249000000Y-70870000D03*
X249000000Y-71830000D03*
D62*
X246400000Y-75980000D03*
X246400000Y-75020000D03*
X184500000Y-78710000D03*
X184500000Y-77750000D03*
X177400000Y-78803000D03*
X177400000Y-77843000D03*
X185500000Y-78690000D03*
X185500000Y-77730000D03*
X178400000Y-78783000D03*
X178400000Y-77823000D03*
D61*
X218675000Y-68575000D03*
X217715000Y-68575000D03*
D60*
X218440000Y-67550000D03*
X219400000Y-67550000D03*
D62*
X219500000Y-65470000D03*
X219500000Y-66430000D03*
D63*
X167100000Y-73760000D03*
X167100000Y-74720000D03*
X166100000Y-74700000D03*
X166100000Y-73740000D03*
X188450000Y-63040000D03*
X188450000Y-64000000D03*
X188350000Y-65560000D03*
X188350000Y-66520000D03*
D62*
X187400000Y-64010000D03*
X187400000Y-63050000D03*
X187250000Y-66550000D03*
X187250000Y-65590000D03*
D60*
X163920000Y-73500000D03*
X164880000Y-73500000D03*
D61*
X193620000Y-79350000D03*
X192660000Y-79350000D03*
D60*
X210300000Y-79600000D03*
X211260000Y-79600000D03*
D62*
X206200000Y-79580000D03*
X206200000Y-78620000D03*
X205250000Y-79580000D03*
X205250000Y-78620000D03*
D63*
X166900000Y-61270000D03*
X166900000Y-62230000D03*
D62*
X161050000Y-71600000D03*
X161050000Y-70640000D03*
D61*
X164950000Y-64200000D03*
X163990000Y-64200000D03*
D64*
X198165000Y-67589000D03*
X199565000Y-67589000D03*
X200965000Y-67589000D03*
X200965000Y-68989000D03*
X200965000Y-70389000D03*
X199565000Y-70389000D03*
X198165000Y-70389000D03*
X198165000Y-68989000D03*
X199565000Y-68989000D03*
D65*
X191845000Y-58739000D03*
X193115000Y-58739000D03*
X194385000Y-58739000D03*
X195655000Y-58739000D03*
X196925000Y-58739000D03*
X198195000Y-58739000D03*
X199465000Y-58739000D03*
X200735000Y-58739000D03*
X202005000Y-58739000D03*
X203275000Y-58739000D03*
X204545000Y-58739000D03*
X205815000Y-58739000D03*
X207085000Y-58739000D03*
X208355000Y-58739000D03*
D66*
X209605000Y-60504000D03*
X209605000Y-61774000D03*
X209605000Y-63044000D03*
X209605000Y-64314000D03*
X209605000Y-65584000D03*
X209605000Y-66854000D03*
X209605000Y-68124000D03*
X209605000Y-69394000D03*
X209605000Y-70664000D03*
X209605000Y-71934000D03*
X209605000Y-73204000D03*
X209605000Y-74474000D03*
D65*
X208355000Y-76239000D03*
X207085000Y-76239000D03*
X205815000Y-76239000D03*
X204545000Y-76239000D03*
X203275000Y-76239000D03*
X202005000Y-76239000D03*
X200735000Y-76239000D03*
X199465000Y-76239000D03*
X198195000Y-76239000D03*
X196925000Y-76239000D03*
X195655000Y-76239000D03*
X194385000Y-76239000D03*
X193115000Y-76239000D03*
X191845000Y-76239000D03*
D67*
X230200000Y-64900000D03*
D68*
X159600000Y-66900000D03*
%LPD*%
M02*
