G04 #@! TF.GenerationSoftware,KiCad,Pcbnew,8.0.8*
G04 #@! TF.CreationDate,2025-08-03T03:16:57+05:30*
G04 #@! TF.ProjectId,main,6d61696e-2e6b-4696-9361-645f70636258,rev?*
G04 #@! TF.SameCoordinates,Original*
G04 #@! TF.FileFunction,Copper,L2,Inr*
G04 #@! TF.FilePolarity,Positive*
%FSLAX46Y46*%
G04 Gerber Fmt 4.6, Leading zero omitted, Abs format (unit mm)*
G04 Created by KiCad (PCBNEW 8.0.8) date 2025-08-03 03:16:57*
%MOMM*%
%LPD*%
G01*
G04 APERTURE LIST*
G04 #@! TA.AperFunction,ComponentPad*
%ADD10C,1.100000*%
G04 #@! TD*
G04 #@! TA.AperFunction,HeatsinkPad*
%ADD11O,1.200000X1.900000*%
G04 #@! TD*
G04 #@! TA.AperFunction,HeatsinkPad*
%ADD12C,1.450000*%
G04 #@! TD*
G04 #@! TA.AperFunction,ViaPad*
%ADD13C,0.600000*%
G04 #@! TD*
G04 #@! TA.AperFunction,ViaPad*
%ADD14C,0.800000*%
G04 #@! TD*
G04 #@! TA.AperFunction,ViaPad*
%ADD15C,1.000000*%
G04 #@! TD*
G04 APERTURE END LIST*
D10*
X223917500Y-80052500D03*
X230437500Y-80062500D03*
D11*
X220700000Y-79550000D03*
D12*
X219700000Y-76850000D03*
X214700000Y-76850000D03*
D11*
X213700000Y-79550000D03*
D13*
X224400000Y-69400000D03*
X215400000Y-72500000D03*
X188900000Y-78100000D03*
X186100000Y-74900000D03*
X177500000Y-74100000D03*
X167000000Y-71700000D03*
X160000000Y-61100000D03*
X161800000Y-55900000D03*
X180800000Y-55900000D03*
X188700000Y-55800000D03*
X234200000Y-67700000D03*
X225600000Y-65200000D03*
X208000000Y-60500000D03*
X202300000Y-60300000D03*
X198700000Y-60300000D03*
X194300000Y-56900000D03*
X195200000Y-55800000D03*
X191500000Y-61100000D03*
X190700000Y-64500000D03*
X190600000Y-69300000D03*
X211300000Y-71800000D03*
X215000000Y-68300000D03*
X215500000Y-74900000D03*
X218000000Y-75000000D03*
X207900000Y-74700000D03*
X201700000Y-77900000D03*
X211300000Y-69000000D03*
X226900000Y-79200000D03*
X233400000Y-79600000D03*
X236400000Y-79500000D03*
X245300000Y-79800000D03*
X255500000Y-79300000D03*
X251500000Y-79400000D03*
X253700000Y-67800000D03*
X250000000Y-67400000D03*
X230000000Y-70100000D03*
X235300000Y-64600000D03*
X225700000Y-60500000D03*
X200000000Y-64500000D03*
X172100000Y-67900000D03*
X177500000Y-58500000D03*
X176000000Y-65000000D03*
X179700000Y-60700000D03*
X179700000Y-63900000D03*
X175700000Y-61900000D03*
X202300000Y-70300000D03*
X202300000Y-69000000D03*
X202300000Y-67600000D03*
X196800000Y-70000000D03*
X196800000Y-67600000D03*
X196800000Y-68800000D03*
X162900000Y-65900000D03*
X220700000Y-67500000D03*
X184520000Y-75390000D03*
D14*
X245100000Y-77250000D03*
X227500000Y-74300000D03*
D13*
X246850000Y-72550000D03*
X203325000Y-80050000D03*
D15*
X222975000Y-66225000D03*
X213050000Y-70825000D03*
X221550000Y-74081000D03*
X217927000Y-72593316D03*
D13*
X171850000Y-71350000D03*
X169050000Y-73125000D03*
X189950000Y-61050000D03*
X187050000Y-78225000D03*
X179775000Y-77925000D03*
X166025000Y-57700000D03*
X167000000Y-63350000D03*
X163025000Y-64575000D03*
X166575000Y-69350000D03*
X161550000Y-72625000D03*
X158850000Y-73375000D03*
D14*
X165600000Y-69575000D03*
X168200000Y-75725000D03*
X203525000Y-78600000D03*
X241875000Y-78550000D03*
D13*
X215300000Y-63600000D03*
X216875000Y-65125000D03*
X215275000Y-65125000D03*
X216850000Y-63650000D03*
X216100000Y-64362500D03*
X248175000Y-78050000D03*
X239125000Y-75870000D03*
X241322447Y-75830000D03*
X243000000Y-76050000D03*
D14*
X246800000Y-77200000D03*
D13*
X242400000Y-65200000D03*
X240000000Y-69800000D03*
X229600000Y-76000000D03*
X242048527Y-71773000D03*
X243072123Y-71189352D03*
X239600000Y-73373000D03*
X244800000Y-69850000D03*
D14*
X253800000Y-71600000D03*
D13*
X171450000Y-79375000D03*
X195666790Y-80027000D03*
X160794777Y-75081389D03*
X162486612Y-75086612D03*
X167000000Y-76600000D03*
X207826000Y-61827000D03*
X200800000Y-61827000D03*
X179200000Y-67400000D03*
X172600000Y-73027000D03*
X208254000Y-62573000D03*
X200400000Y-62573000D03*
X196800000Y-63800000D03*
X198370143Y-75256857D03*
X201800000Y-72702644D03*
X208400000Y-71000000D03*
X208027000Y-72534000D03*
X206773000Y-72623358D03*
X204843356Y-71243356D03*
X203800000Y-68600000D03*
X183000000Y-70600000D03*
X176000000Y-71000000D03*
X206773000Y-71200000D03*
X205831181Y-70255532D03*
X204600000Y-67800000D03*
X182200000Y-70000000D03*
X172000000Y-70000000D03*
X208254000Y-65600000D03*
X204400000Y-65000000D03*
X204400000Y-60400000D03*
X161900000Y-59325000D03*
X208427000Y-64627000D03*
X205600000Y-64627000D03*
X205200000Y-60000000D03*
X163224265Y-59175735D03*
X203400000Y-64200000D03*
X249800000Y-72400000D03*
X203443356Y-72643356D03*
X203443356Y-73956644D03*
X204143356Y-71943356D03*
X204600000Y-73400000D03*
X192800000Y-62627000D03*
X194800000Y-60800000D03*
X206800000Y-66200000D03*
X206629763Y-59988974D03*
X211200000Y-59800000D03*
X219600000Y-62600000D03*
X210200000Y-58800000D03*
X215600000Y-61000000D03*
X214200000Y-62400000D03*
X213400000Y-61800000D03*
X213200000Y-64739500D03*
X197000000Y-60200000D03*
X211400000Y-62573000D03*
X212600000Y-63200000D03*
X195800000Y-60400000D03*
X211356644Y-66443356D03*
X249000000Y-76400000D03*
X211800000Y-65200000D03*
X249000000Y-74000000D03*
X205800000Y-68400000D03*
X175800000Y-74800000D03*
X205824000Y-69424000D03*
X177400000Y-76600000D03*
X199573801Y-74400000D03*
X188400000Y-76774400D03*
X217200000Y-71800000D03*
X216400000Y-73800000D03*
D14*
X239850000Y-65850000D03*
X191850000Y-75000000D03*
X193150000Y-78350000D03*
D13*
X196150000Y-57150000D03*
X196950000Y-56000000D03*
X208355000Y-56350000D03*
X194385000Y-78500000D03*
D14*
X250000000Y-71150000D03*
D13*
X208375000Y-78575000D03*
X207075000Y-78575000D03*
X196977000Y-78613000D03*
X181800000Y-68600000D03*
D14*
X253800000Y-75600000D03*
D13*
X208200000Y-79600000D03*
X217225000Y-67575000D03*
G04 #@! TA.AperFunction,Conductor*
G36*
X213669227Y-54305684D02*
G01*
X222324980Y-56890408D01*
X258211396Y-67606573D01*
X258270000Y-67644617D01*
X258298733Y-67708305D01*
X258299916Y-67725278D01*
X258311439Y-80575999D01*
X258291815Y-80643056D01*
X258239052Y-80688858D01*
X258187560Y-80700110D01*
X231480903Y-80726187D01*
X231413844Y-80706568D01*
X231368038Y-80653809D01*
X231358027Y-80584660D01*
X231371423Y-80543735D01*
X231412732Y-80466454D01*
X231472800Y-80268434D01*
X231493083Y-80062500D01*
X231472800Y-79856566D01*
X231412732Y-79658546D01*
X231315185Y-79476050D01*
X231261681Y-79410855D01*
X231183910Y-79316089D01*
X231037268Y-79195745D01*
X231023950Y-79184815D01*
X230841454Y-79087268D01*
X230643434Y-79027200D01*
X230643432Y-79027199D01*
X230643434Y-79027199D01*
X230437500Y-79006917D01*
X230231567Y-79027199D01*
X230033543Y-79087269D01*
X229949455Y-79132216D01*
X229851050Y-79184815D01*
X229851048Y-79184816D01*
X229851047Y-79184817D01*
X229691089Y-79316089D01*
X229564069Y-79470866D01*
X229559815Y-79476050D01*
X229532868Y-79526464D01*
X229462269Y-79658543D01*
X229402199Y-79856567D01*
X229381917Y-80062500D01*
X229402199Y-80268432D01*
X229402200Y-80268434D01*
X229459235Y-80456456D01*
X229462269Y-80466456D01*
X229504663Y-80545769D01*
X229518905Y-80614172D01*
X229493905Y-80679416D01*
X229437600Y-80720787D01*
X229395426Y-80728223D01*
X224952150Y-80732562D01*
X224885091Y-80712943D01*
X224839285Y-80660184D01*
X224829274Y-80591035D01*
X224842670Y-80550111D01*
X224892732Y-80456454D01*
X224952800Y-80258434D01*
X224973083Y-80052500D01*
X224952800Y-79846566D01*
X224892732Y-79648546D01*
X224795185Y-79466050D01*
X224739640Y-79398368D01*
X224663910Y-79306089D01*
X224546177Y-79209469D01*
X224503950Y-79174815D01*
X224321454Y-79077268D01*
X224123434Y-79017200D01*
X224123432Y-79017199D01*
X224123434Y-79017199D01*
X223917500Y-78996917D01*
X223711567Y-79017199D01*
X223513543Y-79077269D01*
X223423109Y-79125608D01*
X223331050Y-79174815D01*
X223331048Y-79174816D01*
X223331047Y-79174817D01*
X223171089Y-79306089D01*
X223043841Y-79461144D01*
X223039815Y-79466050D01*
X223024413Y-79494865D01*
X222942269Y-79648543D01*
X222942268Y-79648545D01*
X222942268Y-79648546D01*
X222939235Y-79658546D01*
X222882199Y-79846567D01*
X222861917Y-80052500D01*
X222882199Y-80258432D01*
X222885233Y-80268434D01*
X222942268Y-80456454D01*
X222990008Y-80545769D01*
X222993407Y-80552127D01*
X223007649Y-80620530D01*
X222982649Y-80685774D01*
X222926345Y-80727145D01*
X222884170Y-80734581D01*
X221695957Y-80735741D01*
X221628898Y-80716122D01*
X221583092Y-80663363D01*
X221573081Y-80594214D01*
X221595518Y-80538855D01*
X221640803Y-80476525D01*
X221719408Y-80322257D01*
X221772914Y-80157584D01*
X221800000Y-79986571D01*
X221800000Y-79800000D01*
X221000000Y-79800000D01*
X221000000Y-79300000D01*
X221800000Y-79300000D01*
X221800000Y-79113426D01*
X221772914Y-78942415D01*
X221719408Y-78777742D01*
X221640804Y-78623475D01*
X221587422Y-78550000D01*
X240969540Y-78550000D01*
X240989326Y-78738256D01*
X240989327Y-78738259D01*
X241047818Y-78918277D01*
X241047821Y-78918284D01*
X241142467Y-79082216D01*
X241189227Y-79134148D01*
X241269129Y-79222888D01*
X241422265Y-79334148D01*
X241422270Y-79334151D01*
X241595192Y-79411142D01*
X241595197Y-79411144D01*
X241780354Y-79450500D01*
X241780355Y-79450500D01*
X241969644Y-79450500D01*
X241969646Y-79450500D01*
X242154803Y-79411144D01*
X242327730Y-79334151D01*
X242480871Y-79222888D01*
X242607533Y-79082216D01*
X242702179Y-78918284D01*
X242760674Y-78738256D01*
X242780460Y-78550000D01*
X242760674Y-78361744D01*
X242702179Y-78181716D01*
X242607533Y-78017784D01*
X242480871Y-77877112D01*
X242478622Y-77875478D01*
X242327734Y-77765851D01*
X242327729Y-77765848D01*
X242154807Y-77688857D01*
X242154802Y-77688855D01*
X242009001Y-77657865D01*
X241969646Y-77649500D01*
X241780354Y-77649500D01*
X241747897Y-77656398D01*
X241595197Y-77688855D01*
X241595192Y-77688857D01*
X241422270Y-77765848D01*
X241422265Y-77765851D01*
X241269129Y-77877111D01*
X241142466Y-78017785D01*
X241047821Y-78181715D01*
X241047818Y-78181722D01*
X240993142Y-78350000D01*
X240989326Y-78361744D01*
X240969540Y-78550000D01*
X221587422Y-78550000D01*
X221539032Y-78483397D01*
X221416602Y-78360967D01*
X221276524Y-78259195D01*
X221122257Y-78180591D01*
X220957589Y-78127087D01*
X220957581Y-78127085D01*
X220950000Y-78125884D01*
X220950000Y-79033011D01*
X220940060Y-79015795D01*
X220884205Y-78959940D01*
X220815796Y-78920444D01*
X220739496Y-78900000D01*
X220660504Y-78900000D01*
X220584204Y-78920444D01*
X220515795Y-78959940D01*
X220459940Y-79015795D01*
X220450000Y-79033011D01*
X220450000Y-78125884D01*
X220449999Y-78125884D01*
X220442418Y-78127085D01*
X220442404Y-78127088D01*
X220428172Y-78131713D01*
X220358331Y-78133706D01*
X220298499Y-78097624D01*
X220267673Y-78034922D01*
X220275639Y-77965508D01*
X220318734Y-77912206D01*
X220490417Y-77791992D01*
X220490423Y-77791987D01*
X220641987Y-77640423D01*
X220641992Y-77640416D01*
X220764930Y-77464844D01*
X220764932Y-77464840D01*
X220855518Y-77270576D01*
X220855522Y-77270567D01*
X220861033Y-77250000D01*
X244194540Y-77250000D01*
X244214326Y-77438256D01*
X244214327Y-77438259D01*
X244272818Y-77618277D01*
X244272821Y-77618284D01*
X244367467Y-77782216D01*
X244429930Y-77851588D01*
X244494129Y-77922888D01*
X244647265Y-78034148D01*
X244647270Y-78034151D01*
X244820192Y-78111142D01*
X244820197Y-78111144D01*
X245005354Y-78150500D01*
X245005355Y-78150500D01*
X245194644Y-78150500D01*
X245194646Y-78150500D01*
X245379803Y-78111144D01*
X245552730Y-78034151D01*
X245705871Y-77922888D01*
X245832533Y-77782216D01*
X245857173Y-77739537D01*
X245907739Y-77691323D01*
X245976346Y-77678099D01*
X246041211Y-77704067D01*
X246064877Y-77728651D01*
X246067467Y-77732216D01*
X246194129Y-77872888D01*
X246347265Y-77984148D01*
X246347270Y-77984151D01*
X246520192Y-78061142D01*
X246520197Y-78061144D01*
X246705354Y-78100500D01*
X246705355Y-78100500D01*
X246894644Y-78100500D01*
X246894646Y-78100500D01*
X247079803Y-78061144D01*
X247202098Y-78006693D01*
X247271348Y-77997409D01*
X247334624Y-78027037D01*
X247371838Y-78086171D01*
X247375754Y-78106089D01*
X247389630Y-78229250D01*
X247389631Y-78229254D01*
X247449211Y-78399523D01*
X247512347Y-78500003D01*
X247545184Y-78552262D01*
X247672738Y-78679816D01*
X247763080Y-78736582D01*
X247772570Y-78742545D01*
X247825478Y-78775789D01*
X247995745Y-78835368D01*
X247995750Y-78835369D01*
X248174996Y-78855565D01*
X248175000Y-78855565D01*
X248175004Y-78855565D01*
X248354249Y-78835369D01*
X248354252Y-78835368D01*
X248354255Y-78835368D01*
X248524522Y-78775789D01*
X248677262Y-78679816D01*
X248804816Y-78552262D01*
X248900789Y-78399522D01*
X248960368Y-78229255D01*
X248960847Y-78225003D01*
X248980565Y-78050003D01*
X248980565Y-78049996D01*
X248960369Y-77870750D01*
X248960368Y-77870745D01*
X248931985Y-77789631D01*
X248900789Y-77700478D01*
X248900174Y-77699500D01*
X248834628Y-77595184D01*
X248804816Y-77547738D01*
X248677262Y-77420184D01*
X248585419Y-77362475D01*
X248540182Y-77311332D01*
X248489888Y-77311845D01*
X248482654Y-77309560D01*
X248354257Y-77264632D01*
X248354249Y-77264630D01*
X248175004Y-77244435D01*
X248174996Y-77244435D01*
X247995750Y-77264630D01*
X247995745Y-77264631D01*
X247870206Y-77308560D01*
X247800427Y-77312121D01*
X247739799Y-77277392D01*
X247707572Y-77215399D01*
X247705930Y-77204479D01*
X247705459Y-77200003D01*
X247705460Y-77200000D01*
X247685674Y-77011744D01*
X247627179Y-76831716D01*
X247532533Y-76667784D01*
X247405871Y-76527112D01*
X247369243Y-76500500D01*
X247252734Y-76415851D01*
X247252729Y-76415848D01*
X247217125Y-76399996D01*
X248194435Y-76399996D01*
X248194435Y-76400003D01*
X248214630Y-76579249D01*
X248214631Y-76579254D01*
X248274211Y-76749523D01*
X248340842Y-76855565D01*
X248370184Y-76902262D01*
X248497738Y-77029816D01*
X248551389Y-77063527D01*
X248589580Y-77087524D01*
X248634816Y-77138666D01*
X248685111Y-77138154D01*
X248692346Y-77140440D01*
X248820737Y-77185366D01*
X248820743Y-77185367D01*
X248820745Y-77185368D01*
X248820746Y-77185368D01*
X248820750Y-77185369D01*
X248999996Y-77205565D01*
X249000000Y-77205565D01*
X249000004Y-77205565D01*
X249179249Y-77185369D01*
X249179252Y-77185368D01*
X249179255Y-77185368D01*
X249349522Y-77125789D01*
X249502262Y-77029816D01*
X249629816Y-76902262D01*
X249725789Y-76749522D01*
X249785368Y-76579255D01*
X249785369Y-76579249D01*
X249805565Y-76400003D01*
X249805565Y-76399996D01*
X249785369Y-76220750D01*
X249785368Y-76220745D01*
X249742326Y-76097738D01*
X249725789Y-76050478D01*
X249720603Y-76042225D01*
X249657835Y-75942330D01*
X249629816Y-75897738D01*
X249502262Y-75770184D01*
X249461560Y-75744609D01*
X249349523Y-75674211D01*
X249179254Y-75614631D01*
X249179249Y-75614630D01*
X249049397Y-75600000D01*
X252894540Y-75600000D01*
X252914326Y-75788256D01*
X252914327Y-75788259D01*
X252972818Y-75968277D01*
X252972821Y-75968284D01*
X253067467Y-76132216D01*
X253161464Y-76236610D01*
X253194129Y-76272888D01*
X253347265Y-76384148D01*
X253347270Y-76384151D01*
X253520192Y-76461142D01*
X253520197Y-76461144D01*
X253705354Y-76500500D01*
X253705355Y-76500500D01*
X253894644Y-76500500D01*
X253894646Y-76500500D01*
X254079803Y-76461144D01*
X254252730Y-76384151D01*
X254405871Y-76272888D01*
X254532533Y-76132216D01*
X254627179Y-75968284D01*
X254685674Y-75788256D01*
X254705460Y-75600000D01*
X254685674Y-75411744D01*
X254627179Y-75231716D01*
X254532533Y-75067784D01*
X254405871Y-74927112D01*
X254405870Y-74927111D01*
X254252734Y-74815851D01*
X254252729Y-74815848D01*
X254079807Y-74738857D01*
X254079802Y-74738855D01*
X253934001Y-74707865D01*
X253894646Y-74699500D01*
X253705354Y-74699500D01*
X253672897Y-74706398D01*
X253520197Y-74738855D01*
X253520192Y-74738857D01*
X253347270Y-74815848D01*
X253347265Y-74815851D01*
X253194129Y-74927111D01*
X253067466Y-75067785D01*
X252972821Y-75231715D01*
X252972818Y-75231722D01*
X252921392Y-75389996D01*
X252914326Y-75411744D01*
X252894540Y-75600000D01*
X249049397Y-75600000D01*
X249000004Y-75594435D01*
X248999996Y-75594435D01*
X248820750Y-75614630D01*
X248820745Y-75614631D01*
X248650476Y-75674211D01*
X248497737Y-75770184D01*
X248370184Y-75897737D01*
X248274211Y-76050476D01*
X248214631Y-76220745D01*
X248214630Y-76220750D01*
X248194435Y-76399996D01*
X247217125Y-76399996D01*
X247079807Y-76338857D01*
X247079802Y-76338855D01*
X246934001Y-76307865D01*
X246894646Y-76299500D01*
X246705354Y-76299500D01*
X246672897Y-76306398D01*
X246520197Y-76338855D01*
X246520192Y-76338857D01*
X246347270Y-76415848D01*
X246347265Y-76415851D01*
X246194129Y-76527111D01*
X246067466Y-76667785D01*
X246042825Y-76710463D01*
X245992257Y-76758678D01*
X245923650Y-76771899D01*
X245858786Y-76745930D01*
X245835120Y-76721346D01*
X245832538Y-76717793D01*
X245832533Y-76717784D01*
X245705871Y-76577112D01*
X245705870Y-76577111D01*
X245552734Y-76465851D01*
X245552729Y-76465848D01*
X245379807Y-76388857D01*
X245379802Y-76388855D01*
X245232067Y-76357454D01*
X245194646Y-76349500D01*
X245005354Y-76349500D01*
X244972897Y-76356398D01*
X244820197Y-76388855D01*
X244820192Y-76388857D01*
X244647270Y-76465848D01*
X244647265Y-76465851D01*
X244494129Y-76577111D01*
X244367466Y-76717785D01*
X244272821Y-76881715D01*
X244272818Y-76881722D01*
X244224700Y-77029815D01*
X244214326Y-77061744D01*
X244194540Y-77250000D01*
X220861033Y-77250000D01*
X220901225Y-77100000D01*
X220046410Y-77100000D01*
X220096037Y-77014044D01*
X220125000Y-76905952D01*
X220125000Y-76794048D01*
X220096037Y-76685956D01*
X220046410Y-76600000D01*
X220901225Y-76600000D01*
X220901225Y-76599999D01*
X220855522Y-76429432D01*
X220855518Y-76429423D01*
X220764933Y-76235162D01*
X220764932Y-76235160D01*
X220641990Y-76059579D01*
X220582407Y-75999996D01*
X228794435Y-75999996D01*
X228794435Y-76000003D01*
X228814630Y-76179249D01*
X228814631Y-76179254D01*
X228874211Y-76349523D01*
X228950720Y-76471286D01*
X228970184Y-76502262D01*
X229097738Y-76629816D01*
X229187084Y-76685956D01*
X229237739Y-76717785D01*
X229250478Y-76725789D01*
X229382253Y-76771899D01*
X229420745Y-76785368D01*
X229420750Y-76785369D01*
X229599996Y-76805565D01*
X229600000Y-76805565D01*
X229600004Y-76805565D01*
X229779249Y-76785369D01*
X229779252Y-76785368D01*
X229779255Y-76785368D01*
X229949522Y-76725789D01*
X230102262Y-76629816D01*
X230229816Y-76502262D01*
X230325789Y-76349522D01*
X230385368Y-76179255D01*
X230385806Y-76175368D01*
X230405565Y-76000003D01*
X230405565Y-75999996D01*
X230390918Y-75869996D01*
X238319435Y-75869996D01*
X238319435Y-75870003D01*
X238339630Y-76049249D01*
X238339631Y-76049254D01*
X238399211Y-76219523D01*
X238495184Y-76372262D01*
X238622738Y-76499816D01*
X238673446Y-76531678D01*
X238767999Y-76591090D01*
X238775478Y-76595789D01*
X238945745Y-76655368D01*
X238945750Y-76655369D01*
X239124996Y-76675565D01*
X239125000Y-76675565D01*
X239125004Y-76675565D01*
X239304249Y-76655369D01*
X239304252Y-76655368D01*
X239304255Y-76655368D01*
X239474522Y-76595789D01*
X239627262Y-76499816D01*
X239754816Y-76372262D01*
X239850789Y-76219522D01*
X239910109Y-76049996D01*
X242194435Y-76049996D01*
X242194435Y-76050003D01*
X242214630Y-76229249D01*
X242214631Y-76229254D01*
X242274211Y-76399523D01*
X242354381Y-76527112D01*
X242370184Y-76552262D01*
X242497738Y-76679816D01*
X242650478Y-76775789D01*
X242721098Y-76800500D01*
X242820745Y-76835368D01*
X242820750Y-76835369D01*
X242999996Y-76855565D01*
X243000000Y-76855565D01*
X243000004Y-76855565D01*
X243179249Y-76835369D01*
X243179252Y-76835368D01*
X243179255Y-76835368D01*
X243349522Y-76775789D01*
X243502262Y-76679816D01*
X243629816Y-76552262D01*
X243725789Y-76399522D01*
X243785368Y-76229255D01*
X243785369Y-76229249D01*
X243805565Y-76050003D01*
X243805565Y-76049996D01*
X243785369Y-75870750D01*
X243785368Y-75870745D01*
X243769300Y-75824825D01*
X243725789Y-75700478D01*
X243722018Y-75694477D01*
X243666663Y-75606380D01*
X243629816Y-75547738D01*
X243502262Y-75420184D01*
X243488830Y-75411744D01*
X243349523Y-75324211D01*
X243179254Y-75264631D01*
X243179249Y-75264630D01*
X243000004Y-75244435D01*
X242999996Y-75244435D01*
X242820750Y-75264630D01*
X242820745Y-75264631D01*
X242650476Y-75324211D01*
X242497737Y-75420184D01*
X242370184Y-75547737D01*
X242274211Y-75700476D01*
X242214631Y-75870745D01*
X242214630Y-75870750D01*
X242194435Y-76049996D01*
X239910109Y-76049996D01*
X239910368Y-76049255D01*
X239914798Y-76009940D01*
X239930565Y-75870003D01*
X239930565Y-75869996D01*
X239910369Y-75690750D01*
X239910368Y-75690745D01*
X239850789Y-75520478D01*
X239836500Y-75497738D01*
X239797775Y-75436107D01*
X239754816Y-75367738D01*
X239627262Y-75240184D01*
X239613784Y-75231715D01*
X239474523Y-75144211D01*
X239304254Y-75084631D01*
X239304249Y-75084630D01*
X239125004Y-75064435D01*
X239124996Y-75064435D01*
X238945750Y-75084630D01*
X238945745Y-75084631D01*
X238775476Y-75144211D01*
X238622737Y-75240184D01*
X238495184Y-75367737D01*
X238399211Y-75520476D01*
X238339631Y-75690745D01*
X238339630Y-75690750D01*
X238319435Y-75869996D01*
X230390918Y-75869996D01*
X230385369Y-75820750D01*
X230385368Y-75820745D01*
X230348866Y-75716428D01*
X230325789Y-75650478D01*
X230324718Y-75648774D01*
X230274753Y-75569255D01*
X230229816Y-75497738D01*
X230102262Y-75370184D01*
X230098368Y-75367737D01*
X229949523Y-75274211D01*
X229779254Y-75214631D01*
X229779249Y-75214630D01*
X229600004Y-75194435D01*
X229599996Y-75194435D01*
X229420750Y-75214630D01*
X229420745Y-75214631D01*
X229250476Y-75274211D01*
X229097737Y-75370184D01*
X228970184Y-75497737D01*
X228874211Y-75650476D01*
X228814631Y-75820745D01*
X228814630Y-75820750D01*
X228794435Y-75999996D01*
X220582407Y-75999996D01*
X220490417Y-75908007D01*
X220314844Y-75785069D01*
X220314840Y-75785067D01*
X220120578Y-75694481D01*
X219950000Y-75648774D01*
X219950000Y-76503590D01*
X219864044Y-76453963D01*
X219755952Y-76425000D01*
X219644048Y-76425000D01*
X219535956Y-76453963D01*
X219450000Y-76503590D01*
X219450000Y-75648774D01*
X219449999Y-75648774D01*
X219279421Y-75694481D01*
X219085162Y-75785066D01*
X219085160Y-75785067D01*
X218909575Y-75908012D01*
X218758012Y-76059575D01*
X218635067Y-76235160D01*
X218635066Y-76235162D01*
X218544481Y-76429423D01*
X218544477Y-76429432D01*
X218498774Y-76599999D01*
X218498775Y-76600000D01*
X219353590Y-76600000D01*
X219303963Y-76685956D01*
X219275000Y-76794048D01*
X219275000Y-76905952D01*
X219303963Y-77014044D01*
X219353590Y-77100000D01*
X218498775Y-77100000D01*
X218544477Y-77270567D01*
X218544481Y-77270576D01*
X218635067Y-77464840D01*
X218635069Y-77464844D01*
X218758007Y-77640416D01*
X218758012Y-77640423D01*
X218909576Y-77791987D01*
X218909583Y-77791992D01*
X219085155Y-77914930D01*
X219085159Y-77914932D01*
X219279423Y-78005518D01*
X219279432Y-78005522D01*
X219449999Y-78051225D01*
X219450000Y-78051224D01*
X219450000Y-77196409D01*
X219535956Y-77246037D01*
X219644048Y-77275000D01*
X219755952Y-77275000D01*
X219864044Y-77246037D01*
X219950000Y-77196409D01*
X219950000Y-78051224D01*
X220037195Y-78027861D01*
X220107045Y-78029524D01*
X220164908Y-78068686D01*
X220192412Y-78132915D01*
X220180826Y-78201817D01*
X220133827Y-78253517D01*
X220125591Y-78258117D01*
X220123479Y-78259193D01*
X219983397Y-78360967D01*
X219860967Y-78483397D01*
X219759195Y-78623475D01*
X219680591Y-78777742D01*
X219627085Y-78942415D01*
X219600000Y-79113426D01*
X219600000Y-79300000D01*
X220400000Y-79300000D01*
X220400000Y-79800000D01*
X219600000Y-79800000D01*
X219600000Y-79986571D01*
X219627085Y-80157584D01*
X219680591Y-80322257D01*
X219759197Y-80476527D01*
X219805893Y-80540800D01*
X219829372Y-80606606D01*
X219813546Y-80674660D01*
X219763440Y-80723354D01*
X219705695Y-80737684D01*
X214690988Y-80742580D01*
X214623929Y-80722961D01*
X214578123Y-80670202D01*
X214568112Y-80601053D01*
X214590549Y-80545694D01*
X214640803Y-80476525D01*
X214719408Y-80322257D01*
X214772914Y-80157584D01*
X214800000Y-79986571D01*
X214800000Y-79800000D01*
X214000000Y-79800000D01*
X214000000Y-79300000D01*
X214800000Y-79300000D01*
X214800000Y-79113426D01*
X214772914Y-78942415D01*
X214719408Y-78777742D01*
X214640804Y-78623475D01*
X214539032Y-78483397D01*
X214416602Y-78360967D01*
X214276522Y-78259194D01*
X214274414Y-78258120D01*
X214273755Y-78257498D01*
X214272373Y-78256651D01*
X214272551Y-78256360D01*
X214223619Y-78210146D01*
X214206824Y-78142325D01*
X214229362Y-78076190D01*
X214284077Y-78032739D01*
X214353598Y-78025767D01*
X214362804Y-78027861D01*
X214486465Y-78060996D01*
X214486472Y-78060997D01*
X214699999Y-78079679D01*
X214700001Y-78079679D01*
X214913527Y-78060997D01*
X214913537Y-78060995D01*
X215120567Y-78005522D01*
X215120576Y-78005518D01*
X215314839Y-77914933D01*
X215371621Y-77875173D01*
X214768173Y-77271725D01*
X214864044Y-77246037D01*
X214960956Y-77190084D01*
X215040084Y-77110956D01*
X215096037Y-77014044D01*
X215121725Y-76918172D01*
X215725173Y-77521621D01*
X215764933Y-77464839D01*
X215855518Y-77270576D01*
X215855522Y-77270567D01*
X215910995Y-77063537D01*
X215910997Y-77063527D01*
X215929679Y-76850000D01*
X215929679Y-76849999D01*
X215910997Y-76636472D01*
X215910995Y-76636462D01*
X215855522Y-76429432D01*
X215855518Y-76429423D01*
X215764933Y-76235162D01*
X215725173Y-76178378D01*
X215121725Y-76781826D01*
X215096037Y-76685956D01*
X215040084Y-76589044D01*
X214960956Y-76509916D01*
X214864044Y-76453963D01*
X214768171Y-76428274D01*
X215371621Y-75824825D01*
X215314840Y-75785067D01*
X215314838Y-75785066D01*
X215120576Y-75694481D01*
X215120567Y-75694477D01*
X214913537Y-75639004D01*
X214913527Y-75639002D01*
X214700001Y-75620321D01*
X214699999Y-75620321D01*
X214486472Y-75639002D01*
X214486462Y-75639004D01*
X214279432Y-75694477D01*
X214279423Y-75694481D01*
X214085158Y-75785068D01*
X214028378Y-75824824D01*
X214631828Y-76428274D01*
X214535956Y-76453963D01*
X214439044Y-76509916D01*
X214359916Y-76589044D01*
X214303963Y-76685956D01*
X214278274Y-76781828D01*
X213674824Y-76178378D01*
X213635068Y-76235158D01*
X213544481Y-76429423D01*
X213544477Y-76429432D01*
X213489004Y-76636462D01*
X213489002Y-76636472D01*
X213470321Y-76849999D01*
X213470321Y-76850000D01*
X213489002Y-77063527D01*
X213489004Y-77063537D01*
X213544477Y-77270567D01*
X213544481Y-77270576D01*
X213635066Y-77464838D01*
X213635067Y-77464840D01*
X213674825Y-77521620D01*
X213674825Y-77521621D01*
X214278274Y-76918171D01*
X214303963Y-77014044D01*
X214359916Y-77110956D01*
X214439044Y-77190084D01*
X214535956Y-77246037D01*
X214631827Y-77271725D01*
X214028377Y-77875173D01*
X214028377Y-77875174D01*
X214081267Y-77912207D01*
X214124892Y-77966783D01*
X214132086Y-78036281D01*
X214100564Y-78098636D01*
X214040334Y-78134051D01*
X213971825Y-78131713D01*
X213957589Y-78127087D01*
X213957581Y-78127085D01*
X213950000Y-78125884D01*
X213950000Y-79033011D01*
X213940060Y-79015795D01*
X213884205Y-78959940D01*
X213815796Y-78920444D01*
X213739496Y-78900000D01*
X213660504Y-78900000D01*
X213584204Y-78920444D01*
X213515795Y-78959940D01*
X213459940Y-79015795D01*
X213450000Y-79033011D01*
X213450000Y-78125884D01*
X213449999Y-78125884D01*
X213442418Y-78127085D01*
X213442410Y-78127087D01*
X213277742Y-78180591D01*
X213123475Y-78259195D01*
X212983397Y-78360967D01*
X212860967Y-78483397D01*
X212759195Y-78623475D01*
X212680591Y-78777742D01*
X212627085Y-78942415D01*
X212600000Y-79113426D01*
X212600000Y-79300000D01*
X213400000Y-79300000D01*
X213400000Y-79800000D01*
X212600000Y-79800000D01*
X212600000Y-79986571D01*
X212627085Y-80157584D01*
X212680591Y-80322257D01*
X212759197Y-80476527D01*
X212810856Y-80547631D01*
X212834335Y-80613437D01*
X212818509Y-80681491D01*
X212768403Y-80730185D01*
X212710658Y-80744515D01*
X196364874Y-80760476D01*
X196297815Y-80740857D01*
X196252009Y-80688098D01*
X196241998Y-80618949D01*
X196270961Y-80555365D01*
X196277060Y-80548807D01*
X196296606Y-80529262D01*
X196392579Y-80376522D01*
X196452158Y-80206255D01*
X196455053Y-80180565D01*
X196472355Y-80027003D01*
X196472355Y-80026996D01*
X196452159Y-79847750D01*
X196452158Y-79847745D01*
X196392578Y-79677476D01*
X196312793Y-79550500D01*
X196296606Y-79524738D01*
X196169052Y-79397184D01*
X196133751Y-79375003D01*
X196016313Y-79301211D01*
X195846044Y-79241631D01*
X195846039Y-79241630D01*
X195666794Y-79221435D01*
X195666786Y-79221435D01*
X195487540Y-79241630D01*
X195487535Y-79241631D01*
X195317266Y-79301211D01*
X195164527Y-79397184D01*
X195036974Y-79524737D01*
X194941001Y-79677476D01*
X194881421Y-79847745D01*
X194881420Y-79847750D01*
X194861225Y-80026996D01*
X194861225Y-80027003D01*
X194881420Y-80206249D01*
X194881421Y-80206254D01*
X194941001Y-80376523D01*
X195036974Y-80529262D01*
X195057869Y-80550157D01*
X195091354Y-80611480D01*
X195086370Y-80681172D01*
X195044498Y-80737105D01*
X194979034Y-80761522D01*
X194970309Y-80761838D01*
X157024904Y-80798889D01*
X156957845Y-80779270D01*
X156912039Y-80726511D01*
X156900783Y-80674833D01*
X156900784Y-80674660D01*
X156901608Y-78863389D01*
X160949500Y-78863389D01*
X160949500Y-78986610D01*
X160973535Y-79107444D01*
X160973538Y-79107454D01*
X161020687Y-79221283D01*
X161020692Y-79221292D01*
X161089141Y-79323732D01*
X161089144Y-79323736D01*
X161176263Y-79410855D01*
X161176267Y-79410858D01*
X161278707Y-79479307D01*
X161278713Y-79479310D01*
X161278714Y-79479311D01*
X161392548Y-79526463D01*
X161513389Y-79550499D01*
X161513393Y-79550500D01*
X161513394Y-79550500D01*
X161636607Y-79550500D01*
X161636608Y-79550499D01*
X161757452Y-79526463D01*
X161871286Y-79479311D01*
X161973733Y-79410858D01*
X162009595Y-79374996D01*
X170644435Y-79374996D01*
X170644435Y-79375003D01*
X170664630Y-79554249D01*
X170664631Y-79554254D01*
X170724211Y-79724523D01*
X170758598Y-79779249D01*
X170820184Y-79877262D01*
X170947738Y-80004816D01*
X171100478Y-80100789D01*
X171104688Y-80102262D01*
X171270745Y-80160368D01*
X171270750Y-80160369D01*
X171449996Y-80180565D01*
X171450000Y-80180565D01*
X171450004Y-80180565D01*
X171629249Y-80160369D01*
X171629252Y-80160368D01*
X171629255Y-80160368D01*
X171799522Y-80100789D01*
X171952262Y-80004816D01*
X172079816Y-79877262D01*
X172175789Y-79724522D01*
X172235368Y-79554255D01*
X172235791Y-79550500D01*
X172255565Y-79375003D01*
X172255565Y-79374996D01*
X172235369Y-79195750D01*
X172235368Y-79195745D01*
X172213138Y-79132216D01*
X172175789Y-79025478D01*
X172166295Y-79010369D01*
X172079815Y-78872737D01*
X171952262Y-78745184D01*
X171799523Y-78649211D01*
X171629254Y-78589631D01*
X171629249Y-78589630D01*
X171450004Y-78569435D01*
X171449996Y-78569435D01*
X171270750Y-78589630D01*
X171270745Y-78589631D01*
X171100476Y-78649211D01*
X170947737Y-78745184D01*
X170820184Y-78872737D01*
X170724211Y-79025476D01*
X170664631Y-79195745D01*
X170664630Y-79195750D01*
X170644435Y-79374996D01*
X162009595Y-79374996D01*
X162060858Y-79323733D01*
X162129311Y-79221286D01*
X162176463Y-79107452D01*
X162200500Y-78986606D01*
X162200500Y-78863394D01*
X162176463Y-78742548D01*
X162129311Y-78628714D01*
X162129310Y-78628713D01*
X162129307Y-78628707D01*
X162060858Y-78526267D01*
X162060855Y-78526263D01*
X161973736Y-78439144D01*
X161973732Y-78439141D01*
X161871292Y-78370692D01*
X161871283Y-78370687D01*
X161757454Y-78323538D01*
X161757455Y-78323538D01*
X161757452Y-78323537D01*
X161757448Y-78323536D01*
X161757444Y-78323535D01*
X161636610Y-78299500D01*
X161636606Y-78299500D01*
X161513394Y-78299500D01*
X161513389Y-78299500D01*
X161392555Y-78323535D01*
X161392545Y-78323538D01*
X161278716Y-78370687D01*
X161278707Y-78370692D01*
X161176267Y-78439141D01*
X161176263Y-78439144D01*
X161089144Y-78526263D01*
X161089141Y-78526267D01*
X161020692Y-78628707D01*
X161020687Y-78628716D01*
X160973538Y-78742545D01*
X160973535Y-78742555D01*
X160949500Y-78863389D01*
X156901608Y-78863389D01*
X156902020Y-77956627D01*
X174812000Y-77956627D01*
X174812000Y-78065373D01*
X174840145Y-78170412D01*
X174894518Y-78264588D01*
X174971412Y-78341482D01*
X175065588Y-78395855D01*
X175170627Y-78424000D01*
X175170629Y-78424000D01*
X175279371Y-78424000D01*
X175279373Y-78424000D01*
X175384412Y-78395855D01*
X175478588Y-78341482D01*
X175555482Y-78264588D01*
X175609855Y-78170412D01*
X175638000Y-78065373D01*
X175638000Y-77956627D01*
X175629525Y-77924996D01*
X178969435Y-77924996D01*
X178969435Y-77925003D01*
X178989630Y-78104249D01*
X178989631Y-78104254D01*
X179049211Y-78274523D01*
X179125384Y-78395750D01*
X179145184Y-78427262D01*
X179272738Y-78554816D01*
X179344648Y-78600000D01*
X179422966Y-78649211D01*
X179425478Y-78650789D01*
X179595745Y-78710368D01*
X179595750Y-78710369D01*
X179774996Y-78730565D01*
X179775000Y-78730565D01*
X179775004Y-78730565D01*
X179954249Y-78710369D01*
X179954252Y-78710368D01*
X179954255Y-78710368D01*
X180124522Y-78650789D01*
X180277262Y-78554816D01*
X180404816Y-78427262D01*
X180500789Y-78274522D01*
X180560368Y-78104255D01*
X180563919Y-78072738D01*
X180577002Y-77956627D01*
X181812000Y-77956627D01*
X181812000Y-78065373D01*
X181840145Y-78170412D01*
X181894518Y-78264588D01*
X181971412Y-78341482D01*
X182065588Y-78395855D01*
X182170627Y-78424000D01*
X182170629Y-78424000D01*
X182279371Y-78424000D01*
X182279373Y-78424000D01*
X182384412Y-78395855D01*
X182478588Y-78341482D01*
X182555482Y-78264588D01*
X182578341Y-78224996D01*
X186244435Y-78224996D01*
X186244435Y-78225003D01*
X186264630Y-78404249D01*
X186264631Y-78404254D01*
X186324211Y-78574523D01*
X186409569Y-78710368D01*
X186420184Y-78727262D01*
X186547738Y-78854816D01*
X186561390Y-78863394D01*
X186648735Y-78918277D01*
X186700478Y-78950789D01*
X186750456Y-78968277D01*
X186870745Y-79010368D01*
X186870750Y-79010369D01*
X187049996Y-79030565D01*
X187050000Y-79030565D01*
X187050004Y-79030565D01*
X187229249Y-79010369D01*
X187229252Y-79010368D01*
X187229255Y-79010368D01*
X187399522Y-78950789D01*
X187552262Y-78854816D01*
X187679816Y-78727262D01*
X187775789Y-78574522D01*
X187835368Y-78404255D01*
X187835901Y-78399523D01*
X187841481Y-78350000D01*
X192244540Y-78350000D01*
X192264326Y-78538256D01*
X192264327Y-78538259D01*
X192322818Y-78718277D01*
X192322821Y-78718284D01*
X192417467Y-78882216D01*
X192544129Y-79022888D01*
X192697265Y-79134148D01*
X192697270Y-79134151D01*
X192870192Y-79211142D01*
X192870197Y-79211144D01*
X193055354Y-79250500D01*
X193055355Y-79250500D01*
X193244644Y-79250500D01*
X193244646Y-79250500D01*
X193429803Y-79211144D01*
X193602730Y-79134151D01*
X193681741Y-79076746D01*
X193747546Y-79053267D01*
X193815600Y-79069092D01*
X193842306Y-79089384D01*
X193882738Y-79129816D01*
X193954357Y-79174817D01*
X194028548Y-79221435D01*
X194035478Y-79225789D01*
X194205745Y-79285368D01*
X194205750Y-79285369D01*
X194384996Y-79305565D01*
X194385000Y-79305565D01*
X194385004Y-79305565D01*
X194564249Y-79285369D01*
X194564252Y-79285368D01*
X194564255Y-79285368D01*
X194734522Y-79225789D01*
X194887262Y-79129816D01*
X195014816Y-79002262D01*
X195110789Y-78849522D01*
X195170368Y-78679255D01*
X195170369Y-78679249D01*
X195177834Y-78612996D01*
X196171435Y-78612996D01*
X196171435Y-78613003D01*
X196191630Y-78792249D01*
X196191631Y-78792254D01*
X196251211Y-78962523D01*
X196326420Y-79082216D01*
X196347184Y-79115262D01*
X196474738Y-79242816D01*
X196525874Y-79274947D01*
X196620096Y-79334151D01*
X196627478Y-79338789D01*
X196689376Y-79360448D01*
X196797745Y-79398368D01*
X196797750Y-79398369D01*
X196976996Y-79418565D01*
X196977000Y-79418565D01*
X196977004Y-79418565D01*
X197156249Y-79398369D01*
X197156252Y-79398368D01*
X197156255Y-79398368D01*
X197326522Y-79338789D01*
X197479262Y-79242816D01*
X197606816Y-79115262D01*
X197702789Y-78962522D01*
X197762368Y-78792255D01*
X197762369Y-78792249D01*
X197782565Y-78613003D01*
X197782565Y-78612996D01*
X197781101Y-78600000D01*
X202619540Y-78600000D01*
X202639326Y-78788256D01*
X202639327Y-78788259D01*
X202697818Y-78968277D01*
X202697821Y-78968284D01*
X202792467Y-79132216D01*
X202874109Y-79222888D01*
X202919129Y-79272888D01*
X203072265Y-79384148D01*
X203072270Y-79384151D01*
X203245192Y-79461142D01*
X203245197Y-79461144D01*
X203430354Y-79500500D01*
X203430355Y-79500500D01*
X203619644Y-79500500D01*
X203619646Y-79500500D01*
X203804803Y-79461144D01*
X203977730Y-79384151D01*
X204130871Y-79272888D01*
X204257533Y-79132216D01*
X204352179Y-78968284D01*
X204410674Y-78788256D01*
X204430460Y-78600000D01*
X204427832Y-78574996D01*
X206269435Y-78574996D01*
X206269435Y-78575003D01*
X206289630Y-78754249D01*
X206289631Y-78754254D01*
X206349211Y-78924523D01*
X206412646Y-79025478D01*
X206445184Y-79077262D01*
X206572738Y-79204816D01*
X206631327Y-79241630D01*
X206700935Y-79285368D01*
X206725478Y-79300789D01*
X206791057Y-79323736D01*
X206895745Y-79360368D01*
X206895750Y-79360369D01*
X207074996Y-79380565D01*
X207075000Y-79380565D01*
X207075004Y-79380565D01*
X207254248Y-79360369D01*
X207254249Y-79360368D01*
X207254255Y-79360368D01*
X207254259Y-79360366D01*
X207255459Y-79360093D01*
X207256264Y-79360142D01*
X207261175Y-79359589D01*
X207261271Y-79360448D01*
X207325198Y-79364361D01*
X207381559Y-79405656D01*
X207406647Y-79470866D01*
X207406280Y-79494865D01*
X207394435Y-79599996D01*
X207394435Y-79600003D01*
X207414630Y-79779249D01*
X207414631Y-79779254D01*
X207474211Y-79949523D01*
X207538916Y-80052500D01*
X207570184Y-80102262D01*
X207697738Y-80229816D01*
X207759195Y-80268432D01*
X207844856Y-80322257D01*
X207850478Y-80325789D01*
X208020745Y-80385368D01*
X208020750Y-80385369D01*
X208199996Y-80405565D01*
X208200000Y-80405565D01*
X208200004Y-80405565D01*
X208379249Y-80385369D01*
X208379252Y-80385368D01*
X208379255Y-80385368D01*
X208549522Y-80325789D01*
X208702262Y-80229816D01*
X208829816Y-80102262D01*
X208925789Y-79949522D01*
X208985368Y-79779255D01*
X208991535Y-79724522D01*
X209005565Y-79600003D01*
X209005565Y-79599996D01*
X208985369Y-79420750D01*
X208985368Y-79420745D01*
X208964269Y-79360448D01*
X208927106Y-79254244D01*
X208923546Y-79184466D01*
X208956468Y-79125609D01*
X209004816Y-79077262D01*
X209100789Y-78924522D01*
X209160368Y-78754255D01*
X209161390Y-78745184D01*
X209180565Y-78575003D01*
X209180565Y-78574996D01*
X209160369Y-78395750D01*
X209160368Y-78395745D01*
X209151602Y-78370692D01*
X209100789Y-78225478D01*
X209073291Y-78181716D01*
X209048540Y-78142325D01*
X209004816Y-78072738D01*
X208877262Y-77945184D01*
X208845144Y-77925003D01*
X208724523Y-77849211D01*
X208554254Y-77789631D01*
X208554249Y-77789630D01*
X208375004Y-77769435D01*
X208374996Y-77769435D01*
X208195750Y-77789630D01*
X208195745Y-77789631D01*
X208025476Y-77849211D01*
X207872737Y-77945184D01*
X207812681Y-78005241D01*
X207751358Y-78038726D01*
X207681666Y-78033742D01*
X207637319Y-78005241D01*
X207577262Y-77945184D01*
X207424523Y-77849211D01*
X207254254Y-77789631D01*
X207254249Y-77789630D01*
X207075004Y-77769435D01*
X207074996Y-77769435D01*
X206895750Y-77789630D01*
X206895745Y-77789631D01*
X206725476Y-77849211D01*
X206572737Y-77945184D01*
X206445184Y-78072737D01*
X206349211Y-78225476D01*
X206289631Y-78395745D01*
X206289630Y-78395750D01*
X206269435Y-78574996D01*
X204427832Y-78574996D01*
X204410674Y-78411744D01*
X204352179Y-78231716D01*
X204257533Y-78067784D01*
X204130871Y-77927112D01*
X204130870Y-77927111D01*
X203977734Y-77815851D01*
X203977729Y-77815848D01*
X203804807Y-77738857D01*
X203804802Y-77738855D01*
X203641132Y-77704067D01*
X203619646Y-77699500D01*
X203430354Y-77699500D01*
X203408868Y-77704067D01*
X203245197Y-77738855D01*
X203245192Y-77738857D01*
X203072270Y-77815848D01*
X203072265Y-77815851D01*
X202919129Y-77927111D01*
X202792466Y-78067785D01*
X202697821Y-78231715D01*
X202697818Y-78231722D01*
X202641759Y-78404255D01*
X202639326Y-78411744D01*
X202619540Y-78600000D01*
X197781101Y-78600000D01*
X197762369Y-78433750D01*
X197762368Y-78433745D01*
X197702789Y-78263478D01*
X197699422Y-78258120D01*
X197626663Y-78142325D01*
X197606816Y-78110738D01*
X197479262Y-77983184D01*
X197436997Y-77956627D01*
X197326523Y-77887211D01*
X197156254Y-77827631D01*
X197156249Y-77827630D01*
X196977004Y-77807435D01*
X196976996Y-77807435D01*
X196797750Y-77827630D01*
X196797745Y-77827631D01*
X196627476Y-77887211D01*
X196474737Y-77983184D01*
X196347184Y-78110737D01*
X196251211Y-78263476D01*
X196191631Y-78433745D01*
X196191630Y-78433750D01*
X196171435Y-78612996D01*
X195177834Y-78612996D01*
X195190565Y-78500003D01*
X195190565Y-78499996D01*
X195170369Y-78320750D01*
X195170368Y-78320745D01*
X195154194Y-78274522D01*
X195110789Y-78150478D01*
X195100250Y-78133706D01*
X195048424Y-78051225D01*
X195014816Y-77997738D01*
X194887262Y-77870184D01*
X194819541Y-77827632D01*
X194734523Y-77774211D01*
X194564254Y-77714631D01*
X194564249Y-77714630D01*
X194385004Y-77694435D01*
X194384996Y-77694435D01*
X194205750Y-77714630D01*
X194205737Y-77714633D01*
X194035482Y-77774208D01*
X194022741Y-77782214D01*
X194007180Y-77791992D01*
X194001062Y-77795836D01*
X193933825Y-77814835D01*
X193866990Y-77794466D01*
X193842941Y-77773813D01*
X193828173Y-77757412D01*
X193755871Y-77677112D01*
X193755870Y-77677111D01*
X193602734Y-77565851D01*
X193602729Y-77565848D01*
X193429807Y-77488857D01*
X193429802Y-77488855D01*
X193284001Y-77457865D01*
X193244646Y-77449500D01*
X193055354Y-77449500D01*
X193022897Y-77456398D01*
X192870197Y-77488855D01*
X192870192Y-77488857D01*
X192697270Y-77565848D01*
X192697265Y-77565851D01*
X192544129Y-77677111D01*
X192417466Y-77817785D01*
X192322821Y-77981715D01*
X192322818Y-77981722D01*
X192267979Y-78150500D01*
X192264326Y-78161744D01*
X192244540Y-78350000D01*
X187841481Y-78350000D01*
X187855565Y-78225003D01*
X187855565Y-78224996D01*
X187835369Y-78045750D01*
X187835368Y-78045745D01*
X187818569Y-77997737D01*
X187775789Y-77875478D01*
X187775597Y-77875173D01*
X187733035Y-77807435D01*
X187679816Y-77722738D01*
X187552262Y-77595184D01*
X187505574Y-77565848D01*
X187399523Y-77499211D01*
X187229254Y-77439631D01*
X187229249Y-77439630D01*
X187050004Y-77419435D01*
X187049996Y-77419435D01*
X186870750Y-77439630D01*
X186870745Y-77439631D01*
X186700476Y-77499211D01*
X186547737Y-77595184D01*
X186420184Y-77722737D01*
X186324211Y-77875476D01*
X186264631Y-78045745D01*
X186264630Y-78045750D01*
X186244435Y-78224996D01*
X182578341Y-78224996D01*
X182609855Y-78170412D01*
X182638000Y-78065373D01*
X182638000Y-77956627D01*
X182609855Y-77851588D01*
X182555482Y-77757412D01*
X182478588Y-77680518D01*
X182384412Y-77626145D01*
X182279373Y-77598000D01*
X182170627Y-77598000D01*
X182065587Y-77626145D01*
X181971412Y-77680518D01*
X181971409Y-77680520D01*
X181894520Y-77757409D01*
X181894518Y-77757412D01*
X181840145Y-77851587D01*
X181823902Y-77912207D01*
X181812000Y-77956627D01*
X180577002Y-77956627D01*
X180580565Y-77925003D01*
X180580565Y-77924996D01*
X180560369Y-77745750D01*
X180560368Y-77745745D01*
X180554387Y-77728651D01*
X180500789Y-77575478D01*
X180490918Y-77559769D01*
X180431269Y-77464838D01*
X180404816Y-77422738D01*
X180277262Y-77295184D01*
X180248946Y-77277392D01*
X180124523Y-77199211D01*
X179954254Y-77139631D01*
X179954249Y-77139630D01*
X179775004Y-77119435D01*
X179774996Y-77119435D01*
X179595750Y-77139630D01*
X179595745Y-77139631D01*
X179425476Y-77199211D01*
X179272737Y-77295184D01*
X179145184Y-77422737D01*
X179049211Y-77575476D01*
X178989631Y-77745745D01*
X178989630Y-77745750D01*
X178969435Y-77924996D01*
X175629525Y-77924996D01*
X175609855Y-77851588D01*
X175555482Y-77757412D01*
X175478588Y-77680518D01*
X175384412Y-77626145D01*
X175279373Y-77598000D01*
X175170627Y-77598000D01*
X175065587Y-77626145D01*
X174971412Y-77680518D01*
X174971409Y-77680520D01*
X174894520Y-77757409D01*
X174894518Y-77757412D01*
X174840145Y-77851587D01*
X174823902Y-77912207D01*
X174812000Y-77956627D01*
X156902020Y-77956627D01*
X156903327Y-75081385D01*
X159989212Y-75081385D01*
X159989212Y-75081392D01*
X160009407Y-75260638D01*
X160009408Y-75260643D01*
X160068988Y-75430912D01*
X160128603Y-75525788D01*
X160164961Y-75583651D01*
X160292515Y-75711205D01*
X160314470Y-75725000D01*
X160424974Y-75794435D01*
X160445255Y-75807178D01*
X160544199Y-75841800D01*
X160615522Y-75866757D01*
X160615527Y-75866758D01*
X160794773Y-75886954D01*
X160794777Y-75886954D01*
X160794779Y-75886954D01*
X160830518Y-75882927D01*
X160899340Y-75894981D01*
X160950719Y-75942330D01*
X160968344Y-76009940D01*
X160966020Y-76030336D01*
X160949500Y-76113394D01*
X160949500Y-76236610D01*
X160973535Y-76357444D01*
X160973538Y-76357454D01*
X161020687Y-76471283D01*
X161020692Y-76471292D01*
X161089141Y-76573732D01*
X161089144Y-76573736D01*
X161176263Y-76660855D01*
X161176267Y-76660858D01*
X161278707Y-76729307D01*
X161278713Y-76729310D01*
X161278714Y-76729311D01*
X161392548Y-76776463D01*
X161480957Y-76794048D01*
X161513389Y-76800499D01*
X161513393Y-76800500D01*
X161513394Y-76800500D01*
X161636607Y-76800500D01*
X161636608Y-76800499D01*
X161757452Y-76776463D01*
X161871286Y-76729311D01*
X161973733Y-76660858D01*
X162034595Y-76599996D01*
X166194435Y-76599996D01*
X166194435Y-76600000D01*
X166214630Y-76779249D01*
X166214631Y-76779254D01*
X166274211Y-76949523D01*
X166314753Y-77014044D01*
X166370184Y-77102262D01*
X166497738Y-77229816D01*
X166562593Y-77270567D01*
X166647966Y-77324211D01*
X166650478Y-77325789D01*
X166755321Y-77362475D01*
X166820745Y-77385368D01*
X166820750Y-77385369D01*
X166999996Y-77405565D01*
X167000000Y-77405565D01*
X167000004Y-77405565D01*
X167179249Y-77385369D01*
X167179252Y-77385368D01*
X167179255Y-77385368D01*
X167349522Y-77325789D01*
X167502262Y-77229816D01*
X167629816Y-77102262D01*
X167725789Y-76949522D01*
X167785368Y-76779255D01*
X167785683Y-76776464D01*
X167794467Y-76698498D01*
X167821533Y-76634083D01*
X167879127Y-76594528D01*
X167943466Y-76591090D01*
X168105354Y-76625500D01*
X168105355Y-76625500D01*
X168294644Y-76625500D01*
X168294646Y-76625500D01*
X168414634Y-76599996D01*
X176594435Y-76599996D01*
X176594435Y-76600000D01*
X176614630Y-76779249D01*
X176614631Y-76779254D01*
X176674211Y-76949523D01*
X176714753Y-77014044D01*
X176770184Y-77102262D01*
X176897738Y-77229816D01*
X176962593Y-77270567D01*
X177047966Y-77324211D01*
X177050478Y-77325789D01*
X177155321Y-77362475D01*
X177220745Y-77385368D01*
X177220750Y-77385369D01*
X177399996Y-77405565D01*
X177400000Y-77405565D01*
X177400004Y-77405565D01*
X177579249Y-77385369D01*
X177579252Y-77385368D01*
X177579255Y-77385368D01*
X177749522Y-77325789D01*
X177902262Y-77229816D01*
X178029816Y-77102262D01*
X178125789Y-76949522D01*
X178185368Y-76779255D01*
X178185683Y-76776464D01*
X178185916Y-76774396D01*
X187594435Y-76774396D01*
X187594435Y-76774403D01*
X187614630Y-76953649D01*
X187614631Y-76953654D01*
X187674211Y-77123923D01*
X187749934Y-77244435D01*
X187770184Y-77276662D01*
X187897738Y-77404216D01*
X187951917Y-77438259D01*
X188048921Y-77499211D01*
X188050478Y-77500189D01*
X188186365Y-77547738D01*
X188220745Y-77559768D01*
X188220750Y-77559769D01*
X188399996Y-77579965D01*
X188400000Y-77579965D01*
X188400004Y-77579965D01*
X188579249Y-77559769D01*
X188579252Y-77559768D01*
X188579255Y-77559768D01*
X188749522Y-77500189D01*
X188902262Y-77404216D01*
X189029816Y-77276662D01*
X189125789Y-77123922D01*
X189185368Y-76953655D01*
X189198696Y-76835368D01*
X189205565Y-76774403D01*
X189205565Y-76774396D01*
X189185369Y-76595150D01*
X189185368Y-76595145D01*
X189152011Y-76499816D01*
X189125789Y-76424878D01*
X189109857Y-76399523D01*
X189071737Y-76338855D01*
X189029816Y-76272138D01*
X188902262Y-76144584D01*
X188749523Y-76048611D01*
X188579254Y-75989031D01*
X188579249Y-75989030D01*
X188400004Y-75968835D01*
X188399996Y-75968835D01*
X188220750Y-75989030D01*
X188220745Y-75989031D01*
X188050476Y-76048611D01*
X187897737Y-76144584D01*
X187770184Y-76272137D01*
X187674211Y-76424876D01*
X187614631Y-76595145D01*
X187614630Y-76595150D01*
X187594435Y-76774396D01*
X178185916Y-76774396D01*
X178205565Y-76600000D01*
X178205565Y-76599996D01*
X178185369Y-76420750D01*
X178185368Y-76420745D01*
X178168403Y-76372262D01*
X178125789Y-76250478D01*
X178116165Y-76235162D01*
X178081033Y-76179249D01*
X178029816Y-76097738D01*
X177902262Y-75970184D01*
X177857933Y-75942330D01*
X177749523Y-75874211D01*
X177579254Y-75814631D01*
X177579249Y-75814630D01*
X177400004Y-75794435D01*
X177399996Y-75794435D01*
X177220750Y-75814630D01*
X177220745Y-75814631D01*
X177050476Y-75874211D01*
X176897737Y-75970184D01*
X176770184Y-76097737D01*
X176674211Y-76250476D01*
X176614631Y-76420745D01*
X176614630Y-76420750D01*
X176594435Y-76599996D01*
X168414634Y-76599996D01*
X168479803Y-76586144D01*
X168652730Y-76509151D01*
X168805871Y-76397888D01*
X168932533Y-76257216D01*
X169027179Y-76093284D01*
X169085674Y-75913256D01*
X169105460Y-75725000D01*
X169085674Y-75536744D01*
X169027179Y-75356716D01*
X168932533Y-75192784D01*
X168805871Y-75052112D01*
X168805870Y-75052111D01*
X168652734Y-74940851D01*
X168652729Y-74940848D01*
X168479807Y-74863857D01*
X168479802Y-74863855D01*
X168330938Y-74832214D01*
X168294646Y-74824500D01*
X168105354Y-74824500D01*
X168072897Y-74831398D01*
X167920197Y-74863855D01*
X167920192Y-74863857D01*
X167747270Y-74940848D01*
X167747265Y-74940851D01*
X167594129Y-75052111D01*
X167467466Y-75192785D01*
X167372821Y-75356715D01*
X167372818Y-75356722D01*
X167314327Y-75536740D01*
X167314326Y-75536744D01*
X167301837Y-75655575D01*
X167296939Y-75702174D01*
X167270354Y-75766788D01*
X167213057Y-75806773D01*
X167159735Y-75812432D01*
X167000004Y-75794435D01*
X166999996Y-75794435D01*
X166820750Y-75814630D01*
X166820745Y-75814631D01*
X166650476Y-75874211D01*
X166497737Y-75970184D01*
X166370184Y-76097737D01*
X166274211Y-76250476D01*
X166214631Y-76420745D01*
X166214630Y-76420750D01*
X166194435Y-76599996D01*
X162034595Y-76599996D01*
X162060858Y-76573733D01*
X162129311Y-76471286D01*
X162176463Y-76357452D01*
X162200500Y-76236606D01*
X162200500Y-76113394D01*
X162182030Y-76020536D01*
X162188257Y-75950946D01*
X162231120Y-75895768D01*
X162297010Y-75872524D01*
X162317527Y-75873125D01*
X162400257Y-75882447D01*
X162486609Y-75892177D01*
X162486612Y-75892177D01*
X162486616Y-75892177D01*
X162665861Y-75871981D01*
X162665864Y-75871980D01*
X162665867Y-75871980D01*
X162836134Y-75812401D01*
X162988874Y-75716428D01*
X163116428Y-75588874D01*
X163212401Y-75436134D01*
X163271980Y-75265867D01*
X163272119Y-75264632D01*
X163292177Y-75086615D01*
X163292177Y-75086608D01*
X163271981Y-74907362D01*
X163271980Y-74907357D01*
X163239960Y-74815849D01*
X163234413Y-74799996D01*
X174994435Y-74799996D01*
X174994435Y-74800003D01*
X175014630Y-74979249D01*
X175014631Y-74979254D01*
X175074211Y-75149523D01*
X175146538Y-75264630D01*
X175170184Y-75302262D01*
X175297738Y-75429816D01*
X175307795Y-75436135D01*
X175442025Y-75520478D01*
X175450478Y-75525789D01*
X175561988Y-75564808D01*
X175620745Y-75585368D01*
X175620750Y-75585369D01*
X175799996Y-75605565D01*
X175800000Y-75605565D01*
X175800004Y-75605565D01*
X175979249Y-75585369D01*
X175979252Y-75585368D01*
X175979255Y-75585368D01*
X176149522Y-75525789D01*
X176302262Y-75429816D01*
X176342082Y-75389996D01*
X183714435Y-75389996D01*
X183714435Y-75390003D01*
X183734630Y-75569249D01*
X183734631Y-75569254D01*
X183794211Y-75739523D01*
X183869871Y-75859934D01*
X183890184Y-75892262D01*
X184017738Y-76019816D01*
X184085545Y-76062422D01*
X184166664Y-76113393D01*
X184170478Y-76115789D01*
X184340745Y-76175368D01*
X184340750Y-76175369D01*
X184519996Y-76195565D01*
X184520000Y-76195565D01*
X184520004Y-76195565D01*
X184699249Y-76175369D01*
X184699252Y-76175368D01*
X184699255Y-76175368D01*
X184869522Y-76115789D01*
X185022262Y-76019816D01*
X185149816Y-75892262D01*
X185245789Y-75739522D01*
X185305368Y-75569255D01*
X185307594Y-75549500D01*
X185325565Y-75390003D01*
X185325565Y-75389996D01*
X185310564Y-75256853D01*
X197564578Y-75256853D01*
X197564578Y-75256860D01*
X197584773Y-75436106D01*
X197584774Y-75436111D01*
X197644354Y-75606380D01*
X197728013Y-75739522D01*
X197740327Y-75759119D01*
X197867881Y-75886673D01*
X198020621Y-75982646D01*
X198156911Y-76030336D01*
X198190888Y-76042225D01*
X198190893Y-76042226D01*
X198370139Y-76062422D01*
X198370143Y-76062422D01*
X198370147Y-76062422D01*
X198549392Y-76042226D01*
X198549395Y-76042225D01*
X198549398Y-76042225D01*
X198719665Y-75982646D01*
X198872405Y-75886673D01*
X198999959Y-75759119D01*
X199095932Y-75606379D01*
X199155511Y-75436112D01*
X199156221Y-75429816D01*
X199170592Y-75302262D01*
X199174348Y-75268922D01*
X199201414Y-75204510D01*
X199259009Y-75164955D01*
X199328846Y-75162817D01*
X199338522Y-75165765D01*
X199394543Y-75185367D01*
X199394546Y-75185368D01*
X199394547Y-75185368D01*
X199394551Y-75185369D01*
X199573797Y-75205565D01*
X199573801Y-75205565D01*
X199573805Y-75205565D01*
X199753050Y-75185369D01*
X199753053Y-75185368D01*
X199753056Y-75185368D01*
X199923323Y-75125789D01*
X200076063Y-75029816D01*
X200203617Y-74902262D01*
X200299590Y-74749522D01*
X200359169Y-74579255D01*
X200359170Y-74579249D01*
X200379366Y-74400003D01*
X200379366Y-74399996D01*
X200359170Y-74220750D01*
X200359169Y-74220745D01*
X200325942Y-74125788D01*
X200299590Y-74050478D01*
X200277066Y-74014632D01*
X200240630Y-73956644D01*
X200203617Y-73897738D01*
X200076063Y-73770184D01*
X200048379Y-73752789D01*
X199923324Y-73674211D01*
X199753055Y-73614631D01*
X199753050Y-73614630D01*
X199573805Y-73594435D01*
X199573797Y-73594435D01*
X199394551Y-73614630D01*
X199394546Y-73614631D01*
X199224277Y-73674211D01*
X199071538Y-73770184D01*
X198943985Y-73897737D01*
X198848012Y-74050476D01*
X198788432Y-74220745D01*
X198788431Y-74220750D01*
X198769595Y-74387933D01*
X198742529Y-74452347D01*
X198684934Y-74491903D01*
X198615097Y-74494040D01*
X198605420Y-74491091D01*
X198549405Y-74471490D01*
X198549392Y-74471487D01*
X198370147Y-74451292D01*
X198370139Y-74451292D01*
X198190893Y-74471487D01*
X198190888Y-74471488D01*
X198020619Y-74531068D01*
X197867880Y-74627041D01*
X197740327Y-74754594D01*
X197644354Y-74907333D01*
X197584774Y-75077602D01*
X197584773Y-75077607D01*
X197564578Y-75256853D01*
X185310564Y-75256853D01*
X185305369Y-75210750D01*
X185305368Y-75210745D01*
X185299661Y-75194435D01*
X185245789Y-75040478D01*
X185149816Y-74887738D01*
X185022262Y-74760184D01*
X185005294Y-74749522D01*
X184869523Y-74664211D01*
X184699254Y-74604631D01*
X184699249Y-74604630D01*
X184520004Y-74584435D01*
X184519996Y-74584435D01*
X184340750Y-74604630D01*
X184340745Y-74604631D01*
X184170476Y-74664211D01*
X184017737Y-74760184D01*
X183890184Y-74887737D01*
X183794211Y-75040476D01*
X183734631Y-75210745D01*
X183734630Y-75210750D01*
X183714435Y-75389996D01*
X176342082Y-75389996D01*
X176429816Y-75302262D01*
X176525789Y-75149522D01*
X176585368Y-74979255D01*
X176585369Y-74979249D01*
X176605565Y-74800003D01*
X176605565Y-74799996D01*
X176585369Y-74620750D01*
X176585368Y-74620745D01*
X176570805Y-74579126D01*
X176525789Y-74450478D01*
X176429816Y-74297738D01*
X176302262Y-74170184D01*
X176283457Y-74158368D01*
X176149523Y-74074211D01*
X175979254Y-74014631D01*
X175979249Y-74014630D01*
X175800004Y-73994435D01*
X175799996Y-73994435D01*
X175620750Y-74014630D01*
X175620745Y-74014631D01*
X175450476Y-74074211D01*
X175297737Y-74170184D01*
X175170184Y-74297737D01*
X175074211Y-74450476D01*
X175014631Y-74620745D01*
X175014630Y-74620750D01*
X174994435Y-74799996D01*
X163234413Y-74799996D01*
X163212401Y-74737090D01*
X163205299Y-74725788D01*
X163166608Y-74664211D01*
X163116428Y-74584350D01*
X162988874Y-74456796D01*
X162836135Y-74360823D01*
X162665866Y-74301243D01*
X162665861Y-74301242D01*
X162486616Y-74281047D01*
X162486608Y-74281047D01*
X162307362Y-74301242D01*
X162307357Y-74301243D01*
X162137088Y-74360823D01*
X161984349Y-74456796D01*
X161856796Y-74584349D01*
X161760820Y-74737093D01*
X161758648Y-74743302D01*
X161717925Y-74800077D01*
X161652972Y-74825822D01*
X161584411Y-74812364D01*
X161534009Y-74763976D01*
X161524566Y-74743297D01*
X161520567Y-74731868D01*
X161440618Y-74604631D01*
X161424593Y-74579127D01*
X161297039Y-74451573D01*
X161262413Y-74429816D01*
X161144300Y-74355600D01*
X160974031Y-74296020D01*
X160974026Y-74296019D01*
X160794781Y-74275824D01*
X160794773Y-74275824D01*
X160615527Y-74296019D01*
X160615522Y-74296020D01*
X160445253Y-74355600D01*
X160292514Y-74451573D01*
X160164961Y-74579126D01*
X160068988Y-74731865D01*
X160009408Y-74902134D01*
X160009407Y-74902139D01*
X159989212Y-75081385D01*
X156903327Y-75081385D01*
X156904444Y-72624996D01*
X160744435Y-72624996D01*
X160744435Y-72625003D01*
X160764630Y-72804249D01*
X160764631Y-72804254D01*
X160824211Y-72974523D01*
X160899897Y-73094975D01*
X160920184Y-73127262D01*
X161047738Y-73254816D01*
X161078605Y-73274211D01*
X161197864Y-73349147D01*
X161200478Y-73350789D01*
X161333779Y-73397433D01*
X161370745Y-73410368D01*
X161370750Y-73410369D01*
X161549996Y-73430565D01*
X161550000Y-73430565D01*
X161550004Y-73430565D01*
X161729249Y-73410369D01*
X161729252Y-73410368D01*
X161729255Y-73410368D01*
X161899522Y-73350789D01*
X162052262Y-73254816D01*
X162179816Y-73127262D01*
X162242817Y-73026996D01*
X171794435Y-73026996D01*
X171794435Y-73027003D01*
X171814630Y-73206249D01*
X171814631Y-73206254D01*
X171874211Y-73376523D01*
X171961755Y-73515848D01*
X171970184Y-73529262D01*
X172097738Y-73656816D01*
X172188080Y-73713582D01*
X172245278Y-73749522D01*
X172250478Y-73752789D01*
X172385388Y-73799996D01*
X172420745Y-73812368D01*
X172420750Y-73812369D01*
X172599996Y-73832565D01*
X172600000Y-73832565D01*
X172600004Y-73832565D01*
X172779249Y-73812369D01*
X172779252Y-73812368D01*
X172779255Y-73812368D01*
X172949522Y-73752789D01*
X173102262Y-73656816D01*
X173229816Y-73529262D01*
X173325789Y-73376522D01*
X173385368Y-73206255D01*
X173386778Y-73193745D01*
X173405565Y-73027003D01*
X173405565Y-73026996D01*
X173385369Y-72847750D01*
X173385368Y-72847745D01*
X173369575Y-72802612D01*
X173334594Y-72702640D01*
X200994435Y-72702640D01*
X200994435Y-72702647D01*
X201014630Y-72881893D01*
X201014631Y-72881898D01*
X201074211Y-73052167D01*
X201163171Y-73193745D01*
X201170184Y-73204906D01*
X201297738Y-73332460D01*
X201362251Y-73372996D01*
X201419114Y-73408726D01*
X201450478Y-73428433D01*
X201524636Y-73454382D01*
X201620745Y-73488012D01*
X201620750Y-73488013D01*
X201799996Y-73508209D01*
X201800000Y-73508209D01*
X201800004Y-73508209D01*
X201979249Y-73488013D01*
X201979252Y-73488012D01*
X201979255Y-73488012D01*
X202149522Y-73428433D01*
X202302262Y-73332460D01*
X202429816Y-73204906D01*
X202525789Y-73052166D01*
X202525793Y-73052154D01*
X202527811Y-73047966D01*
X202574630Y-72996103D01*
X202642056Y-72977786D01*
X202708681Y-72998829D01*
X202744529Y-73035788D01*
X202813540Y-73145618D01*
X202880241Y-73212319D01*
X202913726Y-73273642D01*
X202908742Y-73343334D01*
X202880241Y-73387681D01*
X202813540Y-73454381D01*
X202717567Y-73607120D01*
X202657987Y-73777389D01*
X202657986Y-73777394D01*
X202637791Y-73956640D01*
X202637791Y-73956647D01*
X202657986Y-74135893D01*
X202657987Y-74135898D01*
X202717567Y-74306167D01*
X202808243Y-74450476D01*
X202813540Y-74458906D01*
X202941094Y-74586460D01*
X203093834Y-74682433D01*
X203235103Y-74731865D01*
X203264101Y-74742012D01*
X203264106Y-74742013D01*
X203443352Y-74762209D01*
X203443356Y-74762209D01*
X203443360Y-74762209D01*
X203622605Y-74742013D01*
X203622608Y-74742012D01*
X203622611Y-74742012D01*
X203792878Y-74682433D01*
X203945618Y-74586460D01*
X204073172Y-74458906D01*
X204169145Y-74306166D01*
X204193294Y-74237151D01*
X204234016Y-74180376D01*
X204298969Y-74154629D01*
X204351291Y-74161065D01*
X204420745Y-74185368D01*
X204420750Y-74185369D01*
X204599996Y-74205565D01*
X204600000Y-74205565D01*
X204600004Y-74205565D01*
X204779249Y-74185369D01*
X204779252Y-74185368D01*
X204779255Y-74185368D01*
X204949522Y-74125789D01*
X205102262Y-74029816D01*
X205229816Y-73902262D01*
X205294074Y-73799996D01*
X215594435Y-73799996D01*
X215594435Y-73800003D01*
X215614630Y-73979249D01*
X215614631Y-73979254D01*
X215674211Y-74149523D01*
X215767341Y-74297737D01*
X215770184Y-74302262D01*
X215897738Y-74429816D01*
X215954890Y-74465727D01*
X215995256Y-74491091D01*
X216050478Y-74525789D01*
X216065565Y-74531068D01*
X216220745Y-74585368D01*
X216220750Y-74585369D01*
X216399996Y-74605565D01*
X216400000Y-74605565D01*
X216400004Y-74605565D01*
X216579249Y-74585369D01*
X216579252Y-74585368D01*
X216579255Y-74585368D01*
X216749522Y-74525789D01*
X216902262Y-74429816D01*
X217029816Y-74302262D01*
X217125789Y-74149522D01*
X217149766Y-74081000D01*
X220544659Y-74081000D01*
X220563975Y-74277129D01*
X220563976Y-74277132D01*
X220616892Y-74451573D01*
X220621188Y-74465733D01*
X220714086Y-74639532D01*
X220714090Y-74639539D01*
X220839116Y-74791883D01*
X220991460Y-74916909D01*
X220991467Y-74916913D01*
X221165266Y-75009811D01*
X221165269Y-75009811D01*
X221165273Y-75009814D01*
X221353868Y-75067024D01*
X221550000Y-75086341D01*
X221746132Y-75067024D01*
X221934727Y-75009814D01*
X222108538Y-74916910D01*
X222260883Y-74791883D01*
X222385910Y-74639538D01*
X222432362Y-74552632D01*
X222478811Y-74465733D01*
X222478811Y-74465732D01*
X222478814Y-74465727D01*
X222529087Y-74300000D01*
X226594540Y-74300000D01*
X226614326Y-74488256D01*
X226614327Y-74488259D01*
X226672818Y-74668277D01*
X226672821Y-74668284D01*
X226767467Y-74832216D01*
X226835129Y-74907362D01*
X226894129Y-74972888D01*
X227047265Y-75084148D01*
X227047270Y-75084151D01*
X227220192Y-75161142D01*
X227220197Y-75161144D01*
X227405354Y-75200500D01*
X227405355Y-75200500D01*
X227594644Y-75200500D01*
X227594646Y-75200500D01*
X227779803Y-75161144D01*
X227952730Y-75084151D01*
X228105871Y-74972888D01*
X228232533Y-74832216D01*
X228327179Y-74668284D01*
X228385674Y-74488256D01*
X228405460Y-74300000D01*
X228385674Y-74111744D01*
X228327179Y-73931716D01*
X228232533Y-73767784D01*
X228105871Y-73627112D01*
X228105870Y-73627111D01*
X227952734Y-73515851D01*
X227952729Y-73515848D01*
X227779807Y-73438857D01*
X227779802Y-73438855D01*
X227597012Y-73400003D01*
X227594646Y-73399500D01*
X227405354Y-73399500D01*
X227402988Y-73400003D01*
X227220197Y-73438855D01*
X227220192Y-73438857D01*
X227047270Y-73515848D01*
X227047265Y-73515851D01*
X226894129Y-73627111D01*
X226767466Y-73767785D01*
X226672821Y-73931715D01*
X226672818Y-73931722D01*
X226618535Y-74098789D01*
X226614326Y-74111744D01*
X226594540Y-74300000D01*
X222529087Y-74300000D01*
X222536024Y-74277132D01*
X222555341Y-74081000D01*
X222536024Y-73884868D01*
X222478814Y-73696273D01*
X222478811Y-73696269D01*
X222478811Y-73696266D01*
X222385913Y-73522467D01*
X222385909Y-73522460D01*
X222263247Y-73372996D01*
X238794435Y-73372996D01*
X238794435Y-73373003D01*
X238814630Y-73552249D01*
X238814631Y-73552254D01*
X238874211Y-73722523D01*
X238970184Y-73875262D01*
X239097738Y-74002816D01*
X239250478Y-74098789D01*
X239410060Y-74154629D01*
X239420745Y-74158368D01*
X239420750Y-74158369D01*
X239599996Y-74178565D01*
X239600000Y-74178565D01*
X239600004Y-74178565D01*
X239779249Y-74158369D01*
X239779252Y-74158368D01*
X239779255Y-74158368D01*
X239949522Y-74098789D01*
X240102262Y-74002816D01*
X240105082Y-73999996D01*
X248194435Y-73999996D01*
X248194435Y-74000003D01*
X248214630Y-74179249D01*
X248214631Y-74179254D01*
X248274211Y-74349523D01*
X248347231Y-74465733D01*
X248370184Y-74502262D01*
X248497738Y-74629816D01*
X248650478Y-74725789D01*
X248759610Y-74763976D01*
X248820745Y-74785368D01*
X248820750Y-74785369D01*
X248999996Y-74805565D01*
X249000000Y-74805565D01*
X249000004Y-74805565D01*
X249179249Y-74785369D01*
X249179252Y-74785368D01*
X249179255Y-74785368D01*
X249349522Y-74725789D01*
X249502262Y-74629816D01*
X249629816Y-74502262D01*
X249725789Y-74349522D01*
X249785368Y-74179255D01*
X249787418Y-74161065D01*
X249805565Y-74000003D01*
X249805565Y-73999996D01*
X249785369Y-73820750D01*
X249785368Y-73820745D01*
X249760446Y-73749522D01*
X249725789Y-73650478D01*
X249707106Y-73620745D01*
X249664071Y-73552254D01*
X249629816Y-73497738D01*
X249529511Y-73397433D01*
X249496026Y-73336110D01*
X249501010Y-73266418D01*
X249542882Y-73210485D01*
X249608346Y-73186068D01*
X249631076Y-73186532D01*
X249799997Y-73205565D01*
X249800000Y-73205565D01*
X249800004Y-73205565D01*
X249979249Y-73185369D01*
X249979252Y-73185368D01*
X249979255Y-73185368D01*
X250149522Y-73125789D01*
X250302262Y-73029816D01*
X250429816Y-72902262D01*
X250525789Y-72749522D01*
X250585368Y-72579255D01*
X250585847Y-72575003D01*
X250605565Y-72400003D01*
X250605565Y-72399996D01*
X250585369Y-72220750D01*
X250585366Y-72220737D01*
X250525790Y-72050481D01*
X250525790Y-72050480D01*
X250525789Y-72050478D01*
X250514380Y-72032321D01*
X250495380Y-71965086D01*
X250515747Y-71898251D01*
X250546484Y-71866034D01*
X250605871Y-71822888D01*
X250732533Y-71682216D01*
X250827179Y-71518284D01*
X250885674Y-71338256D01*
X250905460Y-71150000D01*
X250885674Y-70961744D01*
X250827179Y-70781716D01*
X250732533Y-70617784D01*
X250605871Y-70477112D01*
X250605870Y-70477111D01*
X250452734Y-70365851D01*
X250452729Y-70365848D01*
X250279807Y-70288857D01*
X250279802Y-70288855D01*
X250134001Y-70257865D01*
X250094646Y-70249500D01*
X249905354Y-70249500D01*
X249876957Y-70255536D01*
X249720197Y-70288855D01*
X249720192Y-70288857D01*
X249547270Y-70365848D01*
X249547265Y-70365851D01*
X249394129Y-70477111D01*
X249267466Y-70617785D01*
X249172821Y-70781715D01*
X249172818Y-70781722D01*
X249118298Y-70949518D01*
X249114326Y-70961744D01*
X249094540Y-71150000D01*
X249114326Y-71338256D01*
X249114327Y-71338259D01*
X249172818Y-71518277D01*
X249172820Y-71518281D01*
X249172821Y-71518284D01*
X249190857Y-71549523D01*
X249263171Y-71674776D01*
X249279643Y-71742676D01*
X249256790Y-71808703D01*
X249243465Y-71824455D01*
X249170185Y-71897736D01*
X249170184Y-71897737D01*
X249074211Y-72050476D01*
X249014631Y-72220745D01*
X249014630Y-72220750D01*
X248994435Y-72399996D01*
X248994435Y-72400003D01*
X249014630Y-72579249D01*
X249014631Y-72579254D01*
X249074211Y-72749523D01*
X249170184Y-72902262D01*
X249270488Y-73002566D01*
X249303973Y-73063889D01*
X249298989Y-73133581D01*
X249257117Y-73189514D01*
X249191653Y-73213931D01*
X249168924Y-73213467D01*
X249000004Y-73194435D01*
X248999996Y-73194435D01*
X248820750Y-73214630D01*
X248820745Y-73214631D01*
X248650476Y-73274211D01*
X248497737Y-73370184D01*
X248370184Y-73497737D01*
X248274211Y-73650476D01*
X248214631Y-73820745D01*
X248214630Y-73820750D01*
X248194435Y-73999996D01*
X240105082Y-73999996D01*
X240229816Y-73875262D01*
X240325789Y-73722522D01*
X240385368Y-73552255D01*
X240387959Y-73529262D01*
X240405565Y-73373003D01*
X240405565Y-73372996D01*
X240385369Y-73193750D01*
X240385368Y-73193745D01*
X240363393Y-73130945D01*
X240325789Y-73023478D01*
X240320229Y-73014630D01*
X240246781Y-72897738D01*
X240229816Y-72870738D01*
X240102262Y-72743184D01*
X239949523Y-72647211D01*
X239779254Y-72587631D01*
X239779249Y-72587630D01*
X239600004Y-72567435D01*
X239599996Y-72567435D01*
X239420750Y-72587630D01*
X239420745Y-72587631D01*
X239250476Y-72647211D01*
X239097737Y-72743184D01*
X238970184Y-72870737D01*
X238874211Y-73023476D01*
X238814631Y-73193745D01*
X238814630Y-73193750D01*
X238794435Y-73372996D01*
X222263247Y-73372996D01*
X222260883Y-73370116D01*
X222108539Y-73245090D01*
X222108532Y-73245086D01*
X221934733Y-73152188D01*
X221934727Y-73152186D01*
X221806749Y-73113364D01*
X221746129Y-73094975D01*
X221550000Y-73075659D01*
X221353870Y-73094975D01*
X221165266Y-73152188D01*
X220991467Y-73245086D01*
X220991460Y-73245090D01*
X220839116Y-73370116D01*
X220714090Y-73522460D01*
X220714086Y-73522467D01*
X220621188Y-73696266D01*
X220563975Y-73884870D01*
X220544659Y-74081000D01*
X217149766Y-74081000D01*
X217185368Y-73979255D01*
X217185369Y-73979249D01*
X217205565Y-73800003D01*
X217205565Y-73799996D01*
X217185369Y-73620750D01*
X217185367Y-73620740D01*
X217163593Y-73558516D01*
X217160030Y-73488737D01*
X217194759Y-73428109D01*
X217256752Y-73395882D01*
X217326327Y-73402286D01*
X217359297Y-73421705D01*
X217366246Y-73427407D01*
X217368462Y-73429226D01*
X217368464Y-73429227D01*
X217368467Y-73429229D01*
X217542266Y-73522127D01*
X217542269Y-73522127D01*
X217542273Y-73522130D01*
X217730868Y-73579340D01*
X217927000Y-73598657D01*
X218123132Y-73579340D01*
X218311727Y-73522130D01*
X218323475Y-73515851D01*
X218445782Y-73450476D01*
X218485538Y-73429226D01*
X218637883Y-73304199D01*
X218762910Y-73151854D01*
X218829648Y-73026996D01*
X218855811Y-72978049D01*
X218855811Y-72978048D01*
X218855814Y-72978043D01*
X218913024Y-72789448D01*
X218932341Y-72593316D01*
X218913024Y-72397184D01*
X218855814Y-72208589D01*
X218855811Y-72208585D01*
X218855811Y-72208582D01*
X218762913Y-72034783D01*
X218762909Y-72034776D01*
X218637883Y-71882432D01*
X218504535Y-71772996D01*
X241242962Y-71772996D01*
X241242962Y-71773003D01*
X241263157Y-71952249D01*
X241263158Y-71952254D01*
X241322738Y-72122523D01*
X241397579Y-72241631D01*
X241418711Y-72275262D01*
X241546265Y-72402816D01*
X241699005Y-72498789D01*
X241799641Y-72534003D01*
X241869272Y-72558368D01*
X241869277Y-72558369D01*
X242048523Y-72578565D01*
X242048527Y-72578565D01*
X242048531Y-72578565D01*
X242227776Y-72558369D01*
X242227779Y-72558368D01*
X242227782Y-72558368D01*
X242398049Y-72498789D01*
X242550789Y-72402816D01*
X242678343Y-72275262D01*
X242774316Y-72122522D01*
X242795908Y-72060813D01*
X242836629Y-72004037D01*
X242901581Y-71978289D01*
X242926834Y-71978547D01*
X243072120Y-71994917D01*
X243072123Y-71994917D01*
X243072127Y-71994917D01*
X243251372Y-71974721D01*
X243251375Y-71974720D01*
X243251378Y-71974720D01*
X243421645Y-71915141D01*
X243574385Y-71819168D01*
X243701939Y-71691614D01*
X243797912Y-71538874D01*
X243857491Y-71368607D01*
X243857492Y-71368601D01*
X243877688Y-71189355D01*
X243877688Y-71189348D01*
X243857492Y-71010102D01*
X243857491Y-71010097D01*
X243853958Y-71000000D01*
X243797912Y-70839830D01*
X243701939Y-70687090D01*
X243574385Y-70559536D01*
X243520677Y-70525789D01*
X243421646Y-70463563D01*
X243251377Y-70403983D01*
X243251372Y-70403982D01*
X243072127Y-70383787D01*
X243072119Y-70383787D01*
X242892873Y-70403982D01*
X242892868Y-70403983D01*
X242722599Y-70463563D01*
X242569860Y-70559536D01*
X242442307Y-70687089D01*
X242346335Y-70839827D01*
X242346334Y-70839828D01*
X242324740Y-70901540D01*
X242284017Y-70958316D01*
X242219064Y-70984062D01*
X242193816Y-70983804D01*
X242048531Y-70967435D01*
X242048523Y-70967435D01*
X241869277Y-70987630D01*
X241869272Y-70987631D01*
X241699003Y-71047211D01*
X241546264Y-71143184D01*
X241418711Y-71270737D01*
X241322738Y-71423476D01*
X241263158Y-71593745D01*
X241263157Y-71593750D01*
X241242962Y-71772996D01*
X218504535Y-71772996D01*
X218485539Y-71757406D01*
X218485532Y-71757402D01*
X218311733Y-71664504D01*
X218311727Y-71664502D01*
X218123132Y-71607292D01*
X218123130Y-71607291D01*
X218123128Y-71607291D01*
X218054327Y-71600515D01*
X217989539Y-71574354D01*
X217949439Y-71518067D01*
X217925789Y-71450478D01*
X217829816Y-71297738D01*
X217702262Y-71170184D01*
X217682408Y-71157709D01*
X217549523Y-71074211D01*
X217379254Y-71014631D01*
X217379249Y-71014630D01*
X217200004Y-70994435D01*
X217199996Y-70994435D01*
X217020750Y-71014630D01*
X217020745Y-71014631D01*
X216850476Y-71074211D01*
X216697737Y-71170184D01*
X216570184Y-71297737D01*
X216474211Y-71450476D01*
X216414631Y-71620745D01*
X216414630Y-71620750D01*
X216394435Y-71799996D01*
X216394435Y-71800003D01*
X216414630Y-71979249D01*
X216414631Y-71979254D01*
X216474211Y-72149523D01*
X216552321Y-72273834D01*
X216570184Y-72302262D01*
X216697738Y-72429816D01*
X216850478Y-72525789D01*
X216850480Y-72525790D01*
X216855446Y-72528182D01*
X216907307Y-72575003D01*
X216925050Y-72627749D01*
X216940975Y-72789445D01*
X216940976Y-72789448D01*
X216996467Y-72972376D01*
X216997090Y-73042241D01*
X216959842Y-73101354D01*
X216896548Y-73130945D01*
X216827304Y-73121620D01*
X216811834Y-73113364D01*
X216749523Y-73074211D01*
X216579254Y-73014631D01*
X216579249Y-73014630D01*
X216400004Y-72994435D01*
X216399996Y-72994435D01*
X216220750Y-73014630D01*
X216220745Y-73014631D01*
X216050476Y-73074211D01*
X215897737Y-73170184D01*
X215770184Y-73297737D01*
X215674211Y-73450476D01*
X215614631Y-73620745D01*
X215614630Y-73620750D01*
X215594435Y-73799996D01*
X205294074Y-73799996D01*
X205325789Y-73749522D01*
X205385368Y-73579255D01*
X205388410Y-73552255D01*
X205405565Y-73400003D01*
X205405565Y-73399996D01*
X205385369Y-73220750D01*
X205385368Y-73220745D01*
X205354868Y-73133581D01*
X205325789Y-73050478D01*
X205320613Y-73042241D01*
X205278063Y-72974522D01*
X205229816Y-72897738D01*
X205102262Y-72770184D01*
X204994773Y-72702644D01*
X204949521Y-72674210D01*
X204861343Y-72643356D01*
X204833975Y-72633779D01*
X204777200Y-72593058D01*
X204751452Y-72528106D01*
X204764908Y-72459544D01*
X204769937Y-72450765D01*
X204773169Y-72445620D01*
X204773172Y-72445618D01*
X204865898Y-72298046D01*
X204869144Y-72292880D01*
X204869145Y-72292878D01*
X204928724Y-72122611D01*
X204928725Y-72122599D01*
X204928829Y-72122149D01*
X204928980Y-72121878D01*
X204931024Y-72116038D01*
X204932046Y-72116395D01*
X204962929Y-72061165D01*
X205016373Y-72031982D01*
X205016038Y-72031024D01*
X205021860Y-72028986D01*
X205022149Y-72028829D01*
X205022599Y-72028725D01*
X205022611Y-72028724D01*
X205192878Y-71969145D01*
X205345618Y-71873172D01*
X205473172Y-71745618D01*
X205569145Y-71592878D01*
X205628724Y-71422611D01*
X205632920Y-71385369D01*
X205648921Y-71243359D01*
X205648921Y-71243354D01*
X205646015Y-71217566D01*
X205643187Y-71192466D01*
X205655241Y-71123646D01*
X205702590Y-71072266D01*
X205770200Y-71054641D01*
X205780287Y-71055362D01*
X205807298Y-71058406D01*
X205831180Y-71061097D01*
X205838145Y-71061097D01*
X205838145Y-71062506D01*
X205899344Y-71073224D01*
X205950725Y-71120571D01*
X205968351Y-71188181D01*
X205967630Y-71198272D01*
X205967435Y-71200002D01*
X205967435Y-71200003D01*
X205987630Y-71379249D01*
X205987631Y-71379254D01*
X206047211Y-71549523D01*
X206143184Y-71702262D01*
X206264920Y-71823998D01*
X206298405Y-71885321D01*
X206293421Y-71955013D01*
X206264920Y-71999360D01*
X206143184Y-72121095D01*
X206047211Y-72273834D01*
X205987631Y-72444103D01*
X205987630Y-72444108D01*
X205967435Y-72623354D01*
X205967435Y-72623361D01*
X205987630Y-72802607D01*
X205987631Y-72802612D01*
X206047211Y-72972881D01*
X206111791Y-73075659D01*
X206143184Y-73125620D01*
X206270738Y-73253174D01*
X206341660Y-73297737D01*
X206414226Y-73343334D01*
X206423478Y-73349147D01*
X206567379Y-73399500D01*
X206593745Y-73408726D01*
X206593750Y-73408727D01*
X206772996Y-73428923D01*
X206773000Y-73428923D01*
X206773004Y-73428923D01*
X206952249Y-73408727D01*
X206952252Y-73408726D01*
X206952255Y-73408726D01*
X207122522Y-73349147D01*
X207275262Y-73253174D01*
X207357304Y-73171131D01*
X207418623Y-73137649D01*
X207488315Y-73142633D01*
X207522291Y-73161865D01*
X207524734Y-73163813D01*
X207524736Y-73163814D01*
X207524738Y-73163816D01*
X207605608Y-73214630D01*
X207669563Y-73254816D01*
X207677478Y-73259789D01*
X207847745Y-73319368D01*
X207847750Y-73319369D01*
X208026996Y-73339565D01*
X208027000Y-73339565D01*
X208027004Y-73339565D01*
X208206249Y-73319369D01*
X208206252Y-73319368D01*
X208206255Y-73319368D01*
X208376522Y-73259789D01*
X208529262Y-73163816D01*
X208656816Y-73036262D01*
X208752789Y-72883522D01*
X208812368Y-72713255D01*
X208812369Y-72713249D01*
X208832565Y-72534003D01*
X208832565Y-72533996D01*
X208812369Y-72354750D01*
X208812368Y-72354745D01*
X208791054Y-72293834D01*
X208752789Y-72184478D01*
X208656816Y-72031738D01*
X208593747Y-71968669D01*
X208560262Y-71907346D01*
X208565246Y-71837654D01*
X208607118Y-71781721D01*
X208640471Y-71763947D01*
X208749522Y-71725789D01*
X208902262Y-71629816D01*
X209029816Y-71502262D01*
X209125789Y-71349522D01*
X209185368Y-71179255D01*
X209186390Y-71170184D01*
X209205565Y-71000003D01*
X209205565Y-70999996D01*
X209185848Y-70825000D01*
X212044659Y-70825000D01*
X212063975Y-71021129D01*
X212063976Y-71021132D01*
X212111942Y-71179255D01*
X212121188Y-71209733D01*
X212214086Y-71383532D01*
X212214090Y-71383539D01*
X212339116Y-71535883D01*
X212491460Y-71660909D01*
X212491467Y-71660913D01*
X212665266Y-71753811D01*
X212665269Y-71753811D01*
X212665273Y-71753814D01*
X212853868Y-71811024D01*
X213050000Y-71830341D01*
X213246132Y-71811024D01*
X213434727Y-71753814D01*
X213608538Y-71660910D01*
X213760883Y-71535883D01*
X213885910Y-71383538D01*
X213946203Y-71270738D01*
X213978811Y-71209733D01*
X213978811Y-71209732D01*
X213978814Y-71209727D01*
X214036024Y-71021132D01*
X214055341Y-70825000D01*
X214036024Y-70628868D01*
X213978814Y-70440273D01*
X213978811Y-70440269D01*
X213978811Y-70440266D01*
X213885913Y-70266467D01*
X213885909Y-70266460D01*
X213760883Y-70114116D01*
X213608539Y-69989090D01*
X213608532Y-69989086D01*
X213434733Y-69896188D01*
X213434727Y-69896186D01*
X213246132Y-69838976D01*
X213246129Y-69838975D01*
X213050000Y-69819659D01*
X212853870Y-69838975D01*
X212665266Y-69896188D01*
X212491467Y-69989086D01*
X212491460Y-69989090D01*
X212339116Y-70114116D01*
X212214090Y-70266460D01*
X212214086Y-70266467D01*
X212121188Y-70440266D01*
X212063975Y-70628870D01*
X212044659Y-70825000D01*
X209185848Y-70825000D01*
X209185369Y-70820750D01*
X209185368Y-70820745D01*
X209157497Y-70741094D01*
X209125789Y-70650478D01*
X209116295Y-70635369D01*
X209068646Y-70559536D01*
X209029816Y-70497738D01*
X208902262Y-70370184D01*
X208884698Y-70359148D01*
X208749523Y-70274211D01*
X208579254Y-70214631D01*
X208579249Y-70214630D01*
X208400004Y-70194435D01*
X208399996Y-70194435D01*
X208220750Y-70214630D01*
X208220745Y-70214631D01*
X208050476Y-70274211D01*
X207897737Y-70370184D01*
X207770184Y-70497737D01*
X207674209Y-70650480D01*
X207651555Y-70715221D01*
X207610833Y-70771997D01*
X207545880Y-70797744D01*
X207477319Y-70784287D01*
X207429521Y-70740239D01*
X207402816Y-70697738D01*
X207275262Y-70570184D01*
X207204608Y-70525789D01*
X207122523Y-70474211D01*
X206952254Y-70414631D01*
X206952249Y-70414630D01*
X206773004Y-70394435D01*
X206766037Y-70394435D01*
X206766037Y-70393030D01*
X206704815Y-70382297D01*
X206653443Y-70334940D01*
X206635830Y-70267326D01*
X206636549Y-70257274D01*
X206636746Y-70255532D01*
X206620813Y-70114117D01*
X206616550Y-70076282D01*
X206616549Y-70076277D01*
X206600093Y-70029249D01*
X206556970Y-69906010D01*
X206553210Y-69900026D01*
X206534208Y-69832789D01*
X206543864Y-69799996D01*
X239194435Y-69799996D01*
X239194435Y-69800003D01*
X239214630Y-69979249D01*
X239214631Y-69979254D01*
X239274211Y-70149523D01*
X239340824Y-70255536D01*
X239370184Y-70302262D01*
X239497738Y-70429816D01*
X239588080Y-70486582D01*
X239637392Y-70517567D01*
X239650478Y-70525789D01*
X239777352Y-70570184D01*
X239820745Y-70585368D01*
X239820750Y-70585369D01*
X239999996Y-70605565D01*
X240000000Y-70605565D01*
X240000004Y-70605565D01*
X240179249Y-70585369D01*
X240179252Y-70585368D01*
X240179255Y-70585368D01*
X240349522Y-70525789D01*
X240502262Y-70429816D01*
X240629816Y-70302262D01*
X240725789Y-70149522D01*
X240785368Y-69979255D01*
X240794295Y-69900026D01*
X240799932Y-69849996D01*
X243994435Y-69849996D01*
X243994435Y-69850003D01*
X244014630Y-70029249D01*
X244014631Y-70029254D01*
X244074211Y-70199523D01*
X244130343Y-70288856D01*
X244170184Y-70352262D01*
X244297738Y-70479816D01*
X244370902Y-70525788D01*
X244441557Y-70570184D01*
X244450478Y-70575789D01*
X244604878Y-70629816D01*
X244620745Y-70635368D01*
X244620750Y-70635369D01*
X244799996Y-70655565D01*
X244800000Y-70655565D01*
X244800004Y-70655565D01*
X244979249Y-70635369D01*
X244979252Y-70635368D01*
X244979255Y-70635368D01*
X245149522Y-70575789D01*
X245302262Y-70479816D01*
X245429816Y-70352262D01*
X245525789Y-70199522D01*
X245585368Y-70029255D01*
X245588664Y-70000003D01*
X245605565Y-69850003D01*
X245605565Y-69849996D01*
X245585369Y-69670750D01*
X245585368Y-69670745D01*
X245551865Y-69575000D01*
X245525789Y-69500478D01*
X245524067Y-69497738D01*
X245486582Y-69438080D01*
X245429816Y-69347738D01*
X245302262Y-69220184D01*
X245293426Y-69214632D01*
X245149523Y-69124211D01*
X244979254Y-69064631D01*
X244979249Y-69064630D01*
X244800004Y-69044435D01*
X244799996Y-69044435D01*
X244620750Y-69064630D01*
X244620745Y-69064631D01*
X244450476Y-69124211D01*
X244297737Y-69220184D01*
X244170184Y-69347737D01*
X244074211Y-69500476D01*
X244014631Y-69670745D01*
X244014630Y-69670750D01*
X243994435Y-69849996D01*
X240799932Y-69849996D01*
X240805565Y-69800003D01*
X240805565Y-69799996D01*
X240785369Y-69620750D01*
X240785368Y-69620745D01*
X240742326Y-69497738D01*
X240725789Y-69450478D01*
X240629816Y-69297738D01*
X240502262Y-69170184D01*
X240477400Y-69154562D01*
X240349523Y-69074211D01*
X240179254Y-69014631D01*
X240179249Y-69014630D01*
X240000004Y-68994435D01*
X239999996Y-68994435D01*
X239820750Y-69014630D01*
X239820745Y-69014631D01*
X239650476Y-69074211D01*
X239497737Y-69170184D01*
X239370184Y-69297737D01*
X239274211Y-69450476D01*
X239214631Y-69620745D01*
X239214630Y-69620750D01*
X239194435Y-69799996D01*
X206543864Y-69799996D01*
X206549433Y-69781083D01*
X206546766Y-69779799D01*
X206549782Y-69773531D01*
X206549789Y-69773522D01*
X206592845Y-69650476D01*
X206609366Y-69603262D01*
X206609369Y-69603249D01*
X206629565Y-69424003D01*
X206629565Y-69423996D01*
X206609369Y-69244750D01*
X206609368Y-69244745D01*
X206549788Y-69074475D01*
X206477150Y-68958874D01*
X206458149Y-68891637D01*
X206477149Y-68826930D01*
X206525789Y-68749522D01*
X206585368Y-68579255D01*
X206588809Y-68548715D01*
X206605565Y-68400003D01*
X206605565Y-68399996D01*
X206585369Y-68220750D01*
X206585368Y-68220745D01*
X206542326Y-68097738D01*
X206525789Y-68050478D01*
X206429816Y-67897738D01*
X206302262Y-67770184D01*
X206204701Y-67708882D01*
X206149523Y-67674211D01*
X205979254Y-67614631D01*
X205979249Y-67614630D01*
X205800004Y-67594435D01*
X205799996Y-67594435D01*
X205620750Y-67614630D01*
X205620742Y-67614632D01*
X205526179Y-67647721D01*
X205456400Y-67651282D01*
X205395773Y-67616553D01*
X205370249Y-67574996D01*
X216419435Y-67574996D01*
X216419435Y-67575003D01*
X216439630Y-67754249D01*
X216439631Y-67754254D01*
X216499211Y-67924523D01*
X216578353Y-68050476D01*
X216595184Y-68077262D01*
X216722738Y-68204816D01*
X216875478Y-68300789D01*
X217045745Y-68360368D01*
X217045750Y-68360369D01*
X217224996Y-68380565D01*
X217225000Y-68380565D01*
X217225004Y-68380565D01*
X217404249Y-68360369D01*
X217404252Y-68360368D01*
X217404255Y-68360368D01*
X217574522Y-68300789D01*
X217727262Y-68204816D01*
X217854816Y-68077262D01*
X217950789Y-67924522D01*
X218010368Y-67754255D01*
X218010901Y-67749523D01*
X218030565Y-67575003D01*
X218030565Y-67574996D01*
X218010369Y-67395750D01*
X218010368Y-67395745D01*
X217976074Y-67297738D01*
X217950789Y-67225478D01*
X217854816Y-67072738D01*
X217727262Y-66945184D01*
X217696395Y-66925789D01*
X217574523Y-66849211D01*
X217404254Y-66789631D01*
X217404249Y-66789630D01*
X217225004Y-66769435D01*
X217224996Y-66769435D01*
X217045750Y-66789630D01*
X217045745Y-66789631D01*
X216875476Y-66849211D01*
X216722737Y-66945184D01*
X216595184Y-67072737D01*
X216499211Y-67225476D01*
X216439631Y-67395745D01*
X216439630Y-67395750D01*
X216419435Y-67574996D01*
X205370249Y-67574996D01*
X205368183Y-67571633D01*
X205325789Y-67450478D01*
X205305642Y-67418414D01*
X205229816Y-67297738D01*
X205102262Y-67170184D01*
X205049587Y-67137086D01*
X204949523Y-67074211D01*
X204779254Y-67014631D01*
X204779249Y-67014630D01*
X204600004Y-66994435D01*
X204599996Y-66994435D01*
X204420750Y-67014630D01*
X204420745Y-67014631D01*
X204250476Y-67074211D01*
X204097737Y-67170184D01*
X203970184Y-67297737D01*
X203874210Y-67450478D01*
X203814630Y-67620750D01*
X203806069Y-67696733D01*
X203779002Y-67761147D01*
X203721407Y-67800702D01*
X203696733Y-67806069D01*
X203620750Y-67814630D01*
X203450478Y-67874210D01*
X203297737Y-67970184D01*
X203170184Y-68097737D01*
X203074211Y-68250476D01*
X203014631Y-68420745D01*
X203014630Y-68420750D01*
X202994435Y-68599996D01*
X202994435Y-68600003D01*
X203014630Y-68779249D01*
X203014631Y-68779254D01*
X203074211Y-68949523D01*
X203115122Y-69014632D01*
X203170184Y-69102262D01*
X203297738Y-69229816D01*
X203346151Y-69260236D01*
X203405833Y-69297737D01*
X203450478Y-69325789D01*
X203620745Y-69385368D01*
X203620750Y-69385369D01*
X203799996Y-69405565D01*
X203800000Y-69405565D01*
X203800004Y-69405565D01*
X203979249Y-69385369D01*
X203979252Y-69385368D01*
X203979255Y-69385368D01*
X204149522Y-69325789D01*
X204302262Y-69229816D01*
X204429816Y-69102262D01*
X204525789Y-68949522D01*
X204585368Y-68779255D01*
X204593929Y-68703263D01*
X204620994Y-68638853D01*
X204678588Y-68599297D01*
X204703254Y-68593930D01*
X204779255Y-68585368D01*
X204873821Y-68552277D01*
X204943596Y-68548715D01*
X205004224Y-68583443D01*
X205031816Y-68628364D01*
X205074211Y-68749523D01*
X205146849Y-68865125D01*
X205165849Y-68932362D01*
X205146849Y-68997068D01*
X205098213Y-69074472D01*
X205098209Y-69074481D01*
X205038633Y-69244737D01*
X205038630Y-69244750D01*
X205018435Y-69423996D01*
X205018435Y-69424003D01*
X205038630Y-69603249D01*
X205038633Y-69603262D01*
X205098210Y-69773521D01*
X205101974Y-69779512D01*
X205120972Y-69846749D01*
X205105818Y-69898488D01*
X205108412Y-69899738D01*
X205105391Y-69906010D01*
X205045814Y-70076269D01*
X205045811Y-70076282D01*
X205025616Y-70255528D01*
X205025616Y-70255536D01*
X205031349Y-70306421D01*
X205019294Y-70375243D01*
X204971945Y-70426622D01*
X204904334Y-70444246D01*
X204894246Y-70443524D01*
X204843360Y-70437791D01*
X204843352Y-70437791D01*
X204664106Y-70457986D01*
X204664101Y-70457987D01*
X204493832Y-70517567D01*
X204341093Y-70613540D01*
X204213540Y-70741093D01*
X204117566Y-70893834D01*
X204057984Y-71064111D01*
X204057874Y-71064597D01*
X204057716Y-71064878D01*
X204055689Y-71070673D01*
X204054673Y-71070317D01*
X204023756Y-71125571D01*
X203970340Y-71154737D01*
X203970673Y-71155689D01*
X203964897Y-71157709D01*
X203964597Y-71157874D01*
X203964111Y-71157984D01*
X203793834Y-71217566D01*
X203641093Y-71313540D01*
X203513540Y-71441093D01*
X203417566Y-71593834D01*
X203357984Y-71764111D01*
X203357874Y-71764597D01*
X203357716Y-71764878D01*
X203355689Y-71770673D01*
X203354673Y-71770317D01*
X203323756Y-71825571D01*
X203270340Y-71854737D01*
X203270673Y-71855689D01*
X203264897Y-71857709D01*
X203264597Y-71857874D01*
X203264111Y-71857984D01*
X203093834Y-71917566D01*
X202941093Y-72013540D01*
X202813540Y-72141093D01*
X202717566Y-72293834D01*
X202715538Y-72298046D01*
X202668713Y-72349903D01*
X202601285Y-72368213D01*
X202534662Y-72347162D01*
X202498826Y-72310211D01*
X202429816Y-72200382D01*
X202302262Y-72072828D01*
X202149523Y-71976855D01*
X201979254Y-71917275D01*
X201979249Y-71917274D01*
X201800004Y-71897079D01*
X201799996Y-71897079D01*
X201620750Y-71917274D01*
X201620745Y-71917275D01*
X201450476Y-71976855D01*
X201297737Y-72072828D01*
X201170184Y-72200381D01*
X201074211Y-72353120D01*
X201014631Y-72523389D01*
X201014630Y-72523394D01*
X200994435Y-72702640D01*
X173334594Y-72702640D01*
X173325789Y-72677478D01*
X173229816Y-72524738D01*
X173102262Y-72397184D01*
X173022653Y-72347162D01*
X172949523Y-72301211D01*
X172779254Y-72241631D01*
X172779249Y-72241630D01*
X172600004Y-72221435D01*
X172599996Y-72221435D01*
X172420750Y-72241630D01*
X172420745Y-72241631D01*
X172250476Y-72301211D01*
X172097737Y-72397184D01*
X171970184Y-72524737D01*
X171874211Y-72677476D01*
X171814631Y-72847745D01*
X171814630Y-72847750D01*
X171794435Y-73026996D01*
X162242817Y-73026996D01*
X162275789Y-72974522D01*
X162335368Y-72804255D01*
X162335554Y-72802607D01*
X162355565Y-72625003D01*
X162355565Y-72624996D01*
X162335369Y-72445750D01*
X162335368Y-72445745D01*
X162300872Y-72347162D01*
X162275789Y-72275478D01*
X162275653Y-72275262D01*
X162218610Y-72184478D01*
X162179816Y-72122738D01*
X162052262Y-71995184D01*
X162026902Y-71979249D01*
X161899523Y-71899211D01*
X161729254Y-71839631D01*
X161729249Y-71839630D01*
X161550004Y-71819435D01*
X161549996Y-71819435D01*
X161370750Y-71839630D01*
X161370745Y-71839631D01*
X161200476Y-71899211D01*
X161047737Y-71995184D01*
X160920184Y-72122737D01*
X160824211Y-72275476D01*
X160764631Y-72445745D01*
X160764630Y-72445750D01*
X160744435Y-72624996D01*
X156904444Y-72624996D01*
X156905182Y-70999996D01*
X175194435Y-70999996D01*
X175194435Y-71000003D01*
X175214630Y-71179249D01*
X175214631Y-71179254D01*
X175274211Y-71349523D01*
X175337646Y-71450478D01*
X175370184Y-71502262D01*
X175497738Y-71629816D01*
X175650478Y-71725789D01*
X175820745Y-71785368D01*
X175820750Y-71785369D01*
X175999996Y-71805565D01*
X176000000Y-71805565D01*
X176000004Y-71805565D01*
X176179249Y-71785369D01*
X176179252Y-71785368D01*
X176179255Y-71785368D01*
X176349522Y-71725789D01*
X176502262Y-71629816D01*
X176629816Y-71502262D01*
X176725789Y-71349522D01*
X176785368Y-71179255D01*
X176786390Y-71170184D01*
X176805565Y-71000003D01*
X176805565Y-70999996D01*
X176785369Y-70820750D01*
X176785368Y-70820745D01*
X176757497Y-70741094D01*
X176725789Y-70650478D01*
X176716295Y-70635369D01*
X176668646Y-70559536D01*
X176629816Y-70497738D01*
X176502262Y-70370184D01*
X176484698Y-70359148D01*
X176349523Y-70274211D01*
X176179254Y-70214631D01*
X176179249Y-70214630D01*
X176000004Y-70194435D01*
X175999996Y-70194435D01*
X175820750Y-70214630D01*
X175820745Y-70214631D01*
X175650476Y-70274211D01*
X175497737Y-70370184D01*
X175370184Y-70497737D01*
X175274211Y-70650476D01*
X175214631Y-70820745D01*
X175214630Y-70820750D01*
X175194435Y-70999996D01*
X156905182Y-70999996D01*
X156905830Y-69575000D01*
X164694540Y-69575000D01*
X164714326Y-69763256D01*
X164714327Y-69763259D01*
X164772818Y-69943277D01*
X164772821Y-69943284D01*
X164867467Y-70107216D01*
X164946000Y-70194435D01*
X164994129Y-70247888D01*
X165147265Y-70359148D01*
X165147270Y-70359151D01*
X165320192Y-70436142D01*
X165320197Y-70436144D01*
X165505354Y-70475500D01*
X165505355Y-70475500D01*
X165694644Y-70475500D01*
X165694646Y-70475500D01*
X165879803Y-70436144D01*
X166052730Y-70359151D01*
X166205871Y-70247888D01*
X166273547Y-70172725D01*
X166333032Y-70136078D01*
X166388788Y-70134903D01*
X166388824Y-70134589D01*
X166391173Y-70134853D01*
X166393300Y-70134809D01*
X166395738Y-70135365D01*
X166395745Y-70135368D01*
X166395751Y-70135368D01*
X166395757Y-70135370D01*
X166574996Y-70155565D01*
X166575000Y-70155565D01*
X166575004Y-70155565D01*
X166754249Y-70135369D01*
X166754252Y-70135368D01*
X166754255Y-70135368D01*
X166924522Y-70075789D01*
X167045146Y-69999996D01*
X171194435Y-69999996D01*
X171194435Y-70000003D01*
X171214630Y-70179249D01*
X171214631Y-70179254D01*
X171274211Y-70349523D01*
X171354381Y-70477112D01*
X171370184Y-70502262D01*
X171497738Y-70629816D01*
X171588080Y-70686582D01*
X171605833Y-70697737D01*
X171650478Y-70725789D01*
X171782533Y-70771997D01*
X171820745Y-70785368D01*
X171820750Y-70785369D01*
X171999996Y-70805565D01*
X172000000Y-70805565D01*
X172000004Y-70805565D01*
X172179249Y-70785369D01*
X172179252Y-70785368D01*
X172179255Y-70785368D01*
X172349522Y-70725789D01*
X172502262Y-70629816D01*
X172629816Y-70502262D01*
X172725789Y-70349522D01*
X172785368Y-70179255D01*
X172786104Y-70172727D01*
X172805565Y-70000003D01*
X172805565Y-69999996D01*
X172785369Y-69820750D01*
X172785368Y-69820745D01*
X172749449Y-69718095D01*
X172725789Y-69650478D01*
X172707106Y-69620745D01*
X172649619Y-69529254D01*
X172629816Y-69497738D01*
X172502262Y-69370184D01*
X172470144Y-69350003D01*
X172349523Y-69274211D01*
X172179254Y-69214631D01*
X172179249Y-69214630D01*
X172000004Y-69194435D01*
X171999996Y-69194435D01*
X171820750Y-69214630D01*
X171820745Y-69214631D01*
X171650476Y-69274211D01*
X171497737Y-69370184D01*
X171370184Y-69497737D01*
X171274211Y-69650476D01*
X171214631Y-69820745D01*
X171214630Y-69820750D01*
X171194435Y-69999996D01*
X167045146Y-69999996D01*
X167077262Y-69979816D01*
X167204816Y-69852262D01*
X167300789Y-69699522D01*
X167360368Y-69529255D01*
X167362087Y-69513997D01*
X167380565Y-69350003D01*
X167380565Y-69349996D01*
X167360369Y-69170750D01*
X167360368Y-69170745D01*
X167326682Y-69074475D01*
X167300789Y-69000478D01*
X167298646Y-68997068D01*
X167238981Y-68902111D01*
X167204816Y-68847738D01*
X167077262Y-68720184D01*
X167067191Y-68713856D01*
X166924523Y-68624211D01*
X166855321Y-68599996D01*
X180994435Y-68599996D01*
X180994435Y-68600003D01*
X181014630Y-68779249D01*
X181014631Y-68779254D01*
X181074211Y-68949523D01*
X181115122Y-69014632D01*
X181170184Y-69102262D01*
X181297738Y-69229816D01*
X181346151Y-69260236D01*
X181450479Y-69325790D01*
X181490410Y-69339762D01*
X181547187Y-69380483D01*
X181572935Y-69445436D01*
X181559479Y-69513997D01*
X181554451Y-69522776D01*
X181474211Y-69650476D01*
X181414631Y-69820745D01*
X181414630Y-69820750D01*
X181394435Y-69999996D01*
X181394435Y-70000003D01*
X181414630Y-70179249D01*
X181414631Y-70179254D01*
X181474211Y-70349523D01*
X181554381Y-70477112D01*
X181570184Y-70502262D01*
X181697738Y-70629816D01*
X181788080Y-70686582D01*
X181805833Y-70697737D01*
X181850478Y-70725789D01*
X181982533Y-70771997D01*
X182020745Y-70785368D01*
X182020750Y-70785369D01*
X182092712Y-70793476D01*
X182147391Y-70799637D01*
X182211805Y-70826703D01*
X182250549Y-70881902D01*
X182274209Y-70949518D01*
X182274210Y-70949522D01*
X182350335Y-71070673D01*
X182370184Y-71102262D01*
X182497738Y-71229816D01*
X182519284Y-71243354D01*
X182605833Y-71297737D01*
X182650478Y-71325789D01*
X182718306Y-71349523D01*
X182820745Y-71385368D01*
X182820750Y-71385369D01*
X182999996Y-71405565D01*
X183000000Y-71405565D01*
X183000004Y-71405565D01*
X183179249Y-71385369D01*
X183179252Y-71385368D01*
X183179255Y-71385368D01*
X183349522Y-71325789D01*
X183502262Y-71229816D01*
X183629816Y-71102262D01*
X183725789Y-70949522D01*
X183785368Y-70779255D01*
X183791392Y-70725789D01*
X183805565Y-70600003D01*
X183805565Y-70599996D01*
X183785369Y-70420750D01*
X183785368Y-70420745D01*
X183783228Y-70414630D01*
X183725789Y-70250478D01*
X183725174Y-70249500D01*
X183662354Y-70149522D01*
X183629816Y-70097738D01*
X183502262Y-69970184D01*
X183400130Y-69906010D01*
X183349523Y-69874211D01*
X183179254Y-69814631D01*
X183179250Y-69814630D01*
X183052607Y-69800361D01*
X182988193Y-69773294D01*
X182949449Y-69718095D01*
X182932882Y-69670750D01*
X182925789Y-69650478D01*
X182907106Y-69620745D01*
X182849619Y-69529254D01*
X182829816Y-69497738D01*
X182702262Y-69370184D01*
X182653846Y-69339762D01*
X182549519Y-69274209D01*
X182509587Y-69260236D01*
X182452811Y-69219515D01*
X182427064Y-69154562D01*
X182440520Y-69086000D01*
X182445541Y-69077234D01*
X182525789Y-68949522D01*
X182585368Y-68779255D01*
X182588718Y-68749522D01*
X182605565Y-68600003D01*
X182605565Y-68599996D01*
X182585369Y-68420750D01*
X182585368Y-68420745D01*
X182571308Y-68380565D01*
X182525789Y-68250478D01*
X182507106Y-68220745D01*
X182463631Y-68151555D01*
X182429816Y-68097738D01*
X182302262Y-67970184D01*
X182238483Y-67930109D01*
X182149523Y-67874211D01*
X181979254Y-67814631D01*
X181979249Y-67814630D01*
X181800004Y-67794435D01*
X181799996Y-67794435D01*
X181620750Y-67814630D01*
X181620745Y-67814631D01*
X181450476Y-67874211D01*
X181297737Y-67970184D01*
X181170184Y-68097737D01*
X181074211Y-68250476D01*
X181014631Y-68420745D01*
X181014630Y-68420750D01*
X180994435Y-68599996D01*
X166855321Y-68599996D01*
X166754254Y-68564631D01*
X166754249Y-68564630D01*
X166575004Y-68544435D01*
X166574996Y-68544435D01*
X166395750Y-68564630D01*
X166395745Y-68564631D01*
X166225476Y-68624211D01*
X166072735Y-68720185D01*
X166067611Y-68724272D01*
X166002922Y-68750676D01*
X165939868Y-68740599D01*
X165918459Y-68731067D01*
X165879802Y-68713855D01*
X165734001Y-68682865D01*
X165694646Y-68674500D01*
X165505354Y-68674500D01*
X165472897Y-68681398D01*
X165320197Y-68713855D01*
X165320192Y-68713857D01*
X165147270Y-68790848D01*
X165147265Y-68790851D01*
X164994129Y-68902111D01*
X164867466Y-69042785D01*
X164772821Y-69206715D01*
X164772818Y-69206722D01*
X164714327Y-69386740D01*
X164714326Y-69386744D01*
X164694540Y-69575000D01*
X156905830Y-69575000D01*
X156907094Y-66793713D01*
X158249500Y-66793713D01*
X158249500Y-67006287D01*
X158258152Y-67060913D01*
X158272865Y-67153811D01*
X158282754Y-67216243D01*
X158342459Y-67399996D01*
X158348444Y-67418414D01*
X158444951Y-67607820D01*
X158569890Y-67779786D01*
X158720213Y-67930109D01*
X158892179Y-68055048D01*
X158892181Y-68055049D01*
X158892184Y-68055051D01*
X159081588Y-68151557D01*
X159283757Y-68217246D01*
X159493713Y-68250500D01*
X159493714Y-68250500D01*
X159706286Y-68250500D01*
X159706287Y-68250500D01*
X159916243Y-68217246D01*
X160118412Y-68151557D01*
X160307816Y-68055051D01*
X160342551Y-68029815D01*
X160479786Y-67930109D01*
X160479788Y-67930106D01*
X160479792Y-67930104D01*
X160630104Y-67779792D01*
X160630106Y-67779788D01*
X160630109Y-67779786D01*
X160755048Y-67607820D01*
X160755047Y-67607820D01*
X160755051Y-67607816D01*
X160851557Y-67418412D01*
X160857541Y-67399996D01*
X178394435Y-67399996D01*
X178394435Y-67400003D01*
X178414630Y-67579249D01*
X178414631Y-67579254D01*
X178474211Y-67749523D01*
X178515122Y-67814632D01*
X178570184Y-67902262D01*
X178697738Y-68029816D01*
X178773248Y-68077262D01*
X178805833Y-68097737D01*
X178850478Y-68125789D01*
X178924113Y-68151555D01*
X179020745Y-68185368D01*
X179020750Y-68185369D01*
X179199996Y-68205565D01*
X179200000Y-68205565D01*
X179200004Y-68205565D01*
X179379249Y-68185369D01*
X179379252Y-68185368D01*
X179379255Y-68185368D01*
X179549522Y-68125789D01*
X179702262Y-68029816D01*
X179829816Y-67902262D01*
X179925789Y-67749522D01*
X179985368Y-67579255D01*
X179985847Y-67575003D01*
X180005565Y-67400003D01*
X180005565Y-67399996D01*
X179985369Y-67220750D01*
X179985368Y-67220745D01*
X179936164Y-67080129D01*
X179925789Y-67050478D01*
X179903265Y-67014632D01*
X179868163Y-66958767D01*
X179829816Y-66897738D01*
X179702262Y-66770184D01*
X179670935Y-66750500D01*
X179549523Y-66674211D01*
X179379254Y-66614631D01*
X179379249Y-66614630D01*
X179200004Y-66594435D01*
X179199996Y-66594435D01*
X179020750Y-66614630D01*
X179020745Y-66614631D01*
X178850476Y-66674211D01*
X178697737Y-66770184D01*
X178570184Y-66897737D01*
X178474211Y-67050476D01*
X178414631Y-67220745D01*
X178414630Y-67220750D01*
X178394435Y-67399996D01*
X160857541Y-67399996D01*
X160917246Y-67216243D01*
X160950500Y-67006287D01*
X160950500Y-66793713D01*
X160917246Y-66583757D01*
X160851557Y-66381588D01*
X160759031Y-66199996D01*
X205994435Y-66199996D01*
X205994435Y-66200003D01*
X206014630Y-66379249D01*
X206014631Y-66379254D01*
X206074211Y-66549523D01*
X206152558Y-66674211D01*
X206170184Y-66702262D01*
X206297738Y-66829816D01*
X206359117Y-66868383D01*
X206405833Y-66897737D01*
X206450478Y-66925789D01*
X206544724Y-66958767D01*
X206620745Y-66985368D01*
X206620750Y-66985369D01*
X206799996Y-67005565D01*
X206800000Y-67005565D01*
X206800004Y-67005565D01*
X206979249Y-66985369D01*
X206979252Y-66985368D01*
X206979255Y-66985368D01*
X207149522Y-66925789D01*
X207302262Y-66829816D01*
X207429816Y-66702262D01*
X207525789Y-66549522D01*
X207562939Y-66443352D01*
X210551079Y-66443352D01*
X210551079Y-66443359D01*
X210571274Y-66622605D01*
X210571275Y-66622610D01*
X210630855Y-66792879D01*
X210678298Y-66868383D01*
X210726828Y-66945618D01*
X210854382Y-67073172D01*
X211007122Y-67169145D01*
X211177389Y-67228724D01*
X211177394Y-67228725D01*
X211356640Y-67248921D01*
X211356644Y-67248921D01*
X211356648Y-67248921D01*
X211535893Y-67228725D01*
X211535896Y-67228724D01*
X211535899Y-67228724D01*
X211706166Y-67169145D01*
X211858906Y-67073172D01*
X211986460Y-66945618D01*
X212082433Y-66792878D01*
X212142012Y-66622611D01*
X212142911Y-66614631D01*
X212162209Y-66443359D01*
X212162209Y-66443352D01*
X212142013Y-66264106D01*
X212142012Y-66264101D01*
X212128330Y-66225000D01*
X221969659Y-66225000D01*
X221988975Y-66421129D01*
X222008046Y-66483997D01*
X222032079Y-66563224D01*
X222046188Y-66609733D01*
X222139086Y-66783532D01*
X222139090Y-66783539D01*
X222264116Y-66935883D01*
X222416460Y-67060909D01*
X222416467Y-67060913D01*
X222590266Y-67153811D01*
X222590269Y-67153811D01*
X222590273Y-67153814D01*
X222778868Y-67211024D01*
X222975000Y-67230341D01*
X223171132Y-67211024D01*
X223359727Y-67153814D01*
X223533538Y-67060910D01*
X223685883Y-66935883D01*
X223810910Y-66783538D01*
X223890761Y-66634148D01*
X223903811Y-66609733D01*
X223903811Y-66609732D01*
X223903814Y-66609727D01*
X223961024Y-66421132D01*
X223980341Y-66225000D01*
X223961024Y-66028868D01*
X223903814Y-65840273D01*
X223903811Y-65840269D01*
X223903811Y-65840266D01*
X223810913Y-65666467D01*
X223810909Y-65666460D01*
X223685883Y-65514116D01*
X223533539Y-65389090D01*
X223533532Y-65389086D01*
X223359733Y-65296188D01*
X223359727Y-65296186D01*
X223171132Y-65238976D01*
X223171129Y-65238975D01*
X222975000Y-65219659D01*
X222778870Y-65238975D01*
X222590266Y-65296188D01*
X222416467Y-65389086D01*
X222416460Y-65389090D01*
X222264116Y-65514116D01*
X222139090Y-65666460D01*
X222139086Y-65666467D01*
X222046188Y-65840266D01*
X221988975Y-66028870D01*
X221969659Y-66225000D01*
X212128330Y-66225000D01*
X212080133Y-66087261D01*
X212081675Y-66086721D01*
X212071702Y-66026202D01*
X212099416Y-65962064D01*
X212144267Y-65930924D01*
X212143249Y-65928810D01*
X212149522Y-65925789D01*
X212149524Y-65925788D01*
X212302262Y-65829816D01*
X212429816Y-65702262D01*
X212525789Y-65549522D01*
X212557117Y-65459991D01*
X212597837Y-65403217D01*
X212662790Y-65377469D01*
X212731352Y-65390925D01*
X212740130Y-65395953D01*
X212798398Y-65432565D01*
X212850478Y-65465289D01*
X213020745Y-65524868D01*
X213020750Y-65524869D01*
X213199996Y-65545065D01*
X213200000Y-65545065D01*
X213200004Y-65545065D01*
X213379249Y-65524869D01*
X213379252Y-65524868D01*
X213379255Y-65524868D01*
X213549522Y-65465289D01*
X213702262Y-65369316D01*
X213829816Y-65241762D01*
X213925789Y-65089022D01*
X213985368Y-64918755D01*
X213995389Y-64829815D01*
X214001147Y-64778711D01*
X228349500Y-64778711D01*
X228349500Y-65021288D01*
X228379672Y-65250478D01*
X228381162Y-65261789D01*
X228390379Y-65296186D01*
X228443947Y-65496104D01*
X228527467Y-65697738D01*
X228536776Y-65720212D01*
X228658064Y-65930289D01*
X228658066Y-65930292D01*
X228658067Y-65930293D01*
X228805733Y-66122736D01*
X228805739Y-66122743D01*
X228977256Y-66294260D01*
X228977263Y-66294266D01*
X229018345Y-66325789D01*
X229169711Y-66441936D01*
X229379788Y-66563224D01*
X229603900Y-66656054D01*
X229838211Y-66718838D01*
X230018586Y-66742584D01*
X230078711Y-66750500D01*
X230078712Y-66750500D01*
X230321289Y-66750500D01*
X230369388Y-66744167D01*
X230561789Y-66718838D01*
X230796100Y-66656054D01*
X231020212Y-66563224D01*
X231230289Y-66441936D01*
X231422738Y-66294265D01*
X231594265Y-66122738D01*
X231741936Y-65930289D01*
X231788291Y-65850000D01*
X238944540Y-65850000D01*
X238964326Y-66038256D01*
X238964327Y-66038259D01*
X239022818Y-66218277D01*
X239022821Y-66218284D01*
X239117467Y-66382216D01*
X239172518Y-66443356D01*
X239244129Y-66522888D01*
X239397265Y-66634148D01*
X239397270Y-66634151D01*
X239570192Y-66711142D01*
X239570197Y-66711144D01*
X239755354Y-66750500D01*
X239755355Y-66750500D01*
X239944644Y-66750500D01*
X239944646Y-66750500D01*
X240129803Y-66711144D01*
X240302730Y-66634151D01*
X240455871Y-66522888D01*
X240582533Y-66382216D01*
X240677179Y-66218284D01*
X240735674Y-66038256D01*
X240755460Y-65850000D01*
X240735674Y-65661744D01*
X240677179Y-65481716D01*
X240582533Y-65317784D01*
X240476476Y-65199996D01*
X241594435Y-65199996D01*
X241594435Y-65200003D01*
X241614630Y-65379249D01*
X241614631Y-65379254D01*
X241674211Y-65549523D01*
X241695091Y-65582753D01*
X241770184Y-65702262D01*
X241897738Y-65829816D01*
X242050478Y-65925789D01*
X242118306Y-65949523D01*
X242220745Y-65985368D01*
X242220750Y-65985369D01*
X242399996Y-66005565D01*
X242400000Y-66005565D01*
X242400004Y-66005565D01*
X242579249Y-65985369D01*
X242579252Y-65985368D01*
X242579255Y-65985368D01*
X242749522Y-65925789D01*
X242902262Y-65829816D01*
X243029816Y-65702262D01*
X243125789Y-65549522D01*
X243185368Y-65379255D01*
X243185369Y-65379249D01*
X243205565Y-65200003D01*
X243205565Y-65199996D01*
X243185369Y-65020750D01*
X243185368Y-65020745D01*
X243125788Y-64850476D01*
X243056054Y-64739496D01*
X243029816Y-64697738D01*
X242902262Y-64570184D01*
X242851382Y-64538214D01*
X242749523Y-64474211D01*
X242579254Y-64414631D01*
X242579249Y-64414630D01*
X242400004Y-64394435D01*
X242399996Y-64394435D01*
X242220750Y-64414630D01*
X242220745Y-64414631D01*
X242050476Y-64474211D01*
X241897737Y-64570184D01*
X241770184Y-64697737D01*
X241674211Y-64850476D01*
X241614631Y-65020745D01*
X241614630Y-65020750D01*
X241594435Y-65199996D01*
X240476476Y-65199996D01*
X240455871Y-65177112D01*
X240435963Y-65162648D01*
X240302734Y-65065851D01*
X240302729Y-65065848D01*
X240129807Y-64988857D01*
X240129802Y-64988855D01*
X239984001Y-64957865D01*
X239944646Y-64949500D01*
X239755354Y-64949500D01*
X239722897Y-64956398D01*
X239570197Y-64988855D01*
X239570192Y-64988857D01*
X239397270Y-65065848D01*
X239397265Y-65065851D01*
X239244129Y-65177111D01*
X239117466Y-65317785D01*
X239022821Y-65481715D01*
X239022818Y-65481722D01*
X238968647Y-65648444D01*
X238964326Y-65661744D01*
X238944540Y-65850000D01*
X231788291Y-65850000D01*
X231863224Y-65720212D01*
X231956054Y-65496100D01*
X232018838Y-65261789D01*
X232050500Y-65021288D01*
X232050500Y-64778712D01*
X232047279Y-64754249D01*
X232030527Y-64627000D01*
X232018838Y-64538211D01*
X231956054Y-64303900D01*
X231863224Y-64079788D01*
X231741936Y-63869711D01*
X231613446Y-63702259D01*
X231594266Y-63677263D01*
X231594260Y-63677256D01*
X231422743Y-63505739D01*
X231422736Y-63505733D01*
X231230293Y-63358067D01*
X231230292Y-63358066D01*
X231230289Y-63358064D01*
X231020212Y-63236776D01*
X230944862Y-63205565D01*
X230796104Y-63143947D01*
X230678944Y-63112554D01*
X230561789Y-63081162D01*
X230561788Y-63081161D01*
X230561785Y-63081161D01*
X230321289Y-63049500D01*
X230321288Y-63049500D01*
X230078712Y-63049500D01*
X230078711Y-63049500D01*
X229838214Y-63081161D01*
X229603895Y-63143947D01*
X229379794Y-63236773D01*
X229379785Y-63236777D01*
X229169706Y-63358067D01*
X228977263Y-63505733D01*
X228977256Y-63505739D01*
X228805739Y-63677256D01*
X228805733Y-63677263D01*
X228658067Y-63869706D01*
X228536777Y-64079785D01*
X228536773Y-64079794D01*
X228443947Y-64303895D01*
X228381161Y-64538214D01*
X228349500Y-64778711D01*
X214001147Y-64778711D01*
X214005565Y-64739503D01*
X214005565Y-64739496D01*
X213985369Y-64560250D01*
X213985368Y-64560245D01*
X213946004Y-64447750D01*
X213925789Y-64389978D01*
X213829816Y-64237238D01*
X213702262Y-64109684D01*
X213657942Y-64081836D01*
X213549523Y-64013711D01*
X213379254Y-63954131D01*
X213379250Y-63954130D01*
X213274452Y-63942323D01*
X213210038Y-63915257D01*
X213170483Y-63857662D01*
X213168346Y-63787825D01*
X213200653Y-63731424D01*
X213229816Y-63702262D01*
X213325789Y-63549522D01*
X213385368Y-63379255D01*
X213385446Y-63378565D01*
X213405565Y-63200003D01*
X213405565Y-63199997D01*
X213386532Y-63031076D01*
X213398586Y-62962254D01*
X213445935Y-62910874D01*
X213513546Y-62893250D01*
X213579952Y-62914976D01*
X213597433Y-62929511D01*
X213697738Y-63029816D01*
X213850478Y-63125789D01*
X213902368Y-63143946D01*
X214020745Y-63185368D01*
X214020750Y-63185369D01*
X214199996Y-63205565D01*
X214200000Y-63205565D01*
X214200004Y-63205565D01*
X214379249Y-63185369D01*
X214379252Y-63185368D01*
X214379255Y-63185368D01*
X214549522Y-63125789D01*
X214702262Y-63029816D01*
X214829816Y-62902262D01*
X214925789Y-62749522D01*
X214978110Y-62599996D01*
X218794435Y-62599996D01*
X218794435Y-62600003D01*
X218814630Y-62779249D01*
X218814631Y-62779254D01*
X218874211Y-62949523D01*
X218915122Y-63014632D01*
X218970184Y-63102262D01*
X219097738Y-63229816D01*
X219188080Y-63286582D01*
X219248682Y-63324661D01*
X219250478Y-63325789D01*
X219401303Y-63378565D01*
X219420745Y-63385368D01*
X219420750Y-63385369D01*
X219599996Y-63405565D01*
X219600000Y-63405565D01*
X219600004Y-63405565D01*
X219779249Y-63385369D01*
X219779252Y-63385368D01*
X219779255Y-63385368D01*
X219949522Y-63325789D01*
X220102262Y-63229816D01*
X220229816Y-63102262D01*
X220325789Y-62949522D01*
X220385368Y-62779255D01*
X220388410Y-62752255D01*
X220405565Y-62600003D01*
X220405565Y-62599996D01*
X220385369Y-62420750D01*
X220385368Y-62420745D01*
X220375920Y-62393745D01*
X220325789Y-62250478D01*
X220307106Y-62220745D01*
X220246781Y-62124738D01*
X220229816Y-62097738D01*
X220102262Y-61970184D01*
X220019874Y-61918416D01*
X219949523Y-61874211D01*
X219779254Y-61814631D01*
X219779249Y-61814630D01*
X219600004Y-61794435D01*
X219599996Y-61794435D01*
X219420750Y-61814630D01*
X219420745Y-61814631D01*
X219250476Y-61874211D01*
X219097737Y-61970184D01*
X218970184Y-62097737D01*
X218874211Y-62250476D01*
X218814631Y-62420745D01*
X218814630Y-62420750D01*
X218794435Y-62599996D01*
X214978110Y-62599996D01*
X214985368Y-62579255D01*
X214985369Y-62579249D01*
X215005565Y-62400003D01*
X215005565Y-62399996D01*
X214985369Y-62220750D01*
X214985368Y-62220745D01*
X214942326Y-62097738D01*
X214925789Y-62050478D01*
X214829816Y-61897738D01*
X214702262Y-61770184D01*
X214631608Y-61725789D01*
X214549523Y-61674211D01*
X214379254Y-61614631D01*
X214379250Y-61614630D01*
X214252607Y-61600361D01*
X214188193Y-61573294D01*
X214149449Y-61518095D01*
X214139710Y-61490264D01*
X214125789Y-61450478D01*
X214029816Y-61297738D01*
X213902262Y-61170184D01*
X213831608Y-61125789D01*
X213749523Y-61074211D01*
X213579254Y-61014631D01*
X213579249Y-61014630D01*
X213449362Y-60999996D01*
X214794435Y-60999996D01*
X214794435Y-61000003D01*
X214814630Y-61179249D01*
X214814631Y-61179254D01*
X214874211Y-61349523D01*
X214937646Y-61450478D01*
X214970184Y-61502262D01*
X215097738Y-61629816D01*
X215250478Y-61725789D01*
X215377352Y-61770184D01*
X215420745Y-61785368D01*
X215420750Y-61785369D01*
X215599996Y-61805565D01*
X215600000Y-61805565D01*
X215600004Y-61805565D01*
X215779249Y-61785369D01*
X215779252Y-61785368D01*
X215779255Y-61785368D01*
X215949522Y-61725789D01*
X216102262Y-61629816D01*
X216229816Y-61502262D01*
X216325789Y-61349522D01*
X216385368Y-61179255D01*
X216391392Y-61125789D01*
X216405565Y-61000003D01*
X216405565Y-60999996D01*
X216385369Y-60820750D01*
X216385368Y-60820745D01*
X216325788Y-60650476D01*
X216261232Y-60547737D01*
X216229816Y-60497738D01*
X216102262Y-60370184D01*
X215949523Y-60274211D01*
X215779254Y-60214631D01*
X215779249Y-60214630D01*
X215600004Y-60194435D01*
X215599996Y-60194435D01*
X215420750Y-60214630D01*
X215420745Y-60214631D01*
X215250476Y-60274211D01*
X215097737Y-60370184D01*
X214970184Y-60497737D01*
X214874211Y-60650476D01*
X214814631Y-60820745D01*
X214814630Y-60820750D01*
X214794435Y-60999996D01*
X213449362Y-60999996D01*
X213400004Y-60994435D01*
X213399996Y-60994435D01*
X213220750Y-61014630D01*
X213220745Y-61014631D01*
X213050476Y-61074211D01*
X212897737Y-61170184D01*
X212770184Y-61297737D01*
X212674211Y-61450476D01*
X212614631Y-61620745D01*
X212614630Y-61620750D01*
X212594435Y-61799996D01*
X212594435Y-61800003D01*
X212614630Y-61979249D01*
X212614631Y-61979254D01*
X212674211Y-62149524D01*
X212708732Y-62204462D01*
X212727733Y-62271699D01*
X212707366Y-62338534D01*
X212654098Y-62383749D01*
X212603739Y-62394435D01*
X212599996Y-62394435D01*
X212420750Y-62414630D01*
X212420742Y-62414632D01*
X212334596Y-62444776D01*
X212264817Y-62448337D01*
X212204190Y-62413608D01*
X212176600Y-62368688D01*
X212125789Y-62223478D01*
X212096285Y-62176523D01*
X212029816Y-62070738D01*
X211902262Y-61943184D01*
X211862844Y-61918416D01*
X211749523Y-61847211D01*
X211579254Y-61787631D01*
X211579249Y-61787630D01*
X211400004Y-61767435D01*
X211399996Y-61767435D01*
X211220750Y-61787630D01*
X211220745Y-61787631D01*
X211050476Y-61847211D01*
X210897737Y-61943184D01*
X210770184Y-62070737D01*
X210674211Y-62223476D01*
X210614631Y-62393745D01*
X210614630Y-62393750D01*
X210594435Y-62572996D01*
X210594435Y-62573003D01*
X210614630Y-62752249D01*
X210614631Y-62752254D01*
X210674211Y-62922523D01*
X210741628Y-63029815D01*
X210770184Y-63075262D01*
X210897738Y-63202816D01*
X210951780Y-63236773D01*
X211048803Y-63297737D01*
X211050478Y-63298789D01*
X211196819Y-63349996D01*
X211220745Y-63358368D01*
X211220750Y-63358369D01*
X211399996Y-63378565D01*
X211400000Y-63378565D01*
X211400004Y-63378565D01*
X211579249Y-63358369D01*
X211579252Y-63358368D01*
X211579255Y-63358368D01*
X211579256Y-63358367D01*
X211579259Y-63358367D01*
X211635643Y-63338636D01*
X211665401Y-63328223D01*
X211735180Y-63324661D01*
X211795808Y-63359390D01*
X211823399Y-63404310D01*
X211858889Y-63505733D01*
X211874211Y-63549522D01*
X211970184Y-63702262D01*
X212097738Y-63829816D01*
X212250478Y-63925789D01*
X212404878Y-63979816D01*
X212420745Y-63985368D01*
X212420749Y-63985369D01*
X212505872Y-63994959D01*
X212525546Y-63997176D01*
X212589960Y-64024242D01*
X212629515Y-64081836D01*
X212631654Y-64151673D01*
X212599346Y-64208076D01*
X212570183Y-64237239D01*
X212474209Y-64389980D01*
X212442882Y-64479508D01*
X212402161Y-64536284D01*
X212337208Y-64562031D01*
X212268646Y-64548575D01*
X212259874Y-64543550D01*
X212149522Y-64474211D01*
X211979254Y-64414631D01*
X211979249Y-64414630D01*
X211800004Y-64394435D01*
X211799996Y-64394435D01*
X211620750Y-64414630D01*
X211620745Y-64414631D01*
X211450476Y-64474211D01*
X211297737Y-64570184D01*
X211170184Y-64697737D01*
X211074211Y-64850476D01*
X211014631Y-65020745D01*
X211014630Y-65020750D01*
X210994435Y-65199996D01*
X210994435Y-65200003D01*
X211014630Y-65379249D01*
X211014631Y-65379254D01*
X211076511Y-65556095D01*
X211074971Y-65556633D01*
X211084939Y-65617175D01*
X211057214Y-65681308D01*
X211012377Y-65712445D01*
X211013390Y-65714549D01*
X211007119Y-65717568D01*
X210854381Y-65813540D01*
X210726828Y-65941093D01*
X210630855Y-66093832D01*
X210571275Y-66264101D01*
X210571274Y-66264106D01*
X210551079Y-66443352D01*
X207562939Y-66443352D01*
X207585368Y-66379255D01*
X207589997Y-66338175D01*
X207617063Y-66273761D01*
X207674658Y-66234206D01*
X207744495Y-66232068D01*
X207779190Y-66247065D01*
X207904475Y-66325788D01*
X208074745Y-66385368D01*
X208074750Y-66385369D01*
X208253996Y-66405565D01*
X208254000Y-66405565D01*
X208254004Y-66405565D01*
X208433249Y-66385369D01*
X208433252Y-66385368D01*
X208433255Y-66385368D01*
X208603522Y-66325789D01*
X208756262Y-66229816D01*
X208883816Y-66102262D01*
X208979789Y-65949522D01*
X209039368Y-65779255D01*
X209039369Y-65779249D01*
X209059565Y-65600003D01*
X209059565Y-65599996D01*
X209039369Y-65420750D01*
X209039368Y-65420745D01*
X208994068Y-65291285D01*
X208990507Y-65221506D01*
X209023430Y-65162648D01*
X209056813Y-65129265D01*
X209056813Y-65129264D01*
X209056816Y-65129262D01*
X209152789Y-64976522D01*
X209212368Y-64806255D01*
X209212369Y-64806249D01*
X209232565Y-64627003D01*
X209232565Y-64626996D01*
X209212369Y-64447750D01*
X209212368Y-64447745D01*
X209188400Y-64379249D01*
X209152789Y-64277478D01*
X209152181Y-64276511D01*
X209104104Y-64199996D01*
X209056816Y-64124738D01*
X208929262Y-63997184D01*
X208901621Y-63979816D01*
X208776523Y-63901211D01*
X208606254Y-63841631D01*
X208606249Y-63841630D01*
X208427004Y-63821435D01*
X208426996Y-63821435D01*
X208247750Y-63841630D01*
X208247745Y-63841631D01*
X208077476Y-63901211D01*
X207924737Y-63997184D01*
X207797184Y-64124737D01*
X207701211Y-64277476D01*
X207641631Y-64447745D01*
X207641630Y-64447750D01*
X207621435Y-64626996D01*
X207621435Y-64627003D01*
X207641630Y-64806249D01*
X207641632Y-64806257D01*
X207686931Y-64935714D01*
X207690492Y-65005492D01*
X207657573Y-65064347D01*
X207624185Y-65097736D01*
X207528211Y-65250476D01*
X207468631Y-65420745D01*
X207468631Y-65420748D01*
X207464002Y-65461827D01*
X207436934Y-65526240D01*
X207379339Y-65565794D01*
X207309502Y-65567931D01*
X207274810Y-65552935D01*
X207269378Y-65549522D01*
X207149522Y-65474211D01*
X206979254Y-65414631D01*
X206979249Y-65414630D01*
X206800004Y-65394435D01*
X206799996Y-65394435D01*
X206620750Y-65414630D01*
X206620745Y-65414631D01*
X206450476Y-65474211D01*
X206297737Y-65570184D01*
X206170184Y-65697737D01*
X206074211Y-65850476D01*
X206014631Y-66020745D01*
X206014630Y-66020750D01*
X205994435Y-66199996D01*
X160759031Y-66199996D01*
X160755051Y-66192184D01*
X160755049Y-66192181D01*
X160755048Y-66192179D01*
X160630109Y-66020213D01*
X160479786Y-65869890D01*
X160307820Y-65744951D01*
X160118414Y-65648444D01*
X160118413Y-65648443D01*
X160118412Y-65648443D01*
X159916243Y-65582754D01*
X159916241Y-65582753D01*
X159916240Y-65582753D01*
X159747926Y-65556095D01*
X159706287Y-65549500D01*
X159493713Y-65549500D01*
X159452074Y-65556095D01*
X159283760Y-65582753D01*
X159081585Y-65648444D01*
X158892179Y-65744951D01*
X158720213Y-65869890D01*
X158569890Y-66020213D01*
X158444951Y-66192179D01*
X158348444Y-66381585D01*
X158282753Y-66583760D01*
X158251112Y-66783538D01*
X158249500Y-66793713D01*
X156907094Y-66793713D01*
X156907670Y-65526240D01*
X156908102Y-64574996D01*
X162219435Y-64574996D01*
X162219435Y-64575003D01*
X162239630Y-64754249D01*
X162239631Y-64754254D01*
X162299211Y-64924523D01*
X162359672Y-65020745D01*
X162395184Y-65077262D01*
X162522738Y-65204816D01*
X162595409Y-65250478D01*
X162668155Y-65296188D01*
X162675478Y-65300789D01*
X162826029Y-65353469D01*
X162845745Y-65360368D01*
X162845750Y-65360369D01*
X163024996Y-65380565D01*
X163025000Y-65380565D01*
X163025004Y-65380565D01*
X163204249Y-65360369D01*
X163204252Y-65360368D01*
X163204255Y-65360368D01*
X163374522Y-65300789D01*
X163527262Y-65204816D01*
X163654816Y-65077262D01*
X163750789Y-64924522D01*
X163810368Y-64754255D01*
X163812030Y-64739503D01*
X163830565Y-64575003D01*
X163830565Y-64574996D01*
X163810369Y-64395750D01*
X163810368Y-64395745D01*
X163771329Y-64284178D01*
X163750789Y-64225478D01*
X163743973Y-64214631D01*
X163678031Y-64109684D01*
X163654816Y-64072738D01*
X163527262Y-63945184D01*
X163496395Y-63925789D01*
X163374523Y-63849211D01*
X163204254Y-63789631D01*
X163204249Y-63789630D01*
X163025004Y-63769435D01*
X163024996Y-63769435D01*
X162845750Y-63789630D01*
X162845745Y-63789631D01*
X162675476Y-63849211D01*
X162522737Y-63945184D01*
X162395184Y-64072737D01*
X162299211Y-64225476D01*
X162239631Y-64395745D01*
X162239630Y-64395750D01*
X162219435Y-64574996D01*
X156908102Y-64574996D01*
X156908659Y-63349996D01*
X166194435Y-63349996D01*
X166194435Y-63350003D01*
X166214630Y-63529249D01*
X166214631Y-63529254D01*
X166274211Y-63699523D01*
X166337347Y-63800003D01*
X166370184Y-63852262D01*
X166497738Y-63979816D01*
X166551682Y-64013711D01*
X166645620Y-64072737D01*
X166650478Y-64075789D01*
X166790366Y-64124738D01*
X166820745Y-64135368D01*
X166820750Y-64135369D01*
X166999996Y-64155565D01*
X167000000Y-64155565D01*
X167000004Y-64155565D01*
X167179249Y-64135369D01*
X167179252Y-64135368D01*
X167179255Y-64135368D01*
X167349522Y-64075789D01*
X167502262Y-63979816D01*
X167629816Y-63852262D01*
X167662657Y-63799996D01*
X195994435Y-63799996D01*
X195994435Y-63800003D01*
X196014630Y-63979249D01*
X196014631Y-63979254D01*
X196074211Y-64149523D01*
X196154610Y-64277476D01*
X196170184Y-64302262D01*
X196297738Y-64429816D01*
X196450478Y-64525789D01*
X196518306Y-64549523D01*
X196620745Y-64585368D01*
X196620750Y-64585369D01*
X196799996Y-64605565D01*
X196800000Y-64605565D01*
X196800004Y-64605565D01*
X196979249Y-64585369D01*
X196979252Y-64585368D01*
X196979255Y-64585368D01*
X197149522Y-64525789D01*
X197302262Y-64429816D01*
X197429816Y-64302262D01*
X197494074Y-64199996D01*
X202594435Y-64199996D01*
X202594435Y-64200003D01*
X202614630Y-64379249D01*
X202614631Y-64379254D01*
X202674211Y-64549523D01*
X202750018Y-64670168D01*
X202770184Y-64702262D01*
X202897738Y-64829816D01*
X202988080Y-64886582D01*
X203048461Y-64924522D01*
X203050478Y-64925789D01*
X203203224Y-64979237D01*
X203220745Y-64985368D01*
X203220750Y-64985369D01*
X203399996Y-65005565D01*
X203400000Y-65005565D01*
X203400002Y-65005565D01*
X203449391Y-65000000D01*
X203469395Y-64997746D01*
X203538217Y-65009800D01*
X203589596Y-65057149D01*
X203606499Y-65107082D01*
X203614630Y-65179250D01*
X203614631Y-65179254D01*
X203674211Y-65349523D01*
X203744777Y-65461827D01*
X203770184Y-65502262D01*
X203897738Y-65629816D01*
X203948545Y-65661740D01*
X204037392Y-65717567D01*
X204050478Y-65725789D01*
X204105240Y-65744951D01*
X204220745Y-65785368D01*
X204220750Y-65785369D01*
X204399996Y-65805565D01*
X204400000Y-65805565D01*
X204400004Y-65805565D01*
X204579249Y-65785369D01*
X204579252Y-65785368D01*
X204579255Y-65785368D01*
X204749522Y-65725789D01*
X204902262Y-65629816D01*
X205029816Y-65502262D01*
X205094222Y-65399759D01*
X205146555Y-65353469D01*
X205215608Y-65342820D01*
X205243652Y-65351211D01*
X205243905Y-65350489D01*
X205420745Y-65412368D01*
X205420750Y-65412369D01*
X205599996Y-65432565D01*
X205600000Y-65432565D01*
X205600004Y-65432565D01*
X205779249Y-65412369D01*
X205779252Y-65412368D01*
X205779255Y-65412368D01*
X205949522Y-65352789D01*
X206102262Y-65256816D01*
X206229816Y-65129262D01*
X206325789Y-64976522D01*
X206385368Y-64806255D01*
X206385369Y-64806249D01*
X206405565Y-64627003D01*
X206405565Y-64626996D01*
X206385369Y-64447750D01*
X206385368Y-64447745D01*
X206361400Y-64379249D01*
X206325789Y-64277478D01*
X206325181Y-64276511D01*
X206277104Y-64199996D01*
X206229816Y-64124738D01*
X206102262Y-63997184D01*
X206074621Y-63979816D01*
X205949523Y-63901211D01*
X205779254Y-63841631D01*
X205779249Y-63841630D01*
X205600004Y-63821435D01*
X205599996Y-63821435D01*
X205420750Y-63841630D01*
X205420745Y-63841631D01*
X205250476Y-63901211D01*
X205097737Y-63997184D01*
X204970184Y-64124737D01*
X204905778Y-64227239D01*
X204853443Y-64273530D01*
X204784389Y-64284178D01*
X204756347Y-64275789D01*
X204756095Y-64276511D01*
X204579254Y-64214631D01*
X204579249Y-64214630D01*
X204400004Y-64194435D01*
X204399995Y-64194435D01*
X204330602Y-64202253D01*
X204261781Y-64190198D01*
X204210402Y-64142849D01*
X204193500Y-64092916D01*
X204185369Y-64020750D01*
X204185368Y-64020745D01*
X204125788Y-63850476D01*
X204050980Y-63731420D01*
X204029816Y-63697738D01*
X203902262Y-63570184D01*
X203837124Y-63529255D01*
X203749523Y-63474211D01*
X203579254Y-63414631D01*
X203579249Y-63414630D01*
X203400004Y-63394435D01*
X203399996Y-63394435D01*
X203220750Y-63414630D01*
X203220745Y-63414631D01*
X203050476Y-63474211D01*
X202897737Y-63570184D01*
X202770184Y-63697737D01*
X202674211Y-63850476D01*
X202614631Y-64020745D01*
X202614630Y-64020750D01*
X202594435Y-64199996D01*
X197494074Y-64199996D01*
X197525789Y-64149522D01*
X197585368Y-63979255D01*
X197589207Y-63945184D01*
X197605565Y-63800003D01*
X197605565Y-63799996D01*
X197585369Y-63620750D01*
X197585368Y-63620745D01*
X197553352Y-63529249D01*
X197525789Y-63450478D01*
X197503265Y-63414632D01*
X197480603Y-63378565D01*
X197429816Y-63297738D01*
X197302262Y-63170184D01*
X197260505Y-63143946D01*
X197149523Y-63074211D01*
X196979254Y-63014631D01*
X196979249Y-63014630D01*
X196800004Y-62994435D01*
X196799996Y-62994435D01*
X196620750Y-63014630D01*
X196620745Y-63014631D01*
X196450476Y-63074211D01*
X196297737Y-63170184D01*
X196170184Y-63297737D01*
X196074211Y-63450476D01*
X196014631Y-63620745D01*
X196014630Y-63620750D01*
X195994435Y-63799996D01*
X167662657Y-63799996D01*
X167725789Y-63699522D01*
X167785368Y-63529255D01*
X167788018Y-63505735D01*
X167805565Y-63350003D01*
X167805565Y-63349996D01*
X167785369Y-63170750D01*
X167785368Y-63170745D01*
X167761405Y-63102262D01*
X167725789Y-63000478D01*
X167710736Y-62976522D01*
X167658413Y-62893250D01*
X167629816Y-62847738D01*
X167502262Y-62720184D01*
X167353955Y-62626996D01*
X191994435Y-62626996D01*
X191994435Y-62627003D01*
X192014630Y-62806249D01*
X192014631Y-62806254D01*
X192074211Y-62976523D01*
X192139960Y-63081161D01*
X192170184Y-63129262D01*
X192297738Y-63256816D01*
X192362863Y-63297737D01*
X192405712Y-63324661D01*
X192450478Y-63352789D01*
X192597717Y-63404310D01*
X192620745Y-63412368D01*
X192620750Y-63412369D01*
X192799996Y-63432565D01*
X192800000Y-63432565D01*
X192800004Y-63432565D01*
X192979249Y-63412369D01*
X192979252Y-63412368D01*
X192979255Y-63412368D01*
X193149522Y-63352789D01*
X193302262Y-63256816D01*
X193429816Y-63129262D01*
X193525789Y-62976522D01*
X193585368Y-62806255D01*
X193588410Y-62779255D01*
X193605565Y-62627003D01*
X193605565Y-62626996D01*
X193599481Y-62572996D01*
X199594435Y-62572996D01*
X199594435Y-62573003D01*
X199614630Y-62752249D01*
X199614631Y-62752254D01*
X199674211Y-62922523D01*
X199741628Y-63029815D01*
X199770184Y-63075262D01*
X199897738Y-63202816D01*
X199951780Y-63236773D01*
X200048803Y-63297737D01*
X200050478Y-63298789D01*
X200196819Y-63349996D01*
X200220745Y-63358368D01*
X200220750Y-63358369D01*
X200399996Y-63378565D01*
X200400000Y-63378565D01*
X200400004Y-63378565D01*
X200579249Y-63358369D01*
X200579252Y-63358368D01*
X200579255Y-63358368D01*
X200749522Y-63298789D01*
X200902262Y-63202816D01*
X201029816Y-63075262D01*
X201125789Y-62922522D01*
X201185368Y-62752255D01*
X201199481Y-62627003D01*
X201205600Y-62572692D01*
X201232666Y-62508278D01*
X201262846Y-62481582D01*
X201302262Y-62456816D01*
X201429816Y-62329262D01*
X201525789Y-62176522D01*
X201585368Y-62006255D01*
X201588410Y-61979255D01*
X201605565Y-61827003D01*
X201605565Y-61826996D01*
X207020435Y-61826996D01*
X207020435Y-61827003D01*
X207040630Y-62006249D01*
X207040631Y-62006254D01*
X207100211Y-62176523D01*
X207163646Y-62277478D01*
X207196184Y-62329262D01*
X207323738Y-62456816D01*
X207393285Y-62500515D01*
X207439576Y-62552850D01*
X207450533Y-62591626D01*
X207468630Y-62752249D01*
X207468631Y-62752254D01*
X207528211Y-62922523D01*
X207595628Y-63029815D01*
X207624184Y-63075262D01*
X207751738Y-63202816D01*
X207805780Y-63236773D01*
X207902803Y-63297737D01*
X207904478Y-63298789D01*
X208050819Y-63349996D01*
X208074745Y-63358368D01*
X208074750Y-63358369D01*
X208253996Y-63378565D01*
X208254000Y-63378565D01*
X208254004Y-63378565D01*
X208433249Y-63358369D01*
X208433252Y-63358368D01*
X208433255Y-63358368D01*
X208603522Y-63298789D01*
X208756262Y-63202816D01*
X208883816Y-63075262D01*
X208979789Y-62922522D01*
X209039368Y-62752255D01*
X209045511Y-62697738D01*
X209059565Y-62573003D01*
X209059565Y-62572996D01*
X209039369Y-62393750D01*
X209039368Y-62393745D01*
X208996662Y-62271699D01*
X208979789Y-62223478D01*
X208967840Y-62204462D01*
X208900781Y-62097738D01*
X208883816Y-62070738D01*
X208756262Y-61943184D01*
X208686713Y-61899483D01*
X208640423Y-61847149D01*
X208629466Y-61808373D01*
X208611369Y-61647750D01*
X208611368Y-61647745D01*
X208568693Y-61525788D01*
X208551789Y-61477478D01*
X208455816Y-61324738D01*
X208328262Y-61197184D01*
X208285292Y-61170184D01*
X208175523Y-61101211D01*
X208005254Y-61041631D01*
X208005249Y-61041630D01*
X207826004Y-61021435D01*
X207825996Y-61021435D01*
X207646750Y-61041630D01*
X207646745Y-61041631D01*
X207476476Y-61101211D01*
X207323737Y-61197184D01*
X207196184Y-61324737D01*
X207100211Y-61477476D01*
X207040631Y-61647745D01*
X207040630Y-61647750D01*
X207020435Y-61826996D01*
X201605565Y-61826996D01*
X201585369Y-61647750D01*
X201585368Y-61647745D01*
X201542693Y-61525788D01*
X201525789Y-61477478D01*
X201429816Y-61324738D01*
X201302262Y-61197184D01*
X201259292Y-61170184D01*
X201149523Y-61101211D01*
X200979254Y-61041631D01*
X200979249Y-61041630D01*
X200800004Y-61021435D01*
X200799996Y-61021435D01*
X200620750Y-61041630D01*
X200620745Y-61041631D01*
X200450476Y-61101211D01*
X200297737Y-61197184D01*
X200170184Y-61324737D01*
X200074211Y-61477476D01*
X200014631Y-61647745D01*
X200014630Y-61647749D01*
X199994399Y-61827308D01*
X199967332Y-61891722D01*
X199937154Y-61918416D01*
X199897739Y-61943183D01*
X199897735Y-61943186D01*
X199770184Y-62070737D01*
X199674211Y-62223476D01*
X199614631Y-62393745D01*
X199614630Y-62393750D01*
X199594435Y-62572996D01*
X193599481Y-62572996D01*
X193585369Y-62447750D01*
X193585368Y-62447745D01*
X193566474Y-62393750D01*
X193525789Y-62277478D01*
X193429816Y-62124738D01*
X193302262Y-61997184D01*
X193216322Y-61943184D01*
X193149523Y-61901211D01*
X192979254Y-61841631D01*
X192979249Y-61841630D01*
X192800004Y-61821435D01*
X192799996Y-61821435D01*
X192620750Y-61841630D01*
X192620745Y-61841631D01*
X192450476Y-61901211D01*
X192297737Y-61997184D01*
X192170184Y-62124737D01*
X192074211Y-62277476D01*
X192014631Y-62447745D01*
X192014630Y-62447750D01*
X191994435Y-62626996D01*
X167353955Y-62626996D01*
X167349523Y-62624211D01*
X167179254Y-62564631D01*
X167179249Y-62564630D01*
X167000004Y-62544435D01*
X166999996Y-62544435D01*
X166820750Y-62564630D01*
X166820745Y-62564631D01*
X166650476Y-62624211D01*
X166497737Y-62720184D01*
X166370184Y-62847737D01*
X166274211Y-63000476D01*
X166214631Y-63170745D01*
X166214630Y-63170750D01*
X166194435Y-63349996D01*
X156908659Y-63349996D01*
X156909705Y-61049996D01*
X189144435Y-61049996D01*
X189144435Y-61050003D01*
X189164630Y-61229249D01*
X189164631Y-61229254D01*
X189224211Y-61399523D01*
X189273194Y-61477478D01*
X189320184Y-61552262D01*
X189447738Y-61679816D01*
X189520902Y-61725788D01*
X189591557Y-61770184D01*
X189600478Y-61775789D01*
X189669678Y-61800003D01*
X189770745Y-61835368D01*
X189770750Y-61835369D01*
X189949996Y-61855565D01*
X189950000Y-61855565D01*
X189950004Y-61855565D01*
X190129249Y-61835369D01*
X190129252Y-61835368D01*
X190129255Y-61835368D01*
X190299522Y-61775789D01*
X190452262Y-61679816D01*
X190579816Y-61552262D01*
X190675789Y-61399522D01*
X190735368Y-61229255D01*
X190735369Y-61229249D01*
X190755565Y-61050003D01*
X190755565Y-61049996D01*
X190735369Y-60870750D01*
X190735368Y-60870745D01*
X190715418Y-60813732D01*
X190710612Y-60799996D01*
X193994435Y-60799996D01*
X193994435Y-60800003D01*
X194014630Y-60979249D01*
X194014631Y-60979254D01*
X194074211Y-61149523D01*
X194128171Y-61235399D01*
X194170184Y-61302262D01*
X194297738Y-61429816D01*
X194450478Y-61525789D01*
X194620745Y-61585368D01*
X194620750Y-61585369D01*
X194799996Y-61605565D01*
X194800000Y-61605565D01*
X194800004Y-61605565D01*
X194979249Y-61585369D01*
X194979252Y-61585368D01*
X194979255Y-61585368D01*
X195149522Y-61525789D01*
X195302262Y-61429816D01*
X195429816Y-61302262D01*
X195471830Y-61235396D01*
X195524161Y-61189107D01*
X195593215Y-61178458D01*
X195617771Y-61184327D01*
X195620745Y-61185368D01*
X195620751Y-61185368D01*
X195620752Y-61185369D01*
X195799996Y-61205565D01*
X195800000Y-61205565D01*
X195800004Y-61205565D01*
X195979249Y-61185369D01*
X195979252Y-61185368D01*
X195979255Y-61185368D01*
X196149522Y-61125789D01*
X196302262Y-61029816D01*
X196429816Y-60902262D01*
X196429816Y-60902261D01*
X196430593Y-60901485D01*
X196491916Y-60868000D01*
X196561608Y-60872984D01*
X196584247Y-60884173D01*
X196650475Y-60925788D01*
X196820745Y-60985368D01*
X196820750Y-60985369D01*
X196999996Y-61005565D01*
X197000000Y-61005565D01*
X197000004Y-61005565D01*
X197179249Y-60985369D01*
X197179252Y-60985368D01*
X197179255Y-60985368D01*
X197349522Y-60925789D01*
X197502262Y-60829816D01*
X197629816Y-60702262D01*
X197725789Y-60549522D01*
X197778110Y-60399996D01*
X203594435Y-60399996D01*
X203594435Y-60400003D01*
X203614630Y-60579249D01*
X203614631Y-60579254D01*
X203674211Y-60749523D01*
X203750384Y-60870750D01*
X203770184Y-60902262D01*
X203897738Y-61029816D01*
X204050478Y-61125789D01*
X204118306Y-61149523D01*
X204220745Y-61185368D01*
X204220750Y-61185369D01*
X204399996Y-61205565D01*
X204400000Y-61205565D01*
X204400004Y-61205565D01*
X204579249Y-61185369D01*
X204579252Y-61185368D01*
X204579255Y-61185368D01*
X204749522Y-61125789D01*
X204902262Y-61029816D01*
X205029816Y-60902262D01*
X205056358Y-60860020D01*
X205108689Y-60813732D01*
X205175233Y-60802774D01*
X205200000Y-60805565D01*
X205200001Y-60805564D01*
X205200002Y-60805565D01*
X205200004Y-60805565D01*
X205379249Y-60785369D01*
X205379252Y-60785368D01*
X205379255Y-60785368D01*
X205549522Y-60725789D01*
X205702262Y-60629816D01*
X205829816Y-60502262D01*
X205829819Y-60502256D01*
X205832712Y-60499364D01*
X205894035Y-60465879D01*
X205963727Y-60470863D01*
X206008075Y-60499364D01*
X206127501Y-60618790D01*
X206177929Y-60650476D01*
X206257506Y-60700478D01*
X206280241Y-60714763D01*
X206450508Y-60774342D01*
X206450513Y-60774343D01*
X206629759Y-60794539D01*
X206629763Y-60794539D01*
X206629767Y-60794539D01*
X206809012Y-60774343D01*
X206809015Y-60774342D01*
X206809018Y-60774342D01*
X206979285Y-60714763D01*
X207132025Y-60618790D01*
X207259579Y-60491236D01*
X207355552Y-60338496D01*
X207415131Y-60168229D01*
X207419375Y-60130565D01*
X207435328Y-59988977D01*
X207435328Y-59988970D01*
X207415132Y-59809724D01*
X207415131Y-59809719D01*
X207389121Y-59735388D01*
X207355552Y-59639452D01*
X207259579Y-59486712D01*
X207132025Y-59359158D01*
X207034276Y-59297738D01*
X206979286Y-59263185D01*
X206809017Y-59203605D01*
X206809012Y-59203604D01*
X206629767Y-59183409D01*
X206629759Y-59183409D01*
X206450513Y-59203604D01*
X206450508Y-59203605D01*
X206280239Y-59263185D01*
X206127502Y-59359157D01*
X205997049Y-59489610D01*
X205935726Y-59523094D01*
X205866034Y-59518110D01*
X205821687Y-59489609D01*
X205702262Y-59370184D01*
X205549523Y-59274211D01*
X205379254Y-59214631D01*
X205379249Y-59214630D01*
X205200004Y-59194435D01*
X205199996Y-59194435D01*
X205020750Y-59214630D01*
X205020745Y-59214631D01*
X204850476Y-59274211D01*
X204697737Y-59370184D01*
X204570185Y-59497736D01*
X204566089Y-59504255D01*
X204554252Y-59523094D01*
X204543642Y-59539979D01*
X204491306Y-59586269D01*
X204424766Y-59597225D01*
X204400003Y-59594435D01*
X204399996Y-59594435D01*
X204220750Y-59614630D01*
X204220745Y-59614631D01*
X204050476Y-59674211D01*
X203897737Y-59770184D01*
X203770184Y-59897737D01*
X203674211Y-60050476D01*
X203614631Y-60220745D01*
X203614630Y-60220750D01*
X203594435Y-60399996D01*
X197778110Y-60399996D01*
X197785368Y-60379255D01*
X197786390Y-60370184D01*
X197805565Y-60200003D01*
X197805565Y-60199996D01*
X197785369Y-60020750D01*
X197785368Y-60020745D01*
X197742326Y-59897738D01*
X197725789Y-59850478D01*
X197711201Y-59827262D01*
X197653473Y-59735388D01*
X197629816Y-59697738D01*
X197502262Y-59570184D01*
X197431608Y-59525789D01*
X197349523Y-59474211D01*
X197179254Y-59414631D01*
X197179249Y-59414630D01*
X197000004Y-59394435D01*
X196999996Y-59394435D01*
X196820750Y-59414630D01*
X196820745Y-59414631D01*
X196650476Y-59474211D01*
X196497739Y-59570183D01*
X196369407Y-59698515D01*
X196308084Y-59731999D01*
X196238392Y-59727015D01*
X196215754Y-59715827D01*
X196149523Y-59674211D01*
X195979254Y-59614631D01*
X195979249Y-59614630D01*
X195800004Y-59594435D01*
X195799996Y-59594435D01*
X195620750Y-59614630D01*
X195620745Y-59614631D01*
X195450476Y-59674211D01*
X195297737Y-59770184D01*
X195170183Y-59897738D01*
X195128169Y-59964602D01*
X195075834Y-60010892D01*
X195006780Y-60021539D01*
X194982223Y-60015670D01*
X194979254Y-60014631D01*
X194800004Y-59994435D01*
X194799996Y-59994435D01*
X194620750Y-60014630D01*
X194620745Y-60014631D01*
X194450476Y-60074211D01*
X194297737Y-60170184D01*
X194170184Y-60297737D01*
X194074211Y-60450476D01*
X194014631Y-60620745D01*
X194014630Y-60620750D01*
X193994435Y-60799996D01*
X190710612Y-60799996D01*
X190675789Y-60700478D01*
X190579816Y-60547738D01*
X190452262Y-60420184D01*
X190420144Y-60400003D01*
X190299523Y-60324211D01*
X190129254Y-60264631D01*
X190129249Y-60264630D01*
X189950004Y-60244435D01*
X189949996Y-60244435D01*
X189770750Y-60264630D01*
X189770745Y-60264631D01*
X189600476Y-60324211D01*
X189447737Y-60420184D01*
X189320184Y-60547737D01*
X189224211Y-60700476D01*
X189164631Y-60870745D01*
X189164630Y-60870750D01*
X189144435Y-61049996D01*
X156909705Y-61049996D01*
X156910489Y-59324996D01*
X161094435Y-59324996D01*
X161094435Y-59325003D01*
X161114630Y-59504249D01*
X161114631Y-59504254D01*
X161174211Y-59674523D01*
X161252420Y-59798991D01*
X161270184Y-59827262D01*
X161397738Y-59954816D01*
X161439887Y-59981300D01*
X161549979Y-60050476D01*
X161550478Y-60050789D01*
X161720745Y-60110368D01*
X161720750Y-60110369D01*
X161899996Y-60130565D01*
X161900000Y-60130565D01*
X161900004Y-60130565D01*
X162079249Y-60110369D01*
X162079252Y-60110368D01*
X162079255Y-60110368D01*
X162249522Y-60050789D01*
X162402262Y-59954816D01*
X162529816Y-59827262D01*
X162529819Y-59827256D01*
X162534159Y-59821816D01*
X162535192Y-59822640D01*
X162581956Y-59781272D01*
X162651009Y-59770620D01*
X162714859Y-59798991D01*
X162721811Y-59805398D01*
X162722002Y-59805550D01*
X162722003Y-59805551D01*
X162747889Y-59821816D01*
X162868717Y-59897738D01*
X162874743Y-59901524D01*
X163027040Y-59954815D01*
X163045010Y-59961103D01*
X163045015Y-59961104D01*
X163224261Y-59981300D01*
X163224265Y-59981300D01*
X163224269Y-59981300D01*
X163403514Y-59961104D01*
X163403517Y-59961103D01*
X163403520Y-59961103D01*
X163573787Y-59901524D01*
X163726527Y-59805551D01*
X163854081Y-59677997D01*
X163950054Y-59525257D01*
X164009633Y-59354990D01*
X164013012Y-59325000D01*
X164029830Y-59175738D01*
X164029830Y-59175731D01*
X164009634Y-58996485D01*
X164009633Y-58996480D01*
X163967020Y-58874699D01*
X163950054Y-58826213D01*
X163936619Y-58804832D01*
X163933580Y-58799996D01*
X209394435Y-58799996D01*
X209394435Y-58800003D01*
X209414630Y-58979249D01*
X209414631Y-58979254D01*
X209474211Y-59149523D01*
X209515122Y-59214632D01*
X209570184Y-59302262D01*
X209697738Y-59429816D01*
X209768392Y-59474211D01*
X209792899Y-59489610D01*
X209850478Y-59525789D01*
X209977349Y-59570183D01*
X210020745Y-59585368D01*
X210020750Y-59585369D01*
X210199996Y-59605565D01*
X210200000Y-59605565D01*
X210200002Y-59605565D01*
X210229449Y-59602246D01*
X210264610Y-59598285D01*
X210333432Y-59610339D01*
X210384811Y-59657688D01*
X210402436Y-59725298D01*
X210401714Y-59735388D01*
X210394435Y-59799995D01*
X210394435Y-59800003D01*
X210414630Y-59979249D01*
X210414631Y-59979254D01*
X210474211Y-60149523D01*
X210533849Y-60244435D01*
X210570184Y-60302262D01*
X210697738Y-60429816D01*
X210755132Y-60465879D01*
X210805833Y-60497737D01*
X210850478Y-60525789D01*
X210918306Y-60549523D01*
X211020745Y-60585368D01*
X211020750Y-60585369D01*
X211199996Y-60605565D01*
X211200000Y-60605565D01*
X211200004Y-60605565D01*
X211379249Y-60585369D01*
X211379252Y-60585368D01*
X211379255Y-60585368D01*
X211549522Y-60525789D01*
X211702262Y-60429816D01*
X211829816Y-60302262D01*
X211925789Y-60149522D01*
X211985368Y-59979255D01*
X211987413Y-59961104D01*
X212005565Y-59800003D01*
X212005565Y-59799996D01*
X211985369Y-59620750D01*
X211985368Y-59620745D01*
X211952141Y-59525788D01*
X211925789Y-59450478D01*
X211903265Y-59414632D01*
X211865786Y-59354984D01*
X211829816Y-59297738D01*
X211702262Y-59170184D01*
X211663368Y-59145745D01*
X211549523Y-59074211D01*
X211379254Y-59014631D01*
X211379249Y-59014630D01*
X211200004Y-58994435D01*
X211199996Y-58994435D01*
X211135388Y-59001714D01*
X211066566Y-58989659D01*
X211015187Y-58942310D01*
X210997563Y-58874699D01*
X210998285Y-58864610D01*
X211005565Y-58800002D01*
X211005565Y-58799996D01*
X210985369Y-58620750D01*
X210985368Y-58620745D01*
X210956985Y-58539631D01*
X210925789Y-58450478D01*
X210829816Y-58297738D01*
X210702262Y-58170184D01*
X210549523Y-58074211D01*
X210379254Y-58014631D01*
X210379249Y-58014630D01*
X210200004Y-57994435D01*
X210199996Y-57994435D01*
X210020750Y-58014630D01*
X210020745Y-58014631D01*
X209850476Y-58074211D01*
X209697737Y-58170184D01*
X209570184Y-58297737D01*
X209474211Y-58450476D01*
X209414631Y-58620745D01*
X209414630Y-58620750D01*
X209394435Y-58799996D01*
X163933580Y-58799996D01*
X163857505Y-58678923D01*
X163854081Y-58673473D01*
X163726527Y-58545919D01*
X163662304Y-58505565D01*
X163573788Y-58449946D01*
X163403519Y-58390366D01*
X163403514Y-58390365D01*
X163224269Y-58370170D01*
X163224261Y-58370170D01*
X163045015Y-58390365D01*
X163045010Y-58390366D01*
X162874741Y-58449946D01*
X162722002Y-58545919D01*
X162594447Y-58673474D01*
X162590102Y-58678923D01*
X162589069Y-58678099D01*
X162542293Y-58719469D01*
X162473239Y-58730112D01*
X162409393Y-58701733D01*
X162402453Y-58695336D01*
X162402262Y-58695184D01*
X162249523Y-58599211D01*
X162079254Y-58539631D01*
X162079249Y-58539630D01*
X161900004Y-58519435D01*
X161899996Y-58519435D01*
X161720750Y-58539630D01*
X161720745Y-58539631D01*
X161550476Y-58599211D01*
X161397737Y-58695184D01*
X161270184Y-58822737D01*
X161174211Y-58975476D01*
X161114631Y-59145745D01*
X161114630Y-59145750D01*
X161094435Y-59324996D01*
X156910489Y-59324996D01*
X156911228Y-57699996D01*
X165219435Y-57699996D01*
X165219435Y-57700003D01*
X165239630Y-57879249D01*
X165239631Y-57879254D01*
X165299211Y-58049523D01*
X165314724Y-58074211D01*
X165395184Y-58202262D01*
X165522738Y-58329816D01*
X165675478Y-58425789D01*
X165845745Y-58485368D01*
X165845750Y-58485369D01*
X166024996Y-58505565D01*
X166025000Y-58505565D01*
X166025004Y-58505565D01*
X166204249Y-58485369D01*
X166204252Y-58485368D01*
X166204255Y-58485368D01*
X166374522Y-58425789D01*
X166527262Y-58329816D01*
X166654816Y-58202262D01*
X166750789Y-58049522D01*
X166810368Y-57879255D01*
X166830565Y-57700000D01*
X166825186Y-57652262D01*
X166810369Y-57520750D01*
X166810368Y-57520745D01*
X166750788Y-57350476D01*
X166654815Y-57197737D01*
X166607074Y-57149996D01*
X195344435Y-57149996D01*
X195344435Y-57150003D01*
X195364630Y-57329249D01*
X195364631Y-57329254D01*
X195424211Y-57499523D01*
X195437546Y-57520745D01*
X195520184Y-57652262D01*
X195647738Y-57779816D01*
X195800478Y-57875789D01*
X195970745Y-57935368D01*
X195970750Y-57935369D01*
X196149996Y-57955565D01*
X196150000Y-57955565D01*
X196150004Y-57955565D01*
X196329249Y-57935369D01*
X196329252Y-57935368D01*
X196329255Y-57935368D01*
X196499522Y-57875789D01*
X196652262Y-57779816D01*
X196779816Y-57652262D01*
X196875789Y-57499522D01*
X196935368Y-57329255D01*
X196935369Y-57329249D01*
X196955565Y-57150003D01*
X196955565Y-57149996D01*
X196935369Y-56970750D01*
X196935368Y-56970746D01*
X196935368Y-56970745D01*
X196931672Y-56960185D01*
X196928108Y-56890408D01*
X196962835Y-56829779D01*
X197024827Y-56797549D01*
X197034830Y-56796007D01*
X197129250Y-56785369D01*
X197129253Y-56785368D01*
X197129255Y-56785368D01*
X197299522Y-56725789D01*
X197452262Y-56629816D01*
X197579816Y-56502262D01*
X197675491Y-56349996D01*
X207549435Y-56349996D01*
X207549435Y-56350003D01*
X207569630Y-56529249D01*
X207569631Y-56529254D01*
X207629211Y-56699523D01*
X207692646Y-56800478D01*
X207725184Y-56852262D01*
X207852738Y-56979816D01*
X207943080Y-57036582D01*
X207996557Y-57070184D01*
X208005478Y-57075789D01*
X208175745Y-57135368D01*
X208175750Y-57135369D01*
X208354996Y-57155565D01*
X208355000Y-57155565D01*
X208355004Y-57155565D01*
X208534249Y-57135369D01*
X208534252Y-57135368D01*
X208534255Y-57135368D01*
X208704522Y-57075789D01*
X208857262Y-56979816D01*
X208984816Y-56852262D01*
X209080789Y-56699522D01*
X209140368Y-56529255D01*
X209141390Y-56520184D01*
X209160565Y-56350003D01*
X209160565Y-56349996D01*
X209140369Y-56170750D01*
X209140368Y-56170745D01*
X209080788Y-56000476D01*
X208984815Y-55847737D01*
X208857262Y-55720184D01*
X208704523Y-55624211D01*
X208534254Y-55564631D01*
X208534249Y-55564630D01*
X208355004Y-55544435D01*
X208354996Y-55544435D01*
X208175750Y-55564630D01*
X208175745Y-55564631D01*
X208005476Y-55624211D01*
X207852737Y-55720184D01*
X207725184Y-55847737D01*
X207629211Y-56000476D01*
X207569631Y-56170745D01*
X207569630Y-56170750D01*
X207549435Y-56349996D01*
X197675491Y-56349996D01*
X197675789Y-56349522D01*
X197735368Y-56179255D01*
X197735369Y-56179249D01*
X197755565Y-56000003D01*
X197755565Y-55999996D01*
X197735369Y-55820750D01*
X197735368Y-55820745D01*
X197675788Y-55650476D01*
X197579815Y-55497737D01*
X197452262Y-55370184D01*
X197299523Y-55274211D01*
X197129254Y-55214631D01*
X197129249Y-55214630D01*
X196950004Y-55194435D01*
X196949996Y-55194435D01*
X196770750Y-55214630D01*
X196770745Y-55214631D01*
X196600476Y-55274211D01*
X196447737Y-55370184D01*
X196320184Y-55497737D01*
X196224211Y-55650476D01*
X196164631Y-55820745D01*
X196164630Y-55820750D01*
X196144435Y-55999996D01*
X196144435Y-56000003D01*
X196164630Y-56179249D01*
X196164632Y-56179259D01*
X196168327Y-56189816D01*
X196171890Y-56259595D01*
X196137161Y-56320223D01*
X196075168Y-56352450D01*
X196065170Y-56353992D01*
X195970749Y-56364630D01*
X195970745Y-56364631D01*
X195800476Y-56424211D01*
X195647737Y-56520184D01*
X195520184Y-56647737D01*
X195424211Y-56800476D01*
X195364631Y-56970745D01*
X195364630Y-56970750D01*
X195344435Y-57149996D01*
X166607074Y-57149996D01*
X166527262Y-57070184D01*
X166374523Y-56974211D01*
X166204254Y-56914631D01*
X166204249Y-56914630D01*
X166025004Y-56894435D01*
X166024996Y-56894435D01*
X165845750Y-56914630D01*
X165845745Y-56914631D01*
X165675476Y-56974211D01*
X165522737Y-57070184D01*
X165395184Y-57197737D01*
X165299211Y-57350476D01*
X165239631Y-57520745D01*
X165239630Y-57520750D01*
X165219435Y-57699996D01*
X156911228Y-57699996D01*
X156912717Y-54424444D01*
X156932432Y-54357413D01*
X156985257Y-54311682D01*
X157036717Y-54300500D01*
X213633747Y-54300500D01*
X213669227Y-54305684D01*
G37*
G04 #@! TD.AperFunction*
M02*
