%TF.GenerationSoftware,KiCad,Pcbnew,8.0.8*%
%TF.CreationDate,2025-08-03T03:17:36+05:30*%
%TF.ProjectId,main,6d61696e-2e6b-4696-9361-645f70636258,rev?*%
%TF.SameCoordinates,Original*%
%TF.FileFunction,Drillmap*%
%TF.FilePolarity,Positive*%
%FSLAX45Y45*%
G04 Gerber Fmt 4.5, Leading zero omitted, Abs format (unit mm)*
G04 Created by KiCad (PCBNEW 8.0.8) date 2025-08-03 03:17:36*
%MOMM*%
%LPD*%
G01*
G04 APERTURE LIST*
%ADD10C,0.050000*%
%ADD11C,0.200000*%
%ADD12C,0.100000*%
%ADD13C,0.220000*%
%ADD14C,0.320000*%
G04 APERTURE END LIST*
D10*
X15641250Y-5380000D02*
X21372500Y-5380000D01*
X15640000Y-8130000D02*
X15641250Y-5380000D01*
X25881250Y-8120000D02*
X15640000Y-8130000D01*
X25880000Y-6726000D02*
X25881250Y-8120000D01*
X25880000Y-6726000D02*
X21372500Y-5380000D01*
D11*
D12*
X17506250Y-7784850D02*
X17538750Y-7817350D01*
X17538750Y-7784850D02*
X17506250Y-7817350D01*
X18206250Y-7784850D02*
X18238750Y-7817350D01*
X18238750Y-7784850D02*
X18206250Y-7817350D01*
X16195000Y-7617500D02*
G75*
G02*
X16120000Y-7617500I-37500J0D01*
G01*
X16120000Y-7617500D02*
G75*
G02*
X16195000Y-7617500I37500J0D01*
G01*
X16195000Y-7892500D02*
G75*
G02*
X16120000Y-7892500I-37500J0D01*
G01*
X16120000Y-7892500D02*
G75*
G02*
X16195000Y-7892500I37500J0D01*
G01*
D13*
X15960000Y-6580000D02*
X15960000Y-6800000D01*
X15850000Y-6690000D02*
X16070000Y-6690000D01*
D14*
X23133138Y-6603138D02*
X23133138Y-6376862D01*
X22906862Y-6376862D01*
X22906862Y-6603138D01*
X23133138Y-6603138D01*
D11*
X15898277Y-8443984D02*
X15898277Y-8243984D01*
X15898277Y-8243984D02*
X15945896Y-8243984D01*
X15945896Y-8243984D02*
X15974467Y-8253508D01*
X15974467Y-8253508D02*
X15993515Y-8272555D01*
X15993515Y-8272555D02*
X16003039Y-8291603D01*
X16003039Y-8291603D02*
X16012562Y-8329698D01*
X16012562Y-8329698D02*
X16012562Y-8358269D01*
X16012562Y-8358269D02*
X16003039Y-8396365D01*
X16003039Y-8396365D02*
X15993515Y-8415412D01*
X15993515Y-8415412D02*
X15974467Y-8434460D01*
X15974467Y-8434460D02*
X15945896Y-8443984D01*
X15945896Y-8443984D02*
X15898277Y-8443984D01*
X16098277Y-8443984D02*
X16098277Y-8310650D01*
X16098277Y-8348746D02*
X16107801Y-8329698D01*
X16107801Y-8329698D02*
X16117324Y-8320174D01*
X16117324Y-8320174D02*
X16136372Y-8310650D01*
X16136372Y-8310650D02*
X16155420Y-8310650D01*
X16222086Y-8443984D02*
X16222086Y-8310650D01*
X16222086Y-8243984D02*
X16212562Y-8253508D01*
X16212562Y-8253508D02*
X16222086Y-8263031D01*
X16222086Y-8263031D02*
X16231610Y-8253508D01*
X16231610Y-8253508D02*
X16222086Y-8243984D01*
X16222086Y-8243984D02*
X16222086Y-8263031D01*
X16345896Y-8443984D02*
X16326848Y-8434460D01*
X16326848Y-8434460D02*
X16317324Y-8415412D01*
X16317324Y-8415412D02*
X16317324Y-8243984D01*
X16450658Y-8443984D02*
X16431610Y-8434460D01*
X16431610Y-8434460D02*
X16422086Y-8415412D01*
X16422086Y-8415412D02*
X16422086Y-8243984D01*
X16679229Y-8443984D02*
X16679229Y-8243984D01*
X16679229Y-8243984D02*
X16745896Y-8386841D01*
X16745896Y-8386841D02*
X16812563Y-8243984D01*
X16812563Y-8243984D02*
X16812563Y-8443984D01*
X16993515Y-8443984D02*
X16993515Y-8339222D01*
X16993515Y-8339222D02*
X16983991Y-8320174D01*
X16983991Y-8320174D02*
X16964944Y-8310650D01*
X16964944Y-8310650D02*
X16926848Y-8310650D01*
X16926848Y-8310650D02*
X16907801Y-8320174D01*
X16993515Y-8434460D02*
X16974467Y-8443984D01*
X16974467Y-8443984D02*
X16926848Y-8443984D01*
X16926848Y-8443984D02*
X16907801Y-8434460D01*
X16907801Y-8434460D02*
X16898277Y-8415412D01*
X16898277Y-8415412D02*
X16898277Y-8396365D01*
X16898277Y-8396365D02*
X16907801Y-8377317D01*
X16907801Y-8377317D02*
X16926848Y-8367793D01*
X16926848Y-8367793D02*
X16974467Y-8367793D01*
X16974467Y-8367793D02*
X16993515Y-8358269D01*
X17088753Y-8310650D02*
X17088753Y-8510650D01*
X17088753Y-8320174D02*
X17107801Y-8310650D01*
X17107801Y-8310650D02*
X17145896Y-8310650D01*
X17145896Y-8310650D02*
X17164944Y-8320174D01*
X17164944Y-8320174D02*
X17174467Y-8329698D01*
X17174467Y-8329698D02*
X17183991Y-8348746D01*
X17183991Y-8348746D02*
X17183991Y-8405889D01*
X17183991Y-8405889D02*
X17174467Y-8424936D01*
X17174467Y-8424936D02*
X17164944Y-8434460D01*
X17164944Y-8434460D02*
X17145896Y-8443984D01*
X17145896Y-8443984D02*
X17107801Y-8443984D01*
X17107801Y-8443984D02*
X17088753Y-8434460D01*
X17269705Y-8424936D02*
X17279229Y-8434460D01*
X17279229Y-8434460D02*
X17269705Y-8443984D01*
X17269705Y-8443984D02*
X17260182Y-8434460D01*
X17260182Y-8434460D02*
X17269705Y-8424936D01*
X17269705Y-8424936D02*
X17269705Y-8443984D01*
X17269705Y-8320174D02*
X17279229Y-8329698D01*
X17279229Y-8329698D02*
X17269705Y-8339222D01*
X17269705Y-8339222D02*
X17260182Y-8329698D01*
X17260182Y-8329698D02*
X17269705Y-8320174D01*
X17269705Y-8320174D02*
X17269705Y-8339222D01*
D12*
X15605000Y-8756250D02*
X15637500Y-8788750D01*
X15637500Y-8756250D02*
X15605000Y-8788750D01*
D11*
X15936372Y-8663984D02*
X15955420Y-8663984D01*
X15955420Y-8663984D02*
X15974467Y-8673508D01*
X15974467Y-8673508D02*
X15983991Y-8683031D01*
X15983991Y-8683031D02*
X15993515Y-8702079D01*
X15993515Y-8702079D02*
X16003039Y-8740174D01*
X16003039Y-8740174D02*
X16003039Y-8787793D01*
X16003039Y-8787793D02*
X15993515Y-8825889D01*
X15993515Y-8825889D02*
X15983991Y-8844936D01*
X15983991Y-8844936D02*
X15974467Y-8854460D01*
X15974467Y-8854460D02*
X15955420Y-8863984D01*
X15955420Y-8863984D02*
X15936372Y-8863984D01*
X15936372Y-8863984D02*
X15917324Y-8854460D01*
X15917324Y-8854460D02*
X15907801Y-8844936D01*
X15907801Y-8844936D02*
X15898277Y-8825889D01*
X15898277Y-8825889D02*
X15888753Y-8787793D01*
X15888753Y-8787793D02*
X15888753Y-8740174D01*
X15888753Y-8740174D02*
X15898277Y-8702079D01*
X15898277Y-8702079D02*
X15907801Y-8683031D01*
X15907801Y-8683031D02*
X15917324Y-8673508D01*
X15917324Y-8673508D02*
X15936372Y-8663984D01*
X16088753Y-8844936D02*
X16098277Y-8854460D01*
X16098277Y-8854460D02*
X16088753Y-8863984D01*
X16088753Y-8863984D02*
X16079229Y-8854460D01*
X16079229Y-8854460D02*
X16088753Y-8844936D01*
X16088753Y-8844936D02*
X16088753Y-8863984D01*
X16164943Y-8663984D02*
X16288753Y-8663984D01*
X16288753Y-8663984D02*
X16222086Y-8740174D01*
X16222086Y-8740174D02*
X16250658Y-8740174D01*
X16250658Y-8740174D02*
X16269705Y-8749698D01*
X16269705Y-8749698D02*
X16279229Y-8759222D01*
X16279229Y-8759222D02*
X16288753Y-8778270D01*
X16288753Y-8778270D02*
X16288753Y-8825889D01*
X16288753Y-8825889D02*
X16279229Y-8844936D01*
X16279229Y-8844936D02*
X16269705Y-8854460D01*
X16269705Y-8854460D02*
X16250658Y-8863984D01*
X16250658Y-8863984D02*
X16193515Y-8863984D01*
X16193515Y-8863984D02*
X16174467Y-8854460D01*
X16174467Y-8854460D02*
X16164943Y-8844936D01*
X16364943Y-8683031D02*
X16374467Y-8673508D01*
X16374467Y-8673508D02*
X16393515Y-8663984D01*
X16393515Y-8663984D02*
X16441134Y-8663984D01*
X16441134Y-8663984D02*
X16460182Y-8673508D01*
X16460182Y-8673508D02*
X16469705Y-8683031D01*
X16469705Y-8683031D02*
X16479229Y-8702079D01*
X16479229Y-8702079D02*
X16479229Y-8721127D01*
X16479229Y-8721127D02*
X16469705Y-8749698D01*
X16469705Y-8749698D02*
X16355420Y-8863984D01*
X16355420Y-8863984D02*
X16479229Y-8863984D01*
X16660182Y-8663984D02*
X16564943Y-8663984D01*
X16564943Y-8663984D02*
X16555420Y-8759222D01*
X16555420Y-8759222D02*
X16564943Y-8749698D01*
X16564943Y-8749698D02*
X16583991Y-8740174D01*
X16583991Y-8740174D02*
X16631610Y-8740174D01*
X16631610Y-8740174D02*
X16650658Y-8749698D01*
X16650658Y-8749698D02*
X16660182Y-8759222D01*
X16660182Y-8759222D02*
X16669705Y-8778270D01*
X16669705Y-8778270D02*
X16669705Y-8825889D01*
X16669705Y-8825889D02*
X16660182Y-8844936D01*
X16660182Y-8844936D02*
X16650658Y-8854460D01*
X16650658Y-8854460D02*
X16631610Y-8863984D01*
X16631610Y-8863984D02*
X16583991Y-8863984D01*
X16583991Y-8863984D02*
X16564943Y-8854460D01*
X16564943Y-8854460D02*
X16555420Y-8844936D01*
X16755420Y-8863984D02*
X16755420Y-8730650D01*
X16755420Y-8749698D02*
X16764943Y-8740174D01*
X16764943Y-8740174D02*
X16783991Y-8730650D01*
X16783991Y-8730650D02*
X16812563Y-8730650D01*
X16812563Y-8730650D02*
X16831610Y-8740174D01*
X16831610Y-8740174D02*
X16841134Y-8759222D01*
X16841134Y-8759222D02*
X16841134Y-8863984D01*
X16841134Y-8759222D02*
X16850658Y-8740174D01*
X16850658Y-8740174D02*
X16869705Y-8730650D01*
X16869705Y-8730650D02*
X16898277Y-8730650D01*
X16898277Y-8730650D02*
X16917325Y-8740174D01*
X16917325Y-8740174D02*
X16926848Y-8759222D01*
X16926848Y-8759222D02*
X16926848Y-8863984D01*
X17022086Y-8863984D02*
X17022086Y-8730650D01*
X17022086Y-8749698D02*
X17031610Y-8740174D01*
X17031610Y-8740174D02*
X17050658Y-8730650D01*
X17050658Y-8730650D02*
X17079229Y-8730650D01*
X17079229Y-8730650D02*
X17098277Y-8740174D01*
X17098277Y-8740174D02*
X17107801Y-8759222D01*
X17107801Y-8759222D02*
X17107801Y-8863984D01*
X17107801Y-8759222D02*
X17117325Y-8740174D01*
X17117325Y-8740174D02*
X17136372Y-8730650D01*
X17136372Y-8730650D02*
X17164944Y-8730650D01*
X17164944Y-8730650D02*
X17183991Y-8740174D01*
X17183991Y-8740174D02*
X17193515Y-8759222D01*
X17193515Y-8759222D02*
X17193515Y-8863984D01*
X17583991Y-8654460D02*
X17412563Y-8911603D01*
X17841134Y-8663984D02*
X17860182Y-8663984D01*
X17860182Y-8663984D02*
X17879229Y-8673508D01*
X17879229Y-8673508D02*
X17888753Y-8683031D01*
X17888753Y-8683031D02*
X17898277Y-8702079D01*
X17898277Y-8702079D02*
X17907801Y-8740174D01*
X17907801Y-8740174D02*
X17907801Y-8787793D01*
X17907801Y-8787793D02*
X17898277Y-8825889D01*
X17898277Y-8825889D02*
X17888753Y-8844936D01*
X17888753Y-8844936D02*
X17879229Y-8854460D01*
X17879229Y-8854460D02*
X17860182Y-8863984D01*
X17860182Y-8863984D02*
X17841134Y-8863984D01*
X17841134Y-8863984D02*
X17822087Y-8854460D01*
X17822087Y-8854460D02*
X17812563Y-8844936D01*
X17812563Y-8844936D02*
X17803039Y-8825889D01*
X17803039Y-8825889D02*
X17793515Y-8787793D01*
X17793515Y-8787793D02*
X17793515Y-8740174D01*
X17793515Y-8740174D02*
X17803039Y-8702079D01*
X17803039Y-8702079D02*
X17812563Y-8683031D01*
X17812563Y-8683031D02*
X17822087Y-8673508D01*
X17822087Y-8673508D02*
X17841134Y-8663984D01*
X17993515Y-8844936D02*
X18003039Y-8854460D01*
X18003039Y-8854460D02*
X17993515Y-8863984D01*
X17993515Y-8863984D02*
X17983991Y-8854460D01*
X17983991Y-8854460D02*
X17993515Y-8844936D01*
X17993515Y-8844936D02*
X17993515Y-8863984D01*
X18126848Y-8663984D02*
X18145896Y-8663984D01*
X18145896Y-8663984D02*
X18164944Y-8673508D01*
X18164944Y-8673508D02*
X18174468Y-8683031D01*
X18174468Y-8683031D02*
X18183991Y-8702079D01*
X18183991Y-8702079D02*
X18193515Y-8740174D01*
X18193515Y-8740174D02*
X18193515Y-8787793D01*
X18193515Y-8787793D02*
X18183991Y-8825889D01*
X18183991Y-8825889D02*
X18174468Y-8844936D01*
X18174468Y-8844936D02*
X18164944Y-8854460D01*
X18164944Y-8854460D02*
X18145896Y-8863984D01*
X18145896Y-8863984D02*
X18126848Y-8863984D01*
X18126848Y-8863984D02*
X18107801Y-8854460D01*
X18107801Y-8854460D02*
X18098277Y-8844936D01*
X18098277Y-8844936D02*
X18088753Y-8825889D01*
X18088753Y-8825889D02*
X18079229Y-8787793D01*
X18079229Y-8787793D02*
X18079229Y-8740174D01*
X18079229Y-8740174D02*
X18088753Y-8702079D01*
X18088753Y-8702079D02*
X18098277Y-8683031D01*
X18098277Y-8683031D02*
X18107801Y-8673508D01*
X18107801Y-8673508D02*
X18126848Y-8663984D01*
X18383991Y-8863984D02*
X18269706Y-8863984D01*
X18326848Y-8863984D02*
X18326848Y-8663984D01*
X18326848Y-8663984D02*
X18307801Y-8692555D01*
X18307801Y-8692555D02*
X18288753Y-8711603D01*
X18288753Y-8711603D02*
X18269706Y-8721127D01*
X18460182Y-8683031D02*
X18469706Y-8673508D01*
X18469706Y-8673508D02*
X18488753Y-8663984D01*
X18488753Y-8663984D02*
X18536372Y-8663984D01*
X18536372Y-8663984D02*
X18555420Y-8673508D01*
X18555420Y-8673508D02*
X18564944Y-8683031D01*
X18564944Y-8683031D02*
X18574468Y-8702079D01*
X18574468Y-8702079D02*
X18574468Y-8721127D01*
X18574468Y-8721127D02*
X18564944Y-8749698D01*
X18564944Y-8749698D02*
X18450658Y-8863984D01*
X18450658Y-8863984D02*
X18574468Y-8863984D01*
X18688753Y-8749698D02*
X18669706Y-8740174D01*
X18669706Y-8740174D02*
X18660182Y-8730650D01*
X18660182Y-8730650D02*
X18650658Y-8711603D01*
X18650658Y-8711603D02*
X18650658Y-8702079D01*
X18650658Y-8702079D02*
X18660182Y-8683031D01*
X18660182Y-8683031D02*
X18669706Y-8673508D01*
X18669706Y-8673508D02*
X18688753Y-8663984D01*
X18688753Y-8663984D02*
X18726849Y-8663984D01*
X18726849Y-8663984D02*
X18745896Y-8673508D01*
X18745896Y-8673508D02*
X18755420Y-8683031D01*
X18755420Y-8683031D02*
X18764944Y-8702079D01*
X18764944Y-8702079D02*
X18764944Y-8711603D01*
X18764944Y-8711603D02*
X18755420Y-8730650D01*
X18755420Y-8730650D02*
X18745896Y-8740174D01*
X18745896Y-8740174D02*
X18726849Y-8749698D01*
X18726849Y-8749698D02*
X18688753Y-8749698D01*
X18688753Y-8749698D02*
X18669706Y-8759222D01*
X18669706Y-8759222D02*
X18660182Y-8768746D01*
X18660182Y-8768746D02*
X18650658Y-8787793D01*
X18650658Y-8787793D02*
X18650658Y-8825889D01*
X18650658Y-8825889D02*
X18660182Y-8844936D01*
X18660182Y-8844936D02*
X18669706Y-8854460D01*
X18669706Y-8854460D02*
X18688753Y-8863984D01*
X18688753Y-8863984D02*
X18726849Y-8863984D01*
X18726849Y-8863984D02*
X18745896Y-8854460D01*
X18745896Y-8854460D02*
X18755420Y-8844936D01*
X18755420Y-8844936D02*
X18764944Y-8825889D01*
X18764944Y-8825889D02*
X18764944Y-8787793D01*
X18764944Y-8787793D02*
X18755420Y-8768746D01*
X18755420Y-8768746D02*
X18745896Y-8759222D01*
X18745896Y-8759222D02*
X18726849Y-8749698D01*
X18841134Y-8663984D02*
X18841134Y-8702079D01*
X18917325Y-8663984D02*
X18917325Y-8702079D01*
X19212563Y-8940174D02*
X19203039Y-8930650D01*
X19203039Y-8930650D02*
X19183991Y-8902079D01*
X19183991Y-8902079D02*
X19174468Y-8883031D01*
X19174468Y-8883031D02*
X19164944Y-8854460D01*
X19164944Y-8854460D02*
X19155420Y-8806841D01*
X19155420Y-8806841D02*
X19155420Y-8768746D01*
X19155420Y-8768746D02*
X19164944Y-8721127D01*
X19164944Y-8721127D02*
X19174468Y-8692555D01*
X19174468Y-8692555D02*
X19183991Y-8673508D01*
X19183991Y-8673508D02*
X19203039Y-8644936D01*
X19203039Y-8644936D02*
X19212563Y-8635412D01*
X19279230Y-8683031D02*
X19288753Y-8673508D01*
X19288753Y-8673508D02*
X19307801Y-8663984D01*
X19307801Y-8663984D02*
X19355420Y-8663984D01*
X19355420Y-8663984D02*
X19374468Y-8673508D01*
X19374468Y-8673508D02*
X19383991Y-8683031D01*
X19383991Y-8683031D02*
X19393515Y-8702079D01*
X19393515Y-8702079D02*
X19393515Y-8721127D01*
X19393515Y-8721127D02*
X19383991Y-8749698D01*
X19383991Y-8749698D02*
X19269706Y-8863984D01*
X19269706Y-8863984D02*
X19393515Y-8863984D01*
X19631611Y-8863984D02*
X19631611Y-8663984D01*
X19717325Y-8863984D02*
X19717325Y-8759222D01*
X19717325Y-8759222D02*
X19707801Y-8740174D01*
X19707801Y-8740174D02*
X19688753Y-8730650D01*
X19688753Y-8730650D02*
X19660182Y-8730650D01*
X19660182Y-8730650D02*
X19641134Y-8740174D01*
X19641134Y-8740174D02*
X19631611Y-8749698D01*
X19841134Y-8863984D02*
X19822087Y-8854460D01*
X19822087Y-8854460D02*
X19812563Y-8844936D01*
X19812563Y-8844936D02*
X19803039Y-8825889D01*
X19803039Y-8825889D02*
X19803039Y-8768746D01*
X19803039Y-8768746D02*
X19812563Y-8749698D01*
X19812563Y-8749698D02*
X19822087Y-8740174D01*
X19822087Y-8740174D02*
X19841134Y-8730650D01*
X19841134Y-8730650D02*
X19869706Y-8730650D01*
X19869706Y-8730650D02*
X19888753Y-8740174D01*
X19888753Y-8740174D02*
X19898277Y-8749698D01*
X19898277Y-8749698D02*
X19907801Y-8768746D01*
X19907801Y-8768746D02*
X19907801Y-8825889D01*
X19907801Y-8825889D02*
X19898277Y-8844936D01*
X19898277Y-8844936D02*
X19888753Y-8854460D01*
X19888753Y-8854460D02*
X19869706Y-8863984D01*
X19869706Y-8863984D02*
X19841134Y-8863984D01*
X20022087Y-8863984D02*
X20003039Y-8854460D01*
X20003039Y-8854460D02*
X19993515Y-8835412D01*
X19993515Y-8835412D02*
X19993515Y-8663984D01*
X20174468Y-8854460D02*
X20155420Y-8863984D01*
X20155420Y-8863984D02*
X20117325Y-8863984D01*
X20117325Y-8863984D02*
X20098277Y-8854460D01*
X20098277Y-8854460D02*
X20088753Y-8835412D01*
X20088753Y-8835412D02*
X20088753Y-8759222D01*
X20088753Y-8759222D02*
X20098277Y-8740174D01*
X20098277Y-8740174D02*
X20117325Y-8730650D01*
X20117325Y-8730650D02*
X20155420Y-8730650D01*
X20155420Y-8730650D02*
X20174468Y-8740174D01*
X20174468Y-8740174D02*
X20183992Y-8759222D01*
X20183992Y-8759222D02*
X20183992Y-8778270D01*
X20183992Y-8778270D02*
X20088753Y-8797317D01*
X20260182Y-8854460D02*
X20279230Y-8863984D01*
X20279230Y-8863984D02*
X20317325Y-8863984D01*
X20317325Y-8863984D02*
X20336373Y-8854460D01*
X20336373Y-8854460D02*
X20345896Y-8835412D01*
X20345896Y-8835412D02*
X20345896Y-8825889D01*
X20345896Y-8825889D02*
X20336373Y-8806841D01*
X20336373Y-8806841D02*
X20317325Y-8797317D01*
X20317325Y-8797317D02*
X20288753Y-8797317D01*
X20288753Y-8797317D02*
X20269706Y-8787793D01*
X20269706Y-8787793D02*
X20260182Y-8768746D01*
X20260182Y-8768746D02*
X20260182Y-8759222D01*
X20260182Y-8759222D02*
X20269706Y-8740174D01*
X20269706Y-8740174D02*
X20288753Y-8730650D01*
X20288753Y-8730650D02*
X20317325Y-8730650D01*
X20317325Y-8730650D02*
X20336373Y-8740174D01*
X20412563Y-8940174D02*
X20422087Y-8930650D01*
X20422087Y-8930650D02*
X20441134Y-8902079D01*
X20441134Y-8902079D02*
X20450658Y-8883031D01*
X20450658Y-8883031D02*
X20460182Y-8854460D01*
X20460182Y-8854460D02*
X20469706Y-8806841D01*
X20469706Y-8806841D02*
X20469706Y-8768746D01*
X20469706Y-8768746D02*
X20460182Y-8721127D01*
X20460182Y-8721127D02*
X20450658Y-8692555D01*
X20450658Y-8692555D02*
X20441134Y-8673508D01*
X20441134Y-8673508D02*
X20422087Y-8644936D01*
X20422087Y-8644936D02*
X20412563Y-8635412D01*
X20774468Y-8940174D02*
X20764944Y-8930650D01*
X20764944Y-8930650D02*
X20745896Y-8902079D01*
X20745896Y-8902079D02*
X20736373Y-8883031D01*
X20736373Y-8883031D02*
X20726849Y-8854460D01*
X20726849Y-8854460D02*
X20717325Y-8806841D01*
X20717325Y-8806841D02*
X20717325Y-8768746D01*
X20717325Y-8768746D02*
X20726849Y-8721127D01*
X20726849Y-8721127D02*
X20736373Y-8692555D01*
X20736373Y-8692555D02*
X20745896Y-8673508D01*
X20745896Y-8673508D02*
X20764944Y-8644936D01*
X20764944Y-8644936D02*
X20774468Y-8635412D01*
X20850658Y-8730650D02*
X20850658Y-8863984D01*
X20850658Y-8749698D02*
X20860182Y-8740174D01*
X20860182Y-8740174D02*
X20879230Y-8730650D01*
X20879230Y-8730650D02*
X20907801Y-8730650D01*
X20907801Y-8730650D02*
X20926849Y-8740174D01*
X20926849Y-8740174D02*
X20936373Y-8759222D01*
X20936373Y-8759222D02*
X20936373Y-8863984D01*
X21060182Y-8863984D02*
X21041134Y-8854460D01*
X21041134Y-8854460D02*
X21031611Y-8844936D01*
X21031611Y-8844936D02*
X21022087Y-8825889D01*
X21022087Y-8825889D02*
X21022087Y-8768746D01*
X21022087Y-8768746D02*
X21031611Y-8749698D01*
X21031611Y-8749698D02*
X21041134Y-8740174D01*
X21041134Y-8740174D02*
X21060182Y-8730650D01*
X21060182Y-8730650D02*
X21088754Y-8730650D01*
X21088754Y-8730650D02*
X21107801Y-8740174D01*
X21107801Y-8740174D02*
X21117325Y-8749698D01*
X21117325Y-8749698D02*
X21126849Y-8768746D01*
X21126849Y-8768746D02*
X21126849Y-8825889D01*
X21126849Y-8825889D02*
X21117325Y-8844936D01*
X21117325Y-8844936D02*
X21107801Y-8854460D01*
X21107801Y-8854460D02*
X21088754Y-8863984D01*
X21088754Y-8863984D02*
X21060182Y-8863984D01*
X21183992Y-8730650D02*
X21260182Y-8730650D01*
X21212563Y-8663984D02*
X21212563Y-8835412D01*
X21212563Y-8835412D02*
X21222087Y-8854460D01*
X21222087Y-8854460D02*
X21241134Y-8863984D01*
X21241134Y-8863984D02*
X21260182Y-8863984D01*
X21479230Y-8730650D02*
X21479230Y-8930650D01*
X21479230Y-8740174D02*
X21498277Y-8730650D01*
X21498277Y-8730650D02*
X21536373Y-8730650D01*
X21536373Y-8730650D02*
X21555420Y-8740174D01*
X21555420Y-8740174D02*
X21564944Y-8749698D01*
X21564944Y-8749698D02*
X21574468Y-8768746D01*
X21574468Y-8768746D02*
X21574468Y-8825889D01*
X21574468Y-8825889D02*
X21564944Y-8844936D01*
X21564944Y-8844936D02*
X21555420Y-8854460D01*
X21555420Y-8854460D02*
X21536373Y-8863984D01*
X21536373Y-8863984D02*
X21498277Y-8863984D01*
X21498277Y-8863984D02*
X21479230Y-8854460D01*
X21688754Y-8863984D02*
X21669706Y-8854460D01*
X21669706Y-8854460D02*
X21660182Y-8835412D01*
X21660182Y-8835412D02*
X21660182Y-8663984D01*
X21850658Y-8863984D02*
X21850658Y-8759222D01*
X21850658Y-8759222D02*
X21841135Y-8740174D01*
X21841135Y-8740174D02*
X21822087Y-8730650D01*
X21822087Y-8730650D02*
X21783992Y-8730650D01*
X21783992Y-8730650D02*
X21764944Y-8740174D01*
X21850658Y-8854460D02*
X21831611Y-8863984D01*
X21831611Y-8863984D02*
X21783992Y-8863984D01*
X21783992Y-8863984D02*
X21764944Y-8854460D01*
X21764944Y-8854460D02*
X21755420Y-8835412D01*
X21755420Y-8835412D02*
X21755420Y-8816365D01*
X21755420Y-8816365D02*
X21764944Y-8797317D01*
X21764944Y-8797317D02*
X21783992Y-8787793D01*
X21783992Y-8787793D02*
X21831611Y-8787793D01*
X21831611Y-8787793D02*
X21850658Y-8778270D01*
X21917325Y-8730650D02*
X21993515Y-8730650D01*
X21945896Y-8663984D02*
X21945896Y-8835412D01*
X21945896Y-8835412D02*
X21955420Y-8854460D01*
X21955420Y-8854460D02*
X21974468Y-8863984D01*
X21974468Y-8863984D02*
X21993515Y-8863984D01*
X22136373Y-8854460D02*
X22117325Y-8863984D01*
X22117325Y-8863984D02*
X22079230Y-8863984D01*
X22079230Y-8863984D02*
X22060182Y-8854460D01*
X22060182Y-8854460D02*
X22050658Y-8835412D01*
X22050658Y-8835412D02*
X22050658Y-8759222D01*
X22050658Y-8759222D02*
X22060182Y-8740174D01*
X22060182Y-8740174D02*
X22079230Y-8730650D01*
X22079230Y-8730650D02*
X22117325Y-8730650D01*
X22117325Y-8730650D02*
X22136373Y-8740174D01*
X22136373Y-8740174D02*
X22145896Y-8759222D01*
X22145896Y-8759222D02*
X22145896Y-8778270D01*
X22145896Y-8778270D02*
X22050658Y-8797317D01*
X22317325Y-8863984D02*
X22317325Y-8663984D01*
X22317325Y-8854460D02*
X22298277Y-8863984D01*
X22298277Y-8863984D02*
X22260182Y-8863984D01*
X22260182Y-8863984D02*
X22241135Y-8854460D01*
X22241135Y-8854460D02*
X22231611Y-8844936D01*
X22231611Y-8844936D02*
X22222087Y-8825889D01*
X22222087Y-8825889D02*
X22222087Y-8768746D01*
X22222087Y-8768746D02*
X22231611Y-8749698D01*
X22231611Y-8749698D02*
X22241135Y-8740174D01*
X22241135Y-8740174D02*
X22260182Y-8730650D01*
X22260182Y-8730650D02*
X22298277Y-8730650D01*
X22298277Y-8730650D02*
X22317325Y-8740174D01*
X22393515Y-8940174D02*
X22403039Y-8930650D01*
X22403039Y-8930650D02*
X22422087Y-8902079D01*
X22422087Y-8902079D02*
X22431611Y-8883031D01*
X22431611Y-8883031D02*
X22441134Y-8854460D01*
X22441134Y-8854460D02*
X22450658Y-8806841D01*
X22450658Y-8806841D02*
X22450658Y-8768746D01*
X22450658Y-8768746D02*
X22441134Y-8721127D01*
X22441134Y-8721127D02*
X22431611Y-8692555D01*
X22431611Y-8692555D02*
X22422087Y-8673508D01*
X22422087Y-8673508D02*
X22403039Y-8644936D01*
X22403039Y-8644936D02*
X22393515Y-8635412D01*
D12*
X15637500Y-9036500D02*
G75*
G02*
X15562500Y-9036500I-37500J0D01*
G01*
X15562500Y-9036500D02*
G75*
G02*
X15637500Y-9036500I37500J0D01*
G01*
D11*
X15936372Y-8927984D02*
X15955420Y-8927984D01*
X15955420Y-8927984D02*
X15974467Y-8937508D01*
X15974467Y-8937508D02*
X15983991Y-8947031D01*
X15983991Y-8947031D02*
X15993515Y-8966079D01*
X15993515Y-8966079D02*
X16003039Y-9004174D01*
X16003039Y-9004174D02*
X16003039Y-9051793D01*
X16003039Y-9051793D02*
X15993515Y-9089889D01*
X15993515Y-9089889D02*
X15983991Y-9108936D01*
X15983991Y-9108936D02*
X15974467Y-9118460D01*
X15974467Y-9118460D02*
X15955420Y-9127984D01*
X15955420Y-9127984D02*
X15936372Y-9127984D01*
X15936372Y-9127984D02*
X15917324Y-9118460D01*
X15917324Y-9118460D02*
X15907801Y-9108936D01*
X15907801Y-9108936D02*
X15898277Y-9089889D01*
X15898277Y-9089889D02*
X15888753Y-9051793D01*
X15888753Y-9051793D02*
X15888753Y-9004174D01*
X15888753Y-9004174D02*
X15898277Y-8966079D01*
X15898277Y-8966079D02*
X15907801Y-8947031D01*
X15907801Y-8947031D02*
X15917324Y-8937508D01*
X15917324Y-8937508D02*
X15936372Y-8927984D01*
X16088753Y-9108936D02*
X16098277Y-9118460D01*
X16098277Y-9118460D02*
X16088753Y-9127984D01*
X16088753Y-9127984D02*
X16079229Y-9118460D01*
X16079229Y-9118460D02*
X16088753Y-9108936D01*
X16088753Y-9108936D02*
X16088753Y-9127984D01*
X16164943Y-8927984D02*
X16298277Y-8927984D01*
X16298277Y-8927984D02*
X16212562Y-9127984D01*
X16469705Y-8927984D02*
X16374467Y-8927984D01*
X16374467Y-8927984D02*
X16364943Y-9023222D01*
X16364943Y-9023222D02*
X16374467Y-9013698D01*
X16374467Y-9013698D02*
X16393515Y-9004174D01*
X16393515Y-9004174D02*
X16441134Y-9004174D01*
X16441134Y-9004174D02*
X16460182Y-9013698D01*
X16460182Y-9013698D02*
X16469705Y-9023222D01*
X16469705Y-9023222D02*
X16479229Y-9042270D01*
X16479229Y-9042270D02*
X16479229Y-9089889D01*
X16479229Y-9089889D02*
X16469705Y-9108936D01*
X16469705Y-9108936D02*
X16460182Y-9118460D01*
X16460182Y-9118460D02*
X16441134Y-9127984D01*
X16441134Y-9127984D02*
X16393515Y-9127984D01*
X16393515Y-9127984D02*
X16374467Y-9118460D01*
X16374467Y-9118460D02*
X16364943Y-9108936D01*
X16603039Y-8927984D02*
X16622086Y-8927984D01*
X16622086Y-8927984D02*
X16641134Y-8937508D01*
X16641134Y-8937508D02*
X16650658Y-8947031D01*
X16650658Y-8947031D02*
X16660182Y-8966079D01*
X16660182Y-8966079D02*
X16669705Y-9004174D01*
X16669705Y-9004174D02*
X16669705Y-9051793D01*
X16669705Y-9051793D02*
X16660182Y-9089889D01*
X16660182Y-9089889D02*
X16650658Y-9108936D01*
X16650658Y-9108936D02*
X16641134Y-9118460D01*
X16641134Y-9118460D02*
X16622086Y-9127984D01*
X16622086Y-9127984D02*
X16603039Y-9127984D01*
X16603039Y-9127984D02*
X16583991Y-9118460D01*
X16583991Y-9118460D02*
X16574467Y-9108936D01*
X16574467Y-9108936D02*
X16564943Y-9089889D01*
X16564943Y-9089889D02*
X16555420Y-9051793D01*
X16555420Y-9051793D02*
X16555420Y-9004174D01*
X16555420Y-9004174D02*
X16564943Y-8966079D01*
X16564943Y-8966079D02*
X16574467Y-8947031D01*
X16574467Y-8947031D02*
X16583991Y-8937508D01*
X16583991Y-8937508D02*
X16603039Y-8927984D01*
X16755420Y-9127984D02*
X16755420Y-8994650D01*
X16755420Y-9013698D02*
X16764943Y-9004174D01*
X16764943Y-9004174D02*
X16783991Y-8994650D01*
X16783991Y-8994650D02*
X16812563Y-8994650D01*
X16812563Y-8994650D02*
X16831610Y-9004174D01*
X16831610Y-9004174D02*
X16841134Y-9023222D01*
X16841134Y-9023222D02*
X16841134Y-9127984D01*
X16841134Y-9023222D02*
X16850658Y-9004174D01*
X16850658Y-9004174D02*
X16869705Y-8994650D01*
X16869705Y-8994650D02*
X16898277Y-8994650D01*
X16898277Y-8994650D02*
X16917325Y-9004174D01*
X16917325Y-9004174D02*
X16926848Y-9023222D01*
X16926848Y-9023222D02*
X16926848Y-9127984D01*
X17022086Y-9127984D02*
X17022086Y-8994650D01*
X17022086Y-9013698D02*
X17031610Y-9004174D01*
X17031610Y-9004174D02*
X17050658Y-8994650D01*
X17050658Y-8994650D02*
X17079229Y-8994650D01*
X17079229Y-8994650D02*
X17098277Y-9004174D01*
X17098277Y-9004174D02*
X17107801Y-9023222D01*
X17107801Y-9023222D02*
X17107801Y-9127984D01*
X17107801Y-9023222D02*
X17117325Y-9004174D01*
X17117325Y-9004174D02*
X17136372Y-8994650D01*
X17136372Y-8994650D02*
X17164944Y-8994650D01*
X17164944Y-8994650D02*
X17183991Y-9004174D01*
X17183991Y-9004174D02*
X17193515Y-9023222D01*
X17193515Y-9023222D02*
X17193515Y-9127984D01*
X17583991Y-8918460D02*
X17412563Y-9175603D01*
X17841134Y-8927984D02*
X17860182Y-8927984D01*
X17860182Y-8927984D02*
X17879229Y-8937508D01*
X17879229Y-8937508D02*
X17888753Y-8947031D01*
X17888753Y-8947031D02*
X17898277Y-8966079D01*
X17898277Y-8966079D02*
X17907801Y-9004174D01*
X17907801Y-9004174D02*
X17907801Y-9051793D01*
X17907801Y-9051793D02*
X17898277Y-9089889D01*
X17898277Y-9089889D02*
X17888753Y-9108936D01*
X17888753Y-9108936D02*
X17879229Y-9118460D01*
X17879229Y-9118460D02*
X17860182Y-9127984D01*
X17860182Y-9127984D02*
X17841134Y-9127984D01*
X17841134Y-9127984D02*
X17822087Y-9118460D01*
X17822087Y-9118460D02*
X17812563Y-9108936D01*
X17812563Y-9108936D02*
X17803039Y-9089889D01*
X17803039Y-9089889D02*
X17793515Y-9051793D01*
X17793515Y-9051793D02*
X17793515Y-9004174D01*
X17793515Y-9004174D02*
X17803039Y-8966079D01*
X17803039Y-8966079D02*
X17812563Y-8947031D01*
X17812563Y-8947031D02*
X17822087Y-8937508D01*
X17822087Y-8937508D02*
X17841134Y-8927984D01*
X17993515Y-9108936D02*
X18003039Y-9118460D01*
X18003039Y-9118460D02*
X17993515Y-9127984D01*
X17993515Y-9127984D02*
X17983991Y-9118460D01*
X17983991Y-9118460D02*
X17993515Y-9108936D01*
X17993515Y-9108936D02*
X17993515Y-9127984D01*
X18126848Y-8927984D02*
X18145896Y-8927984D01*
X18145896Y-8927984D02*
X18164944Y-8937508D01*
X18164944Y-8937508D02*
X18174468Y-8947031D01*
X18174468Y-8947031D02*
X18183991Y-8966079D01*
X18183991Y-8966079D02*
X18193515Y-9004174D01*
X18193515Y-9004174D02*
X18193515Y-9051793D01*
X18193515Y-9051793D02*
X18183991Y-9089889D01*
X18183991Y-9089889D02*
X18174468Y-9108936D01*
X18174468Y-9108936D02*
X18164944Y-9118460D01*
X18164944Y-9118460D02*
X18145896Y-9127984D01*
X18145896Y-9127984D02*
X18126848Y-9127984D01*
X18126848Y-9127984D02*
X18107801Y-9118460D01*
X18107801Y-9118460D02*
X18098277Y-9108936D01*
X18098277Y-9108936D02*
X18088753Y-9089889D01*
X18088753Y-9089889D02*
X18079229Y-9051793D01*
X18079229Y-9051793D02*
X18079229Y-9004174D01*
X18079229Y-9004174D02*
X18088753Y-8966079D01*
X18088753Y-8966079D02*
X18098277Y-8947031D01*
X18098277Y-8947031D02*
X18107801Y-8937508D01*
X18107801Y-8937508D02*
X18126848Y-8927984D01*
X18269706Y-8947031D02*
X18279229Y-8937508D01*
X18279229Y-8937508D02*
X18298277Y-8927984D01*
X18298277Y-8927984D02*
X18345896Y-8927984D01*
X18345896Y-8927984D02*
X18364944Y-8937508D01*
X18364944Y-8937508D02*
X18374468Y-8947031D01*
X18374468Y-8947031D02*
X18383991Y-8966079D01*
X18383991Y-8966079D02*
X18383991Y-8985127D01*
X18383991Y-8985127D02*
X18374468Y-9013698D01*
X18374468Y-9013698D02*
X18260182Y-9127984D01*
X18260182Y-9127984D02*
X18383991Y-9127984D01*
X18479229Y-9127984D02*
X18517325Y-9127984D01*
X18517325Y-9127984D02*
X18536372Y-9118460D01*
X18536372Y-9118460D02*
X18545896Y-9108936D01*
X18545896Y-9108936D02*
X18564944Y-9080365D01*
X18564944Y-9080365D02*
X18574468Y-9042270D01*
X18574468Y-9042270D02*
X18574468Y-8966079D01*
X18574468Y-8966079D02*
X18564944Y-8947031D01*
X18564944Y-8947031D02*
X18555420Y-8937508D01*
X18555420Y-8937508D02*
X18536372Y-8927984D01*
X18536372Y-8927984D02*
X18498277Y-8927984D01*
X18498277Y-8927984D02*
X18479229Y-8937508D01*
X18479229Y-8937508D02*
X18469706Y-8947031D01*
X18469706Y-8947031D02*
X18460182Y-8966079D01*
X18460182Y-8966079D02*
X18460182Y-9013698D01*
X18460182Y-9013698D02*
X18469706Y-9032746D01*
X18469706Y-9032746D02*
X18479229Y-9042270D01*
X18479229Y-9042270D02*
X18498277Y-9051793D01*
X18498277Y-9051793D02*
X18536372Y-9051793D01*
X18536372Y-9051793D02*
X18555420Y-9042270D01*
X18555420Y-9042270D02*
X18564944Y-9032746D01*
X18564944Y-9032746D02*
X18574468Y-9013698D01*
X18755420Y-8927984D02*
X18660182Y-8927984D01*
X18660182Y-8927984D02*
X18650658Y-9023222D01*
X18650658Y-9023222D02*
X18660182Y-9013698D01*
X18660182Y-9013698D02*
X18679229Y-9004174D01*
X18679229Y-9004174D02*
X18726849Y-9004174D01*
X18726849Y-9004174D02*
X18745896Y-9013698D01*
X18745896Y-9013698D02*
X18755420Y-9023222D01*
X18755420Y-9023222D02*
X18764944Y-9042270D01*
X18764944Y-9042270D02*
X18764944Y-9089889D01*
X18764944Y-9089889D02*
X18755420Y-9108936D01*
X18755420Y-9108936D02*
X18745896Y-9118460D01*
X18745896Y-9118460D02*
X18726849Y-9127984D01*
X18726849Y-9127984D02*
X18679229Y-9127984D01*
X18679229Y-9127984D02*
X18660182Y-9118460D01*
X18660182Y-9118460D02*
X18650658Y-9108936D01*
X18841134Y-8927984D02*
X18841134Y-8966079D01*
X18917325Y-8927984D02*
X18917325Y-8966079D01*
X19212563Y-9204174D02*
X19203039Y-9194650D01*
X19203039Y-9194650D02*
X19183991Y-9166079D01*
X19183991Y-9166079D02*
X19174468Y-9147031D01*
X19174468Y-9147031D02*
X19164944Y-9118460D01*
X19164944Y-9118460D02*
X19155420Y-9070841D01*
X19155420Y-9070841D02*
X19155420Y-9032746D01*
X19155420Y-9032746D02*
X19164944Y-8985127D01*
X19164944Y-8985127D02*
X19174468Y-8956555D01*
X19174468Y-8956555D02*
X19183991Y-8937508D01*
X19183991Y-8937508D02*
X19203039Y-8908936D01*
X19203039Y-8908936D02*
X19212563Y-8899412D01*
X19279230Y-8947031D02*
X19288753Y-8937508D01*
X19288753Y-8937508D02*
X19307801Y-8927984D01*
X19307801Y-8927984D02*
X19355420Y-8927984D01*
X19355420Y-8927984D02*
X19374468Y-8937508D01*
X19374468Y-8937508D02*
X19383991Y-8947031D01*
X19383991Y-8947031D02*
X19393515Y-8966079D01*
X19393515Y-8966079D02*
X19393515Y-8985127D01*
X19393515Y-8985127D02*
X19383991Y-9013698D01*
X19383991Y-9013698D02*
X19269706Y-9127984D01*
X19269706Y-9127984D02*
X19393515Y-9127984D01*
X19631611Y-9127984D02*
X19631611Y-8927984D01*
X19717325Y-9127984D02*
X19717325Y-9023222D01*
X19717325Y-9023222D02*
X19707801Y-9004174D01*
X19707801Y-9004174D02*
X19688753Y-8994650D01*
X19688753Y-8994650D02*
X19660182Y-8994650D01*
X19660182Y-8994650D02*
X19641134Y-9004174D01*
X19641134Y-9004174D02*
X19631611Y-9013698D01*
X19841134Y-9127984D02*
X19822087Y-9118460D01*
X19822087Y-9118460D02*
X19812563Y-9108936D01*
X19812563Y-9108936D02*
X19803039Y-9089889D01*
X19803039Y-9089889D02*
X19803039Y-9032746D01*
X19803039Y-9032746D02*
X19812563Y-9013698D01*
X19812563Y-9013698D02*
X19822087Y-9004174D01*
X19822087Y-9004174D02*
X19841134Y-8994650D01*
X19841134Y-8994650D02*
X19869706Y-8994650D01*
X19869706Y-8994650D02*
X19888753Y-9004174D01*
X19888753Y-9004174D02*
X19898277Y-9013698D01*
X19898277Y-9013698D02*
X19907801Y-9032746D01*
X19907801Y-9032746D02*
X19907801Y-9089889D01*
X19907801Y-9089889D02*
X19898277Y-9108936D01*
X19898277Y-9108936D02*
X19888753Y-9118460D01*
X19888753Y-9118460D02*
X19869706Y-9127984D01*
X19869706Y-9127984D02*
X19841134Y-9127984D01*
X20022087Y-9127984D02*
X20003039Y-9118460D01*
X20003039Y-9118460D02*
X19993515Y-9099412D01*
X19993515Y-9099412D02*
X19993515Y-8927984D01*
X20174468Y-9118460D02*
X20155420Y-9127984D01*
X20155420Y-9127984D02*
X20117325Y-9127984D01*
X20117325Y-9127984D02*
X20098277Y-9118460D01*
X20098277Y-9118460D02*
X20088753Y-9099412D01*
X20088753Y-9099412D02*
X20088753Y-9023222D01*
X20088753Y-9023222D02*
X20098277Y-9004174D01*
X20098277Y-9004174D02*
X20117325Y-8994650D01*
X20117325Y-8994650D02*
X20155420Y-8994650D01*
X20155420Y-8994650D02*
X20174468Y-9004174D01*
X20174468Y-9004174D02*
X20183992Y-9023222D01*
X20183992Y-9023222D02*
X20183992Y-9042270D01*
X20183992Y-9042270D02*
X20088753Y-9061317D01*
X20260182Y-9118460D02*
X20279230Y-9127984D01*
X20279230Y-9127984D02*
X20317325Y-9127984D01*
X20317325Y-9127984D02*
X20336373Y-9118460D01*
X20336373Y-9118460D02*
X20345896Y-9099412D01*
X20345896Y-9099412D02*
X20345896Y-9089889D01*
X20345896Y-9089889D02*
X20336373Y-9070841D01*
X20336373Y-9070841D02*
X20317325Y-9061317D01*
X20317325Y-9061317D02*
X20288753Y-9061317D01*
X20288753Y-9061317D02*
X20269706Y-9051793D01*
X20269706Y-9051793D02*
X20260182Y-9032746D01*
X20260182Y-9032746D02*
X20260182Y-9023222D01*
X20260182Y-9023222D02*
X20269706Y-9004174D01*
X20269706Y-9004174D02*
X20288753Y-8994650D01*
X20288753Y-8994650D02*
X20317325Y-8994650D01*
X20317325Y-8994650D02*
X20336373Y-9004174D01*
X20412563Y-9204174D02*
X20422087Y-9194650D01*
X20422087Y-9194650D02*
X20441134Y-9166079D01*
X20441134Y-9166079D02*
X20450658Y-9147031D01*
X20450658Y-9147031D02*
X20460182Y-9118460D01*
X20460182Y-9118460D02*
X20469706Y-9070841D01*
X20469706Y-9070841D02*
X20469706Y-9032746D01*
X20469706Y-9032746D02*
X20460182Y-8985127D01*
X20460182Y-8985127D02*
X20450658Y-8956555D01*
X20450658Y-8956555D02*
X20441134Y-8937508D01*
X20441134Y-8937508D02*
X20422087Y-8908936D01*
X20422087Y-8908936D02*
X20412563Y-8899412D01*
X20774468Y-9204174D02*
X20764944Y-9194650D01*
X20764944Y-9194650D02*
X20745896Y-9166079D01*
X20745896Y-9166079D02*
X20736373Y-9147031D01*
X20736373Y-9147031D02*
X20726849Y-9118460D01*
X20726849Y-9118460D02*
X20717325Y-9070841D01*
X20717325Y-9070841D02*
X20717325Y-9032746D01*
X20717325Y-9032746D02*
X20726849Y-8985127D01*
X20726849Y-8985127D02*
X20736373Y-8956555D01*
X20736373Y-8956555D02*
X20745896Y-8937508D01*
X20745896Y-8937508D02*
X20764944Y-8908936D01*
X20764944Y-8908936D02*
X20774468Y-8899412D01*
X20850658Y-8994650D02*
X20850658Y-9127984D01*
X20850658Y-9013698D02*
X20860182Y-9004174D01*
X20860182Y-9004174D02*
X20879230Y-8994650D01*
X20879230Y-8994650D02*
X20907801Y-8994650D01*
X20907801Y-8994650D02*
X20926849Y-9004174D01*
X20926849Y-9004174D02*
X20936373Y-9023222D01*
X20936373Y-9023222D02*
X20936373Y-9127984D01*
X21060182Y-9127984D02*
X21041134Y-9118460D01*
X21041134Y-9118460D02*
X21031611Y-9108936D01*
X21031611Y-9108936D02*
X21022087Y-9089889D01*
X21022087Y-9089889D02*
X21022087Y-9032746D01*
X21022087Y-9032746D02*
X21031611Y-9013698D01*
X21031611Y-9013698D02*
X21041134Y-9004174D01*
X21041134Y-9004174D02*
X21060182Y-8994650D01*
X21060182Y-8994650D02*
X21088754Y-8994650D01*
X21088754Y-8994650D02*
X21107801Y-9004174D01*
X21107801Y-9004174D02*
X21117325Y-9013698D01*
X21117325Y-9013698D02*
X21126849Y-9032746D01*
X21126849Y-9032746D02*
X21126849Y-9089889D01*
X21126849Y-9089889D02*
X21117325Y-9108936D01*
X21117325Y-9108936D02*
X21107801Y-9118460D01*
X21107801Y-9118460D02*
X21088754Y-9127984D01*
X21088754Y-9127984D02*
X21060182Y-9127984D01*
X21183992Y-8994650D02*
X21260182Y-8994650D01*
X21212563Y-8927984D02*
X21212563Y-9099412D01*
X21212563Y-9099412D02*
X21222087Y-9118460D01*
X21222087Y-9118460D02*
X21241134Y-9127984D01*
X21241134Y-9127984D02*
X21260182Y-9127984D01*
X21479230Y-8994650D02*
X21479230Y-9194650D01*
X21479230Y-9004174D02*
X21498277Y-8994650D01*
X21498277Y-8994650D02*
X21536373Y-8994650D01*
X21536373Y-8994650D02*
X21555420Y-9004174D01*
X21555420Y-9004174D02*
X21564944Y-9013698D01*
X21564944Y-9013698D02*
X21574468Y-9032746D01*
X21574468Y-9032746D02*
X21574468Y-9089889D01*
X21574468Y-9089889D02*
X21564944Y-9108936D01*
X21564944Y-9108936D02*
X21555420Y-9118460D01*
X21555420Y-9118460D02*
X21536373Y-9127984D01*
X21536373Y-9127984D02*
X21498277Y-9127984D01*
X21498277Y-9127984D02*
X21479230Y-9118460D01*
X21688754Y-9127984D02*
X21669706Y-9118460D01*
X21669706Y-9118460D02*
X21660182Y-9099412D01*
X21660182Y-9099412D02*
X21660182Y-8927984D01*
X21850658Y-9127984D02*
X21850658Y-9023222D01*
X21850658Y-9023222D02*
X21841135Y-9004174D01*
X21841135Y-9004174D02*
X21822087Y-8994650D01*
X21822087Y-8994650D02*
X21783992Y-8994650D01*
X21783992Y-8994650D02*
X21764944Y-9004174D01*
X21850658Y-9118460D02*
X21831611Y-9127984D01*
X21831611Y-9127984D02*
X21783992Y-9127984D01*
X21783992Y-9127984D02*
X21764944Y-9118460D01*
X21764944Y-9118460D02*
X21755420Y-9099412D01*
X21755420Y-9099412D02*
X21755420Y-9080365D01*
X21755420Y-9080365D02*
X21764944Y-9061317D01*
X21764944Y-9061317D02*
X21783992Y-9051793D01*
X21783992Y-9051793D02*
X21831611Y-9051793D01*
X21831611Y-9051793D02*
X21850658Y-9042270D01*
X21917325Y-8994650D02*
X21993515Y-8994650D01*
X21945896Y-8927984D02*
X21945896Y-9099412D01*
X21945896Y-9099412D02*
X21955420Y-9118460D01*
X21955420Y-9118460D02*
X21974468Y-9127984D01*
X21974468Y-9127984D02*
X21993515Y-9127984D01*
X22136373Y-9118460D02*
X22117325Y-9127984D01*
X22117325Y-9127984D02*
X22079230Y-9127984D01*
X22079230Y-9127984D02*
X22060182Y-9118460D01*
X22060182Y-9118460D02*
X22050658Y-9099412D01*
X22050658Y-9099412D02*
X22050658Y-9023222D01*
X22050658Y-9023222D02*
X22060182Y-9004174D01*
X22060182Y-9004174D02*
X22079230Y-8994650D01*
X22079230Y-8994650D02*
X22117325Y-8994650D01*
X22117325Y-8994650D02*
X22136373Y-9004174D01*
X22136373Y-9004174D02*
X22145896Y-9023222D01*
X22145896Y-9023222D02*
X22145896Y-9042270D01*
X22145896Y-9042270D02*
X22050658Y-9061317D01*
X22317325Y-9127984D02*
X22317325Y-8927984D01*
X22317325Y-9118460D02*
X22298277Y-9127984D01*
X22298277Y-9127984D02*
X22260182Y-9127984D01*
X22260182Y-9127984D02*
X22241135Y-9118460D01*
X22241135Y-9118460D02*
X22231611Y-9108936D01*
X22231611Y-9108936D02*
X22222087Y-9089889D01*
X22222087Y-9089889D02*
X22222087Y-9032746D01*
X22222087Y-9032746D02*
X22231611Y-9013698D01*
X22231611Y-9013698D02*
X22241135Y-9004174D01*
X22241135Y-9004174D02*
X22260182Y-8994650D01*
X22260182Y-8994650D02*
X22298277Y-8994650D01*
X22298277Y-8994650D02*
X22317325Y-9004174D01*
X22393515Y-9204174D02*
X22403039Y-9194650D01*
X22403039Y-9194650D02*
X22422087Y-9166079D01*
X22422087Y-9166079D02*
X22431611Y-9147031D01*
X22431611Y-9147031D02*
X22441134Y-9118460D01*
X22441134Y-9118460D02*
X22450658Y-9070841D01*
X22450658Y-9070841D02*
X22450658Y-9032746D01*
X22450658Y-9032746D02*
X22441134Y-8985127D01*
X22441134Y-8985127D02*
X22431611Y-8956555D01*
X22431611Y-8956555D02*
X22422087Y-8937508D01*
X22422087Y-8937508D02*
X22403039Y-8908936D01*
X22403039Y-8908936D02*
X22393515Y-8899412D01*
X15537500Y-9200500D02*
X15537500Y-9400500D01*
X15437500Y-9300500D02*
X15637500Y-9300500D01*
X15888753Y-9211031D02*
X15898277Y-9201508D01*
X15898277Y-9201508D02*
X15917324Y-9191984D01*
X15917324Y-9191984D02*
X15964943Y-9191984D01*
X15964943Y-9191984D02*
X15983991Y-9201508D01*
X15983991Y-9201508D02*
X15993515Y-9211031D01*
X15993515Y-9211031D02*
X16003039Y-9230079D01*
X16003039Y-9230079D02*
X16003039Y-9249127D01*
X16003039Y-9249127D02*
X15993515Y-9277698D01*
X15993515Y-9277698D02*
X15879229Y-9391984D01*
X15879229Y-9391984D02*
X16003039Y-9391984D01*
X16088753Y-9372936D02*
X16098277Y-9382460D01*
X16098277Y-9382460D02*
X16088753Y-9391984D01*
X16088753Y-9391984D02*
X16079229Y-9382460D01*
X16079229Y-9382460D02*
X16088753Y-9372936D01*
X16088753Y-9372936D02*
X16088753Y-9391984D01*
X16174467Y-9211031D02*
X16183991Y-9201508D01*
X16183991Y-9201508D02*
X16203039Y-9191984D01*
X16203039Y-9191984D02*
X16250658Y-9191984D01*
X16250658Y-9191984D02*
X16269705Y-9201508D01*
X16269705Y-9201508D02*
X16279229Y-9211031D01*
X16279229Y-9211031D02*
X16288753Y-9230079D01*
X16288753Y-9230079D02*
X16288753Y-9249127D01*
X16288753Y-9249127D02*
X16279229Y-9277698D01*
X16279229Y-9277698D02*
X16164943Y-9391984D01*
X16164943Y-9391984D02*
X16288753Y-9391984D01*
X16412562Y-9191984D02*
X16431610Y-9191984D01*
X16431610Y-9191984D02*
X16450658Y-9201508D01*
X16450658Y-9201508D02*
X16460182Y-9211031D01*
X16460182Y-9211031D02*
X16469705Y-9230079D01*
X16469705Y-9230079D02*
X16479229Y-9268174D01*
X16479229Y-9268174D02*
X16479229Y-9315793D01*
X16479229Y-9315793D02*
X16469705Y-9353889D01*
X16469705Y-9353889D02*
X16460182Y-9372936D01*
X16460182Y-9372936D02*
X16450658Y-9382460D01*
X16450658Y-9382460D02*
X16431610Y-9391984D01*
X16431610Y-9391984D02*
X16412562Y-9391984D01*
X16412562Y-9391984D02*
X16393515Y-9382460D01*
X16393515Y-9382460D02*
X16383991Y-9372936D01*
X16383991Y-9372936D02*
X16374467Y-9353889D01*
X16374467Y-9353889D02*
X16364943Y-9315793D01*
X16364943Y-9315793D02*
X16364943Y-9268174D01*
X16364943Y-9268174D02*
X16374467Y-9230079D01*
X16374467Y-9230079D02*
X16383991Y-9211031D01*
X16383991Y-9211031D02*
X16393515Y-9201508D01*
X16393515Y-9201508D02*
X16412562Y-9191984D01*
X16603039Y-9191984D02*
X16622086Y-9191984D01*
X16622086Y-9191984D02*
X16641134Y-9201508D01*
X16641134Y-9201508D02*
X16650658Y-9211031D01*
X16650658Y-9211031D02*
X16660182Y-9230079D01*
X16660182Y-9230079D02*
X16669705Y-9268174D01*
X16669705Y-9268174D02*
X16669705Y-9315793D01*
X16669705Y-9315793D02*
X16660182Y-9353889D01*
X16660182Y-9353889D02*
X16650658Y-9372936D01*
X16650658Y-9372936D02*
X16641134Y-9382460D01*
X16641134Y-9382460D02*
X16622086Y-9391984D01*
X16622086Y-9391984D02*
X16603039Y-9391984D01*
X16603039Y-9391984D02*
X16583991Y-9382460D01*
X16583991Y-9382460D02*
X16574467Y-9372936D01*
X16574467Y-9372936D02*
X16564943Y-9353889D01*
X16564943Y-9353889D02*
X16555420Y-9315793D01*
X16555420Y-9315793D02*
X16555420Y-9268174D01*
X16555420Y-9268174D02*
X16564943Y-9230079D01*
X16564943Y-9230079D02*
X16574467Y-9211031D01*
X16574467Y-9211031D02*
X16583991Y-9201508D01*
X16583991Y-9201508D02*
X16603039Y-9191984D01*
X16755420Y-9391984D02*
X16755420Y-9258650D01*
X16755420Y-9277698D02*
X16764943Y-9268174D01*
X16764943Y-9268174D02*
X16783991Y-9258650D01*
X16783991Y-9258650D02*
X16812563Y-9258650D01*
X16812563Y-9258650D02*
X16831610Y-9268174D01*
X16831610Y-9268174D02*
X16841134Y-9287222D01*
X16841134Y-9287222D02*
X16841134Y-9391984D01*
X16841134Y-9287222D02*
X16850658Y-9268174D01*
X16850658Y-9268174D02*
X16869705Y-9258650D01*
X16869705Y-9258650D02*
X16898277Y-9258650D01*
X16898277Y-9258650D02*
X16917325Y-9268174D01*
X16917325Y-9268174D02*
X16926848Y-9287222D01*
X16926848Y-9287222D02*
X16926848Y-9391984D01*
X17022086Y-9391984D02*
X17022086Y-9258650D01*
X17022086Y-9277698D02*
X17031610Y-9268174D01*
X17031610Y-9268174D02*
X17050658Y-9258650D01*
X17050658Y-9258650D02*
X17079229Y-9258650D01*
X17079229Y-9258650D02*
X17098277Y-9268174D01*
X17098277Y-9268174D02*
X17107801Y-9287222D01*
X17107801Y-9287222D02*
X17107801Y-9391984D01*
X17107801Y-9287222D02*
X17117325Y-9268174D01*
X17117325Y-9268174D02*
X17136372Y-9258650D01*
X17136372Y-9258650D02*
X17164944Y-9258650D01*
X17164944Y-9258650D02*
X17183991Y-9268174D01*
X17183991Y-9268174D02*
X17193515Y-9287222D01*
X17193515Y-9287222D02*
X17193515Y-9391984D01*
X17583991Y-9182460D02*
X17412563Y-9439603D01*
X17841134Y-9191984D02*
X17860182Y-9191984D01*
X17860182Y-9191984D02*
X17879229Y-9201508D01*
X17879229Y-9201508D02*
X17888753Y-9211031D01*
X17888753Y-9211031D02*
X17898277Y-9230079D01*
X17898277Y-9230079D02*
X17907801Y-9268174D01*
X17907801Y-9268174D02*
X17907801Y-9315793D01*
X17907801Y-9315793D02*
X17898277Y-9353889D01*
X17898277Y-9353889D02*
X17888753Y-9372936D01*
X17888753Y-9372936D02*
X17879229Y-9382460D01*
X17879229Y-9382460D02*
X17860182Y-9391984D01*
X17860182Y-9391984D02*
X17841134Y-9391984D01*
X17841134Y-9391984D02*
X17822087Y-9382460D01*
X17822087Y-9382460D02*
X17812563Y-9372936D01*
X17812563Y-9372936D02*
X17803039Y-9353889D01*
X17803039Y-9353889D02*
X17793515Y-9315793D01*
X17793515Y-9315793D02*
X17793515Y-9268174D01*
X17793515Y-9268174D02*
X17803039Y-9230079D01*
X17803039Y-9230079D02*
X17812563Y-9211031D01*
X17812563Y-9211031D02*
X17822087Y-9201508D01*
X17822087Y-9201508D02*
X17841134Y-9191984D01*
X17993515Y-9372936D02*
X18003039Y-9382460D01*
X18003039Y-9382460D02*
X17993515Y-9391984D01*
X17993515Y-9391984D02*
X17983991Y-9382460D01*
X17983991Y-9382460D02*
X17993515Y-9372936D01*
X17993515Y-9372936D02*
X17993515Y-9391984D01*
X18126848Y-9191984D02*
X18145896Y-9191984D01*
X18145896Y-9191984D02*
X18164944Y-9201508D01*
X18164944Y-9201508D02*
X18174468Y-9211031D01*
X18174468Y-9211031D02*
X18183991Y-9230079D01*
X18183991Y-9230079D02*
X18193515Y-9268174D01*
X18193515Y-9268174D02*
X18193515Y-9315793D01*
X18193515Y-9315793D02*
X18183991Y-9353889D01*
X18183991Y-9353889D02*
X18174468Y-9372936D01*
X18174468Y-9372936D02*
X18164944Y-9382460D01*
X18164944Y-9382460D02*
X18145896Y-9391984D01*
X18145896Y-9391984D02*
X18126848Y-9391984D01*
X18126848Y-9391984D02*
X18107801Y-9382460D01*
X18107801Y-9382460D02*
X18098277Y-9372936D01*
X18098277Y-9372936D02*
X18088753Y-9353889D01*
X18088753Y-9353889D02*
X18079229Y-9315793D01*
X18079229Y-9315793D02*
X18079229Y-9268174D01*
X18079229Y-9268174D02*
X18088753Y-9230079D01*
X18088753Y-9230079D02*
X18098277Y-9211031D01*
X18098277Y-9211031D02*
X18107801Y-9201508D01*
X18107801Y-9201508D02*
X18126848Y-9191984D01*
X18307801Y-9277698D02*
X18288753Y-9268174D01*
X18288753Y-9268174D02*
X18279229Y-9258650D01*
X18279229Y-9258650D02*
X18269706Y-9239603D01*
X18269706Y-9239603D02*
X18269706Y-9230079D01*
X18269706Y-9230079D02*
X18279229Y-9211031D01*
X18279229Y-9211031D02*
X18288753Y-9201508D01*
X18288753Y-9201508D02*
X18307801Y-9191984D01*
X18307801Y-9191984D02*
X18345896Y-9191984D01*
X18345896Y-9191984D02*
X18364944Y-9201508D01*
X18364944Y-9201508D02*
X18374468Y-9211031D01*
X18374468Y-9211031D02*
X18383991Y-9230079D01*
X18383991Y-9230079D02*
X18383991Y-9239603D01*
X18383991Y-9239603D02*
X18374468Y-9258650D01*
X18374468Y-9258650D02*
X18364944Y-9268174D01*
X18364944Y-9268174D02*
X18345896Y-9277698D01*
X18345896Y-9277698D02*
X18307801Y-9277698D01*
X18307801Y-9277698D02*
X18288753Y-9287222D01*
X18288753Y-9287222D02*
X18279229Y-9296746D01*
X18279229Y-9296746D02*
X18269706Y-9315793D01*
X18269706Y-9315793D02*
X18269706Y-9353889D01*
X18269706Y-9353889D02*
X18279229Y-9372936D01*
X18279229Y-9372936D02*
X18288753Y-9382460D01*
X18288753Y-9382460D02*
X18307801Y-9391984D01*
X18307801Y-9391984D02*
X18345896Y-9391984D01*
X18345896Y-9391984D02*
X18364944Y-9382460D01*
X18364944Y-9382460D02*
X18374468Y-9372936D01*
X18374468Y-9372936D02*
X18383991Y-9353889D01*
X18383991Y-9353889D02*
X18383991Y-9315793D01*
X18383991Y-9315793D02*
X18374468Y-9296746D01*
X18374468Y-9296746D02*
X18364944Y-9287222D01*
X18364944Y-9287222D02*
X18345896Y-9277698D01*
X18555420Y-9191984D02*
X18517325Y-9191984D01*
X18517325Y-9191984D02*
X18498277Y-9201508D01*
X18498277Y-9201508D02*
X18488753Y-9211031D01*
X18488753Y-9211031D02*
X18469706Y-9239603D01*
X18469706Y-9239603D02*
X18460182Y-9277698D01*
X18460182Y-9277698D02*
X18460182Y-9353889D01*
X18460182Y-9353889D02*
X18469706Y-9372936D01*
X18469706Y-9372936D02*
X18479229Y-9382460D01*
X18479229Y-9382460D02*
X18498277Y-9391984D01*
X18498277Y-9391984D02*
X18536372Y-9391984D01*
X18536372Y-9391984D02*
X18555420Y-9382460D01*
X18555420Y-9382460D02*
X18564944Y-9372936D01*
X18564944Y-9372936D02*
X18574468Y-9353889D01*
X18574468Y-9353889D02*
X18574468Y-9306270D01*
X18574468Y-9306270D02*
X18564944Y-9287222D01*
X18564944Y-9287222D02*
X18555420Y-9277698D01*
X18555420Y-9277698D02*
X18536372Y-9268174D01*
X18536372Y-9268174D02*
X18498277Y-9268174D01*
X18498277Y-9268174D02*
X18479229Y-9277698D01*
X18479229Y-9277698D02*
X18469706Y-9287222D01*
X18469706Y-9287222D02*
X18460182Y-9306270D01*
X18745896Y-9191984D02*
X18707801Y-9191984D01*
X18707801Y-9191984D02*
X18688753Y-9201508D01*
X18688753Y-9201508D02*
X18679229Y-9211031D01*
X18679229Y-9211031D02*
X18660182Y-9239603D01*
X18660182Y-9239603D02*
X18650658Y-9277698D01*
X18650658Y-9277698D02*
X18650658Y-9353889D01*
X18650658Y-9353889D02*
X18660182Y-9372936D01*
X18660182Y-9372936D02*
X18669706Y-9382460D01*
X18669706Y-9382460D02*
X18688753Y-9391984D01*
X18688753Y-9391984D02*
X18726849Y-9391984D01*
X18726849Y-9391984D02*
X18745896Y-9382460D01*
X18745896Y-9382460D02*
X18755420Y-9372936D01*
X18755420Y-9372936D02*
X18764944Y-9353889D01*
X18764944Y-9353889D02*
X18764944Y-9306270D01*
X18764944Y-9306270D02*
X18755420Y-9287222D01*
X18755420Y-9287222D02*
X18745896Y-9277698D01*
X18745896Y-9277698D02*
X18726849Y-9268174D01*
X18726849Y-9268174D02*
X18688753Y-9268174D01*
X18688753Y-9268174D02*
X18669706Y-9277698D01*
X18669706Y-9277698D02*
X18660182Y-9287222D01*
X18660182Y-9287222D02*
X18650658Y-9306270D01*
X18841134Y-9191984D02*
X18841134Y-9230079D01*
X18917325Y-9191984D02*
X18917325Y-9230079D01*
X19212563Y-9468174D02*
X19203039Y-9458650D01*
X19203039Y-9458650D02*
X19183991Y-9430079D01*
X19183991Y-9430079D02*
X19174468Y-9411031D01*
X19174468Y-9411031D02*
X19164944Y-9382460D01*
X19164944Y-9382460D02*
X19155420Y-9334841D01*
X19155420Y-9334841D02*
X19155420Y-9296746D01*
X19155420Y-9296746D02*
X19164944Y-9249127D01*
X19164944Y-9249127D02*
X19174468Y-9220555D01*
X19174468Y-9220555D02*
X19183991Y-9201508D01*
X19183991Y-9201508D02*
X19203039Y-9172936D01*
X19203039Y-9172936D02*
X19212563Y-9163412D01*
X19393515Y-9391984D02*
X19279230Y-9391984D01*
X19336372Y-9391984D02*
X19336372Y-9191984D01*
X19336372Y-9191984D02*
X19317325Y-9220555D01*
X19317325Y-9220555D02*
X19298277Y-9239603D01*
X19298277Y-9239603D02*
X19279230Y-9249127D01*
X19631611Y-9391984D02*
X19631611Y-9191984D01*
X19717325Y-9391984D02*
X19717325Y-9287222D01*
X19717325Y-9287222D02*
X19707801Y-9268174D01*
X19707801Y-9268174D02*
X19688753Y-9258650D01*
X19688753Y-9258650D02*
X19660182Y-9258650D01*
X19660182Y-9258650D02*
X19641134Y-9268174D01*
X19641134Y-9268174D02*
X19631611Y-9277698D01*
X19841134Y-9391984D02*
X19822087Y-9382460D01*
X19822087Y-9382460D02*
X19812563Y-9372936D01*
X19812563Y-9372936D02*
X19803039Y-9353889D01*
X19803039Y-9353889D02*
X19803039Y-9296746D01*
X19803039Y-9296746D02*
X19812563Y-9277698D01*
X19812563Y-9277698D02*
X19822087Y-9268174D01*
X19822087Y-9268174D02*
X19841134Y-9258650D01*
X19841134Y-9258650D02*
X19869706Y-9258650D01*
X19869706Y-9258650D02*
X19888753Y-9268174D01*
X19888753Y-9268174D02*
X19898277Y-9277698D01*
X19898277Y-9277698D02*
X19907801Y-9296746D01*
X19907801Y-9296746D02*
X19907801Y-9353889D01*
X19907801Y-9353889D02*
X19898277Y-9372936D01*
X19898277Y-9372936D02*
X19888753Y-9382460D01*
X19888753Y-9382460D02*
X19869706Y-9391984D01*
X19869706Y-9391984D02*
X19841134Y-9391984D01*
X20022087Y-9391984D02*
X20003039Y-9382460D01*
X20003039Y-9382460D02*
X19993515Y-9363412D01*
X19993515Y-9363412D02*
X19993515Y-9191984D01*
X20174468Y-9382460D02*
X20155420Y-9391984D01*
X20155420Y-9391984D02*
X20117325Y-9391984D01*
X20117325Y-9391984D02*
X20098277Y-9382460D01*
X20098277Y-9382460D02*
X20088753Y-9363412D01*
X20088753Y-9363412D02*
X20088753Y-9287222D01*
X20088753Y-9287222D02*
X20098277Y-9268174D01*
X20098277Y-9268174D02*
X20117325Y-9258650D01*
X20117325Y-9258650D02*
X20155420Y-9258650D01*
X20155420Y-9258650D02*
X20174468Y-9268174D01*
X20174468Y-9268174D02*
X20183992Y-9287222D01*
X20183992Y-9287222D02*
X20183992Y-9306270D01*
X20183992Y-9306270D02*
X20088753Y-9325317D01*
X20250658Y-9468174D02*
X20260182Y-9458650D01*
X20260182Y-9458650D02*
X20279230Y-9430079D01*
X20279230Y-9430079D02*
X20288753Y-9411031D01*
X20288753Y-9411031D02*
X20298277Y-9382460D01*
X20298277Y-9382460D02*
X20307801Y-9334841D01*
X20307801Y-9334841D02*
X20307801Y-9296746D01*
X20307801Y-9296746D02*
X20298277Y-9249127D01*
X20298277Y-9249127D02*
X20288753Y-9220555D01*
X20288753Y-9220555D02*
X20279230Y-9201508D01*
X20279230Y-9201508D02*
X20260182Y-9172936D01*
X20260182Y-9172936D02*
X20250658Y-9163412D01*
X20612563Y-9468174D02*
X20603039Y-9458650D01*
X20603039Y-9458650D02*
X20583992Y-9430079D01*
X20583992Y-9430079D02*
X20574468Y-9411031D01*
X20574468Y-9411031D02*
X20564944Y-9382460D01*
X20564944Y-9382460D02*
X20555420Y-9334841D01*
X20555420Y-9334841D02*
X20555420Y-9296746D01*
X20555420Y-9296746D02*
X20564944Y-9249127D01*
X20564944Y-9249127D02*
X20574468Y-9220555D01*
X20574468Y-9220555D02*
X20583992Y-9201508D01*
X20583992Y-9201508D02*
X20603039Y-9172936D01*
X20603039Y-9172936D02*
X20612563Y-9163412D01*
X20688753Y-9258650D02*
X20688753Y-9391984D01*
X20688753Y-9277698D02*
X20698277Y-9268174D01*
X20698277Y-9268174D02*
X20717325Y-9258650D01*
X20717325Y-9258650D02*
X20745896Y-9258650D01*
X20745896Y-9258650D02*
X20764944Y-9268174D01*
X20764944Y-9268174D02*
X20774468Y-9287222D01*
X20774468Y-9287222D02*
X20774468Y-9391984D01*
X20898277Y-9391984D02*
X20879230Y-9382460D01*
X20879230Y-9382460D02*
X20869706Y-9372936D01*
X20869706Y-9372936D02*
X20860182Y-9353889D01*
X20860182Y-9353889D02*
X20860182Y-9296746D01*
X20860182Y-9296746D02*
X20869706Y-9277698D01*
X20869706Y-9277698D02*
X20879230Y-9268174D01*
X20879230Y-9268174D02*
X20898277Y-9258650D01*
X20898277Y-9258650D02*
X20926849Y-9258650D01*
X20926849Y-9258650D02*
X20945896Y-9268174D01*
X20945896Y-9268174D02*
X20955420Y-9277698D01*
X20955420Y-9277698D02*
X20964944Y-9296746D01*
X20964944Y-9296746D02*
X20964944Y-9353889D01*
X20964944Y-9353889D02*
X20955420Y-9372936D01*
X20955420Y-9372936D02*
X20945896Y-9382460D01*
X20945896Y-9382460D02*
X20926849Y-9391984D01*
X20926849Y-9391984D02*
X20898277Y-9391984D01*
X21022087Y-9258650D02*
X21098277Y-9258650D01*
X21050658Y-9191984D02*
X21050658Y-9363412D01*
X21050658Y-9363412D02*
X21060182Y-9382460D01*
X21060182Y-9382460D02*
X21079230Y-9391984D01*
X21079230Y-9391984D02*
X21098277Y-9391984D01*
X21317325Y-9258650D02*
X21317325Y-9458650D01*
X21317325Y-9268174D02*
X21336373Y-9258650D01*
X21336373Y-9258650D02*
X21374468Y-9258650D01*
X21374468Y-9258650D02*
X21393515Y-9268174D01*
X21393515Y-9268174D02*
X21403039Y-9277698D01*
X21403039Y-9277698D02*
X21412563Y-9296746D01*
X21412563Y-9296746D02*
X21412563Y-9353889D01*
X21412563Y-9353889D02*
X21403039Y-9372936D01*
X21403039Y-9372936D02*
X21393515Y-9382460D01*
X21393515Y-9382460D02*
X21374468Y-9391984D01*
X21374468Y-9391984D02*
X21336373Y-9391984D01*
X21336373Y-9391984D02*
X21317325Y-9382460D01*
X21526849Y-9391984D02*
X21507801Y-9382460D01*
X21507801Y-9382460D02*
X21498277Y-9363412D01*
X21498277Y-9363412D02*
X21498277Y-9191984D01*
X21688754Y-9391984D02*
X21688754Y-9287222D01*
X21688754Y-9287222D02*
X21679230Y-9268174D01*
X21679230Y-9268174D02*
X21660182Y-9258650D01*
X21660182Y-9258650D02*
X21622087Y-9258650D01*
X21622087Y-9258650D02*
X21603039Y-9268174D01*
X21688754Y-9382460D02*
X21669706Y-9391984D01*
X21669706Y-9391984D02*
X21622087Y-9391984D01*
X21622087Y-9391984D02*
X21603039Y-9382460D01*
X21603039Y-9382460D02*
X21593515Y-9363412D01*
X21593515Y-9363412D02*
X21593515Y-9344365D01*
X21593515Y-9344365D02*
X21603039Y-9325317D01*
X21603039Y-9325317D02*
X21622087Y-9315793D01*
X21622087Y-9315793D02*
X21669706Y-9315793D01*
X21669706Y-9315793D02*
X21688754Y-9306270D01*
X21755420Y-9258650D02*
X21831611Y-9258650D01*
X21783992Y-9191984D02*
X21783992Y-9363412D01*
X21783992Y-9363412D02*
X21793515Y-9382460D01*
X21793515Y-9382460D02*
X21812563Y-9391984D01*
X21812563Y-9391984D02*
X21831611Y-9391984D01*
X21974468Y-9382460D02*
X21955420Y-9391984D01*
X21955420Y-9391984D02*
X21917325Y-9391984D01*
X21917325Y-9391984D02*
X21898277Y-9382460D01*
X21898277Y-9382460D02*
X21888754Y-9363412D01*
X21888754Y-9363412D02*
X21888754Y-9287222D01*
X21888754Y-9287222D02*
X21898277Y-9268174D01*
X21898277Y-9268174D02*
X21917325Y-9258650D01*
X21917325Y-9258650D02*
X21955420Y-9258650D01*
X21955420Y-9258650D02*
X21974468Y-9268174D01*
X21974468Y-9268174D02*
X21983992Y-9287222D01*
X21983992Y-9287222D02*
X21983992Y-9306270D01*
X21983992Y-9306270D02*
X21888754Y-9325317D01*
X22155420Y-9391984D02*
X22155420Y-9191984D01*
X22155420Y-9382460D02*
X22136373Y-9391984D01*
X22136373Y-9391984D02*
X22098277Y-9391984D01*
X22098277Y-9391984D02*
X22079230Y-9382460D01*
X22079230Y-9382460D02*
X22069706Y-9372936D01*
X22069706Y-9372936D02*
X22060182Y-9353889D01*
X22060182Y-9353889D02*
X22060182Y-9296746D01*
X22060182Y-9296746D02*
X22069706Y-9277698D01*
X22069706Y-9277698D02*
X22079230Y-9268174D01*
X22079230Y-9268174D02*
X22098277Y-9258650D01*
X22098277Y-9258650D02*
X22136373Y-9258650D01*
X22136373Y-9258650D02*
X22155420Y-9268174D01*
X22231611Y-9468174D02*
X22241135Y-9458650D01*
X22241135Y-9458650D02*
X22260182Y-9430079D01*
X22260182Y-9430079D02*
X22269706Y-9411031D01*
X22269706Y-9411031D02*
X22279230Y-9382460D01*
X22279230Y-9382460D02*
X22288754Y-9334841D01*
X22288754Y-9334841D02*
X22288754Y-9296746D01*
X22288754Y-9296746D02*
X22279230Y-9249127D01*
X22279230Y-9249127D02*
X22269706Y-9220555D01*
X22269706Y-9220555D02*
X22260182Y-9201508D01*
X22260182Y-9201508D02*
X22241135Y-9172936D01*
X22241135Y-9172936D02*
X22231611Y-9163412D01*
X15608211Y-9691211D02*
X15608211Y-9549789D01*
X15466789Y-9549789D01*
X15466789Y-9691211D01*
X15608211Y-9691211D01*
X15879229Y-9511984D02*
X16003039Y-9511984D01*
X16003039Y-9511984D02*
X15936372Y-9588174D01*
X15936372Y-9588174D02*
X15964943Y-9588174D01*
X15964943Y-9588174D02*
X15983991Y-9597698D01*
X15983991Y-9597698D02*
X15993515Y-9607222D01*
X15993515Y-9607222D02*
X16003039Y-9626270D01*
X16003039Y-9626270D02*
X16003039Y-9673889D01*
X16003039Y-9673889D02*
X15993515Y-9692936D01*
X15993515Y-9692936D02*
X15983991Y-9702460D01*
X15983991Y-9702460D02*
X15964943Y-9711984D01*
X15964943Y-9711984D02*
X15907801Y-9711984D01*
X15907801Y-9711984D02*
X15888753Y-9702460D01*
X15888753Y-9702460D02*
X15879229Y-9692936D01*
X16088753Y-9692936D02*
X16098277Y-9702460D01*
X16098277Y-9702460D02*
X16088753Y-9711984D01*
X16088753Y-9711984D02*
X16079229Y-9702460D01*
X16079229Y-9702460D02*
X16088753Y-9692936D01*
X16088753Y-9692936D02*
X16088753Y-9711984D01*
X16174467Y-9531031D02*
X16183991Y-9521508D01*
X16183991Y-9521508D02*
X16203039Y-9511984D01*
X16203039Y-9511984D02*
X16250658Y-9511984D01*
X16250658Y-9511984D02*
X16269705Y-9521508D01*
X16269705Y-9521508D02*
X16279229Y-9531031D01*
X16279229Y-9531031D02*
X16288753Y-9550079D01*
X16288753Y-9550079D02*
X16288753Y-9569127D01*
X16288753Y-9569127D02*
X16279229Y-9597698D01*
X16279229Y-9597698D02*
X16164943Y-9711984D01*
X16164943Y-9711984D02*
X16288753Y-9711984D01*
X16412562Y-9511984D02*
X16431610Y-9511984D01*
X16431610Y-9511984D02*
X16450658Y-9521508D01*
X16450658Y-9521508D02*
X16460182Y-9531031D01*
X16460182Y-9531031D02*
X16469705Y-9550079D01*
X16469705Y-9550079D02*
X16479229Y-9588174D01*
X16479229Y-9588174D02*
X16479229Y-9635793D01*
X16479229Y-9635793D02*
X16469705Y-9673889D01*
X16469705Y-9673889D02*
X16460182Y-9692936D01*
X16460182Y-9692936D02*
X16450658Y-9702460D01*
X16450658Y-9702460D02*
X16431610Y-9711984D01*
X16431610Y-9711984D02*
X16412562Y-9711984D01*
X16412562Y-9711984D02*
X16393515Y-9702460D01*
X16393515Y-9702460D02*
X16383991Y-9692936D01*
X16383991Y-9692936D02*
X16374467Y-9673889D01*
X16374467Y-9673889D02*
X16364943Y-9635793D01*
X16364943Y-9635793D02*
X16364943Y-9588174D01*
X16364943Y-9588174D02*
X16374467Y-9550079D01*
X16374467Y-9550079D02*
X16383991Y-9531031D01*
X16383991Y-9531031D02*
X16393515Y-9521508D01*
X16393515Y-9521508D02*
X16412562Y-9511984D01*
X16603039Y-9511984D02*
X16622086Y-9511984D01*
X16622086Y-9511984D02*
X16641134Y-9521508D01*
X16641134Y-9521508D02*
X16650658Y-9531031D01*
X16650658Y-9531031D02*
X16660182Y-9550079D01*
X16660182Y-9550079D02*
X16669705Y-9588174D01*
X16669705Y-9588174D02*
X16669705Y-9635793D01*
X16669705Y-9635793D02*
X16660182Y-9673889D01*
X16660182Y-9673889D02*
X16650658Y-9692936D01*
X16650658Y-9692936D02*
X16641134Y-9702460D01*
X16641134Y-9702460D02*
X16622086Y-9711984D01*
X16622086Y-9711984D02*
X16603039Y-9711984D01*
X16603039Y-9711984D02*
X16583991Y-9702460D01*
X16583991Y-9702460D02*
X16574467Y-9692936D01*
X16574467Y-9692936D02*
X16564943Y-9673889D01*
X16564943Y-9673889D02*
X16555420Y-9635793D01*
X16555420Y-9635793D02*
X16555420Y-9588174D01*
X16555420Y-9588174D02*
X16564943Y-9550079D01*
X16564943Y-9550079D02*
X16574467Y-9531031D01*
X16574467Y-9531031D02*
X16583991Y-9521508D01*
X16583991Y-9521508D02*
X16603039Y-9511984D01*
X16755420Y-9711984D02*
X16755420Y-9578650D01*
X16755420Y-9597698D02*
X16764943Y-9588174D01*
X16764943Y-9588174D02*
X16783991Y-9578650D01*
X16783991Y-9578650D02*
X16812563Y-9578650D01*
X16812563Y-9578650D02*
X16831610Y-9588174D01*
X16831610Y-9588174D02*
X16841134Y-9607222D01*
X16841134Y-9607222D02*
X16841134Y-9711984D01*
X16841134Y-9607222D02*
X16850658Y-9588174D01*
X16850658Y-9588174D02*
X16869705Y-9578650D01*
X16869705Y-9578650D02*
X16898277Y-9578650D01*
X16898277Y-9578650D02*
X16917325Y-9588174D01*
X16917325Y-9588174D02*
X16926848Y-9607222D01*
X16926848Y-9607222D02*
X16926848Y-9711984D01*
X17022086Y-9711984D02*
X17022086Y-9578650D01*
X17022086Y-9597698D02*
X17031610Y-9588174D01*
X17031610Y-9588174D02*
X17050658Y-9578650D01*
X17050658Y-9578650D02*
X17079229Y-9578650D01*
X17079229Y-9578650D02*
X17098277Y-9588174D01*
X17098277Y-9588174D02*
X17107801Y-9607222D01*
X17107801Y-9607222D02*
X17107801Y-9711984D01*
X17107801Y-9607222D02*
X17117325Y-9588174D01*
X17117325Y-9588174D02*
X17136372Y-9578650D01*
X17136372Y-9578650D02*
X17164944Y-9578650D01*
X17164944Y-9578650D02*
X17183991Y-9588174D01*
X17183991Y-9588174D02*
X17193515Y-9607222D01*
X17193515Y-9607222D02*
X17193515Y-9711984D01*
X17583991Y-9502460D02*
X17412563Y-9759603D01*
X17841134Y-9511984D02*
X17860182Y-9511984D01*
X17860182Y-9511984D02*
X17879229Y-9521508D01*
X17879229Y-9521508D02*
X17888753Y-9531031D01*
X17888753Y-9531031D02*
X17898277Y-9550079D01*
X17898277Y-9550079D02*
X17907801Y-9588174D01*
X17907801Y-9588174D02*
X17907801Y-9635793D01*
X17907801Y-9635793D02*
X17898277Y-9673889D01*
X17898277Y-9673889D02*
X17888753Y-9692936D01*
X17888753Y-9692936D02*
X17879229Y-9702460D01*
X17879229Y-9702460D02*
X17860182Y-9711984D01*
X17860182Y-9711984D02*
X17841134Y-9711984D01*
X17841134Y-9711984D02*
X17822087Y-9702460D01*
X17822087Y-9702460D02*
X17812563Y-9692936D01*
X17812563Y-9692936D02*
X17803039Y-9673889D01*
X17803039Y-9673889D02*
X17793515Y-9635793D01*
X17793515Y-9635793D02*
X17793515Y-9588174D01*
X17793515Y-9588174D02*
X17803039Y-9550079D01*
X17803039Y-9550079D02*
X17812563Y-9531031D01*
X17812563Y-9531031D02*
X17822087Y-9521508D01*
X17822087Y-9521508D02*
X17841134Y-9511984D01*
X17993515Y-9692936D02*
X18003039Y-9702460D01*
X18003039Y-9702460D02*
X17993515Y-9711984D01*
X17993515Y-9711984D02*
X17983991Y-9702460D01*
X17983991Y-9702460D02*
X17993515Y-9692936D01*
X17993515Y-9692936D02*
X17993515Y-9711984D01*
X18193515Y-9711984D02*
X18079229Y-9711984D01*
X18136372Y-9711984D02*
X18136372Y-9511984D01*
X18136372Y-9511984D02*
X18117325Y-9540555D01*
X18117325Y-9540555D02*
X18098277Y-9559603D01*
X18098277Y-9559603D02*
X18079229Y-9569127D01*
X18269706Y-9531031D02*
X18279229Y-9521508D01*
X18279229Y-9521508D02*
X18298277Y-9511984D01*
X18298277Y-9511984D02*
X18345896Y-9511984D01*
X18345896Y-9511984D02*
X18364944Y-9521508D01*
X18364944Y-9521508D02*
X18374468Y-9531031D01*
X18374468Y-9531031D02*
X18383991Y-9550079D01*
X18383991Y-9550079D02*
X18383991Y-9569127D01*
X18383991Y-9569127D02*
X18374468Y-9597698D01*
X18374468Y-9597698D02*
X18260182Y-9711984D01*
X18260182Y-9711984D02*
X18383991Y-9711984D01*
X18555420Y-9511984D02*
X18517325Y-9511984D01*
X18517325Y-9511984D02*
X18498277Y-9521508D01*
X18498277Y-9521508D02*
X18488753Y-9531031D01*
X18488753Y-9531031D02*
X18469706Y-9559603D01*
X18469706Y-9559603D02*
X18460182Y-9597698D01*
X18460182Y-9597698D02*
X18460182Y-9673889D01*
X18460182Y-9673889D02*
X18469706Y-9692936D01*
X18469706Y-9692936D02*
X18479229Y-9702460D01*
X18479229Y-9702460D02*
X18498277Y-9711984D01*
X18498277Y-9711984D02*
X18536372Y-9711984D01*
X18536372Y-9711984D02*
X18555420Y-9702460D01*
X18555420Y-9702460D02*
X18564944Y-9692936D01*
X18564944Y-9692936D02*
X18574468Y-9673889D01*
X18574468Y-9673889D02*
X18574468Y-9626270D01*
X18574468Y-9626270D02*
X18564944Y-9607222D01*
X18564944Y-9607222D02*
X18555420Y-9597698D01*
X18555420Y-9597698D02*
X18536372Y-9588174D01*
X18536372Y-9588174D02*
X18498277Y-9588174D01*
X18498277Y-9588174D02*
X18479229Y-9597698D01*
X18479229Y-9597698D02*
X18469706Y-9607222D01*
X18469706Y-9607222D02*
X18460182Y-9626270D01*
X18698277Y-9511984D02*
X18717325Y-9511984D01*
X18717325Y-9511984D02*
X18736372Y-9521508D01*
X18736372Y-9521508D02*
X18745896Y-9531031D01*
X18745896Y-9531031D02*
X18755420Y-9550079D01*
X18755420Y-9550079D02*
X18764944Y-9588174D01*
X18764944Y-9588174D02*
X18764944Y-9635793D01*
X18764944Y-9635793D02*
X18755420Y-9673889D01*
X18755420Y-9673889D02*
X18745896Y-9692936D01*
X18745896Y-9692936D02*
X18736372Y-9702460D01*
X18736372Y-9702460D02*
X18717325Y-9711984D01*
X18717325Y-9711984D02*
X18698277Y-9711984D01*
X18698277Y-9711984D02*
X18679229Y-9702460D01*
X18679229Y-9702460D02*
X18669706Y-9692936D01*
X18669706Y-9692936D02*
X18660182Y-9673889D01*
X18660182Y-9673889D02*
X18650658Y-9635793D01*
X18650658Y-9635793D02*
X18650658Y-9588174D01*
X18650658Y-9588174D02*
X18660182Y-9550079D01*
X18660182Y-9550079D02*
X18669706Y-9531031D01*
X18669706Y-9531031D02*
X18679229Y-9521508D01*
X18679229Y-9521508D02*
X18698277Y-9511984D01*
X18841134Y-9511984D02*
X18841134Y-9550079D01*
X18917325Y-9511984D02*
X18917325Y-9550079D01*
X19212563Y-9788174D02*
X19203039Y-9778650D01*
X19203039Y-9778650D02*
X19183991Y-9750079D01*
X19183991Y-9750079D02*
X19174468Y-9731031D01*
X19174468Y-9731031D02*
X19164944Y-9702460D01*
X19164944Y-9702460D02*
X19155420Y-9654841D01*
X19155420Y-9654841D02*
X19155420Y-9616746D01*
X19155420Y-9616746D02*
X19164944Y-9569127D01*
X19164944Y-9569127D02*
X19174468Y-9540555D01*
X19174468Y-9540555D02*
X19183991Y-9521508D01*
X19183991Y-9521508D02*
X19203039Y-9492936D01*
X19203039Y-9492936D02*
X19212563Y-9483412D01*
X19393515Y-9711984D02*
X19279230Y-9711984D01*
X19336372Y-9711984D02*
X19336372Y-9511984D01*
X19336372Y-9511984D02*
X19317325Y-9540555D01*
X19317325Y-9540555D02*
X19298277Y-9559603D01*
X19298277Y-9559603D02*
X19279230Y-9569127D01*
X19631611Y-9711984D02*
X19631611Y-9511984D01*
X19717325Y-9711984D02*
X19717325Y-9607222D01*
X19717325Y-9607222D02*
X19707801Y-9588174D01*
X19707801Y-9588174D02*
X19688753Y-9578650D01*
X19688753Y-9578650D02*
X19660182Y-9578650D01*
X19660182Y-9578650D02*
X19641134Y-9588174D01*
X19641134Y-9588174D02*
X19631611Y-9597698D01*
X19841134Y-9711984D02*
X19822087Y-9702460D01*
X19822087Y-9702460D02*
X19812563Y-9692936D01*
X19812563Y-9692936D02*
X19803039Y-9673889D01*
X19803039Y-9673889D02*
X19803039Y-9616746D01*
X19803039Y-9616746D02*
X19812563Y-9597698D01*
X19812563Y-9597698D02*
X19822087Y-9588174D01*
X19822087Y-9588174D02*
X19841134Y-9578650D01*
X19841134Y-9578650D02*
X19869706Y-9578650D01*
X19869706Y-9578650D02*
X19888753Y-9588174D01*
X19888753Y-9588174D02*
X19898277Y-9597698D01*
X19898277Y-9597698D02*
X19907801Y-9616746D01*
X19907801Y-9616746D02*
X19907801Y-9673889D01*
X19907801Y-9673889D02*
X19898277Y-9692936D01*
X19898277Y-9692936D02*
X19888753Y-9702460D01*
X19888753Y-9702460D02*
X19869706Y-9711984D01*
X19869706Y-9711984D02*
X19841134Y-9711984D01*
X20022087Y-9711984D02*
X20003039Y-9702460D01*
X20003039Y-9702460D02*
X19993515Y-9683412D01*
X19993515Y-9683412D02*
X19993515Y-9511984D01*
X20174468Y-9702460D02*
X20155420Y-9711984D01*
X20155420Y-9711984D02*
X20117325Y-9711984D01*
X20117325Y-9711984D02*
X20098277Y-9702460D01*
X20098277Y-9702460D02*
X20088753Y-9683412D01*
X20088753Y-9683412D02*
X20088753Y-9607222D01*
X20088753Y-9607222D02*
X20098277Y-9588174D01*
X20098277Y-9588174D02*
X20117325Y-9578650D01*
X20117325Y-9578650D02*
X20155420Y-9578650D01*
X20155420Y-9578650D02*
X20174468Y-9588174D01*
X20174468Y-9588174D02*
X20183992Y-9607222D01*
X20183992Y-9607222D02*
X20183992Y-9626270D01*
X20183992Y-9626270D02*
X20088753Y-9645317D01*
X20250658Y-9788174D02*
X20260182Y-9778650D01*
X20260182Y-9778650D02*
X20279230Y-9750079D01*
X20279230Y-9750079D02*
X20288753Y-9731031D01*
X20288753Y-9731031D02*
X20298277Y-9702460D01*
X20298277Y-9702460D02*
X20307801Y-9654841D01*
X20307801Y-9654841D02*
X20307801Y-9616746D01*
X20307801Y-9616746D02*
X20298277Y-9569127D01*
X20298277Y-9569127D02*
X20288753Y-9540555D01*
X20288753Y-9540555D02*
X20279230Y-9521508D01*
X20279230Y-9521508D02*
X20260182Y-9492936D01*
X20260182Y-9492936D02*
X20250658Y-9483412D01*
X20612563Y-9788174D02*
X20603039Y-9778650D01*
X20603039Y-9778650D02*
X20583992Y-9750079D01*
X20583992Y-9750079D02*
X20574468Y-9731031D01*
X20574468Y-9731031D02*
X20564944Y-9702460D01*
X20564944Y-9702460D02*
X20555420Y-9654841D01*
X20555420Y-9654841D02*
X20555420Y-9616746D01*
X20555420Y-9616746D02*
X20564944Y-9569127D01*
X20564944Y-9569127D02*
X20574468Y-9540555D01*
X20574468Y-9540555D02*
X20583992Y-9521508D01*
X20583992Y-9521508D02*
X20603039Y-9492936D01*
X20603039Y-9492936D02*
X20612563Y-9483412D01*
X20688753Y-9578650D02*
X20688753Y-9711984D01*
X20688753Y-9597698D02*
X20698277Y-9588174D01*
X20698277Y-9588174D02*
X20717325Y-9578650D01*
X20717325Y-9578650D02*
X20745896Y-9578650D01*
X20745896Y-9578650D02*
X20764944Y-9588174D01*
X20764944Y-9588174D02*
X20774468Y-9607222D01*
X20774468Y-9607222D02*
X20774468Y-9711984D01*
X20898277Y-9711984D02*
X20879230Y-9702460D01*
X20879230Y-9702460D02*
X20869706Y-9692936D01*
X20869706Y-9692936D02*
X20860182Y-9673889D01*
X20860182Y-9673889D02*
X20860182Y-9616746D01*
X20860182Y-9616746D02*
X20869706Y-9597698D01*
X20869706Y-9597698D02*
X20879230Y-9588174D01*
X20879230Y-9588174D02*
X20898277Y-9578650D01*
X20898277Y-9578650D02*
X20926849Y-9578650D01*
X20926849Y-9578650D02*
X20945896Y-9588174D01*
X20945896Y-9588174D02*
X20955420Y-9597698D01*
X20955420Y-9597698D02*
X20964944Y-9616746D01*
X20964944Y-9616746D02*
X20964944Y-9673889D01*
X20964944Y-9673889D02*
X20955420Y-9692936D01*
X20955420Y-9692936D02*
X20945896Y-9702460D01*
X20945896Y-9702460D02*
X20926849Y-9711984D01*
X20926849Y-9711984D02*
X20898277Y-9711984D01*
X21022087Y-9578650D02*
X21098277Y-9578650D01*
X21050658Y-9511984D02*
X21050658Y-9683412D01*
X21050658Y-9683412D02*
X21060182Y-9702460D01*
X21060182Y-9702460D02*
X21079230Y-9711984D01*
X21079230Y-9711984D02*
X21098277Y-9711984D01*
X21317325Y-9578650D02*
X21317325Y-9778650D01*
X21317325Y-9588174D02*
X21336373Y-9578650D01*
X21336373Y-9578650D02*
X21374468Y-9578650D01*
X21374468Y-9578650D02*
X21393515Y-9588174D01*
X21393515Y-9588174D02*
X21403039Y-9597698D01*
X21403039Y-9597698D02*
X21412563Y-9616746D01*
X21412563Y-9616746D02*
X21412563Y-9673889D01*
X21412563Y-9673889D02*
X21403039Y-9692936D01*
X21403039Y-9692936D02*
X21393515Y-9702460D01*
X21393515Y-9702460D02*
X21374468Y-9711984D01*
X21374468Y-9711984D02*
X21336373Y-9711984D01*
X21336373Y-9711984D02*
X21317325Y-9702460D01*
X21526849Y-9711984D02*
X21507801Y-9702460D01*
X21507801Y-9702460D02*
X21498277Y-9683412D01*
X21498277Y-9683412D02*
X21498277Y-9511984D01*
X21688754Y-9711984D02*
X21688754Y-9607222D01*
X21688754Y-9607222D02*
X21679230Y-9588174D01*
X21679230Y-9588174D02*
X21660182Y-9578650D01*
X21660182Y-9578650D02*
X21622087Y-9578650D01*
X21622087Y-9578650D02*
X21603039Y-9588174D01*
X21688754Y-9702460D02*
X21669706Y-9711984D01*
X21669706Y-9711984D02*
X21622087Y-9711984D01*
X21622087Y-9711984D02*
X21603039Y-9702460D01*
X21603039Y-9702460D02*
X21593515Y-9683412D01*
X21593515Y-9683412D02*
X21593515Y-9664365D01*
X21593515Y-9664365D02*
X21603039Y-9645317D01*
X21603039Y-9645317D02*
X21622087Y-9635793D01*
X21622087Y-9635793D02*
X21669706Y-9635793D01*
X21669706Y-9635793D02*
X21688754Y-9626270D01*
X21755420Y-9578650D02*
X21831611Y-9578650D01*
X21783992Y-9511984D02*
X21783992Y-9683412D01*
X21783992Y-9683412D02*
X21793515Y-9702460D01*
X21793515Y-9702460D02*
X21812563Y-9711984D01*
X21812563Y-9711984D02*
X21831611Y-9711984D01*
X21974468Y-9702460D02*
X21955420Y-9711984D01*
X21955420Y-9711984D02*
X21917325Y-9711984D01*
X21917325Y-9711984D02*
X21898277Y-9702460D01*
X21898277Y-9702460D02*
X21888754Y-9683412D01*
X21888754Y-9683412D02*
X21888754Y-9607222D01*
X21888754Y-9607222D02*
X21898277Y-9588174D01*
X21898277Y-9588174D02*
X21917325Y-9578650D01*
X21917325Y-9578650D02*
X21955420Y-9578650D01*
X21955420Y-9578650D02*
X21974468Y-9588174D01*
X21974468Y-9588174D02*
X21983992Y-9607222D01*
X21983992Y-9607222D02*
X21983992Y-9626270D01*
X21983992Y-9626270D02*
X21888754Y-9645317D01*
X22155420Y-9711984D02*
X22155420Y-9511984D01*
X22155420Y-9702460D02*
X22136373Y-9711984D01*
X22136373Y-9711984D02*
X22098277Y-9711984D01*
X22098277Y-9711984D02*
X22079230Y-9702460D01*
X22079230Y-9702460D02*
X22069706Y-9692936D01*
X22069706Y-9692936D02*
X22060182Y-9673889D01*
X22060182Y-9673889D02*
X22060182Y-9616746D01*
X22060182Y-9616746D02*
X22069706Y-9597698D01*
X22069706Y-9597698D02*
X22079230Y-9588174D01*
X22079230Y-9588174D02*
X22098277Y-9578650D01*
X22098277Y-9578650D02*
X22136373Y-9578650D01*
X22136373Y-9578650D02*
X22155420Y-9588174D01*
X22231611Y-9788174D02*
X22241135Y-9778650D01*
X22241135Y-9778650D02*
X22260182Y-9750079D01*
X22260182Y-9750079D02*
X22269706Y-9731031D01*
X22269706Y-9731031D02*
X22279230Y-9702460D01*
X22279230Y-9702460D02*
X22288754Y-9654841D01*
X22288754Y-9654841D02*
X22288754Y-9616746D01*
X22288754Y-9616746D02*
X22279230Y-9569127D01*
X22279230Y-9569127D02*
X22269706Y-9540555D01*
X22269706Y-9540555D02*
X22260182Y-9521508D01*
X22260182Y-9521508D02*
X22241135Y-9492936D01*
X22241135Y-9492936D02*
X22231611Y-9483412D01*
M02*
