M48
; DRILL file {KiCad 8.0.8} date 2025-08-03T03:17:28+0530
; FORMAT={-:-/ absolute / metric / decimal}
; #@! TF.CreationDate,2025-08-03T03:17:28+05:30
; #@! TF.GenerationSoftware,Kicad,Pcbnew,8.0.8
; #@! TF.FileFunction,Plated,1,4,PTH
FMAT,2
METRIC
; #@! TA.AperFunction,Plated,PTH,ViaDrill
T1C0.300
; #@! TA.AperFunction,Plated,PTH,ComponentDrill
T2C0.600
; #@! TA.AperFunction,Plated,PTH,ComponentDrill
T3C0.700
; #@! TA.AperFunction,Plated,PTH,ComponentDrill
T4C0.850
%
G90
G05
T1
X158.85Y-73.375
X160.0Y-61.1
X160.795Y-75.081
X161.55Y-72.625
X161.8Y-55.9
X161.9Y-59.325
X162.487Y-75.087
X162.9Y-65.9
X163.025Y-64.575
X163.224Y-59.176
X165.6Y-69.575
X166.025Y-57.7
X166.575Y-69.35
X167.0Y-63.35
X167.0Y-71.7
X167.0Y-76.6
X168.2Y-75.725
X169.05Y-73.125
X171.45Y-79.375
X171.85Y-71.35
X172.0Y-70.0
X172.1Y-67.9
X172.6Y-73.027
X175.7Y-61.9
X175.8Y-74.8
X176.0Y-65.0
X176.0Y-71.0
X177.4Y-76.6
X177.5Y-58.5
X177.5Y-74.1
X179.2Y-67.4
X179.7Y-60.7
X179.7Y-63.9
X179.775Y-77.925
X180.8Y-55.9
X181.8Y-68.6
X182.2Y-70.0
X183.0Y-70.6
X184.52Y-75.39
X186.1Y-74.9
X187.05Y-78.225
X188.4Y-76.774
X188.7Y-55.8
X188.9Y-78.1
X189.95Y-61.05
X190.6Y-69.3
X190.7Y-64.5
X191.5Y-61.1
X191.85Y-75.0
X192.8Y-62.627
X193.15Y-78.35
X194.3Y-56.9
X194.385Y-78.5
X194.8Y-60.8
X195.2Y-55.8
X195.667Y-80.027
X195.8Y-60.4
X196.15Y-57.15
X196.8Y-63.8
X196.8Y-67.6
X196.8Y-68.8
X196.8Y-70.0
X196.95Y-56.0
X196.977Y-78.613
X197.0Y-60.2
X198.37Y-75.257
X198.7Y-60.3
X199.574Y-74.4
X200.0Y-64.5
X200.4Y-62.573
X200.8Y-61.827
X201.7Y-77.9
X201.8Y-72.703
X202.3Y-60.3
X202.3Y-67.6
X202.3Y-69.0
X202.3Y-70.3
X203.325Y-80.05
X203.4Y-64.2
X203.443Y-72.643
X203.443Y-73.957
X203.525Y-78.6
X203.8Y-68.6
X204.143Y-71.943
X204.4Y-60.4
X204.4Y-65.0
X204.6Y-67.8
X204.6Y-73.4
X204.843Y-71.243
X205.2Y-60.0
X205.6Y-64.627
X205.8Y-68.4
X205.824Y-69.424
X205.831Y-70.256
X206.63Y-59.989
X206.773Y-71.2
X206.773Y-72.623
X206.8Y-66.2
X207.075Y-78.575
X207.826Y-61.827
X207.9Y-74.7
X208.0Y-60.5
X208.027Y-72.534
X208.2Y-79.6
X208.254Y-62.573
X208.254Y-65.6
X208.355Y-56.35
X208.375Y-78.575
X208.4Y-71.0
X208.427Y-64.627
X210.2Y-58.8
X211.2Y-59.8
X211.3Y-69.0
X211.3Y-71.8
X211.357Y-66.443
X211.4Y-62.573
X211.8Y-65.2
X212.6Y-63.2
X213.05Y-70.825
X213.2Y-64.739
X213.4Y-61.8
X214.2Y-62.4
X215.0Y-68.3
X215.275Y-65.125
X215.3Y-63.6
X215.4Y-72.5
X215.5Y-74.9
X215.6Y-61.0
X216.1Y-64.362
X216.4Y-73.8
X216.85Y-63.65
X216.875Y-65.125
X217.2Y-71.8
X217.225Y-67.575
X217.927Y-72.593
X218.0Y-75.0
X219.6Y-62.6
X220.7Y-67.5
X221.55Y-74.081
X222.975Y-66.225
X224.4Y-69.4
X225.6Y-65.2
X225.7Y-60.5
X226.9Y-79.2
X227.5Y-74.3
X229.6Y-76.0
X230.0Y-70.1
X233.4Y-79.6
X234.2Y-67.7
X235.3Y-64.6
X236.4Y-79.5
X239.125Y-75.87
X239.6Y-73.373
X239.85Y-65.85
X240.0Y-69.8
X241.322Y-75.83
X241.875Y-78.55
X242.049Y-71.773
X242.4Y-65.2
X243.0Y-76.05
X243.072Y-71.189
X244.8Y-69.85
X245.1Y-77.25
X245.3Y-79.8
X246.8Y-77.2
X246.85Y-72.55
X248.175Y-78.05
X249.0Y-74.0
X249.0Y-76.4
X249.8Y-72.4
X250.0Y-67.4
X250.0Y-71.15
X251.5Y-79.4
X253.7Y-67.8
X253.8Y-71.6
X253.8Y-75.6
X255.5Y-79.3
T3
X223.917Y-80.052
X230.438Y-80.062
T4
X214.7Y-76.85
X219.7Y-76.85
T2
X213.7Y-79.9G85X213.7Y-79.2
G05
X220.7Y-79.2G85X220.7Y-79.9
G05
M30
