G04 #@! TF.GenerationSoftware,KiCad,Pcbnew,8.0.8*
G04 #@! TF.CreationDate,2025-08-03T03:16:57+05:30*
G04 #@! TF.ProjectId,main,6d61696e-2e6b-4696-9361-645f70636258,rev?*
G04 #@! TF.SameCoordinates,Original*
G04 #@! TF.FileFunction,Soldermask,Top*
G04 #@! TF.FilePolarity,Negative*
%FSLAX46Y46*%
G04 Gerber Fmt 4.6, Leading zero omitted, Abs format (unit mm)*
G04 Created by KiCad (PCBNEW 8.0.8) date 2025-08-03 03:16:57*
%MOMM*%
%LPD*%
G01*
G04 APERTURE LIST*
G04 Aperture macros list*
%AMRoundRect*
0 Rectangle with rounded corners*
0 $1 Rounding radius*
0 $2 $3 $4 $5 $6 $7 $8 $9 X,Y pos of 4 corners*
0 Add a 4 corners polygon primitive as box body*
4,1,4,$2,$3,$4,$5,$6,$7,$8,$9,$2,$3,0*
0 Add four circle primitives for the rounded corners*
1,1,$1+$1,$2,$3*
1,1,$1+$1,$4,$5*
1,1,$1+$1,$6,$7*
1,1,$1+$1,$8,$9*
0 Add four rect primitives between the rounded corners*
20,1,$1+$1,$2,$3,$4,$5,0*
20,1,$1+$1,$4,$5,$6,$7,0*
20,1,$1+$1,$6,$7,$8,$9,0*
20,1,$1+$1,$8,$9,$2,$3,0*%
%AMFreePoly0*
4,1,55,-0.481452,0.792129,-0.309719,0.732037,-0.155665,0.635238,-0.027012,0.506585,0.069787,0.352531,0.129879,0.180798,0.150250,0.000000,0.129879,-0.180798,0.069787,-0.352531,-0.027012,-0.506585,-0.155665,-0.635238,-0.309719,-0.732037,-0.481452,-0.792129,-0.662250,-0.812500,-0.843048,-0.792129,-1.014781,-0.732037,-1.168835,-0.635238,-1.297488,-0.506585,-1.394287,-0.352531,-1.454379,-0.180798,
-1.474750,0.000000,-1.179515,0.000000,-1.158562,-0.145730,-1.097401,-0.279655,-1.000987,-0.390923,-0.877130,-0.470521,-0.735864,-0.512000,-0.588636,-0.512000,-0.447370,-0.470521,-0.323513,-0.390923,-0.227099,-0.279655,-0.165938,-0.145730,-0.146823,-0.012788,-0.150250,0.000000,-0.146823,0.012788,-0.165938,0.145730,-0.227099,0.279655,-0.323513,0.390923,-0.447370,0.470521,-0.588636,0.512000,
-0.735864,0.512000,-0.877130,0.470521,-1.000987,0.390923,-1.097401,0.279655,-1.158562,0.145730,-1.179515,0.000000,-1.474750,0.000000,-1.454379,0.180798,-1.394287,0.352531,-1.297488,0.506585,-1.168835,0.635238,-1.014781,0.732037,-0.843048,0.792129,-0.662250,0.812500,-0.481452,0.792129,-0.481452,0.792129,$1*%
G04 Aperture macros list end*
%ADD10C,0.010000*%
%ADD11C,0.120000*%
%ADD12R,0.600000X0.522000*%
%ADD13FreePoly0,0.000000*%
%ADD14C,0.325000*%
%ADD15R,0.700000X1.600000*%
%ADD16C,1.100000*%
%ADD17R,2.500000X1.000000*%
%ADD18R,1.400000X1.700000*%
%ADD19RoundRect,0.062500X0.062500X-0.337500X0.062500X0.337500X-0.062500X0.337500X-0.062500X-0.337500X0*%
%ADD20RoundRect,0.062500X0.287500X0.062500X-0.287500X0.062500X-0.287500X-0.062500X0.287500X-0.062500X0*%
%ADD21R,0.800000X1.600000*%
%ADD22RoundRect,0.150000X-0.587500X-0.150000X0.587500X-0.150000X0.587500X0.150000X-0.587500X0.150000X0*%
%ADD23RoundRect,0.150000X-0.512500X-0.150000X0.512500X-0.150000X0.512500X0.150000X-0.512500X0.150000X0*%
%ADD24R,2.600000X2.600000*%
%ADD25RoundRect,0.062500X0.350000X-0.062500X0.350000X0.062500X-0.350000X0.062500X-0.350000X-0.062500X0*%
%ADD26RoundRect,0.062500X0.062500X-0.350000X0.062500X0.350000X-0.062500X0.350000X-0.062500X-0.350000X0*%
%ADD27RoundRect,0.050000X0.050000X-0.225000X0.050000X0.225000X-0.050000X0.225000X-0.050000X-0.225000X0*%
%ADD28RoundRect,0.050000X-0.225000X-0.050000X0.225000X-0.050000X0.225000X0.050000X-0.225000X0.050000X0*%
%ADD29R,1.550000X1.000000*%
%ADD30C,0.750000*%
%ADD31RoundRect,0.135000X-0.185000X0.135000X-0.185000X-0.135000X0.185000X-0.135000X0.185000X0.135000X0*%
%ADD32RoundRect,0.135000X0.185000X-0.135000X0.185000X0.135000X-0.185000X0.135000X-0.185000X-0.135000X0*%
%ADD33RoundRect,0.135000X0.135000X0.185000X-0.135000X0.185000X-0.135000X-0.185000X0.135000X-0.185000X0*%
%ADD34RoundRect,0.135000X-0.135000X-0.185000X0.135000X-0.185000X0.135000X0.185000X-0.135000X0.185000X0*%
%ADD35R,0.400000X0.500000*%
%ADD36R,0.170000X0.280000*%
%ADD37R,0.520000X0.280000*%
%ADD38R,0.280000X0.520000*%
%ADD39R,0.280000X0.170000*%
%ADD40R,0.400000X0.600000*%
%ADD41R,0.500000X0.600000*%
%ADD42R,2.300000X1.600000*%
%ADD43O,1.200000X1.900000*%
%ADD44R,1.200000X1.900000*%
%ADD45C,1.450000*%
%ADD46R,1.500000X1.900000*%
%ADD47R,0.400000X1.350000*%
%ADD48RoundRect,0.250000X0.450000X-0.262500X0.450000X0.262500X-0.450000X0.262500X-0.450000X-0.262500X0*%
%ADD49RoundRect,0.102000X-0.600000X0.425000X-0.600000X-0.425000X0.600000X-0.425000X0.600000X0.425000X0*%
%ADD50RoundRect,0.147500X0.147500X0.172500X-0.147500X0.172500X-0.147500X-0.172500X0.147500X-0.172500X0*%
%ADD51RoundRect,0.102000X0.600000X-0.425000X0.600000X0.425000X-0.600000X0.425000X-0.600000X-0.425000X0*%
%ADD52R,0.700000X0.700000*%
%ADD53RoundRect,0.140000X-0.140000X-0.170000X0.140000X-0.170000X0.140000X0.170000X-0.140000X0.170000X0*%
%ADD54RoundRect,0.140000X0.140000X0.170000X-0.140000X0.170000X-0.140000X-0.170000X0.140000X-0.170000X0*%
%ADD55RoundRect,0.140000X0.170000X-0.140000X0.170000X0.140000X-0.170000X0.140000X-0.170000X-0.140000X0*%
%ADD56RoundRect,0.140000X-0.170000X0.140000X-0.170000X-0.140000X0.170000X-0.140000X0.170000X0.140000X0*%
%ADD57R,0.900000X0.900000*%
%ADD58R,0.900000X1.500000*%
%ADD59R,1.500000X0.900000*%
%ADD60C,3.200000*%
%ADD61C,2.200000*%
G04 APERTURE END LIST*
D10*
X240215000Y-76405000D02*
X240040000Y-76580000D01*
X239725000Y-76580000D01*
X239725000Y-76220000D01*
X240215000Y-76220000D01*
X240215000Y-76405000D01*
G36*
X240215000Y-76405000D02*
G01*
X240040000Y-76580000D01*
X239725000Y-76580000D01*
X239725000Y-76220000D01*
X240215000Y-76220000D01*
X240215000Y-76405000D01*
G37*
X240215000Y-77045000D02*
X240215000Y-77230000D01*
X239725000Y-77230000D01*
X239725000Y-76870000D01*
X240040000Y-76870000D01*
X240215000Y-77045000D01*
G36*
X240215000Y-77045000D02*
G01*
X240215000Y-77230000D01*
X239725000Y-77230000D01*
X239725000Y-76870000D01*
X240040000Y-76870000D01*
X240215000Y-77045000D01*
G37*
X241025000Y-77230000D02*
X240535000Y-77230000D01*
X240535000Y-77045000D01*
X240710000Y-76870000D01*
X241025000Y-76870000D01*
X241025000Y-77230000D01*
G36*
X241025000Y-77230000D02*
G01*
X240535000Y-77230000D01*
X240535000Y-77045000D01*
X240710000Y-76870000D01*
X241025000Y-76870000D01*
X241025000Y-77230000D01*
G37*
X241025000Y-76580000D02*
X240710000Y-76580000D01*
X240535000Y-76405000D01*
X240535000Y-76220000D01*
X241025000Y-76220000D01*
X241025000Y-76580000D01*
G36*
X241025000Y-76580000D02*
G01*
X240710000Y-76580000D01*
X240535000Y-76405000D01*
X240535000Y-76220000D01*
X241025000Y-76220000D01*
X241025000Y-76580000D01*
G37*
X240813406Y-76725000D02*
X240375000Y-77163406D01*
X239936594Y-76725000D01*
X240375000Y-76286594D01*
X240813406Y-76725000D01*
G36*
X240813406Y-76725000D02*
G01*
X240375000Y-77163406D01*
X239936594Y-76725000D01*
X240375000Y-76286594D01*
X240813406Y-76725000D01*
G37*
D11*
X238200000Y-77205000D02*
X237700000Y-77205000D01*
X237700000Y-76355000D01*
X238200000Y-76355000D01*
X238200000Y-77205000D01*
G36*
X238200000Y-77205000D02*
G01*
X237700000Y-77205000D01*
X237700000Y-76355000D01*
X238200000Y-76355000D01*
X238200000Y-77205000D01*
G37*
X236900000Y-77205000D02*
X236400000Y-77205000D01*
X236400000Y-76355000D01*
X236900000Y-76355000D01*
X236900000Y-77205000D01*
G36*
X236900000Y-77205000D02*
G01*
X236400000Y-77205000D01*
X236400000Y-76355000D01*
X236900000Y-76355000D01*
X236900000Y-77205000D01*
G37*
D12*
X181325000Y-75937000D03*
X181325000Y-76759000D03*
D13*
X182887250Y-78011000D03*
D12*
X183125000Y-76759000D03*
X183125000Y-75937000D03*
X182225000Y-75937000D03*
D14*
X182225000Y-78011000D03*
X175225000Y-78011000D03*
D12*
X175225000Y-75937000D03*
X176125000Y-75937000D03*
X176125000Y-76759000D03*
D13*
X175887250Y-78011000D03*
D12*
X174325000Y-76759000D03*
X174325000Y-75937000D03*
D15*
X226137500Y-76262500D03*
X228237500Y-76262500D03*
X224237500Y-76262500D03*
D16*
X223917500Y-80052500D03*
X230437500Y-80062500D03*
D17*
X184823350Y-71600000D03*
X184823350Y-69060000D03*
X184823350Y-66520000D03*
X184823350Y-63980000D03*
X184823350Y-61440000D03*
X184823350Y-58900000D03*
X169323350Y-58900000D03*
X169323350Y-61440000D03*
X169323350Y-63980000D03*
X169323350Y-66520000D03*
X169323350Y-69060000D03*
X169323350Y-71600000D03*
D18*
X242150000Y-67575000D03*
D19*
X241400000Y-66125000D03*
X241900000Y-66125000D03*
X242400000Y-66125000D03*
X242900000Y-66125000D03*
X242900000Y-69025000D03*
X242400000Y-69025000D03*
X241900000Y-69025000D03*
X241400000Y-69025000D03*
D20*
X252400000Y-74585614D03*
X252400000Y-74085614D03*
X252400000Y-73585614D03*
X252400000Y-73085614D03*
X250400000Y-73085614D03*
X250400000Y-73585614D03*
X250400000Y-74085614D03*
X250400000Y-74585614D03*
D21*
X251400000Y-73835614D03*
D22*
X242975000Y-75250000D03*
X242975000Y-77150000D03*
X244850000Y-76200000D03*
D23*
X220225000Y-69550000D03*
X220225000Y-70500000D03*
X220225000Y-71450000D03*
X222500000Y-71450000D03*
X222500000Y-70500000D03*
X222500000Y-69550000D03*
D24*
X216100000Y-64350000D03*
D25*
X214162500Y-65600000D03*
X214162500Y-65100000D03*
X214162500Y-64600000D03*
X214162500Y-64100000D03*
X214162500Y-63600000D03*
X214162500Y-63100000D03*
D26*
X214850000Y-62412500D03*
X215350000Y-62412500D03*
X215850000Y-62412500D03*
X216350000Y-62412500D03*
X216850000Y-62412500D03*
X217350000Y-62412500D03*
D25*
X218037500Y-63100000D03*
X218037500Y-63600000D03*
X218037500Y-64100000D03*
X218037500Y-64600000D03*
X218037500Y-65100000D03*
X218037500Y-65600000D03*
D26*
X217350000Y-66287500D03*
X216850000Y-66287500D03*
X216350000Y-66287500D03*
X215850000Y-66287500D03*
X215350000Y-66287500D03*
X214850000Y-66287500D03*
D27*
X163250000Y-60175000D03*
X163650000Y-60175000D03*
X164050000Y-60175000D03*
X164450000Y-60175000D03*
X164850000Y-60175000D03*
X165250000Y-60175000D03*
D28*
X165750000Y-60675000D03*
X165750000Y-61075000D03*
X165750000Y-61475000D03*
X165750000Y-61875000D03*
X165750000Y-62275000D03*
X165750000Y-62675000D03*
D27*
X165250000Y-63175000D03*
X164850000Y-63175000D03*
X164450000Y-63175000D03*
X164050000Y-63175000D03*
X163650000Y-63175000D03*
X163250000Y-63175000D03*
D28*
X162750000Y-62675000D03*
X162750000Y-62275000D03*
X162750000Y-61875000D03*
X162750000Y-61475000D03*
X162750000Y-61075000D03*
X162750000Y-60675000D03*
D29*
X158950000Y-78400000D03*
X164200000Y-78400000D03*
X158950000Y-76700000D03*
X164200000Y-76700000D03*
D30*
X161575000Y-78925000D03*
X161575000Y-76175000D03*
D31*
X245500000Y-68310000D03*
X245500000Y-67290000D03*
D32*
X244250000Y-68210000D03*
X244250000Y-67190000D03*
D33*
X248180000Y-74600000D03*
X249200000Y-74600000D03*
D31*
X232600000Y-75627500D03*
X232600000Y-76647500D03*
D33*
X249210000Y-75600000D03*
X248190000Y-75600000D03*
X249160000Y-72850000D03*
X248140000Y-72850000D03*
D34*
X246830000Y-70800000D03*
X247850000Y-70800000D03*
D33*
X244725000Y-72525000D03*
X243705000Y-72525000D03*
D31*
X226150000Y-72680000D03*
X226150000Y-73700000D03*
X243850000Y-70540000D03*
X243850000Y-71560000D03*
D32*
X241400000Y-75060000D03*
X241400000Y-74040000D03*
D33*
X222760000Y-68150000D03*
X221740000Y-68150000D03*
D32*
X179950000Y-76680000D03*
X179950000Y-75660000D03*
D31*
X172700000Y-77583000D03*
X172700000Y-78603000D03*
D33*
X169970000Y-74500000D03*
X168950000Y-74500000D03*
D34*
X161640000Y-73500000D03*
X162660000Y-73500000D03*
D33*
X172070000Y-74500000D03*
X171050000Y-74500000D03*
X190790000Y-79460000D03*
X191810000Y-79460000D03*
D34*
X170780000Y-56150000D03*
X171800000Y-56150000D03*
D31*
X167000000Y-67590000D03*
X167000000Y-68610000D03*
D32*
X209250000Y-79650000D03*
X209250000Y-78630000D03*
D34*
X165090000Y-67950000D03*
X166110000Y-67950000D03*
X165320000Y-66200000D03*
X164300000Y-66200000D03*
X213090000Y-58000000D03*
X214110000Y-58000000D03*
D32*
X164600000Y-57490000D03*
X164600000Y-58510000D03*
X162600000Y-58500000D03*
X162600000Y-57480000D03*
X163600000Y-57490000D03*
X163600000Y-58510000D03*
D31*
X212050000Y-75300000D03*
X212050000Y-74280000D03*
X219050000Y-61060000D03*
X219050000Y-60040000D03*
D32*
X214050000Y-61060000D03*
X214050000Y-60040000D03*
D31*
X212050000Y-76390000D03*
X212050000Y-77410000D03*
D35*
X238230000Y-74900000D03*
X237580000Y-74900000D03*
X236930000Y-74900000D03*
X236280000Y-74900000D03*
X236290000Y-77870000D03*
X236940000Y-77870000D03*
X237590000Y-77870000D03*
X238240000Y-77870000D03*
D36*
X245250000Y-71350000D03*
X245600000Y-71350000D03*
D37*
X245425000Y-70700000D03*
D36*
X169700000Y-75800000D03*
X169350000Y-75800000D03*
D37*
X169525000Y-76450000D03*
D38*
X167250000Y-66450000D03*
D39*
X166600000Y-66625000D03*
X166600000Y-66275000D03*
D40*
X222500000Y-62600000D03*
X221500000Y-62600000D03*
D41*
X222000000Y-63840000D03*
X216550000Y-58960000D03*
D40*
X217050000Y-60200000D03*
X216050000Y-60200000D03*
D42*
X238250000Y-72050000D03*
X238250000Y-68890000D03*
D43*
X220700000Y-79550000D03*
D44*
X220100000Y-79550000D03*
D45*
X219700000Y-76850000D03*
D46*
X218200000Y-79550000D03*
X216200000Y-79550000D03*
D45*
X214700000Y-76850000D03*
D44*
X214300000Y-79550000D03*
D43*
X213700000Y-79550000D03*
D47*
X218500000Y-76850000D03*
X217850000Y-76850000D03*
X217200000Y-76850000D03*
X216550000Y-76850000D03*
X215900000Y-76850000D03*
D48*
X213650000Y-74162500D03*
X213650000Y-72337500D03*
D49*
X234500000Y-74512500D03*
X234500000Y-77562500D03*
D50*
X217700000Y-69550000D03*
X218670000Y-69550000D03*
D51*
X188050000Y-61125000D03*
X188050000Y-58075000D03*
D52*
X162350000Y-70650000D03*
X162350000Y-71750000D03*
X164180000Y-71750000D03*
X164180000Y-70650000D03*
D53*
X239390000Y-75300000D03*
X240350000Y-75300000D03*
X244390000Y-65950000D03*
X245350000Y-65950000D03*
D54*
X240830000Y-77950000D03*
X239870000Y-77950000D03*
D55*
X233900000Y-72900000D03*
X233900000Y-71940000D03*
X235050000Y-72870000D03*
X235050000Y-71910000D03*
X253800000Y-74200000D03*
X253800000Y-73240000D03*
D56*
X249000000Y-70870000D03*
X249000000Y-71830000D03*
D55*
X246400000Y-75980000D03*
X246400000Y-75020000D03*
X184500000Y-78710000D03*
X184500000Y-77750000D03*
X177400000Y-78803000D03*
X177400000Y-77843000D03*
X185500000Y-78690000D03*
X185500000Y-77730000D03*
X178400000Y-78783000D03*
X178400000Y-77823000D03*
D54*
X218675000Y-68575000D03*
X217715000Y-68575000D03*
D53*
X218440000Y-67550000D03*
X219400000Y-67550000D03*
D55*
X219500000Y-65470000D03*
X219500000Y-66430000D03*
D56*
X167100000Y-73760000D03*
X167100000Y-74720000D03*
X166100000Y-74700000D03*
X166100000Y-73740000D03*
X188450000Y-63040000D03*
X188450000Y-64000000D03*
X188350000Y-65560000D03*
X188350000Y-66520000D03*
D55*
X187400000Y-64010000D03*
X187400000Y-63050000D03*
X187250000Y-66550000D03*
X187250000Y-65590000D03*
D53*
X163920000Y-73500000D03*
X164880000Y-73500000D03*
D54*
X193620000Y-79350000D03*
X192660000Y-79350000D03*
D53*
X210300000Y-79600000D03*
X211260000Y-79600000D03*
D55*
X206200000Y-79580000D03*
X206200000Y-78620000D03*
X205250000Y-79580000D03*
X205250000Y-78620000D03*
D56*
X166900000Y-61270000D03*
X166900000Y-62230000D03*
D55*
X161050000Y-71600000D03*
X161050000Y-70640000D03*
D54*
X164950000Y-64200000D03*
X163990000Y-64200000D03*
D57*
X198165000Y-67589000D03*
X199565000Y-67589000D03*
X200965000Y-67589000D03*
X200965000Y-68989000D03*
X200965000Y-70389000D03*
X199565000Y-70389000D03*
X198165000Y-70389000D03*
X198165000Y-68989000D03*
X199565000Y-68989000D03*
D58*
X191845000Y-58739000D03*
X193115000Y-58739000D03*
X194385000Y-58739000D03*
X195655000Y-58739000D03*
X196925000Y-58739000D03*
X198195000Y-58739000D03*
X199465000Y-58739000D03*
X200735000Y-58739000D03*
X202005000Y-58739000D03*
X203275000Y-58739000D03*
X204545000Y-58739000D03*
X205815000Y-58739000D03*
X207085000Y-58739000D03*
X208355000Y-58739000D03*
D59*
X209605000Y-60504000D03*
X209605000Y-61774000D03*
X209605000Y-63044000D03*
X209605000Y-64314000D03*
X209605000Y-65584000D03*
X209605000Y-66854000D03*
X209605000Y-68124000D03*
X209605000Y-69394000D03*
X209605000Y-70664000D03*
X209605000Y-71934000D03*
X209605000Y-73204000D03*
X209605000Y-74474000D03*
D58*
X208355000Y-76239000D03*
X207085000Y-76239000D03*
X205815000Y-76239000D03*
X204545000Y-76239000D03*
X203275000Y-76239000D03*
X202005000Y-76239000D03*
X200735000Y-76239000D03*
X199465000Y-76239000D03*
X198195000Y-76239000D03*
X196925000Y-76239000D03*
X195655000Y-76239000D03*
X194385000Y-76239000D03*
X193115000Y-76239000D03*
X191845000Y-76239000D03*
D60*
X230200000Y-64900000D03*
D61*
X159600000Y-66900000D03*
M02*
