G04 #@! TF.GenerationSoftware,KiCad,Pcbnew,8.0.8*
G04 #@! TF.CreationDate,2025-08-03T03:16:57+05:30*
G04 #@! TF.ProjectId,main,6d61696e-2e6b-4696-9361-645f70636258,rev?*
G04 #@! TF.SameCoordinates,Original*
G04 #@! TF.FileFunction,Copper,L4,Bot*
G04 #@! TF.FilePolarity,Positive*
%FSLAX46Y46*%
G04 Gerber Fmt 4.6, Leading zero omitted, Abs format (unit mm)*
G04 Created by KiCad (PCBNEW 8.0.8) date 2025-08-03 03:16:57*
%MOMM*%
%LPD*%
G01*
G04 APERTURE LIST*
G04 #@! TA.AperFunction,ComponentPad*
%ADD10C,1.100000*%
G04 #@! TD*
G04 #@! TA.AperFunction,SMDPad,CuDef*
%ADD11R,2.000000X2.000000*%
G04 #@! TD*
G04 #@! TA.AperFunction,SMDPad,CuDef*
%ADD12C,1.000000*%
G04 #@! TD*
G04 #@! TA.AperFunction,SMDPad,CuDef*
%ADD13C,2.000000*%
G04 #@! TD*
G04 #@! TA.AperFunction,HeatsinkPad*
%ADD14O,1.200000X1.900000*%
G04 #@! TD*
G04 #@! TA.AperFunction,HeatsinkPad*
%ADD15C,1.450000*%
G04 #@! TD*
G04 #@! TA.AperFunction,SMDPad,CuDef*
%ADD16R,1.550000X0.600000*%
G04 #@! TD*
G04 #@! TA.AperFunction,SMDPad,CuDef*
%ADD17R,0.600000X1.550000*%
G04 #@! TD*
G04 #@! TA.AperFunction,ViaPad*
%ADD18C,0.600000*%
G04 #@! TD*
G04 #@! TA.AperFunction,ViaPad*
%ADD19C,0.800000*%
G04 #@! TD*
G04 #@! TA.AperFunction,ViaPad*
%ADD20C,1.000000*%
G04 #@! TD*
G04 #@! TA.AperFunction,Conductor*
%ADD21C,0.200000*%
G04 #@! TD*
G04 #@! TA.AperFunction,Conductor*
%ADD22C,0.800000*%
G04 #@! TD*
G04 #@! TA.AperFunction,Conductor*
%ADD23C,0.500000*%
G04 #@! TD*
G04 #@! TA.AperFunction,Conductor*
%ADD24C,0.254000*%
G04 #@! TD*
G04 APERTURE END LIST*
D10*
X223917500Y-80052500D03*
X230437500Y-80062500D03*
D11*
X255975000Y-75760614D03*
X251780000Y-75768614D03*
X251750000Y-71685614D03*
X255844000Y-71732614D03*
D12*
X198100000Y-57350000D03*
X200100000Y-57350000D03*
X190950000Y-76000000D03*
X192350000Y-77550000D03*
X241250000Y-65450000D03*
D13*
X198500000Y-77500000D03*
D12*
X208250000Y-57450000D03*
X194350000Y-77400000D03*
D14*
X220700000Y-79550000D03*
D15*
X219700000Y-76850000D03*
X214700000Y-76850000D03*
D14*
X213700000Y-79550000D03*
D16*
X158800000Y-74528000D03*
X158800000Y-75430000D03*
X158800000Y-76300000D03*
X158800000Y-77300000D03*
X158800000Y-78300000D03*
X158800000Y-79300000D03*
D17*
X206169000Y-77210000D03*
X207169000Y-77210000D03*
X208169000Y-77210000D03*
X209169000Y-77210000D03*
X210039000Y-77210000D03*
D18*
X224400000Y-69400000D03*
X215400000Y-72500000D03*
X188900000Y-78100000D03*
X186100000Y-74900000D03*
X177500000Y-74100000D03*
X167000000Y-71700000D03*
X160000000Y-61100000D03*
X161800000Y-55900000D03*
X180800000Y-55900000D03*
X188700000Y-55800000D03*
X234200000Y-67700000D03*
X225600000Y-65200000D03*
X208000000Y-60500000D03*
X202300000Y-60300000D03*
X198700000Y-60300000D03*
X194300000Y-56900000D03*
X195200000Y-55800000D03*
X191500000Y-61100000D03*
X190700000Y-64500000D03*
X190600000Y-69300000D03*
X211300000Y-71800000D03*
X215000000Y-68300000D03*
X215500000Y-74900000D03*
X218000000Y-75000000D03*
X207900000Y-74700000D03*
X201700000Y-77900000D03*
X211300000Y-69000000D03*
X226900000Y-79200000D03*
X233400000Y-79600000D03*
X236400000Y-79500000D03*
X245300000Y-79800000D03*
X255500000Y-79300000D03*
X251500000Y-79400000D03*
X253700000Y-67800000D03*
X250000000Y-67400000D03*
X230000000Y-70100000D03*
X235300000Y-64600000D03*
X225700000Y-60500000D03*
X200000000Y-64500000D03*
X172100000Y-67900000D03*
X177500000Y-58500000D03*
X176000000Y-65000000D03*
X179700000Y-60700000D03*
X179700000Y-63900000D03*
X175700000Y-61900000D03*
X202300000Y-70300000D03*
X202300000Y-69000000D03*
X202300000Y-67600000D03*
X196800000Y-70000000D03*
X196800000Y-67600000D03*
X196800000Y-68800000D03*
X162900000Y-65900000D03*
X220700000Y-67500000D03*
X184520000Y-75390000D03*
D19*
X245100000Y-77250000D03*
X227500000Y-74300000D03*
D18*
X246850000Y-72550000D03*
X203325000Y-80050000D03*
D20*
X222975000Y-66225000D03*
X213050000Y-70825000D03*
X221550000Y-74081000D03*
X217927000Y-72593316D03*
D18*
X171850000Y-71350000D03*
X169050000Y-73125000D03*
X189950000Y-61050000D03*
X187050000Y-78225000D03*
X179775000Y-77925000D03*
X166025000Y-57700000D03*
X167000000Y-63350000D03*
X163025000Y-64575000D03*
X166575000Y-69350000D03*
X161550000Y-72625000D03*
X158850000Y-73375000D03*
D19*
X165600000Y-69575000D03*
X168200000Y-75725000D03*
X203525000Y-78600000D03*
X241875000Y-78550000D03*
D18*
X215300000Y-63600000D03*
X216875000Y-65125000D03*
X215275000Y-65125000D03*
X216850000Y-63650000D03*
X216100000Y-64362500D03*
X248175000Y-78050000D03*
X239125000Y-75870000D03*
X241322447Y-75830000D03*
X243000000Y-76050000D03*
D19*
X246800000Y-77200000D03*
D18*
X242400000Y-65200000D03*
X240000000Y-69800000D03*
X229600000Y-76000000D03*
X242048527Y-71773000D03*
X243072123Y-71189352D03*
X239600000Y-73373000D03*
X244800000Y-69850000D03*
D19*
X253800000Y-71600000D03*
D18*
X171450000Y-79375000D03*
X195666790Y-80027000D03*
X160794777Y-75081389D03*
X162486612Y-75086612D03*
X167000000Y-76600000D03*
X207826000Y-61827000D03*
X200800000Y-61827000D03*
X179200000Y-67400000D03*
X172600000Y-73027000D03*
X208254000Y-62573000D03*
X200400000Y-62573000D03*
X196800000Y-63800000D03*
X198370143Y-75256857D03*
X201800000Y-72702644D03*
X208400000Y-71000000D03*
X208027000Y-72534000D03*
X206773000Y-72623358D03*
X204843356Y-71243356D03*
X203800000Y-68600000D03*
X183000000Y-70600000D03*
X176000000Y-71000000D03*
X206773000Y-71200000D03*
X205831181Y-70255532D03*
X204600000Y-67800000D03*
X182200000Y-70000000D03*
X172000000Y-70000000D03*
X208254000Y-65600000D03*
X204400000Y-65000000D03*
X204400000Y-60400000D03*
X161900000Y-59325000D03*
X208427000Y-64627000D03*
X205600000Y-64627000D03*
X205200000Y-60000000D03*
X163224265Y-59175735D03*
X203400000Y-64200000D03*
X249800000Y-72400000D03*
X203443356Y-72643356D03*
X203443356Y-73956644D03*
X204143356Y-71943356D03*
X204600000Y-73400000D03*
X192800000Y-62627000D03*
X194800000Y-60800000D03*
X206800000Y-66200000D03*
X206629763Y-59988974D03*
X211200000Y-59800000D03*
X219600000Y-62600000D03*
X210200000Y-58800000D03*
X215600000Y-61000000D03*
X214200000Y-62400000D03*
X213400000Y-61800000D03*
X213200000Y-64739500D03*
X197000000Y-60200000D03*
X211400000Y-62573000D03*
X212600000Y-63200000D03*
X195800000Y-60400000D03*
X211356644Y-66443356D03*
X249000000Y-76400000D03*
X211800000Y-65200000D03*
X249000000Y-74000000D03*
X205800000Y-68400000D03*
X175800000Y-74800000D03*
X205824000Y-69424000D03*
X177400000Y-76600000D03*
X199573801Y-74400000D03*
X188400000Y-76774400D03*
X217200000Y-71800000D03*
X216400000Y-73800000D03*
D19*
X239850000Y-65850000D03*
X191850000Y-75000000D03*
X193150000Y-78350000D03*
D18*
X196150000Y-57150000D03*
X196950000Y-56000000D03*
X208355000Y-56350000D03*
X194385000Y-78500000D03*
D19*
X250000000Y-71150000D03*
D18*
X208375000Y-78575000D03*
X207075000Y-78575000D03*
X196977000Y-78613000D03*
X181800000Y-68600000D03*
D19*
X253800000Y-75600000D03*
D18*
X208200000Y-79600000D03*
X217225000Y-67575000D03*
D21*
X197090000Y-78500000D02*
X196977000Y-78613000D01*
X198600000Y-78200000D02*
X198300000Y-78500000D01*
X198300000Y-78500000D02*
X197090000Y-78500000D01*
D22*
X221456000Y-74175000D02*
X221550000Y-74081000D01*
X219508684Y-74175000D02*
X221456000Y-74175000D01*
X217927000Y-72593316D02*
X219508684Y-74175000D01*
D23*
X228450000Y-75250000D02*
X227500000Y-74300000D01*
X233033998Y-75250000D02*
X228450000Y-75250000D01*
X244650000Y-77700000D02*
X235483998Y-77700000D01*
X245100000Y-77250000D02*
X244650000Y-77700000D01*
X235483998Y-77700000D02*
X233033998Y-75250000D01*
D21*
X249025000Y-73175000D02*
X249800000Y-72400000D01*
X242776869Y-73173000D02*
X248776869Y-73173000D01*
X248776869Y-73173000D02*
X248778869Y-73175000D01*
X248778869Y-73175000D02*
X249025000Y-73175000D01*
X242376869Y-72773000D02*
X242776869Y-73173000D01*
X241773000Y-72773000D02*
X242376869Y-72773000D01*
X241400000Y-72400000D02*
X241773000Y-72773000D01*
D24*
X217454000Y-71054000D02*
X215967288Y-71054000D01*
D21*
X169624265Y-59775735D02*
X169800000Y-59600000D01*
X162350735Y-59775735D02*
X169624265Y-59775735D01*
X203600000Y-59600000D02*
X204400000Y-60400000D01*
X161900000Y-59325000D02*
X162350735Y-59775735D01*
X169800000Y-59600000D02*
X203600000Y-59600000D01*
D23*
X157978000Y-73375000D02*
X158850000Y-73375000D01*
X157575000Y-73778000D02*
X157978000Y-73375000D01*
X157575000Y-75278000D02*
X157575000Y-73778000D01*
X158800000Y-75430000D02*
X157727000Y-75430000D01*
X157727000Y-75430000D02*
X157575000Y-75278000D01*
X204779000Y-78600000D02*
X206169000Y-77210000D01*
X203525000Y-78600000D02*
X204779000Y-78600000D01*
X250348614Y-77200000D02*
X246800000Y-77200000D01*
X251780000Y-75768614D02*
X250348614Y-77200000D01*
D21*
X240000000Y-69600000D02*
X242400000Y-67200000D01*
X242400000Y-67200000D02*
X242400000Y-65200000D01*
X240000000Y-69800000D02*
X240000000Y-69600000D01*
D23*
X253932614Y-71732614D02*
X253800000Y-71600000D01*
X255844000Y-71732614D02*
X253932614Y-71732614D01*
X255292386Y-71732614D02*
X254793750Y-72231250D01*
X255844000Y-71732614D02*
X255292386Y-71732614D01*
D24*
X190901400Y-74273000D02*
X188400000Y-76774400D01*
X199573801Y-74400000D02*
X199446801Y-74273000D01*
X199446801Y-74273000D02*
X190901400Y-74273000D01*
D21*
X172102000Y-80027000D02*
X171450000Y-79375000D01*
X160241388Y-74528000D02*
X158800000Y-74528000D01*
X160794777Y-75081389D02*
X160241388Y-74528000D01*
X167000000Y-76600000D02*
X165486612Y-75086612D01*
X165486612Y-75086612D02*
X162486612Y-75086612D01*
X200800000Y-61827000D02*
X207826000Y-61827000D01*
X178200000Y-67400000D02*
X179200000Y-67400000D01*
X173200000Y-72400000D02*
X178200000Y-67400000D01*
X172600000Y-73000000D02*
X173200000Y-72400000D01*
X172600000Y-73027000D02*
X172600000Y-73000000D01*
X166724695Y-70000000D02*
X160424695Y-76300000D01*
X160424695Y-76300000D02*
X158800000Y-76300000D01*
X172000000Y-70000000D02*
X166724695Y-70000000D01*
X208227000Y-62600000D02*
X208254000Y-62573000D01*
X200427000Y-62600000D02*
X208227000Y-62600000D01*
X200400000Y-62573000D02*
X200427000Y-62600000D01*
D24*
X205041410Y-68400000D02*
X205800000Y-68400000D01*
X199800000Y-72800000D02*
X201000000Y-71600000D01*
X188957947Y-72800000D02*
X199800000Y-72800000D01*
X201000000Y-71600000D02*
X201841410Y-71600000D01*
X201841410Y-71600000D02*
X205041410Y-68400000D01*
X187411948Y-74346000D02*
X188146000Y-73611947D01*
X187000000Y-74346000D02*
X187411948Y-74346000D01*
X188146000Y-73611947D02*
X188957947Y-72800000D01*
X189146000Y-73254000D02*
X185800000Y-76600000D01*
X199988052Y-73254000D02*
X189146000Y-73254000D01*
X201166408Y-72075644D02*
X199988052Y-73254000D01*
X204659462Y-69424000D02*
X202007818Y-72075644D01*
X185800000Y-76600000D02*
X177400000Y-76600000D01*
X205824000Y-69424000D02*
X204659462Y-69424000D01*
X202007818Y-72075644D02*
X201166408Y-72075644D01*
D21*
X185000000Y-68600000D02*
X183000000Y-70600000D01*
X195731372Y-66000000D02*
X193131372Y-68600000D01*
X203800000Y-68600000D02*
X203800000Y-68200000D01*
X201600000Y-66000000D02*
X195731372Y-66000000D01*
X193131372Y-68600000D02*
X185000000Y-68600000D01*
X203800000Y-68200000D02*
X201600000Y-66000000D01*
X195565686Y-65600000D02*
X192965686Y-68200000D01*
X202400000Y-65600000D02*
X195565686Y-65600000D01*
X184000000Y-68200000D02*
X182200000Y-70000000D01*
X204600000Y-67800000D02*
X202400000Y-65600000D01*
X192965686Y-68200000D02*
X184000000Y-68200000D01*
X206200000Y-70627000D02*
X206200000Y-70624351D01*
X206200000Y-70624351D02*
X205831181Y-70255532D01*
X206773000Y-71200000D02*
X206200000Y-70627000D01*
D24*
X195285000Y-79400000D02*
X194385000Y-78500000D01*
X199800000Y-79400000D02*
X195285000Y-79400000D01*
X200200000Y-79000000D02*
X199800000Y-79400000D01*
X206800000Y-74800000D02*
X200800000Y-74800000D01*
X200800000Y-74800000D02*
X200200000Y-75400000D01*
X207400000Y-66800000D02*
X207400000Y-74200000D01*
X200200000Y-75400000D02*
X200200000Y-79000000D01*
X206800000Y-66200000D02*
X207400000Y-66800000D01*
X207400000Y-74200000D02*
X206800000Y-74800000D01*
X206818737Y-59800000D02*
X211200000Y-59800000D01*
X206629763Y-59988974D02*
X206818737Y-59800000D01*
D21*
X204375735Y-59175735D02*
X163224265Y-59175735D01*
X205200000Y-60000000D02*
X204375735Y-59175735D01*
X205600000Y-64627000D02*
X205627000Y-64600000D01*
X208400000Y-64600000D02*
X208427000Y-64627000D01*
X205627000Y-64600000D02*
X208400000Y-64600000D01*
X204400000Y-65000000D02*
X205000000Y-65600000D01*
X205000000Y-65600000D02*
X208254000Y-65600000D01*
D24*
X203400000Y-64200000D02*
X203600000Y-64000000D01*
X203600000Y-64000000D02*
X211486712Y-64000000D01*
D21*
X192800000Y-67800000D02*
X195000000Y-65600000D01*
X190200000Y-67800000D02*
X192800000Y-67800000D01*
X195000000Y-65600000D02*
X196800000Y-63800000D01*
X182600000Y-67800000D02*
X190200000Y-67800000D01*
X181800000Y-68600000D02*
X182600000Y-67800000D01*
X208200000Y-72361000D02*
X208027000Y-72534000D01*
X208200000Y-71200000D02*
X208200000Y-72361000D01*
X208400000Y-71000000D02*
X208200000Y-71200000D01*
X206223358Y-72623358D02*
X206773000Y-72623358D01*
X204843356Y-71243356D02*
X206223358Y-72623358D01*
X169700000Y-77300000D02*
X176000000Y-71000000D01*
X158800000Y-77300000D02*
X169700000Y-77300000D01*
D24*
X203443356Y-73956644D02*
X203443356Y-72643356D01*
X204600000Y-73400000D02*
X204600000Y-72400000D01*
X204600000Y-72400000D02*
X204143356Y-71943356D01*
X186173000Y-62627000D02*
X192800000Y-62627000D01*
X169123000Y-79677000D02*
X174400000Y-74400000D01*
X159177000Y-79677000D02*
X169123000Y-79677000D01*
X174400000Y-74400000D02*
X186173000Y-62627000D01*
X158800000Y-79300000D02*
X159177000Y-79677000D01*
X186000000Y-62000000D02*
X194200000Y-62000000D01*
X194800000Y-61400000D02*
X194800000Y-60800000D01*
X180000000Y-68000000D02*
X186000000Y-62000000D01*
X194200000Y-62000000D02*
X194800000Y-61400000D01*
X169827000Y-78173000D02*
X180000000Y-68000000D01*
X158927000Y-78173000D02*
X169827000Y-78173000D01*
X158800000Y-78300000D02*
X158927000Y-78173000D01*
X215800000Y-58800000D02*
X219600000Y-62600000D01*
X210200000Y-58800000D02*
X215800000Y-58800000D01*
X215600000Y-61000000D02*
X214200000Y-62400000D01*
X213227000Y-61973000D02*
X213400000Y-61800000D01*
X213200000Y-64739500D02*
X213227000Y-64712500D01*
X213227000Y-64712500D02*
X213227000Y-61973000D01*
X212600000Y-63200000D02*
X198600000Y-63200000D01*
X198600000Y-63200000D02*
X195800000Y-60400000D01*
X198000000Y-61200000D02*
X197000000Y-60200000D01*
X211400000Y-62000000D02*
X210600000Y-61200000D01*
X210600000Y-61200000D02*
X198000000Y-61200000D01*
X211400000Y-62573000D02*
X211400000Y-62000000D01*
X211800000Y-66000000D02*
X211800000Y-65200000D01*
X216400000Y-70600000D02*
X211800000Y-66000000D01*
X217650000Y-70600000D02*
X216400000Y-70600000D01*
X224000000Y-72800000D02*
X219850000Y-72800000D01*
X219850000Y-72800000D02*
X217650000Y-70600000D01*
X227000000Y-71600000D02*
X225200000Y-71600000D01*
X225200000Y-71600000D02*
X224000000Y-72800000D01*
X229000000Y-73600000D02*
X227000000Y-71600000D01*
X236000000Y-73600000D02*
X229000000Y-73600000D01*
X240000000Y-74000000D02*
X236400000Y-74000000D01*
X240800000Y-73200000D02*
X240000000Y-74000000D01*
X236400000Y-74000000D02*
X236000000Y-73600000D01*
X242200000Y-73200000D02*
X240800000Y-73200000D01*
X242600000Y-73600000D02*
X242200000Y-73200000D01*
X248600000Y-73600000D02*
X242600000Y-73600000D01*
X249000000Y-74000000D02*
X248600000Y-73600000D01*
X179011947Y-74346000D02*
X187000000Y-74346000D01*
X187000000Y-74346000D02*
X187200000Y-74346000D01*
X178746000Y-74611947D02*
X179011947Y-74346000D01*
X175800000Y-74800000D02*
X178557948Y-74800000D01*
X178557948Y-74800000D02*
X178746000Y-74611947D01*
D23*
X191850000Y-75100000D02*
X190950000Y-76000000D01*
X191850000Y-75000000D02*
X191850000Y-75100000D01*
X239850000Y-65850000D02*
X240850000Y-65850000D01*
X240850000Y-65850000D02*
X241250000Y-65450000D01*
X193150000Y-78350000D02*
X192350000Y-77550000D01*
D24*
X196150000Y-57150000D02*
X197900000Y-57150000D01*
X197900000Y-57150000D02*
X198100000Y-57350000D01*
X196950000Y-56000000D02*
X198750000Y-56000000D01*
X198750000Y-56000000D02*
X200100000Y-57350000D01*
X208355000Y-57345000D02*
X208250000Y-57450000D01*
X208355000Y-56350000D02*
X208355000Y-57345000D01*
X194385000Y-78500000D02*
X194385000Y-77435000D01*
X194385000Y-77435000D02*
X194350000Y-77400000D01*
D23*
X250535614Y-71685614D02*
X250000000Y-71150000D01*
X251750000Y-71685614D02*
X250535614Y-71685614D01*
X255975000Y-71863614D02*
X255844000Y-71732614D01*
X255975000Y-75760614D02*
X255975000Y-71863614D01*
D21*
X207075000Y-78575000D02*
X207075000Y-77304000D01*
X207075000Y-77304000D02*
X207169000Y-77210000D01*
X208375000Y-77416000D02*
X208169000Y-77210000D01*
X208375000Y-78575000D02*
X208375000Y-77416000D01*
X202400000Y-73302644D02*
X201800000Y-72702644D01*
X202400000Y-74000000D02*
X202400000Y-73302644D01*
X202200000Y-74200000D02*
X202400000Y-74000000D01*
X201063765Y-74373000D02*
X201236765Y-74200000D01*
X200623130Y-74373000D02*
X201063765Y-74373000D01*
X201236765Y-74200000D02*
X202200000Y-74200000D01*
X198627000Y-75000000D02*
X199996130Y-75000000D01*
X199996130Y-75000000D02*
X200623130Y-74373000D01*
X198370143Y-75256857D02*
X198627000Y-75000000D01*
D23*
X251780000Y-71715614D02*
X251750000Y-71685614D01*
X251780000Y-75768614D02*
X251780000Y-71715614D01*
X251780000Y-75768614D02*
X253631386Y-75768614D01*
X253631386Y-75768614D02*
X253800000Y-75600000D01*
D21*
X209169000Y-78631000D02*
X209169000Y-77210000D01*
X208200000Y-79600000D02*
X209169000Y-78631000D01*
D24*
X215967288Y-71054000D02*
X211356644Y-66443356D01*
D21*
X217200000Y-71800000D02*
X217200000Y-73000000D01*
X217200000Y-73000000D02*
X216400000Y-73800000D01*
D24*
X232600000Y-72600000D02*
X234600000Y-70600000D01*
X234600000Y-70600000D02*
X239600000Y-70600000D01*
X229400000Y-72600000D02*
X232600000Y-72600000D01*
X227800000Y-71000000D02*
X229400000Y-72600000D01*
X222854000Y-72346000D02*
X224200000Y-71000000D01*
X220038052Y-72346000D02*
X222854000Y-72346000D01*
X239600000Y-70600000D02*
X241400000Y-72400000D01*
X224200000Y-71000000D02*
X227800000Y-71000000D01*
X217632712Y-70146000D02*
X217838052Y-70146000D01*
X211486712Y-64000000D02*
X217632712Y-70146000D01*
X217838052Y-70146000D02*
X220038052Y-72346000D01*
X219654000Y-73254000D02*
X217454000Y-71054000D01*
X224454000Y-72988053D02*
X224188053Y-73254000D01*
X225388052Y-72054000D02*
X224454000Y-72988053D01*
X226811948Y-72054000D02*
X225388052Y-72054000D01*
X228811948Y-74054000D02*
X226811948Y-72054000D01*
X232654000Y-74054000D02*
X228811948Y-74054000D01*
X234000000Y-75400000D02*
X232654000Y-74054000D01*
X235265947Y-75400000D02*
X234000000Y-75400000D01*
X236211947Y-74454000D02*
X235265947Y-75400000D01*
X224188053Y-73254000D02*
X219654000Y-73254000D01*
X240221026Y-74421026D02*
X240188053Y-74454000D01*
X247400000Y-74400000D02*
X247054000Y-74054000D01*
X247400000Y-76000000D02*
X247400000Y-74400000D01*
X247054000Y-74054000D02*
X240588052Y-74054000D01*
X247800000Y-76400000D02*
X247400000Y-76000000D01*
X249000000Y-76400000D02*
X247800000Y-76400000D01*
X240588052Y-74054000D02*
X240221026Y-74421026D01*
D21*
X195666790Y-80027000D02*
X172102000Y-80027000D01*
D24*
X240188053Y-74454000D02*
X236211947Y-74454000D01*
G04 #@! TA.AperFunction,Conductor*
G36*
X213669227Y-54305684D02*
G01*
X223794576Y-57329249D01*
X258211396Y-67606573D01*
X258270000Y-67644617D01*
X258298733Y-67708305D01*
X258299916Y-67725278D01*
X258311439Y-80575999D01*
X258291815Y-80643056D01*
X258239052Y-80688858D01*
X258187560Y-80700110D01*
X231480903Y-80726187D01*
X231413844Y-80706568D01*
X231368038Y-80653809D01*
X231358027Y-80584660D01*
X231371423Y-80543735D01*
X231412732Y-80466454D01*
X231472800Y-80268434D01*
X231493083Y-80062500D01*
X231472800Y-79856566D01*
X231412732Y-79658546D01*
X231315185Y-79476050D01*
X231258366Y-79406815D01*
X231183910Y-79316089D01*
X231037266Y-79195743D01*
X231023950Y-79184815D01*
X230841454Y-79087268D01*
X230643434Y-79027200D01*
X230643432Y-79027199D01*
X230643434Y-79027199D01*
X230437500Y-79006917D01*
X230231567Y-79027199D01*
X230033543Y-79087269D01*
X229949455Y-79132216D01*
X229851050Y-79184815D01*
X229851048Y-79184816D01*
X229851047Y-79184817D01*
X229691089Y-79316089D01*
X229559817Y-79476047D01*
X229462269Y-79658543D01*
X229402199Y-79856567D01*
X229381917Y-80062500D01*
X229402199Y-80268432D01*
X229405826Y-80280387D01*
X229459235Y-80456456D01*
X229462269Y-80466456D01*
X229504663Y-80545769D01*
X229518905Y-80614172D01*
X229493905Y-80679416D01*
X229437600Y-80720787D01*
X229395426Y-80728223D01*
X224952150Y-80732562D01*
X224885091Y-80712943D01*
X224839285Y-80660184D01*
X224829274Y-80591035D01*
X224842670Y-80550111D01*
X224892732Y-80456454D01*
X224952800Y-80258434D01*
X224973083Y-80052500D01*
X224952800Y-79846566D01*
X224892732Y-79648546D01*
X224795185Y-79466050D01*
X224720459Y-79374995D01*
X224663910Y-79306089D01*
X224546177Y-79209469D01*
X224503950Y-79174815D01*
X224321454Y-79077268D01*
X224123434Y-79017200D01*
X224123432Y-79017199D01*
X224123434Y-79017199D01*
X223917500Y-78996917D01*
X223711567Y-79017199D01*
X223513543Y-79077269D01*
X223445896Y-79113428D01*
X223331050Y-79174815D01*
X223331048Y-79174816D01*
X223331047Y-79174817D01*
X223171089Y-79306089D01*
X223043841Y-79461144D01*
X223039815Y-79466050D01*
X223034470Y-79476050D01*
X222942269Y-79648543D01*
X222942268Y-79648545D01*
X222942268Y-79648546D01*
X222939235Y-79658546D01*
X222882199Y-79846567D01*
X222861917Y-80052500D01*
X222882199Y-80258432D01*
X222888859Y-80280386D01*
X222942268Y-80456454D01*
X222990008Y-80545769D01*
X222993407Y-80552127D01*
X223007649Y-80620530D01*
X222982649Y-80685774D01*
X222926345Y-80727145D01*
X222884170Y-80734581D01*
X221695957Y-80735741D01*
X221628898Y-80716122D01*
X221583092Y-80663363D01*
X221573081Y-80594214D01*
X221595518Y-80538855D01*
X221640803Y-80476525D01*
X221719408Y-80322257D01*
X221772914Y-80157584D01*
X221800000Y-79986571D01*
X221800000Y-79800000D01*
X221000000Y-79800000D01*
X221000000Y-79300000D01*
X221800000Y-79300000D01*
X221800000Y-79113428D01*
X221772914Y-78942415D01*
X221719408Y-78777742D01*
X221640804Y-78623475D01*
X221539032Y-78483397D01*
X221416602Y-78360967D01*
X221276524Y-78259195D01*
X221122257Y-78180591D01*
X220957589Y-78127087D01*
X220957581Y-78127085D01*
X220950000Y-78125884D01*
X220950000Y-79033011D01*
X220940060Y-79015795D01*
X220884205Y-78959940D01*
X220815796Y-78920444D01*
X220739496Y-78900000D01*
X220660504Y-78900000D01*
X220584204Y-78920444D01*
X220515795Y-78959940D01*
X220459940Y-79015795D01*
X220450000Y-79033011D01*
X220450000Y-78125884D01*
X220449999Y-78125884D01*
X220442418Y-78127085D01*
X220442404Y-78127088D01*
X220428172Y-78131713D01*
X220358331Y-78133706D01*
X220298499Y-78097624D01*
X220267673Y-78034922D01*
X220275639Y-77965508D01*
X220318734Y-77912206D01*
X220490417Y-77791992D01*
X220490423Y-77791987D01*
X220641987Y-77640423D01*
X220641992Y-77640416D01*
X220764930Y-77464844D01*
X220764932Y-77464840D01*
X220855518Y-77270576D01*
X220855522Y-77270567D01*
X220901225Y-77100000D01*
X220046410Y-77100000D01*
X220096037Y-77014044D01*
X220125000Y-76905952D01*
X220125000Y-76794048D01*
X220096037Y-76685956D01*
X220046410Y-76600000D01*
X220901225Y-76600000D01*
X220901225Y-76599999D01*
X220855522Y-76429432D01*
X220855518Y-76429423D01*
X220764933Y-76235162D01*
X220764932Y-76235160D01*
X220641990Y-76059579D01*
X220490417Y-75908007D01*
X220314844Y-75785069D01*
X220314840Y-75785067D01*
X220120578Y-75694481D01*
X219950000Y-75648774D01*
X219950000Y-76503590D01*
X219864044Y-76453963D01*
X219755952Y-76425000D01*
X219644048Y-76425000D01*
X219535956Y-76453963D01*
X219450000Y-76503590D01*
X219450000Y-75648774D01*
X219449999Y-75648774D01*
X219279421Y-75694481D01*
X219085162Y-75785066D01*
X219085160Y-75785067D01*
X218909575Y-75908012D01*
X218758012Y-76059575D01*
X218635067Y-76235160D01*
X218635066Y-76235162D01*
X218544481Y-76429423D01*
X218544477Y-76429432D01*
X218498774Y-76599999D01*
X218498775Y-76600000D01*
X219353590Y-76600000D01*
X219303963Y-76685956D01*
X219275000Y-76794048D01*
X219275000Y-76905952D01*
X219303963Y-77014044D01*
X219353590Y-77100000D01*
X218498775Y-77100000D01*
X218544477Y-77270567D01*
X218544481Y-77270576D01*
X218635067Y-77464840D01*
X218635069Y-77464844D01*
X218758007Y-77640416D01*
X218758012Y-77640423D01*
X218909576Y-77791987D01*
X218909583Y-77791992D01*
X219085155Y-77914930D01*
X219085159Y-77914932D01*
X219279423Y-78005518D01*
X219279432Y-78005522D01*
X219449999Y-78051225D01*
X219450000Y-78051224D01*
X219450000Y-77196409D01*
X219535956Y-77246037D01*
X219644048Y-77275000D01*
X219755952Y-77275000D01*
X219864044Y-77246037D01*
X219950000Y-77196409D01*
X219950000Y-78051224D01*
X220037195Y-78027861D01*
X220107045Y-78029524D01*
X220164908Y-78068686D01*
X220192412Y-78132915D01*
X220180826Y-78201817D01*
X220133827Y-78253517D01*
X220125591Y-78258117D01*
X220123479Y-78259193D01*
X219983397Y-78360967D01*
X219860967Y-78483397D01*
X219759195Y-78623475D01*
X219680591Y-78777742D01*
X219627085Y-78942415D01*
X219600000Y-79113428D01*
X219600000Y-79300000D01*
X220400000Y-79300000D01*
X220400000Y-79800000D01*
X219600000Y-79800000D01*
X219600000Y-79986571D01*
X219627085Y-80157584D01*
X219680591Y-80322257D01*
X219759197Y-80476527D01*
X219805893Y-80540800D01*
X219829372Y-80606606D01*
X219813546Y-80674660D01*
X219763440Y-80723354D01*
X219705695Y-80737684D01*
X214690988Y-80742580D01*
X214623929Y-80722961D01*
X214578123Y-80670202D01*
X214568112Y-80601053D01*
X214590549Y-80545694D01*
X214640803Y-80476525D01*
X214719408Y-80322257D01*
X214772914Y-80157584D01*
X214800000Y-79986571D01*
X214800000Y-79800000D01*
X214000000Y-79800000D01*
X214000000Y-79300000D01*
X214800000Y-79300000D01*
X214800000Y-79113428D01*
X214772914Y-78942415D01*
X214719408Y-78777742D01*
X214640804Y-78623475D01*
X214539032Y-78483397D01*
X214416602Y-78360967D01*
X214276522Y-78259194D01*
X214274414Y-78258120D01*
X214273755Y-78257498D01*
X214272373Y-78256651D01*
X214272551Y-78256360D01*
X214223619Y-78210146D01*
X214206824Y-78142325D01*
X214229362Y-78076190D01*
X214284077Y-78032739D01*
X214353598Y-78025767D01*
X214362804Y-78027861D01*
X214486465Y-78060996D01*
X214486472Y-78060997D01*
X214699999Y-78079679D01*
X214700001Y-78079679D01*
X214913527Y-78060997D01*
X214913537Y-78060995D01*
X215120567Y-78005522D01*
X215120576Y-78005518D01*
X215314839Y-77914933D01*
X215371621Y-77875173D01*
X214768173Y-77271725D01*
X214864044Y-77246037D01*
X214960956Y-77190084D01*
X215040084Y-77110956D01*
X215096037Y-77014044D01*
X215121725Y-76918172D01*
X215725173Y-77521621D01*
X215764933Y-77464839D01*
X215855518Y-77270576D01*
X215855522Y-77270567D01*
X215910995Y-77063537D01*
X215910997Y-77063527D01*
X215929679Y-76850000D01*
X215929679Y-76849999D01*
X215910997Y-76636472D01*
X215910995Y-76636462D01*
X215855522Y-76429432D01*
X215855518Y-76429423D01*
X215764933Y-76235162D01*
X215725173Y-76178378D01*
X215121725Y-76781826D01*
X215096037Y-76685956D01*
X215040084Y-76589044D01*
X214960956Y-76509916D01*
X214864044Y-76453963D01*
X214768171Y-76428274D01*
X215371621Y-75824825D01*
X215314840Y-75785067D01*
X215314838Y-75785066D01*
X215120576Y-75694481D01*
X215120567Y-75694477D01*
X214913537Y-75639004D01*
X214913527Y-75639002D01*
X214700001Y-75620321D01*
X214699999Y-75620321D01*
X214486472Y-75639002D01*
X214486462Y-75639004D01*
X214279432Y-75694477D01*
X214279423Y-75694481D01*
X214085158Y-75785068D01*
X214028378Y-75824824D01*
X214631828Y-76428274D01*
X214535956Y-76453963D01*
X214439044Y-76509916D01*
X214359916Y-76589044D01*
X214303963Y-76685956D01*
X214278274Y-76781828D01*
X213674824Y-76178378D01*
X213635068Y-76235158D01*
X213544481Y-76429423D01*
X213544477Y-76429432D01*
X213489004Y-76636462D01*
X213489002Y-76636472D01*
X213470321Y-76849999D01*
X213470321Y-76850000D01*
X213489002Y-77063527D01*
X213489004Y-77063537D01*
X213544477Y-77270567D01*
X213544481Y-77270576D01*
X213635066Y-77464838D01*
X213635067Y-77464840D01*
X213674825Y-77521620D01*
X213674825Y-77521621D01*
X214278274Y-76918171D01*
X214303963Y-77014044D01*
X214359916Y-77110956D01*
X214439044Y-77190084D01*
X214535956Y-77246037D01*
X214631827Y-77271725D01*
X214028377Y-77875173D01*
X214028377Y-77875174D01*
X214081267Y-77912207D01*
X214124892Y-77966783D01*
X214132086Y-78036281D01*
X214100564Y-78098636D01*
X214040334Y-78134051D01*
X213971825Y-78131713D01*
X213957589Y-78127087D01*
X213957581Y-78127085D01*
X213950000Y-78125884D01*
X213950000Y-79033011D01*
X213940060Y-79015795D01*
X213884205Y-78959940D01*
X213815796Y-78920444D01*
X213739496Y-78900000D01*
X213660504Y-78900000D01*
X213584204Y-78920444D01*
X213515795Y-78959940D01*
X213459940Y-79015795D01*
X213450000Y-79033011D01*
X213450000Y-78125884D01*
X213449999Y-78125884D01*
X213442418Y-78127085D01*
X213442410Y-78127087D01*
X213277742Y-78180591D01*
X213123475Y-78259195D01*
X212983397Y-78360967D01*
X212860967Y-78483397D01*
X212759195Y-78623475D01*
X212680591Y-78777742D01*
X212627085Y-78942415D01*
X212600000Y-79113428D01*
X212600000Y-79300000D01*
X213400000Y-79300000D01*
X213400000Y-79800000D01*
X212600000Y-79800000D01*
X212600000Y-79986571D01*
X212627085Y-80157584D01*
X212680591Y-80322257D01*
X212759197Y-80476527D01*
X212810856Y-80547631D01*
X212834335Y-80613437D01*
X212818509Y-80681491D01*
X212768403Y-80730185D01*
X212710658Y-80744515D01*
X196364874Y-80760476D01*
X196297815Y-80740857D01*
X196252009Y-80688098D01*
X196241998Y-80618949D01*
X196270961Y-80555365D01*
X196277060Y-80548807D01*
X196296606Y-80529262D01*
X196392579Y-80376522D01*
X196452158Y-80206255D01*
X196453176Y-80197226D01*
X196459892Y-80137617D01*
X196486958Y-80073203D01*
X196544553Y-80033648D01*
X196583112Y-80027500D01*
X199861804Y-80027500D01*
X199861805Y-80027499D01*
X199983035Y-80003386D01*
X200066734Y-79968716D01*
X200097233Y-79956083D01*
X200200008Y-79887411D01*
X200287411Y-79800008D01*
X200687411Y-79400008D01*
X200756083Y-79297233D01*
X200803385Y-79183035D01*
X200813109Y-79134151D01*
X200827500Y-79061806D01*
X200827500Y-78600000D01*
X202619540Y-78600000D01*
X202639326Y-78788256D01*
X202639327Y-78788259D01*
X202697818Y-78968277D01*
X202697821Y-78968284D01*
X202792467Y-79132216D01*
X202876717Y-79225785D01*
X202919129Y-79272888D01*
X203072265Y-79384148D01*
X203072270Y-79384151D01*
X203245192Y-79461142D01*
X203245197Y-79461144D01*
X203430354Y-79500500D01*
X203430355Y-79500500D01*
X203619644Y-79500500D01*
X203619646Y-79500500D01*
X203804803Y-79461144D01*
X203977730Y-79384151D01*
X203982666Y-79380565D01*
X203991452Y-79374182D01*
X204057258Y-79350702D01*
X204064337Y-79350500D01*
X204852920Y-79350500D01*
X204950462Y-79331096D01*
X204997913Y-79321658D01*
X205110684Y-79274947D01*
X205134488Y-79265087D01*
X205134488Y-79265086D01*
X205134495Y-79265084D01*
X205193304Y-79225789D01*
X205257416Y-79182952D01*
X205918549Y-78521817D01*
X205979872Y-78488333D01*
X206006230Y-78485499D01*
X206148537Y-78485499D01*
X206215576Y-78505184D01*
X206261331Y-78557988D01*
X206271757Y-78595615D01*
X206289630Y-78754250D01*
X206289631Y-78754254D01*
X206349211Y-78924523D01*
X206412646Y-79025478D01*
X206445184Y-79077262D01*
X206572738Y-79204816D01*
X206606147Y-79225808D01*
X206719818Y-79297233D01*
X206725478Y-79300789D01*
X206796910Y-79325784D01*
X206895745Y-79360368D01*
X206895750Y-79360369D01*
X207074996Y-79380565D01*
X207075000Y-79380565D01*
X207075004Y-79380565D01*
X207254248Y-79360369D01*
X207254249Y-79360368D01*
X207254255Y-79360368D01*
X207254259Y-79360366D01*
X207255459Y-79360093D01*
X207256264Y-79360142D01*
X207261175Y-79359589D01*
X207261271Y-79360448D01*
X207325198Y-79364361D01*
X207381559Y-79405656D01*
X207406647Y-79470866D01*
X207406280Y-79494865D01*
X207394435Y-79599996D01*
X207394435Y-79600003D01*
X207414630Y-79779249D01*
X207414631Y-79779254D01*
X207474211Y-79949523D01*
X207523207Y-80027499D01*
X207570184Y-80102262D01*
X207697738Y-80229816D01*
X207759195Y-80268432D01*
X207844856Y-80322257D01*
X207850478Y-80325789D01*
X207995462Y-80376521D01*
X208020745Y-80385368D01*
X208020750Y-80385369D01*
X208199996Y-80405565D01*
X208200000Y-80405565D01*
X208200004Y-80405565D01*
X208379249Y-80385369D01*
X208379252Y-80385368D01*
X208379255Y-80385368D01*
X208549522Y-80325789D01*
X208702262Y-80229816D01*
X208829816Y-80102262D01*
X208925789Y-79949522D01*
X208985368Y-79779255D01*
X208995161Y-79692329D01*
X209022226Y-79627918D01*
X209030690Y-79618543D01*
X209527506Y-79121728D01*
X209527511Y-79121724D01*
X209537714Y-79111520D01*
X209537716Y-79111520D01*
X209649520Y-78999716D01*
X209719314Y-78878828D01*
X209728577Y-78862785D01*
X209769501Y-78710057D01*
X209769501Y-78555861D01*
X209789000Y-78489455D01*
X209789000Y-78485000D01*
X210289000Y-78485000D01*
X210386828Y-78485000D01*
X210386844Y-78484999D01*
X210446372Y-78478598D01*
X210446379Y-78478596D01*
X210581086Y-78428354D01*
X210581093Y-78428350D01*
X210696187Y-78342190D01*
X210696190Y-78342187D01*
X210782350Y-78227093D01*
X210782354Y-78227086D01*
X210832596Y-78092379D01*
X210832598Y-78092372D01*
X210838999Y-78032844D01*
X210839000Y-78032827D01*
X210839000Y-77460000D01*
X210289000Y-77460000D01*
X210289000Y-78485000D01*
X209789000Y-78485000D01*
X209789000Y-78431454D01*
X209808685Y-78364415D01*
X209825325Y-78343767D01*
X209826542Y-78342548D01*
X209826546Y-78342546D01*
X209912796Y-78227331D01*
X209963091Y-78092483D01*
X209969500Y-78032873D01*
X209969499Y-76960000D01*
X210289000Y-76960000D01*
X210839000Y-76960000D01*
X210839000Y-76387172D01*
X210838999Y-76387155D01*
X210832598Y-76327627D01*
X210832596Y-76327620D01*
X210782354Y-76192913D01*
X210782350Y-76192906D01*
X210696190Y-76077812D01*
X210696187Y-76077809D01*
X210581093Y-75991649D01*
X210581086Y-75991645D01*
X210446379Y-75941403D01*
X210446372Y-75941401D01*
X210386844Y-75935000D01*
X210289000Y-75935000D01*
X210289000Y-76960000D01*
X209969499Y-76960000D01*
X209969499Y-76387128D01*
X209963091Y-76327517D01*
X209959649Y-76318289D01*
X209912797Y-76192671D01*
X209912793Y-76192664D01*
X209826547Y-76077455D01*
X209825319Y-76076227D01*
X209824486Y-76074702D01*
X209821232Y-76070355D01*
X209821857Y-76069887D01*
X209791834Y-76014904D01*
X209789000Y-75988546D01*
X209789000Y-75935000D01*
X209691157Y-75935000D01*
X209623915Y-75942231D01*
X209623775Y-75940936D01*
X209584281Y-75940935D01*
X209584195Y-75941738D01*
X209576726Y-75940935D01*
X209576596Y-75940935D01*
X209576487Y-75940909D01*
X209516882Y-75934501D01*
X209516873Y-75934500D01*
X209516863Y-75934500D01*
X208821129Y-75934500D01*
X208821123Y-75934501D01*
X208761516Y-75940908D01*
X208712332Y-75959253D01*
X208642640Y-75964237D01*
X208625667Y-75959253D01*
X208576486Y-75940910D01*
X208576485Y-75940909D01*
X208576483Y-75940909D01*
X208516873Y-75934500D01*
X208516863Y-75934500D01*
X207821129Y-75934500D01*
X207821123Y-75934501D01*
X207761516Y-75940908D01*
X207712332Y-75959253D01*
X207642640Y-75964237D01*
X207625667Y-75959253D01*
X207576486Y-75940910D01*
X207576485Y-75940909D01*
X207576483Y-75940909D01*
X207516873Y-75934500D01*
X207516863Y-75934500D01*
X206821129Y-75934500D01*
X206821123Y-75934501D01*
X206761516Y-75940908D01*
X206712332Y-75959253D01*
X206642640Y-75964237D01*
X206625667Y-75959253D01*
X206576486Y-75940910D01*
X206576485Y-75940909D01*
X206576483Y-75940909D01*
X206516873Y-75934500D01*
X206516863Y-75934500D01*
X205821129Y-75934500D01*
X205821123Y-75934501D01*
X205761516Y-75940908D01*
X205626671Y-75991202D01*
X205626664Y-75991206D01*
X205511455Y-76077452D01*
X205511452Y-76077455D01*
X205425206Y-76192664D01*
X205425202Y-76192671D01*
X205374908Y-76327517D01*
X205368820Y-76384151D01*
X205368501Y-76387123D01*
X205368500Y-76387135D01*
X205368500Y-76897769D01*
X205348815Y-76964808D01*
X205332181Y-76985450D01*
X204504451Y-77813181D01*
X204443128Y-77846666D01*
X204416770Y-77849500D01*
X204064337Y-77849500D01*
X203997298Y-77829815D01*
X203991452Y-77825818D01*
X203977732Y-77815850D01*
X203977729Y-77815848D01*
X203804807Y-77738857D01*
X203804802Y-77738855D01*
X203641132Y-77704067D01*
X203619646Y-77699500D01*
X203430354Y-77699500D01*
X203408868Y-77704067D01*
X203245197Y-77738855D01*
X203245192Y-77738857D01*
X203072270Y-77815848D01*
X203072268Y-77815850D01*
X202919129Y-77927111D01*
X202792466Y-78067785D01*
X202697821Y-78231715D01*
X202697818Y-78231722D01*
X202641759Y-78404255D01*
X202639326Y-78411744D01*
X202619540Y-78600000D01*
X200827500Y-78600000D01*
X200827500Y-75711281D01*
X200847185Y-75644242D01*
X200863819Y-75623600D01*
X201023600Y-75463819D01*
X201084923Y-75430334D01*
X201111281Y-75427500D01*
X206861804Y-75427500D01*
X206861805Y-75427499D01*
X206983035Y-75403386D01*
X207069095Y-75367738D01*
X207097233Y-75356083D01*
X207200008Y-75287411D01*
X207287411Y-75200008D01*
X207887411Y-74600008D01*
X207897495Y-74584916D01*
X207956083Y-74497233D01*
X208003385Y-74383035D01*
X208016469Y-74317259D01*
X208027500Y-74261805D01*
X208027500Y-73450321D01*
X208047185Y-73383282D01*
X208099989Y-73337527D01*
X208137612Y-73327101D01*
X208206255Y-73319368D01*
X208376522Y-73259789D01*
X208529262Y-73163816D01*
X208656816Y-73036262D01*
X208752789Y-72883522D01*
X208812368Y-72713255D01*
X208812443Y-72712589D01*
X208832565Y-72534003D01*
X208832565Y-72533996D01*
X208812369Y-72354750D01*
X208812366Y-72354738D01*
X208807459Y-72340713D01*
X208800501Y-72299760D01*
X208800501Y-72274348D01*
X208800500Y-72274330D01*
X208800500Y-71762289D01*
X208820185Y-71695250D01*
X208858529Y-71657295D01*
X208902262Y-71629816D01*
X209029816Y-71502262D01*
X209125789Y-71349522D01*
X209185368Y-71179255D01*
X209185369Y-71179249D01*
X209205565Y-71000003D01*
X209205565Y-70999996D01*
X209185848Y-70825000D01*
X212044659Y-70825000D01*
X212063975Y-71021129D01*
X212063976Y-71021132D01*
X212111942Y-71179255D01*
X212121188Y-71209733D01*
X212214086Y-71383532D01*
X212214090Y-71383539D01*
X212339116Y-71535883D01*
X212491460Y-71660909D01*
X212491467Y-71660913D01*
X212665266Y-71753811D01*
X212665269Y-71753811D01*
X212665273Y-71753814D01*
X212853868Y-71811024D01*
X213050000Y-71830341D01*
X213246132Y-71811024D01*
X213434727Y-71753814D01*
X213608538Y-71660910D01*
X213760883Y-71535883D01*
X213885910Y-71383538D01*
X213969314Y-71227500D01*
X213978811Y-71209733D01*
X213978811Y-71209732D01*
X213978814Y-71209727D01*
X214036024Y-71021132D01*
X214055341Y-70825000D01*
X214036024Y-70628868D01*
X213978814Y-70440273D01*
X213978811Y-70440269D01*
X213978811Y-70440266D01*
X213885913Y-70266467D01*
X213885909Y-70266460D01*
X213760883Y-70114116D01*
X213608539Y-69989090D01*
X213608532Y-69989086D01*
X213434733Y-69896188D01*
X213434727Y-69896186D01*
X213246132Y-69838976D01*
X213246129Y-69838975D01*
X213050000Y-69819659D01*
X212853870Y-69838975D01*
X212665266Y-69896188D01*
X212491467Y-69989086D01*
X212491460Y-69989090D01*
X212339116Y-70114116D01*
X212214090Y-70266460D01*
X212214086Y-70266467D01*
X212121188Y-70440266D01*
X212063975Y-70628870D01*
X212044659Y-70825000D01*
X209185848Y-70825000D01*
X209185369Y-70820750D01*
X209185368Y-70820745D01*
X209152141Y-70725788D01*
X209125789Y-70650478D01*
X209124995Y-70649215D01*
X209039150Y-70512593D01*
X209029816Y-70497738D01*
X208902262Y-70370184D01*
X208884698Y-70359148D01*
X208749523Y-70274211D01*
X208579254Y-70214631D01*
X208579249Y-70214630D01*
X208400004Y-70194435D01*
X208399996Y-70194435D01*
X208220750Y-70214630D01*
X208220742Y-70214632D01*
X208192454Y-70224531D01*
X208122675Y-70228092D01*
X208062048Y-70193363D01*
X208029821Y-70131370D01*
X208027500Y-70107489D01*
X208027500Y-66738194D01*
X208003386Y-66616970D01*
X208003385Y-66616969D01*
X208003385Y-66616965D01*
X208002418Y-66614630D01*
X207979709Y-66559804D01*
X207972240Y-66490334D01*
X208003516Y-66427855D01*
X208063605Y-66392204D01*
X208108152Y-66389132D01*
X208170900Y-66396202D01*
X208253997Y-66405565D01*
X208254000Y-66405565D01*
X208254004Y-66405565D01*
X208433249Y-66385369D01*
X208433252Y-66385368D01*
X208433255Y-66385368D01*
X208603522Y-66325789D01*
X208756262Y-66229816D01*
X208883816Y-66102262D01*
X208979789Y-65949522D01*
X209039368Y-65779255D01*
X209043233Y-65744951D01*
X209059565Y-65600003D01*
X209059565Y-65599996D01*
X209039369Y-65420750D01*
X209039368Y-65420745D01*
X208994068Y-65291285D01*
X208990507Y-65221506D01*
X209023430Y-65162648D01*
X209056813Y-65129265D01*
X209056813Y-65129264D01*
X209056816Y-65129262D01*
X209152789Y-64976522D01*
X209212368Y-64806255D01*
X209213716Y-64794297D01*
X209220102Y-64737617D01*
X209247168Y-64673203D01*
X209304763Y-64633648D01*
X209343322Y-64627500D01*
X210989956Y-64627500D01*
X211056995Y-64647185D01*
X211102750Y-64699989D01*
X211112694Y-64769147D01*
X211094949Y-64817472D01*
X211074212Y-64850473D01*
X211014631Y-65020745D01*
X211014630Y-65020750D01*
X210994435Y-65199996D01*
X210994435Y-65200003D01*
X211014630Y-65379249D01*
X211014631Y-65379254D01*
X211076511Y-65556095D01*
X211074971Y-65556633D01*
X211084939Y-65617175D01*
X211057214Y-65681308D01*
X211012377Y-65712445D01*
X211013390Y-65714549D01*
X211007119Y-65717568D01*
X210854381Y-65813540D01*
X210726828Y-65941093D01*
X210630855Y-66093832D01*
X210571275Y-66264101D01*
X210571274Y-66264106D01*
X210551079Y-66443352D01*
X210551079Y-66443359D01*
X210571274Y-66622605D01*
X210571275Y-66622610D01*
X210630855Y-66792879D01*
X210710404Y-66919480D01*
X210726828Y-66945618D01*
X210854382Y-67073172D01*
X211007122Y-67169145D01*
X211177389Y-67228724D01*
X211221279Y-67233669D01*
X211285692Y-67260734D01*
X211295077Y-67269208D01*
X215567276Y-71541408D01*
X215567280Y-71541411D01*
X215670048Y-71610079D01*
X215670061Y-71610086D01*
X215717697Y-71629817D01*
X215784253Y-71657385D01*
X215784257Y-71657385D01*
X215784258Y-71657386D01*
X215905482Y-71681500D01*
X215905485Y-71681500D01*
X216029091Y-71681500D01*
X216270435Y-71681500D01*
X216337474Y-71701185D01*
X216383229Y-71753989D01*
X216391779Y-71793292D01*
X216393655Y-71793081D01*
X216414630Y-71979249D01*
X216414631Y-71979254D01*
X216474211Y-72149523D01*
X216525035Y-72230408D01*
X216564888Y-72293834D01*
X216570185Y-72302263D01*
X216572445Y-72305097D01*
X216573334Y-72307275D01*
X216573889Y-72308158D01*
X216573734Y-72308255D01*
X216598855Y-72369783D01*
X216599500Y-72382412D01*
X216599500Y-72699902D01*
X216579815Y-72766941D01*
X216563181Y-72787583D01*
X216381465Y-72969298D01*
X216320142Y-73002783D01*
X216307668Y-73004837D01*
X216220750Y-73014630D01*
X216050478Y-73074210D01*
X215897737Y-73170184D01*
X215770184Y-73297737D01*
X215674211Y-73450476D01*
X215614631Y-73620745D01*
X215614630Y-73620750D01*
X215594435Y-73799996D01*
X215594435Y-73800003D01*
X215614630Y-73979249D01*
X215614631Y-73979254D01*
X215674211Y-74149523D01*
X215768756Y-74299989D01*
X215770184Y-74302262D01*
X215897738Y-74429816D01*
X215932364Y-74451573D01*
X216038920Y-74518527D01*
X216050478Y-74525789D01*
X216136736Y-74555972D01*
X216220745Y-74585368D01*
X216220750Y-74585369D01*
X216399996Y-74605565D01*
X216400000Y-74605565D01*
X216400004Y-74605565D01*
X216579249Y-74585369D01*
X216579252Y-74585368D01*
X216579255Y-74585368D01*
X216749522Y-74525789D01*
X216902262Y-74429816D01*
X217029816Y-74302262D01*
X217125789Y-74149522D01*
X217185368Y-73979255D01*
X217195161Y-73892329D01*
X217222226Y-73827918D01*
X217230690Y-73818543D01*
X217467029Y-73582204D01*
X217528350Y-73548721D01*
X217598042Y-73553705D01*
X217642389Y-73582206D01*
X218934645Y-74874462D01*
X218985494Y-74908438D01*
X219034991Y-74941511D01*
X219082137Y-74973013D01*
X219155463Y-75003385D01*
X219155464Y-75003386D01*
X219177236Y-75012404D01*
X219246018Y-75040895D01*
X219419987Y-75075499D01*
X219419991Y-75075500D01*
X219419992Y-75075500D01*
X219419993Y-75075500D01*
X221367308Y-75075500D01*
X221433836Y-75075500D01*
X221445989Y-75076096D01*
X221550000Y-75086341D01*
X221746132Y-75067024D01*
X221934727Y-75009814D01*
X221941042Y-75006439D01*
X222062700Y-74941411D01*
X222108538Y-74916910D01*
X222260883Y-74791883D01*
X222385910Y-74639538D01*
X222461974Y-74497233D01*
X222478811Y-74465733D01*
X222478811Y-74465732D01*
X222478814Y-74465727D01*
X222536024Y-74277132D01*
X222555341Y-74081000D01*
X222549102Y-74017653D01*
X222562121Y-73949008D01*
X222610186Y-73898298D01*
X222672505Y-73881500D01*
X224249857Y-73881500D01*
X224249858Y-73881499D01*
X224371088Y-73857386D01*
X224431591Y-73832324D01*
X224467033Y-73817644D01*
X224477222Y-73813423D01*
X224485286Y-73810083D01*
X224588061Y-73741411D01*
X224675464Y-73654008D01*
X224941411Y-73388061D01*
X224958846Y-73370626D01*
X224958849Y-73370622D01*
X225611652Y-72717819D01*
X225672975Y-72684334D01*
X225699333Y-72681500D01*
X226500667Y-72681500D01*
X226567706Y-72701185D01*
X226588348Y-72717819D01*
X227154332Y-73283803D01*
X227187817Y-73345126D01*
X227182833Y-73414818D01*
X227140961Y-73470751D01*
X227117088Y-73484763D01*
X227047267Y-73515850D01*
X227047265Y-73515851D01*
X226894129Y-73627111D01*
X226767467Y-73767784D01*
X226767466Y-73767784D01*
X226672821Y-73931715D01*
X226672818Y-73931722D01*
X226618138Y-74100011D01*
X226614326Y-74111744D01*
X226594540Y-74300000D01*
X226614326Y-74488256D01*
X226614327Y-74488259D01*
X226672818Y-74668277D01*
X226672821Y-74668284D01*
X226767467Y-74832216D01*
X226894129Y-74972888D01*
X227047265Y-75084148D01*
X227047270Y-75084151D01*
X227220191Y-75161142D01*
X227220193Y-75161142D01*
X227220197Y-75161144D01*
X227285329Y-75174987D01*
X227346809Y-75208178D01*
X227347228Y-75208596D01*
X227971584Y-75832952D01*
X227971589Y-75832956D01*
X228029991Y-75871978D01*
X228029993Y-75871979D01*
X228029995Y-75871980D01*
X228094505Y-75915084D01*
X228094506Y-75915084D01*
X228094507Y-75915085D01*
X228226278Y-75969666D01*
X228231087Y-75971658D01*
X228231091Y-75971658D01*
X228231092Y-75971659D01*
X228376079Y-76000500D01*
X228376082Y-76000500D01*
X228376083Y-76000500D01*
X228523917Y-76000500D01*
X228683678Y-76000500D01*
X228750717Y-76020185D01*
X228796472Y-76072989D01*
X228806898Y-76110617D01*
X228814630Y-76179249D01*
X228814631Y-76179254D01*
X228814632Y-76179255D01*
X228819409Y-76192906D01*
X228874210Y-76349521D01*
X228947304Y-76465849D01*
X228970184Y-76502262D01*
X229097738Y-76629816D01*
X229187084Y-76685956D01*
X229237739Y-76717785D01*
X229250478Y-76725789D01*
X229382253Y-76771899D01*
X229420745Y-76785368D01*
X229420750Y-76785369D01*
X229599996Y-76805565D01*
X229600000Y-76805565D01*
X229600004Y-76805565D01*
X229779249Y-76785369D01*
X229779252Y-76785368D01*
X229779255Y-76785368D01*
X229949522Y-76725789D01*
X230102262Y-76629816D01*
X230229816Y-76502262D01*
X230325789Y-76349522D01*
X230385368Y-76179255D01*
X230385526Y-76177858D01*
X230393102Y-76110617D01*
X230420168Y-76046203D01*
X230477763Y-76006648D01*
X230516322Y-76000500D01*
X232671768Y-76000500D01*
X232738807Y-76020185D01*
X232759449Y-76036819D01*
X235005578Y-78282948D01*
X235005582Y-78282951D01*
X235128496Y-78365080D01*
X235128509Y-78365087D01*
X235241150Y-78411744D01*
X235265085Y-78421658D01*
X235265089Y-78421658D01*
X235265090Y-78421659D01*
X235410077Y-78450500D01*
X235410080Y-78450500D01*
X235557915Y-78450500D01*
X240847432Y-78450500D01*
X240914471Y-78470185D01*
X240960226Y-78522989D01*
X240970752Y-78561535D01*
X240989326Y-78738256D01*
X240989327Y-78738259D01*
X241047818Y-78918277D01*
X241047821Y-78918284D01*
X241142467Y-79082216D01*
X241244689Y-79195745D01*
X241269129Y-79222888D01*
X241422265Y-79334148D01*
X241422270Y-79334151D01*
X241595192Y-79411142D01*
X241595197Y-79411144D01*
X241780354Y-79450500D01*
X241780355Y-79450500D01*
X241969644Y-79450500D01*
X241969646Y-79450500D01*
X242154803Y-79411144D01*
X242327730Y-79334151D01*
X242480871Y-79222888D01*
X242607533Y-79082216D01*
X242702179Y-78918284D01*
X242760674Y-78738256D01*
X242779247Y-78561536D01*
X242805832Y-78496924D01*
X242863129Y-78456939D01*
X242902568Y-78450500D01*
X244723920Y-78450500D01*
X244821462Y-78431096D01*
X244868913Y-78421658D01*
X245005495Y-78365084D01*
X245067675Y-78323537D01*
X245128416Y-78282952D01*
X245252769Y-78158596D01*
X245314092Y-78125112D01*
X245314671Y-78124988D01*
X245344101Y-78118732D01*
X245379803Y-78111144D01*
X245379806Y-78111142D01*
X245379808Y-78111142D01*
X245475164Y-78068686D01*
X245552730Y-78034151D01*
X245705871Y-77922888D01*
X245832533Y-77782216D01*
X245857173Y-77739537D01*
X245907739Y-77691323D01*
X245976346Y-77678099D01*
X246041211Y-77704067D01*
X246064877Y-77728651D01*
X246067467Y-77732216D01*
X246194129Y-77872888D01*
X246347265Y-77984148D01*
X246347270Y-77984151D01*
X246520192Y-78061142D01*
X246520197Y-78061144D01*
X246705354Y-78100500D01*
X246705355Y-78100500D01*
X246894644Y-78100500D01*
X246894646Y-78100500D01*
X247079803Y-78061144D01*
X247202098Y-78006693D01*
X247271348Y-77997409D01*
X247334624Y-78027037D01*
X247371838Y-78086171D01*
X247375754Y-78106089D01*
X247389630Y-78229250D01*
X247389631Y-78229254D01*
X247449211Y-78399523D01*
X247534981Y-78536024D01*
X247545184Y-78552262D01*
X247672738Y-78679816D01*
X247762442Y-78736181D01*
X247820243Y-78772500D01*
X247825478Y-78775789D01*
X247969996Y-78826358D01*
X247995745Y-78835368D01*
X247995750Y-78835369D01*
X248174996Y-78855565D01*
X248175000Y-78855565D01*
X248175004Y-78855565D01*
X248354249Y-78835369D01*
X248354252Y-78835368D01*
X248354255Y-78835368D01*
X248524522Y-78775789D01*
X248677262Y-78679816D01*
X248804816Y-78552262D01*
X248900789Y-78399522D01*
X248960368Y-78229255D01*
X248960613Y-78227086D01*
X248979369Y-78060617D01*
X249006435Y-77996203D01*
X249064030Y-77956648D01*
X249102589Y-77950500D01*
X250422534Y-77950500D01*
X250520076Y-77931096D01*
X250567527Y-77921658D01*
X250704109Y-77865084D01*
X250777795Y-77815849D01*
X250827030Y-77782952D01*
X251304549Y-77305430D01*
X251365871Y-77271947D01*
X251392229Y-77269113D01*
X252827871Y-77269113D01*
X252827872Y-77269113D01*
X252887483Y-77262705D01*
X253022331Y-77212410D01*
X253137546Y-77126160D01*
X253223796Y-77010945D01*
X253274091Y-76876097D01*
X253280500Y-76816487D01*
X253280500Y-76643114D01*
X253300185Y-76576075D01*
X253352989Y-76530320D01*
X253404500Y-76519114D01*
X253705305Y-76519114D01*
X253786901Y-76502883D01*
X253811093Y-76500500D01*
X253894644Y-76500500D01*
X253894646Y-76500500D01*
X254079803Y-76461144D01*
X254252730Y-76384151D01*
X254278115Y-76365707D01*
X254343920Y-76342228D01*
X254411974Y-76358053D01*
X254460669Y-76408159D01*
X254475000Y-76466026D01*
X254475000Y-76808458D01*
X254481401Y-76867986D01*
X254481403Y-76867993D01*
X254531645Y-77002700D01*
X254531649Y-77002707D01*
X254617809Y-77117801D01*
X254617812Y-77117804D01*
X254732906Y-77203964D01*
X254732913Y-77203968D01*
X254867620Y-77254210D01*
X254867627Y-77254212D01*
X254927155Y-77260613D01*
X254927172Y-77260614D01*
X255725000Y-77260614D01*
X256225000Y-77260614D01*
X257022828Y-77260614D01*
X257022844Y-77260613D01*
X257082372Y-77254212D01*
X257082379Y-77254210D01*
X257217086Y-77203968D01*
X257217093Y-77203964D01*
X257332187Y-77117804D01*
X257332190Y-77117801D01*
X257418350Y-77002707D01*
X257418354Y-77002700D01*
X257468596Y-76867993D01*
X257468598Y-76867986D01*
X257474999Y-76808458D01*
X257475000Y-76808441D01*
X257475000Y-76010614D01*
X256225000Y-76010614D01*
X256225000Y-77260614D01*
X255725000Y-77260614D01*
X255725000Y-75510614D01*
X256225000Y-75510614D01*
X257475000Y-75510614D01*
X257475000Y-74712783D01*
X257474999Y-74712769D01*
X257468598Y-74653241D01*
X257468596Y-74653234D01*
X257418354Y-74518527D01*
X257418350Y-74518520D01*
X257332190Y-74403426D01*
X257332187Y-74403423D01*
X257217093Y-74317263D01*
X257217086Y-74317259D01*
X257082379Y-74267017D01*
X257082372Y-74267015D01*
X257022844Y-74260614D01*
X256225000Y-74260614D01*
X256225000Y-75510614D01*
X255725000Y-75510614D01*
X255725000Y-74260614D01*
X254927155Y-74260614D01*
X254867627Y-74267015D01*
X254867620Y-74267017D01*
X254732913Y-74317259D01*
X254732906Y-74317263D01*
X254617812Y-74403423D01*
X254617809Y-74403426D01*
X254531649Y-74518520D01*
X254531645Y-74518527D01*
X254481403Y-74653234D01*
X254481401Y-74653241D01*
X254475000Y-74712769D01*
X254475000Y-74733973D01*
X254455315Y-74801012D01*
X254402511Y-74846767D01*
X254333353Y-74856711D01*
X254278116Y-74834292D01*
X254252733Y-74815851D01*
X254252729Y-74815848D01*
X254079807Y-74738857D01*
X254079802Y-74738855D01*
X253902573Y-74701185D01*
X253894646Y-74699500D01*
X253705354Y-74699500D01*
X253697427Y-74701185D01*
X253520197Y-74738855D01*
X253520192Y-74738857D01*
X253448835Y-74770628D01*
X253379585Y-74779913D01*
X253316308Y-74750285D01*
X253279095Y-74691150D01*
X253275109Y-74670601D01*
X253274091Y-74661130D01*
X253223797Y-74526285D01*
X253223793Y-74526278D01*
X253137547Y-74411069D01*
X253137544Y-74411066D01*
X253022335Y-74324820D01*
X253022328Y-74324816D01*
X252887482Y-74274522D01*
X252887483Y-74274522D01*
X252827883Y-74268115D01*
X252827881Y-74268114D01*
X252827873Y-74268114D01*
X252827865Y-74268114D01*
X252654500Y-74268114D01*
X252587461Y-74248429D01*
X252541706Y-74195625D01*
X252530500Y-74144114D01*
X252530500Y-73310113D01*
X252550185Y-73243074D01*
X252602989Y-73197319D01*
X252654500Y-73186113D01*
X252797871Y-73186113D01*
X252797872Y-73186113D01*
X252857483Y-73179705D01*
X252992331Y-73129410D01*
X253107546Y-73043160D01*
X253193796Y-72927945D01*
X253244091Y-72793097D01*
X253245450Y-72780458D01*
X254344000Y-72780458D01*
X254350401Y-72839986D01*
X254350403Y-72839993D01*
X254400645Y-72974700D01*
X254400649Y-72974707D01*
X254486809Y-73089801D01*
X254486812Y-73089804D01*
X254601906Y-73175964D01*
X254601913Y-73175968D01*
X254736620Y-73226210D01*
X254736627Y-73226212D01*
X254796155Y-73232613D01*
X254796172Y-73232614D01*
X255594000Y-73232614D01*
X256094000Y-73232614D01*
X256891828Y-73232614D01*
X256891844Y-73232613D01*
X256951372Y-73226212D01*
X256951379Y-73226210D01*
X257086086Y-73175968D01*
X257086093Y-73175964D01*
X257201187Y-73089804D01*
X257201190Y-73089801D01*
X257287350Y-72974707D01*
X257287354Y-72974700D01*
X257337596Y-72839993D01*
X257337598Y-72839986D01*
X257343999Y-72780458D01*
X257344000Y-72780441D01*
X257344000Y-71982614D01*
X256094000Y-71982614D01*
X256094000Y-73232614D01*
X255594000Y-73232614D01*
X255594000Y-71982614D01*
X254344000Y-71982614D01*
X254344000Y-72780458D01*
X253245450Y-72780458D01*
X253250500Y-72733487D01*
X253250499Y-70684769D01*
X254344000Y-70684769D01*
X254344000Y-71482614D01*
X255594000Y-71482614D01*
X256094000Y-71482614D01*
X257344000Y-71482614D01*
X257344000Y-70684786D01*
X257343999Y-70684769D01*
X257337598Y-70625241D01*
X257337596Y-70625234D01*
X257287354Y-70490527D01*
X257287350Y-70490520D01*
X257201190Y-70375426D01*
X257201187Y-70375423D01*
X257086093Y-70289263D01*
X257086086Y-70289259D01*
X256951379Y-70239017D01*
X256951372Y-70239015D01*
X256891844Y-70232614D01*
X256094000Y-70232614D01*
X256094000Y-71482614D01*
X255594000Y-71482614D01*
X255594000Y-70232614D01*
X254796155Y-70232614D01*
X254736627Y-70239015D01*
X254736620Y-70239017D01*
X254601913Y-70289259D01*
X254601906Y-70289263D01*
X254486812Y-70375423D01*
X254486809Y-70375426D01*
X254400649Y-70490520D01*
X254400645Y-70490527D01*
X254350403Y-70625234D01*
X254350401Y-70625241D01*
X254344000Y-70684769D01*
X253250499Y-70684769D01*
X253250499Y-70637742D01*
X253244091Y-70578131D01*
X253243217Y-70575789D01*
X253193797Y-70443285D01*
X253193793Y-70443278D01*
X253107547Y-70328069D01*
X253107544Y-70328066D01*
X252992335Y-70241820D01*
X252992328Y-70241816D01*
X252857482Y-70191522D01*
X252857483Y-70191522D01*
X252797883Y-70185115D01*
X252797881Y-70185114D01*
X252797873Y-70185114D01*
X252797864Y-70185114D01*
X250702129Y-70185114D01*
X250702123Y-70185115D01*
X250642516Y-70191522D01*
X250507671Y-70241816D01*
X250507668Y-70241818D01*
X250441548Y-70291316D01*
X250376084Y-70315733D01*
X250316801Y-70305329D01*
X250279803Y-70288856D01*
X250279801Y-70288855D01*
X250279800Y-70288855D01*
X250123509Y-70255635D01*
X250094646Y-70249500D01*
X249905354Y-70249500D01*
X249876491Y-70255635D01*
X249720197Y-70288855D01*
X249720192Y-70288857D01*
X249547270Y-70365848D01*
X249547265Y-70365851D01*
X249394129Y-70477111D01*
X249267466Y-70617785D01*
X249172821Y-70781715D01*
X249172818Y-70781722D01*
X249118297Y-70949522D01*
X249114326Y-70961744D01*
X249094540Y-71150000D01*
X249114326Y-71338256D01*
X249114327Y-71338259D01*
X249172818Y-71518277D01*
X249172820Y-71518281D01*
X249172821Y-71518284D01*
X249216440Y-71593834D01*
X249263171Y-71674776D01*
X249279643Y-71742676D01*
X249256790Y-71808703D01*
X249243465Y-71824455D01*
X249170185Y-71897736D01*
X249170184Y-71897737D01*
X249074210Y-72050478D01*
X249014630Y-72220750D01*
X249004837Y-72307668D01*
X248977770Y-72372082D01*
X248969299Y-72381465D01*
X248814583Y-72536181D01*
X248753263Y-72569665D01*
X248726904Y-72572499D01*
X248690216Y-72572499D01*
X248690200Y-72572500D01*
X243076966Y-72572500D01*
X243009927Y-72552815D01*
X242989285Y-72536181D01*
X242864459Y-72411355D01*
X242864457Y-72411352D01*
X242767569Y-72314464D01*
X242734084Y-72253141D01*
X242739068Y-72183449D01*
X242750253Y-72160817D01*
X242774316Y-72122522D01*
X242795908Y-72060813D01*
X242836629Y-72004037D01*
X242901581Y-71978289D01*
X242926834Y-71978547D01*
X243072120Y-71994917D01*
X243072123Y-71994917D01*
X243072127Y-71994917D01*
X243251372Y-71974721D01*
X243251375Y-71974720D01*
X243251378Y-71974720D01*
X243421645Y-71915141D01*
X243574385Y-71819168D01*
X243701939Y-71691614D01*
X243797912Y-71538874D01*
X243857491Y-71368607D01*
X243858908Y-71356031D01*
X243877688Y-71189355D01*
X243877688Y-71189348D01*
X243857492Y-71010102D01*
X243857491Y-71010097D01*
X243853958Y-71000000D01*
X243797912Y-70839830D01*
X243701939Y-70687090D01*
X243574385Y-70559536D01*
X243499673Y-70512591D01*
X243421646Y-70463563D01*
X243251377Y-70403983D01*
X243251372Y-70403982D01*
X243072127Y-70383787D01*
X243072119Y-70383787D01*
X242892873Y-70403982D01*
X242892868Y-70403983D01*
X242722599Y-70463563D01*
X242569860Y-70559536D01*
X242442307Y-70687089D01*
X242346335Y-70839827D01*
X242346334Y-70839828D01*
X242324740Y-70901540D01*
X242284017Y-70958316D01*
X242219064Y-70984062D01*
X242193816Y-70983804D01*
X242048531Y-70967435D01*
X242048523Y-70967435D01*
X241869277Y-70987630D01*
X241869272Y-70987631D01*
X241699003Y-71047211D01*
X241546264Y-71143184D01*
X241418709Y-71270739D01*
X241400894Y-71299093D01*
X241348560Y-71345383D01*
X241279506Y-71356031D01*
X241215658Y-71327656D01*
X241208220Y-71320801D01*
X240497429Y-70610010D01*
X240463944Y-70548687D01*
X240468928Y-70478995D01*
X240497429Y-70434647D01*
X240502256Y-70429819D01*
X240502262Y-70429816D01*
X240629816Y-70302262D01*
X240725789Y-70149522D01*
X240785368Y-69979255D01*
X240786129Y-69972500D01*
X240799932Y-69849996D01*
X243994435Y-69849996D01*
X243994435Y-69850003D01*
X244014630Y-70029249D01*
X244014631Y-70029254D01*
X244074211Y-70199523D01*
X244160139Y-70336276D01*
X244170184Y-70352262D01*
X244297738Y-70479816D01*
X244388080Y-70536582D01*
X244424611Y-70559536D01*
X244450478Y-70575789D01*
X244604878Y-70629816D01*
X244620745Y-70635368D01*
X244620750Y-70635369D01*
X244799996Y-70655565D01*
X244800000Y-70655565D01*
X244800004Y-70655565D01*
X244979249Y-70635369D01*
X244979252Y-70635368D01*
X244979255Y-70635368D01*
X245149522Y-70575789D01*
X245302262Y-70479816D01*
X245429816Y-70352262D01*
X245525789Y-70199522D01*
X245585368Y-70029255D01*
X245588664Y-70000003D01*
X245605565Y-69850003D01*
X245605565Y-69849996D01*
X245585369Y-69670750D01*
X245585368Y-69670745D01*
X245540532Y-69542612D01*
X245525789Y-69500478D01*
X245524067Y-69497738D01*
X245461935Y-69398855D01*
X245429816Y-69347738D01*
X245302262Y-69220184D01*
X245293426Y-69214632D01*
X245149523Y-69124211D01*
X244979254Y-69064631D01*
X244979249Y-69064630D01*
X244800004Y-69044435D01*
X244799996Y-69044435D01*
X244620750Y-69064630D01*
X244620745Y-69064631D01*
X244450476Y-69124211D01*
X244297737Y-69220184D01*
X244170184Y-69347737D01*
X244074211Y-69500476D01*
X244014631Y-69670745D01*
X244014630Y-69670750D01*
X243994435Y-69849996D01*
X240799932Y-69849996D01*
X240805565Y-69800003D01*
X240805565Y-69799997D01*
X240796420Y-69718839D01*
X240808474Y-69650018D01*
X240831956Y-69617277D01*
X242880520Y-67568716D01*
X242959577Y-67431784D01*
X243000501Y-67279057D01*
X243000501Y-67120942D01*
X243000501Y-67113347D01*
X243000500Y-67113329D01*
X243000500Y-65782412D01*
X243020185Y-65715373D01*
X243027555Y-65705097D01*
X243029810Y-65702267D01*
X243029816Y-65702262D01*
X243125789Y-65549522D01*
X243185368Y-65379255D01*
X243185369Y-65379249D01*
X243205565Y-65200003D01*
X243205565Y-65199996D01*
X243185369Y-65020750D01*
X243185368Y-65020745D01*
X243169893Y-64976521D01*
X243125789Y-64850478D01*
X243029816Y-64697738D01*
X242902262Y-64570184D01*
X242886444Y-64560245D01*
X242749523Y-64474211D01*
X242579254Y-64414631D01*
X242579249Y-64414630D01*
X242400004Y-64394435D01*
X242399996Y-64394435D01*
X242220750Y-64414630D01*
X242220745Y-64414631D01*
X242050476Y-64474211D01*
X241897733Y-64570187D01*
X241892768Y-64574146D01*
X241828078Y-64600547D01*
X241759384Y-64587783D01*
X241757013Y-64586548D01*
X241634733Y-64521188D01*
X241634727Y-64521186D01*
X241446132Y-64463976D01*
X241446129Y-64463975D01*
X241250000Y-64444659D01*
X241053870Y-64463975D01*
X240865266Y-64521188D01*
X240691467Y-64614086D01*
X240691460Y-64614090D01*
X240539116Y-64739116D01*
X240414090Y-64891460D01*
X240414088Y-64891464D01*
X240371778Y-64970620D01*
X240322815Y-65020464D01*
X240254677Y-65035924D01*
X240211984Y-65025445D01*
X240129807Y-64988857D01*
X240129802Y-64988855D01*
X239984001Y-64957865D01*
X239944646Y-64949500D01*
X239755354Y-64949500D01*
X239722897Y-64956398D01*
X239570197Y-64988855D01*
X239570192Y-64988857D01*
X239397270Y-65065848D01*
X239397265Y-65065851D01*
X239244129Y-65177111D01*
X239117466Y-65317785D01*
X239022821Y-65481715D01*
X239022818Y-65481722D01*
X238968647Y-65648444D01*
X238964326Y-65661744D01*
X238944540Y-65850000D01*
X238964326Y-66038256D01*
X238964327Y-66038259D01*
X239022818Y-66218277D01*
X239022821Y-66218284D01*
X239117467Y-66382216D01*
X239226012Y-66502767D01*
X239244129Y-66522888D01*
X239397265Y-66634148D01*
X239397270Y-66634151D01*
X239570192Y-66711142D01*
X239570197Y-66711144D01*
X239755354Y-66750500D01*
X239755355Y-66750500D01*
X239944644Y-66750500D01*
X239944646Y-66750500D01*
X240129803Y-66711144D01*
X240302730Y-66634151D01*
X240304776Y-66632664D01*
X240316452Y-66624182D01*
X240382258Y-66600702D01*
X240389337Y-66600500D01*
X240923920Y-66600500D01*
X241021462Y-66581096D01*
X241068913Y-66571658D01*
X241159967Y-66533942D01*
X241205493Y-66515085D01*
X241205496Y-66515083D01*
X241257224Y-66480520D01*
X241276844Y-66467410D01*
X241333579Y-66447108D01*
X241446132Y-66436024D01*
X241623519Y-66382214D01*
X241639504Y-66377365D01*
X241709371Y-66376741D01*
X241768484Y-66413989D01*
X241798075Y-66477283D01*
X241799500Y-66496025D01*
X241799500Y-66899902D01*
X241779815Y-66966941D01*
X241763181Y-66987583D01*
X239710601Y-69040162D01*
X239663879Y-69069521D01*
X239650484Y-69074208D01*
X239650478Y-69074211D01*
X239497737Y-69170184D01*
X239370184Y-69297737D01*
X239274211Y-69450476D01*
X239214631Y-69620745D01*
X239214630Y-69620750D01*
X239194435Y-69799997D01*
X239194435Y-69800002D01*
X239198335Y-69834616D01*
X239186281Y-69903438D01*
X239138932Y-69954818D01*
X239075115Y-69972500D01*
X234538195Y-69972500D01*
X234416970Y-69996613D01*
X234416960Y-69996616D01*
X234302773Y-70043913D01*
X234302761Y-70043920D01*
X234212064Y-70104523D01*
X234212060Y-70104526D01*
X234199992Y-70112588D01*
X232376400Y-71936181D01*
X232315077Y-71969666D01*
X232288719Y-71972500D01*
X229711281Y-71972500D01*
X229644242Y-71952815D01*
X229623600Y-71936181D01*
X228200011Y-70512591D01*
X228200003Y-70512585D01*
X228097243Y-70443923D01*
X228097229Y-70443915D01*
X228059631Y-70428342D01*
X228059629Y-70428341D01*
X227983035Y-70396614D01*
X227983027Y-70396612D01*
X227861807Y-70372500D01*
X227861803Y-70372500D01*
X224261803Y-70372500D01*
X224138196Y-70372500D01*
X224138194Y-70372500D01*
X224016970Y-70396613D01*
X224016960Y-70396616D01*
X223902774Y-70443913D01*
X223902756Y-70443923D01*
X223799992Y-70512587D01*
X223799985Y-70512593D01*
X222630400Y-71682181D01*
X222569077Y-71715666D01*
X222542719Y-71718500D01*
X220349333Y-71718500D01*
X220282294Y-71698815D01*
X220261652Y-71682181D01*
X218238063Y-69658591D01*
X218238058Y-69658587D01*
X218181423Y-69620746D01*
X218181422Y-69620745D01*
X218135282Y-69589915D01*
X218135280Y-69589914D01*
X218099273Y-69575000D01*
X218021087Y-69542614D01*
X218021079Y-69542612D01*
X217927728Y-69524043D01*
X217865817Y-69491658D01*
X217864238Y-69490107D01*
X216945555Y-68571424D01*
X216912070Y-68510101D01*
X216917054Y-68440409D01*
X216958926Y-68384476D01*
X217024390Y-68360059D01*
X217047120Y-68360523D01*
X217224997Y-68380565D01*
X217225000Y-68380565D01*
X217225004Y-68380565D01*
X217404249Y-68360369D01*
X217404252Y-68360368D01*
X217404255Y-68360368D01*
X217574522Y-68300789D01*
X217727262Y-68204816D01*
X217854816Y-68077262D01*
X217950789Y-67924522D01*
X218010368Y-67754255D01*
X218013633Y-67725278D01*
X218030565Y-67575003D01*
X218030565Y-67574996D01*
X218010369Y-67395750D01*
X218010368Y-67395745D01*
X217976074Y-67297738D01*
X217950789Y-67225478D01*
X217854816Y-67072738D01*
X217727262Y-66945184D01*
X217696395Y-66925789D01*
X217574523Y-66849211D01*
X217404254Y-66789631D01*
X217404249Y-66789630D01*
X217225004Y-66769435D01*
X217224996Y-66769435D01*
X217045750Y-66789630D01*
X217045745Y-66789631D01*
X216875476Y-66849211D01*
X216722737Y-66945184D01*
X216595184Y-67072737D01*
X216499211Y-67225476D01*
X216439631Y-67395745D01*
X216439630Y-67395750D01*
X216419435Y-67574996D01*
X216419435Y-67575003D01*
X216439476Y-67752880D01*
X216427421Y-67821702D01*
X216380072Y-67873081D01*
X216312462Y-67890705D01*
X216246056Y-67868978D01*
X216228575Y-67854444D01*
X214599131Y-66225000D01*
X221969659Y-66225000D01*
X221988975Y-66421129D01*
X221996856Y-66447108D01*
X222032079Y-66563224D01*
X222046188Y-66609733D01*
X222139086Y-66783532D01*
X222139090Y-66783539D01*
X222264116Y-66935883D01*
X222416460Y-67060909D01*
X222416467Y-67060913D01*
X222590266Y-67153811D01*
X222590269Y-67153811D01*
X222590273Y-67153814D01*
X222778868Y-67211024D01*
X222975000Y-67230341D01*
X223171132Y-67211024D01*
X223359727Y-67153814D01*
X223533538Y-67060910D01*
X223685883Y-66935883D01*
X223810910Y-66783538D01*
X223896088Y-66624182D01*
X223903811Y-66609733D01*
X223903811Y-66609732D01*
X223903814Y-66609727D01*
X223961024Y-66421132D01*
X223980341Y-66225000D01*
X223961024Y-66028868D01*
X223903814Y-65840273D01*
X223903811Y-65840269D01*
X223903811Y-65840266D01*
X223810913Y-65666467D01*
X223810909Y-65666460D01*
X223685883Y-65514116D01*
X223533539Y-65389090D01*
X223533532Y-65389086D01*
X223359733Y-65296188D01*
X223359727Y-65296186D01*
X223171132Y-65238976D01*
X223171129Y-65238975D01*
X222975000Y-65219659D01*
X222778870Y-65238975D01*
X222590266Y-65296188D01*
X222416467Y-65389086D01*
X222416460Y-65389090D01*
X222264116Y-65514116D01*
X222139090Y-65666460D01*
X222139086Y-65666467D01*
X222046188Y-65840266D01*
X221988975Y-66028870D01*
X221969659Y-66225000D01*
X214599131Y-66225000D01*
X213810535Y-65436404D01*
X213777050Y-65375081D01*
X213782034Y-65305389D01*
X213810534Y-65261043D01*
X213829816Y-65241762D01*
X213925789Y-65089022D01*
X213985368Y-64918755D01*
X213988443Y-64891462D01*
X214001147Y-64778711D01*
X228349500Y-64778711D01*
X228349500Y-65021288D01*
X228379672Y-65250478D01*
X228381162Y-65261789D01*
X228390379Y-65296186D01*
X228443947Y-65496104D01*
X228499332Y-65629815D01*
X228536776Y-65720212D01*
X228658064Y-65930289D01*
X228658066Y-65930292D01*
X228658067Y-65930293D01*
X228805733Y-66122736D01*
X228805739Y-66122743D01*
X228977256Y-66294260D01*
X228977263Y-66294266D01*
X229018345Y-66325789D01*
X229169711Y-66441936D01*
X229379788Y-66563224D01*
X229603900Y-66656054D01*
X229838211Y-66718838D01*
X229985260Y-66738197D01*
X230078711Y-66750500D01*
X230078712Y-66750500D01*
X230321289Y-66750500D01*
X230369388Y-66744167D01*
X230561789Y-66718838D01*
X230796100Y-66656054D01*
X231020212Y-66563224D01*
X231230289Y-66441936D01*
X231422738Y-66294265D01*
X231594265Y-66122738D01*
X231741936Y-65930289D01*
X231863224Y-65720212D01*
X231956054Y-65496100D01*
X232018838Y-65261789D01*
X232050500Y-65021288D01*
X232050500Y-64778712D01*
X232047279Y-64754249D01*
X232028827Y-64614086D01*
X232018838Y-64538211D01*
X231956054Y-64303900D01*
X231863224Y-64079788D01*
X231741936Y-63869711D01*
X231617596Y-63707668D01*
X231594266Y-63677263D01*
X231594260Y-63677256D01*
X231422743Y-63505739D01*
X231422736Y-63505733D01*
X231230293Y-63358067D01*
X231230292Y-63358066D01*
X231230289Y-63358064D01*
X231020212Y-63236776D01*
X231020205Y-63236773D01*
X230796104Y-63143947D01*
X230678944Y-63112554D01*
X230561789Y-63081162D01*
X230561788Y-63081161D01*
X230561785Y-63081161D01*
X230321289Y-63049500D01*
X230321288Y-63049500D01*
X230078712Y-63049500D01*
X230078711Y-63049500D01*
X229838214Y-63081161D01*
X229603895Y-63143947D01*
X229379794Y-63236773D01*
X229379785Y-63236777D01*
X229169706Y-63358067D01*
X228977263Y-63505733D01*
X228977256Y-63505739D01*
X228805739Y-63677256D01*
X228805733Y-63677263D01*
X228658067Y-63869706D01*
X228536777Y-64079785D01*
X228536773Y-64079794D01*
X228443947Y-64303895D01*
X228381161Y-64538214D01*
X228349500Y-64778711D01*
X214001147Y-64778711D01*
X214005565Y-64739503D01*
X214005565Y-64739496D01*
X213985369Y-64560250D01*
X213985366Y-64560237D01*
X213925790Y-64389981D01*
X213925789Y-64389978D01*
X213905473Y-64357645D01*
X213873506Y-64306769D01*
X213854500Y-64240797D01*
X213854500Y-63301957D01*
X213874185Y-63234918D01*
X213926989Y-63189163D01*
X213996147Y-63179219D01*
X214019449Y-63184914D01*
X214020745Y-63185368D01*
X214020752Y-63185368D01*
X214020753Y-63185369D01*
X214199996Y-63205565D01*
X214200000Y-63205565D01*
X214200004Y-63205565D01*
X214379249Y-63185369D01*
X214379252Y-63185368D01*
X214379255Y-63185368D01*
X214549522Y-63125789D01*
X214702262Y-63029816D01*
X214829816Y-62902262D01*
X214925789Y-62749522D01*
X214985368Y-62579255D01*
X214990313Y-62535361D01*
X215017378Y-62470951D01*
X215025842Y-62461575D01*
X215661567Y-61825850D01*
X215722888Y-61792367D01*
X215735345Y-61790315D01*
X215779255Y-61785368D01*
X215949522Y-61725789D01*
X216102262Y-61629816D01*
X216229816Y-61502262D01*
X216325789Y-61349522D01*
X216385368Y-61179255D01*
X216399931Y-61050003D01*
X216405565Y-61000003D01*
X216405565Y-60999996D01*
X216385369Y-60820750D01*
X216385368Y-60820745D01*
X216362655Y-60755835D01*
X216325789Y-60650478D01*
X216321666Y-60643917D01*
X216253971Y-60536181D01*
X216229816Y-60497738D01*
X216102262Y-60370184D01*
X216092834Y-60364260D01*
X215949523Y-60274211D01*
X215779254Y-60214631D01*
X215779249Y-60214630D01*
X215600004Y-60194435D01*
X215599996Y-60194435D01*
X215420750Y-60214630D01*
X215420745Y-60214631D01*
X215250476Y-60274211D01*
X215097737Y-60370184D01*
X214970184Y-60497737D01*
X214874210Y-60650478D01*
X214814632Y-60820745D01*
X214809686Y-60864637D01*
X214782618Y-60929051D01*
X214774147Y-60938432D01*
X214288338Y-61424241D01*
X214227015Y-61457726D01*
X214157323Y-61452742D01*
X214101390Y-61410870D01*
X214095664Y-61402533D01*
X214029817Y-61297739D01*
X213902262Y-61170184D01*
X213749523Y-61074211D01*
X213579254Y-61014631D01*
X213579249Y-61014630D01*
X213400004Y-60994435D01*
X213399996Y-60994435D01*
X213220750Y-61014630D01*
X213220745Y-61014631D01*
X213050476Y-61074211D01*
X212897737Y-61170184D01*
X212770184Y-61297737D01*
X212674211Y-61450476D01*
X212614631Y-61620745D01*
X212614630Y-61620750D01*
X212594435Y-61799996D01*
X212594435Y-61800003D01*
X212602105Y-61868081D01*
X212600504Y-61906147D01*
X212599500Y-61911194D01*
X212599500Y-62283677D01*
X212579815Y-62350716D01*
X212527011Y-62396471D01*
X212489384Y-62406897D01*
X212420748Y-62414630D01*
X212334595Y-62444776D01*
X212264816Y-62448337D01*
X212204189Y-62413607D01*
X212176600Y-62368688D01*
X212170311Y-62350716D01*
X212125789Y-62223478D01*
X212046505Y-62097299D01*
X212027500Y-62031328D01*
X212027500Y-61938195D01*
X212017398Y-61887413D01*
X212017398Y-61887408D01*
X212003387Y-61816973D01*
X212003386Y-61816966D01*
X211958407Y-61708379D01*
X211956763Y-61703784D01*
X211887414Y-61599996D01*
X211887413Y-61599994D01*
X211870448Y-61583029D01*
X211800008Y-61512589D01*
X211457603Y-61170184D01*
X211104578Y-60817158D01*
X211071093Y-60755835D01*
X211076077Y-60686143D01*
X211117949Y-60630210D01*
X211183413Y-60605793D01*
X211193036Y-60605992D01*
X211193036Y-60605565D01*
X211200004Y-60605565D01*
X211379249Y-60585369D01*
X211379252Y-60585368D01*
X211379255Y-60585368D01*
X211549522Y-60525789D01*
X211702262Y-60429816D01*
X211829816Y-60302262D01*
X211925789Y-60149522D01*
X211985368Y-59979255D01*
X211988122Y-59954815D01*
X212005565Y-59800003D01*
X212005565Y-59799996D01*
X211985369Y-59620750D01*
X211985367Y-59620742D01*
X211975469Y-59592454D01*
X211971908Y-59522675D01*
X212006637Y-59462048D01*
X212068630Y-59429821D01*
X212092511Y-59427500D01*
X215488719Y-59427500D01*
X215555758Y-59447185D01*
X215576400Y-59463819D01*
X218774146Y-62661565D01*
X218807631Y-62722888D01*
X218809685Y-62735361D01*
X218814630Y-62779249D01*
X218874210Y-62949521D01*
X218906229Y-63000478D01*
X218970184Y-63102262D01*
X219097738Y-63229816D01*
X219141533Y-63257334D01*
X219212549Y-63301957D01*
X219250478Y-63325789D01*
X219420745Y-63385368D01*
X219420750Y-63385369D01*
X219599996Y-63405565D01*
X219600000Y-63405565D01*
X219600004Y-63405565D01*
X219779249Y-63385369D01*
X219779252Y-63385368D01*
X219779255Y-63385368D01*
X219949522Y-63325789D01*
X220102262Y-63229816D01*
X220229816Y-63102262D01*
X220325789Y-62949522D01*
X220385368Y-62779255D01*
X220388718Y-62749522D01*
X220405565Y-62600003D01*
X220405565Y-62599996D01*
X220385369Y-62420750D01*
X220385368Y-62420745D01*
X220325788Y-62250476D01*
X220229815Y-62097737D01*
X220102262Y-61970184D01*
X219949521Y-61874210D01*
X219779249Y-61814630D01*
X219735361Y-61809685D01*
X219670947Y-61782617D01*
X219661565Y-61774146D01*
X216200011Y-58312591D01*
X216200010Y-58312590D01*
X216149461Y-58278815D01*
X216149462Y-58278815D01*
X216149460Y-58278814D01*
X216097233Y-58243917D01*
X216097226Y-58243913D01*
X216063785Y-58230062D01*
X215983035Y-58196614D01*
X215983027Y-58196612D01*
X215861807Y-58172500D01*
X215861803Y-58172500D01*
X210741672Y-58172500D01*
X210675700Y-58153494D01*
X210549523Y-58074211D01*
X210379254Y-58014631D01*
X210379249Y-58014630D01*
X210200004Y-57994435D01*
X210199996Y-57994435D01*
X210020750Y-58014630D01*
X210020745Y-58014631D01*
X209850476Y-58074211D01*
X209697737Y-58170184D01*
X209570184Y-58297737D01*
X209474211Y-58450476D01*
X209414631Y-58620745D01*
X209414630Y-58620750D01*
X209394435Y-58799996D01*
X209394435Y-58800003D01*
X209414630Y-58979249D01*
X209414632Y-58979257D01*
X209424531Y-59007546D01*
X209428092Y-59077325D01*
X209393363Y-59137952D01*
X209331370Y-59170179D01*
X209307489Y-59172500D01*
X206756933Y-59172500D01*
X206694842Y-59184849D01*
X206656773Y-59186452D01*
X206650598Y-59185756D01*
X206629763Y-59183409D01*
X206629761Y-59183409D01*
X206629760Y-59183409D01*
X206629759Y-59183409D01*
X206450513Y-59203604D01*
X206450508Y-59203605D01*
X206280239Y-59263185D01*
X206127502Y-59359157D01*
X205997049Y-59489610D01*
X205935726Y-59523094D01*
X205866034Y-59518110D01*
X205821687Y-59489609D01*
X205702262Y-59370184D01*
X205549521Y-59274210D01*
X205379249Y-59214630D01*
X205292330Y-59204837D01*
X205227916Y-59177770D01*
X205218533Y-59169298D01*
X204863325Y-58814090D01*
X204863323Y-58814087D01*
X204744452Y-58695216D01*
X204744444Y-58695210D01*
X204642671Y-58636452D01*
X204642669Y-58636451D01*
X204607525Y-58616160D01*
X204607524Y-58616159D01*
X204594998Y-58612802D01*
X204454792Y-58575234D01*
X204296678Y-58575234D01*
X204289082Y-58575234D01*
X204289066Y-58575235D01*
X200343499Y-58575235D01*
X200276460Y-58555550D01*
X200230705Y-58502746D01*
X200220761Y-58433588D01*
X200249786Y-58370032D01*
X200307501Y-58332575D01*
X200484727Y-58278814D01*
X200658538Y-58185910D01*
X200810883Y-58060883D01*
X200935910Y-57908538D01*
X200990641Y-57806143D01*
X201028811Y-57734733D01*
X201028811Y-57734732D01*
X201028814Y-57734727D01*
X201086024Y-57546132D01*
X201095492Y-57450000D01*
X207244659Y-57450000D01*
X207263975Y-57646129D01*
X207321188Y-57834733D01*
X207414086Y-58008532D01*
X207414090Y-58008539D01*
X207539116Y-58160883D01*
X207691460Y-58285909D01*
X207691467Y-58285913D01*
X207865266Y-58378811D01*
X207865269Y-58378811D01*
X207865273Y-58378814D01*
X208053868Y-58436024D01*
X208250000Y-58455341D01*
X208446132Y-58436024D01*
X208634727Y-58378814D01*
X208649586Y-58370872D01*
X208808532Y-58285913D01*
X208808538Y-58285910D01*
X208960883Y-58160883D01*
X209085910Y-58008538D01*
X209155014Y-57879254D01*
X209178811Y-57834733D01*
X209178811Y-57834732D01*
X209178814Y-57834727D01*
X209236024Y-57646132D01*
X209255341Y-57450000D01*
X209236024Y-57253868D01*
X209178814Y-57065273D01*
X209178811Y-57065269D01*
X209178811Y-57065266D01*
X209085913Y-56891467D01*
X209085908Y-56891459D01*
X209071353Y-56873724D01*
X209044039Y-56809414D01*
X209055830Y-56740546D01*
X209062207Y-56729094D01*
X209080789Y-56699522D01*
X209140368Y-56529255D01*
X209152544Y-56421188D01*
X209160565Y-56350003D01*
X209160565Y-56349996D01*
X209140369Y-56170750D01*
X209140368Y-56170745D01*
X209080788Y-56000476D01*
X208984815Y-55847737D01*
X208857262Y-55720184D01*
X208704523Y-55624211D01*
X208534254Y-55564631D01*
X208534249Y-55564630D01*
X208355004Y-55544435D01*
X208354996Y-55544435D01*
X208175750Y-55564630D01*
X208175745Y-55564631D01*
X208005476Y-55624211D01*
X207852737Y-55720184D01*
X207725184Y-55847737D01*
X207629211Y-56000476D01*
X207569631Y-56170745D01*
X207569630Y-56170750D01*
X207549435Y-56349996D01*
X207549435Y-56350003D01*
X207569631Y-56529253D01*
X207569631Y-56529254D01*
X207591245Y-56591025D01*
X207594806Y-56660804D01*
X207560076Y-56721431D01*
X207552872Y-56727828D01*
X207539114Y-56739119D01*
X207414090Y-56891460D01*
X207414086Y-56891467D01*
X207321188Y-57065266D01*
X207263975Y-57253870D01*
X207244659Y-57450000D01*
X201095492Y-57450000D01*
X201105341Y-57350000D01*
X201086024Y-57153868D01*
X201028814Y-56965273D01*
X201028811Y-56965269D01*
X201028811Y-56965266D01*
X200935913Y-56791467D01*
X200935909Y-56791460D01*
X200810883Y-56639116D01*
X200658539Y-56514090D01*
X200658532Y-56514086D01*
X200484733Y-56421188D01*
X200484727Y-56421186D01*
X200298295Y-56364632D01*
X200296129Y-56363975D01*
X200100000Y-56344659D01*
X200099999Y-56344659D01*
X200051013Y-56349483D01*
X199982368Y-56336463D01*
X199951180Y-56313761D01*
X199150011Y-55512591D01*
X199150010Y-55512590D01*
X199127783Y-55497739D01*
X199127782Y-55497738D01*
X199047239Y-55443920D01*
X199047226Y-55443913D01*
X199013785Y-55430062D01*
X198933035Y-55396614D01*
X198933027Y-55396612D01*
X198811807Y-55372500D01*
X198811803Y-55372500D01*
X197491672Y-55372500D01*
X197425700Y-55353494D01*
X197299523Y-55274211D01*
X197129254Y-55214631D01*
X197129249Y-55214630D01*
X196950004Y-55194435D01*
X196949996Y-55194435D01*
X196770750Y-55214630D01*
X196770745Y-55214631D01*
X196600476Y-55274211D01*
X196447737Y-55370184D01*
X196320184Y-55497737D01*
X196224211Y-55650476D01*
X196164631Y-55820745D01*
X196164630Y-55820750D01*
X196144435Y-55999996D01*
X196144435Y-56000003D01*
X196164630Y-56179249D01*
X196164632Y-56179259D01*
X196168327Y-56189816D01*
X196171890Y-56259595D01*
X196137161Y-56320223D01*
X196075168Y-56352450D01*
X196065170Y-56353992D01*
X195970749Y-56364630D01*
X195970745Y-56364631D01*
X195800476Y-56424211D01*
X195647737Y-56520184D01*
X195520184Y-56647737D01*
X195424211Y-56800476D01*
X195364631Y-56970745D01*
X195364630Y-56970750D01*
X195344435Y-57149996D01*
X195344435Y-57150003D01*
X195364630Y-57329249D01*
X195364631Y-57329254D01*
X195424211Y-57499523D01*
X195437546Y-57520745D01*
X195520184Y-57652262D01*
X195647738Y-57779816D01*
X195800478Y-57875789D01*
X195970745Y-57935368D01*
X195970750Y-57935369D01*
X196149996Y-57955565D01*
X196150000Y-57955565D01*
X196150004Y-57955565D01*
X196329249Y-57935369D01*
X196329252Y-57935368D01*
X196329255Y-57935368D01*
X196499522Y-57875789D01*
X196625700Y-57796505D01*
X196691672Y-57777500D01*
X197119726Y-57777500D01*
X197186765Y-57797185D01*
X197229085Y-57843048D01*
X197264088Y-57908536D01*
X197264090Y-57908539D01*
X197389116Y-58060883D01*
X197541460Y-58185909D01*
X197541467Y-58185913D01*
X197715266Y-58278811D01*
X197715269Y-58278811D01*
X197715273Y-58278814D01*
X197892498Y-58332575D01*
X197950935Y-58370872D01*
X197979392Y-58434684D01*
X197968831Y-58503751D01*
X197922607Y-58556145D01*
X197856501Y-58575235D01*
X166567094Y-58575235D01*
X166500055Y-58555550D01*
X166454300Y-58502746D01*
X166444356Y-58433588D01*
X166473381Y-58370032D01*
X166501121Y-58346242D01*
X166510610Y-58340279D01*
X166527262Y-58329816D01*
X166654816Y-58202262D01*
X166750789Y-58049522D01*
X166810368Y-57879255D01*
X166814448Y-57843048D01*
X166830565Y-57700003D01*
X166830565Y-57699996D01*
X166810369Y-57520750D01*
X166810368Y-57520745D01*
X166750788Y-57350476D01*
X166683036Y-57242650D01*
X166654816Y-57197738D01*
X166527262Y-57070184D01*
X166519435Y-57065266D01*
X166374523Y-56974211D01*
X166204254Y-56914631D01*
X166204249Y-56914630D01*
X166025004Y-56894435D01*
X166024996Y-56894435D01*
X165845750Y-56914630D01*
X165845745Y-56914631D01*
X165675476Y-56974211D01*
X165522737Y-57070184D01*
X165395184Y-57197737D01*
X165299211Y-57350476D01*
X165239631Y-57520745D01*
X165239630Y-57520750D01*
X165219435Y-57699996D01*
X165219435Y-57700003D01*
X165239630Y-57879249D01*
X165239631Y-57879254D01*
X165299211Y-58049523D01*
X165314724Y-58074211D01*
X165395184Y-58202262D01*
X165522738Y-58329816D01*
X165531555Y-58335356D01*
X165548879Y-58346242D01*
X165595170Y-58398577D01*
X165605817Y-58467630D01*
X165577442Y-58531479D01*
X165519051Y-58569850D01*
X165482906Y-58575235D01*
X163806677Y-58575235D01*
X163739638Y-58555550D01*
X163729362Y-58548180D01*
X163726528Y-58545920D01*
X163726527Y-58545919D01*
X163630161Y-58485368D01*
X163573788Y-58449946D01*
X163403519Y-58390366D01*
X163403514Y-58390365D01*
X163224269Y-58370170D01*
X163224261Y-58370170D01*
X163045015Y-58390365D01*
X163045010Y-58390366D01*
X162874741Y-58449946D01*
X162722002Y-58545919D01*
X162594447Y-58673474D01*
X162590102Y-58678923D01*
X162589069Y-58678099D01*
X162542293Y-58719469D01*
X162473239Y-58730112D01*
X162409393Y-58701733D01*
X162402453Y-58695336D01*
X162402262Y-58695184D01*
X162249523Y-58599211D01*
X162079254Y-58539631D01*
X162079249Y-58539630D01*
X161900004Y-58519435D01*
X161899996Y-58519435D01*
X161720750Y-58539630D01*
X161720745Y-58539631D01*
X161550476Y-58599211D01*
X161397737Y-58695184D01*
X161270184Y-58822737D01*
X161174211Y-58975476D01*
X161114631Y-59145745D01*
X161114630Y-59145750D01*
X161094435Y-59324996D01*
X161094435Y-59325003D01*
X161114630Y-59504249D01*
X161114631Y-59504254D01*
X161174211Y-59674523D01*
X161253052Y-59799996D01*
X161270184Y-59827262D01*
X161397738Y-59954816D01*
X161550478Y-60050789D01*
X161720745Y-60110368D01*
X161807668Y-60120161D01*
X161872079Y-60147226D01*
X161881464Y-60155700D01*
X161982019Y-60256255D01*
X161982021Y-60256256D01*
X161982025Y-60256259D01*
X162118944Y-60335308D01*
X162118947Y-60335310D01*
X162118951Y-60335312D01*
X162271678Y-60376236D01*
X162271680Y-60376236D01*
X162437389Y-60376236D01*
X162437405Y-60376235D01*
X169537596Y-60376235D01*
X169537612Y-60376236D01*
X169545208Y-60376236D01*
X169703319Y-60376236D01*
X169703322Y-60376236D01*
X169856050Y-60335312D01*
X169913294Y-60302262D01*
X169992981Y-60256255D01*
X170012417Y-60236819D01*
X170073740Y-60203334D01*
X170100098Y-60200500D01*
X189368842Y-60200500D01*
X189435881Y-60220185D01*
X189481636Y-60272989D01*
X189491580Y-60342147D01*
X189462555Y-60405703D01*
X189452631Y-60415229D01*
X189452662Y-60415260D01*
X189320184Y-60547737D01*
X189224211Y-60700476D01*
X189164631Y-60870745D01*
X189164630Y-60870750D01*
X189144435Y-61049996D01*
X189144435Y-61050003D01*
X189165235Y-61234617D01*
X189153180Y-61303439D01*
X189105831Y-61354818D01*
X189042015Y-61372500D01*
X185938194Y-61372500D01*
X185816970Y-61396613D01*
X185816960Y-61396616D01*
X185702773Y-61443913D01*
X185702760Y-61443920D01*
X185599992Y-61512588D01*
X185599990Y-61512590D01*
X180088338Y-67024241D01*
X180027015Y-67057726D01*
X179957323Y-67052742D01*
X179901390Y-67010870D01*
X179895664Y-67002533D01*
X179829817Y-66897739D01*
X179702262Y-66770184D01*
X179549523Y-66674211D01*
X179379254Y-66614631D01*
X179379249Y-66614630D01*
X179200004Y-66594435D01*
X179199996Y-66594435D01*
X179020750Y-66614630D01*
X179020745Y-66614631D01*
X178850476Y-66674211D01*
X178697736Y-66770185D01*
X178694903Y-66772445D01*
X178692724Y-66773334D01*
X178691842Y-66773889D01*
X178691744Y-66773734D01*
X178630217Y-66798855D01*
X178617588Y-66799500D01*
X178286669Y-66799500D01*
X178286653Y-66799499D01*
X178279057Y-66799499D01*
X178120943Y-66799499D01*
X178044579Y-66819961D01*
X177968212Y-66840423D01*
X177968211Y-66840424D01*
X177934694Y-66859776D01*
X177831287Y-66919477D01*
X177831282Y-66919481D01*
X177772994Y-66977770D01*
X177719480Y-67031284D01*
X177719478Y-67031286D01*
X172831284Y-71919481D01*
X172614583Y-72136181D01*
X172551037Y-72199727D01*
X172489714Y-72233211D01*
X172477241Y-72235265D01*
X172420750Y-72241630D01*
X172250478Y-72301210D01*
X172097737Y-72397184D01*
X171970184Y-72524737D01*
X171874211Y-72677476D01*
X171814631Y-72847745D01*
X171814630Y-72847750D01*
X171794435Y-73026996D01*
X171794435Y-73027003D01*
X171814630Y-73206249D01*
X171814631Y-73206254D01*
X171874211Y-73376523D01*
X171965703Y-73522130D01*
X171970184Y-73529262D01*
X172097738Y-73656816D01*
X172209402Y-73726979D01*
X172255692Y-73779313D01*
X172266340Y-73848366D01*
X172237965Y-73912215D01*
X172231110Y-73919653D01*
X169487584Y-76663181D01*
X169426261Y-76696666D01*
X169399903Y-76699500D01*
X168772370Y-76699500D01*
X168705331Y-76679815D01*
X168659576Y-76627011D01*
X168649632Y-76557853D01*
X168678657Y-76494297D01*
X168699485Y-76475182D01*
X168762454Y-76429432D01*
X168805871Y-76397888D01*
X168932533Y-76257216D01*
X169027179Y-76093284D01*
X169085674Y-75913256D01*
X169105460Y-75725000D01*
X169085674Y-75536744D01*
X169027179Y-75356716D01*
X168932533Y-75192784D01*
X168805871Y-75052112D01*
X168805870Y-75052111D01*
X168652734Y-74940851D01*
X168652729Y-74940848D01*
X168479807Y-74863857D01*
X168479802Y-74863855D01*
X168330938Y-74832214D01*
X168294646Y-74824500D01*
X168105354Y-74824500D01*
X168072897Y-74831398D01*
X167920197Y-74863855D01*
X167920192Y-74863857D01*
X167747270Y-74940848D01*
X167747265Y-74940851D01*
X167594129Y-75052111D01*
X167467466Y-75192785D01*
X167372821Y-75356715D01*
X167372818Y-75356722D01*
X167316458Y-75530182D01*
X167314326Y-75536744D01*
X167302107Y-75653004D01*
X167296939Y-75702174D01*
X167270354Y-75766788D01*
X167213057Y-75806773D01*
X167159734Y-75812432D01*
X167092330Y-75804837D01*
X167027916Y-75777770D01*
X167018533Y-75769298D01*
X165974202Y-74724967D01*
X165974200Y-74724964D01*
X165855329Y-74606093D01*
X165855328Y-74606092D01*
X165768516Y-74555972D01*
X165768516Y-74555971D01*
X165768512Y-74555970D01*
X165718397Y-74527035D01*
X165565669Y-74486111D01*
X165407555Y-74486111D01*
X165399959Y-74486111D01*
X165399943Y-74486112D01*
X163387180Y-74486112D01*
X163320141Y-74466427D01*
X163274386Y-74413623D01*
X163264442Y-74344465D01*
X163293467Y-74280909D01*
X163299499Y-74274431D01*
X166937111Y-70636819D01*
X166998434Y-70603334D01*
X167024792Y-70600500D01*
X171417588Y-70600500D01*
X171484627Y-70620185D01*
X171494903Y-70627555D01*
X171497736Y-70629814D01*
X171497738Y-70629816D01*
X171650478Y-70725789D01*
X171803275Y-70779255D01*
X171820745Y-70785368D01*
X171820750Y-70785369D01*
X171999996Y-70805565D01*
X172000000Y-70805565D01*
X172000004Y-70805565D01*
X172179249Y-70785369D01*
X172179252Y-70785368D01*
X172179255Y-70785368D01*
X172349522Y-70725789D01*
X172502262Y-70629816D01*
X172629816Y-70502262D01*
X172725789Y-70349522D01*
X172785368Y-70179255D01*
X172785369Y-70179249D01*
X172805565Y-70000003D01*
X172805565Y-69999996D01*
X172785369Y-69820750D01*
X172785368Y-69820745D01*
X172765252Y-69763256D01*
X172725789Y-69650478D01*
X172707106Y-69620745D01*
X172658012Y-69542612D01*
X172629816Y-69497738D01*
X172502262Y-69370184D01*
X172349523Y-69274211D01*
X172179254Y-69214631D01*
X172179249Y-69214630D01*
X172000004Y-69194435D01*
X171999996Y-69194435D01*
X171820750Y-69214630D01*
X171820745Y-69214631D01*
X171650476Y-69274211D01*
X171497736Y-69370185D01*
X171494903Y-69372445D01*
X171492724Y-69373334D01*
X171491842Y-69373889D01*
X171491744Y-69373734D01*
X171430217Y-69398855D01*
X171417588Y-69399500D01*
X167496956Y-69399500D01*
X167429917Y-69379815D01*
X167384162Y-69327011D01*
X167373736Y-69289384D01*
X167360369Y-69170749D01*
X167360368Y-69170745D01*
X167336405Y-69102262D01*
X167300789Y-69000478D01*
X167204816Y-68847738D01*
X167077262Y-68720184D01*
X167067191Y-68713856D01*
X166924523Y-68624211D01*
X166754254Y-68564631D01*
X166754249Y-68564630D01*
X166575004Y-68544435D01*
X166574996Y-68544435D01*
X166395750Y-68564630D01*
X166395745Y-68564631D01*
X166225476Y-68624211D01*
X166072735Y-68720185D01*
X166067611Y-68724272D01*
X166002922Y-68750676D01*
X165939868Y-68740599D01*
X165918459Y-68731067D01*
X165879802Y-68713855D01*
X165734001Y-68682865D01*
X165694646Y-68674500D01*
X165505354Y-68674500D01*
X165472897Y-68681398D01*
X165320197Y-68713855D01*
X165320192Y-68713857D01*
X165147270Y-68790848D01*
X165147265Y-68790851D01*
X164994129Y-68902111D01*
X164867466Y-69042785D01*
X164772821Y-69206715D01*
X164772818Y-69206722D01*
X164719706Y-69370185D01*
X164714326Y-69386744D01*
X164694540Y-69575000D01*
X164714326Y-69763256D01*
X164714327Y-69763259D01*
X164772818Y-69943277D01*
X164772821Y-69943284D01*
X164867467Y-70107216D01*
X164988662Y-70241816D01*
X164994129Y-70247888D01*
X165147265Y-70359148D01*
X165147270Y-70359151D01*
X165237797Y-70399457D01*
X165291034Y-70444707D01*
X165311355Y-70511557D01*
X165292309Y-70578780D01*
X165275042Y-70600417D01*
X161444862Y-74430597D01*
X161383539Y-74464082D01*
X161313847Y-74459098D01*
X161291209Y-74447910D01*
X161267007Y-74432703D01*
X161187952Y-74383029D01*
X161144298Y-74355599D01*
X160974026Y-74296019D01*
X160887107Y-74286226D01*
X160822693Y-74259159D01*
X160813310Y-74250687D01*
X160728978Y-74166355D01*
X160728976Y-74166352D01*
X160610105Y-74047481D01*
X160610100Y-74047477D01*
X160518227Y-73994435D01*
X160473173Y-73968423D01*
X160320445Y-73927499D01*
X160162331Y-73927499D01*
X160154735Y-73927499D01*
X160154719Y-73927500D01*
X160037320Y-73927500D01*
X159970281Y-73907815D01*
X159938052Y-73877809D01*
X159932548Y-73870457D01*
X159932546Y-73870454D01*
X159916699Y-73858591D01*
X159817335Y-73784206D01*
X159817328Y-73784202D01*
X159682482Y-73733908D01*
X159682483Y-73733908D01*
X159622883Y-73727501D01*
X159622881Y-73727500D01*
X159622873Y-73727500D01*
X159622864Y-73727500D01*
X157977129Y-73727500D01*
X157977123Y-73727501D01*
X157917516Y-73733908D01*
X157782671Y-73784202D01*
X157782664Y-73784206D01*
X157667455Y-73870452D01*
X157667452Y-73870455D01*
X157581206Y-73985664D01*
X157581202Y-73985671D01*
X157530910Y-74120513D01*
X157530909Y-74120517D01*
X157524500Y-74180127D01*
X157524500Y-74180134D01*
X157524500Y-74180135D01*
X157524500Y-74875870D01*
X157524501Y-74875876D01*
X157530909Y-74935487D01*
X157531246Y-74936390D01*
X157531299Y-74937137D01*
X157532692Y-74943031D01*
X157531736Y-74943256D01*
X157536225Y-75006082D01*
X157531540Y-75022038D01*
X157531401Y-75022627D01*
X157525000Y-75082155D01*
X157525000Y-75180000D01*
X157618773Y-75180000D01*
X157685812Y-75199685D01*
X157693084Y-75204733D01*
X157701115Y-75210745D01*
X157773096Y-75264630D01*
X157782668Y-75271795D01*
X157782671Y-75271797D01*
X157852436Y-75297818D01*
X157908370Y-75339689D01*
X157932787Y-75405154D01*
X157917935Y-75473427D01*
X157868530Y-75522832D01*
X157852436Y-75530182D01*
X157782671Y-75556202D01*
X157782664Y-75556206D01*
X157667455Y-75642452D01*
X157666227Y-75643681D01*
X157664702Y-75644513D01*
X157660355Y-75647768D01*
X157659887Y-75647142D01*
X157604904Y-75677166D01*
X157578546Y-75680000D01*
X157525000Y-75680000D01*
X157525000Y-75777844D01*
X157532231Y-75845087D01*
X157530935Y-75845226D01*
X157530935Y-75884718D01*
X157531738Y-75884805D01*
X157530935Y-75892273D01*
X157530935Y-75892404D01*
X157530909Y-75892512D01*
X157524501Y-75952117D01*
X157524500Y-75952136D01*
X157524500Y-76647870D01*
X157524501Y-76647876D01*
X157530908Y-76707482D01*
X157544004Y-76742593D01*
X157544639Y-76744297D01*
X157549253Y-76756666D01*
X157554237Y-76826358D01*
X157549253Y-76843331D01*
X157530910Y-76892511D01*
X157530909Y-76892515D01*
X157530909Y-76892517D01*
X157524500Y-76952127D01*
X157524500Y-76952134D01*
X157524500Y-76952135D01*
X157524500Y-77647870D01*
X157524501Y-77647876D01*
X157530908Y-77707482D01*
X157549253Y-77756666D01*
X157554237Y-77826358D01*
X157549253Y-77843331D01*
X157530910Y-77892511D01*
X157530909Y-77892515D01*
X157530909Y-77892517D01*
X157524500Y-77952127D01*
X157524500Y-77952134D01*
X157524500Y-77952135D01*
X157524500Y-78647870D01*
X157524501Y-78647876D01*
X157530908Y-78707482D01*
X157543067Y-78740081D01*
X157547816Y-78752815D01*
X157549253Y-78756666D01*
X157554237Y-78826358D01*
X157549253Y-78843331D01*
X157530910Y-78892511D01*
X157530909Y-78892515D01*
X157530909Y-78892517D01*
X157524500Y-78952127D01*
X157524500Y-78952134D01*
X157524500Y-78952135D01*
X157524500Y-79647870D01*
X157524501Y-79647876D01*
X157530908Y-79707483D01*
X157581202Y-79842328D01*
X157581206Y-79842335D01*
X157667452Y-79957544D01*
X157667455Y-79957547D01*
X157782664Y-80043793D01*
X157782671Y-80043797D01*
X157827618Y-80060561D01*
X157917517Y-80094091D01*
X157977127Y-80100500D01*
X158661717Y-80100499D01*
X158728756Y-80120183D01*
X158749398Y-80136818D01*
X158776988Y-80164408D01*
X158776996Y-80164414D01*
X158879756Y-80233076D01*
X158879760Y-80233078D01*
X158879767Y-80233083D01*
X158921816Y-80250500D01*
X158993966Y-80280386D01*
X159115192Y-80304499D01*
X159115196Y-80304500D01*
X159115197Y-80304500D01*
X169184804Y-80304500D01*
X169184805Y-80304499D01*
X169306035Y-80280386D01*
X169386784Y-80246937D01*
X169420233Y-80233083D01*
X169523008Y-80164411D01*
X169610411Y-80077008D01*
X170436018Y-79251400D01*
X170497339Y-79217917D01*
X170567030Y-79222901D01*
X170622964Y-79264773D01*
X170647381Y-79330237D01*
X170646917Y-79352966D01*
X170644435Y-79374995D01*
X170644435Y-79375003D01*
X170664630Y-79554249D01*
X170664631Y-79554254D01*
X170724211Y-79724523D01*
X170758598Y-79779249D01*
X170820184Y-79877262D01*
X170947738Y-80004816D01*
X171100478Y-80100789D01*
X171270745Y-80160368D01*
X171357669Y-80170161D01*
X171422080Y-80197226D01*
X171431465Y-80205700D01*
X171617139Y-80391374D01*
X171617149Y-80391385D01*
X171621479Y-80395715D01*
X171621480Y-80395716D01*
X171733284Y-80507520D01*
X171733286Y-80507521D01*
X171812272Y-80553123D01*
X171860488Y-80603690D01*
X171873712Y-80672297D01*
X171847744Y-80737162D01*
X171790830Y-80777691D01*
X171750394Y-80784511D01*
X157024904Y-80798889D01*
X156957845Y-80779270D01*
X156912039Y-80726511D01*
X156900783Y-80674833D01*
X156900784Y-80674660D01*
X156904443Y-72624996D01*
X160744435Y-72624996D01*
X160744435Y-72625003D01*
X160764630Y-72804249D01*
X160764631Y-72804254D01*
X160824211Y-72974523D01*
X160905491Y-73103878D01*
X160920184Y-73127262D01*
X161047738Y-73254816D01*
X161116046Y-73297737D01*
X161197864Y-73349147D01*
X161200478Y-73350789D01*
X161339109Y-73399298D01*
X161370745Y-73410368D01*
X161370750Y-73410369D01*
X161549996Y-73430565D01*
X161550000Y-73430565D01*
X161550004Y-73430565D01*
X161729249Y-73410369D01*
X161729252Y-73410368D01*
X161729255Y-73410368D01*
X161899522Y-73350789D01*
X162052262Y-73254816D01*
X162179816Y-73127262D01*
X162275789Y-72974522D01*
X162335368Y-72804255D01*
X162335369Y-72804249D01*
X162355565Y-72625003D01*
X162355565Y-72624996D01*
X162335369Y-72445750D01*
X162335368Y-72445745D01*
X162332789Y-72438376D01*
X162275789Y-72275478D01*
X162255955Y-72243913D01*
X162217963Y-72183449D01*
X162179816Y-72122738D01*
X162052262Y-71995184D01*
X162026902Y-71979249D01*
X161899523Y-71899211D01*
X161729254Y-71839631D01*
X161729249Y-71839630D01*
X161550004Y-71819435D01*
X161549996Y-71819435D01*
X161370750Y-71839630D01*
X161370745Y-71839631D01*
X161200476Y-71899211D01*
X161047737Y-71995184D01*
X160920184Y-72122737D01*
X160824211Y-72275476D01*
X160764631Y-72445745D01*
X160764630Y-72445750D01*
X160744435Y-72624996D01*
X156904443Y-72624996D01*
X156907093Y-66793713D01*
X158249500Y-66793713D01*
X158249500Y-67006287D01*
X158258152Y-67060913D01*
X158272865Y-67153811D01*
X158282754Y-67216243D01*
X158309233Y-67297738D01*
X158348444Y-67418414D01*
X158444951Y-67607820D01*
X158569890Y-67779786D01*
X158720213Y-67930109D01*
X158892179Y-68055048D01*
X158892181Y-68055049D01*
X158892184Y-68055051D01*
X159081588Y-68151557D01*
X159283757Y-68217246D01*
X159493713Y-68250500D01*
X159493714Y-68250500D01*
X159706286Y-68250500D01*
X159706287Y-68250500D01*
X159916243Y-68217246D01*
X160118412Y-68151557D01*
X160307816Y-68055051D01*
X160345661Y-68027555D01*
X160479786Y-67930109D01*
X160479788Y-67930106D01*
X160479792Y-67930104D01*
X160630104Y-67779792D01*
X160630106Y-67779788D01*
X160630109Y-67779786D01*
X160755048Y-67607820D01*
X160755047Y-67607820D01*
X160755051Y-67607816D01*
X160851557Y-67418412D01*
X160917246Y-67216243D01*
X160950500Y-67006287D01*
X160950500Y-66793713D01*
X160917246Y-66583757D01*
X160851557Y-66381588D01*
X160755051Y-66192184D01*
X160755049Y-66192181D01*
X160755048Y-66192179D01*
X160630109Y-66020213D01*
X160479786Y-65869890D01*
X160307820Y-65744951D01*
X160118414Y-65648444D01*
X160118413Y-65648443D01*
X160118412Y-65648443D01*
X159916243Y-65582754D01*
X159916241Y-65582753D01*
X159916240Y-65582753D01*
X159747926Y-65556095D01*
X159706287Y-65549500D01*
X159493713Y-65549500D01*
X159452074Y-65556095D01*
X159283760Y-65582753D01*
X159081585Y-65648444D01*
X158892179Y-65744951D01*
X158720213Y-65869890D01*
X158569890Y-66020213D01*
X158444951Y-66192179D01*
X158348444Y-66381585D01*
X158282753Y-66583760D01*
X158251112Y-66783538D01*
X158249500Y-66793713D01*
X156907093Y-66793713D01*
X156907879Y-65065273D01*
X156908102Y-64574996D01*
X162219435Y-64574996D01*
X162219435Y-64575003D01*
X162239630Y-64754249D01*
X162239631Y-64754254D01*
X162299211Y-64924523D01*
X162372036Y-65040423D01*
X162395184Y-65077262D01*
X162522738Y-65204816D01*
X162581536Y-65241761D01*
X162668155Y-65296188D01*
X162675478Y-65300789D01*
X162724050Y-65317785D01*
X162845745Y-65360368D01*
X162845750Y-65360369D01*
X163024996Y-65380565D01*
X163025000Y-65380565D01*
X163025004Y-65380565D01*
X163204249Y-65360369D01*
X163204252Y-65360368D01*
X163204255Y-65360368D01*
X163374522Y-65300789D01*
X163527262Y-65204816D01*
X163654816Y-65077262D01*
X163750789Y-64924522D01*
X163810368Y-64754255D01*
X163812030Y-64739503D01*
X163830565Y-64575003D01*
X163830565Y-64574996D01*
X163810369Y-64395750D01*
X163810368Y-64395745D01*
X163750788Y-64225476D01*
X163694169Y-64135368D01*
X163654816Y-64072738D01*
X163527262Y-63945184D01*
X163407140Y-63869706D01*
X163374523Y-63849211D01*
X163204254Y-63789631D01*
X163204249Y-63789630D01*
X163025004Y-63769435D01*
X163024996Y-63769435D01*
X162845750Y-63789630D01*
X162845745Y-63789631D01*
X162675476Y-63849211D01*
X162522737Y-63945184D01*
X162395184Y-64072737D01*
X162299211Y-64225476D01*
X162239631Y-64395745D01*
X162239630Y-64395750D01*
X162219435Y-64574996D01*
X156908102Y-64574996D01*
X156908659Y-63349996D01*
X166194435Y-63349996D01*
X166194435Y-63350003D01*
X166214630Y-63529249D01*
X166214631Y-63529254D01*
X166274211Y-63699523D01*
X166339473Y-63803386D01*
X166370184Y-63852262D01*
X166497738Y-63979816D01*
X166538627Y-64005508D01*
X166645620Y-64072737D01*
X166650478Y-64075789D01*
X166661924Y-64079794D01*
X166820745Y-64135368D01*
X166820750Y-64135369D01*
X166999996Y-64155565D01*
X167000000Y-64155565D01*
X167000004Y-64155565D01*
X167179249Y-64135369D01*
X167179252Y-64135368D01*
X167179255Y-64135368D01*
X167349522Y-64075789D01*
X167502262Y-63979816D01*
X167629816Y-63852262D01*
X167725789Y-63699522D01*
X167785368Y-63529255D01*
X167788018Y-63505735D01*
X167805565Y-63350003D01*
X167805565Y-63349996D01*
X167785369Y-63170750D01*
X167785368Y-63170745D01*
X167770852Y-63129262D01*
X167725789Y-63000478D01*
X167710736Y-62976522D01*
X167629815Y-62847737D01*
X167502262Y-62720184D01*
X167349523Y-62624211D01*
X167179254Y-62564631D01*
X167179249Y-62564630D01*
X167000004Y-62544435D01*
X166999996Y-62544435D01*
X166820750Y-62564630D01*
X166820745Y-62564631D01*
X166650476Y-62624211D01*
X166497737Y-62720184D01*
X166370184Y-62847737D01*
X166274211Y-63000476D01*
X166214631Y-63170745D01*
X166214630Y-63170750D01*
X166194435Y-63349996D01*
X156908659Y-63349996D01*
X156912717Y-54424444D01*
X156932432Y-54357413D01*
X156985257Y-54311682D01*
X157036717Y-54300500D01*
X213633747Y-54300500D01*
X213669227Y-54305684D01*
G37*
G04 #@! TD.AperFunction*
G04 #@! TA.AperFunction,Conductor*
G36*
X190173158Y-73901185D02*
G01*
X190218913Y-73953989D01*
X190228857Y-74023147D01*
X190199832Y-74086703D01*
X190193800Y-74093181D01*
X188338432Y-75948547D01*
X188277109Y-75982032D01*
X188264637Y-75984086D01*
X188220745Y-75989032D01*
X188050478Y-76048610D01*
X187897737Y-76144584D01*
X187770184Y-76272137D01*
X187674211Y-76424876D01*
X187614631Y-76595145D01*
X187614630Y-76595150D01*
X187594435Y-76774396D01*
X187594435Y-76774403D01*
X187614630Y-76953649D01*
X187614631Y-76953654D01*
X187674211Y-77123923D01*
X187746008Y-77238186D01*
X187770184Y-77276662D01*
X187897738Y-77404216D01*
X187899885Y-77405565D01*
X188050167Y-77499994D01*
X188050478Y-77500189D01*
X188192830Y-77550000D01*
X188220745Y-77559768D01*
X188220750Y-77559769D01*
X188399996Y-77579965D01*
X188400000Y-77579965D01*
X188400004Y-77579965D01*
X188579249Y-77559769D01*
X188579252Y-77559768D01*
X188579255Y-77559768D01*
X188749522Y-77500189D01*
X188902262Y-77404216D01*
X189029816Y-77276662D01*
X189125789Y-77123922D01*
X189185368Y-76953655D01*
X189190313Y-76909761D01*
X189217378Y-76845351D01*
X189225842Y-76835975D01*
X189795218Y-76266600D01*
X189856536Y-76233118D01*
X189926227Y-76238102D01*
X189982161Y-76279973D01*
X190001555Y-76318289D01*
X190021651Y-76384539D01*
X190087922Y-76508523D01*
X191458523Y-75137922D01*
X191450918Y-75133858D01*
X191401074Y-75084895D01*
X191385614Y-75016758D01*
X191409446Y-74951078D01*
X191465004Y-74908709D01*
X191509372Y-74900500D01*
X197471984Y-74900500D01*
X197539023Y-74920185D01*
X197584778Y-74972989D01*
X197594722Y-75042147D01*
X197589024Y-75065458D01*
X197584776Y-75077596D01*
X197584773Y-75077607D01*
X197564578Y-75256853D01*
X197564578Y-75256860D01*
X197584773Y-75436106D01*
X197584774Y-75436111D01*
X197644354Y-75606380D01*
X197740327Y-75759119D01*
X197867882Y-75886674D01*
X197901222Y-75907623D01*
X197947512Y-75959958D01*
X197958160Y-76029011D01*
X197929785Y-76092859D01*
X197894267Y-76121671D01*
X197676493Y-76239524D01*
X197480257Y-76392261D01*
X197311833Y-76575217D01*
X197175826Y-76783393D01*
X197075936Y-77011118D01*
X197014892Y-77252175D01*
X197014890Y-77252187D01*
X196994357Y-77499994D01*
X196994357Y-77500005D01*
X197009493Y-77682672D01*
X196995412Y-77751108D01*
X196946567Y-77801067D01*
X196899801Y-77816132D01*
X196797749Y-77827630D01*
X196797745Y-77827631D01*
X196627476Y-77887211D01*
X196474737Y-77983184D01*
X196347184Y-78110737D01*
X196251211Y-78263476D01*
X196191631Y-78433745D01*
X196191630Y-78433750D01*
X196171435Y-78612996D01*
X196171435Y-78613004D01*
X196173870Y-78634618D01*
X196161815Y-78703440D01*
X196114465Y-78754818D01*
X196050650Y-78772500D01*
X195596281Y-78772500D01*
X195529242Y-78752815D01*
X195508600Y-78736181D01*
X195210852Y-78438433D01*
X195177367Y-78377110D01*
X195175314Y-78364648D01*
X195170368Y-78320745D01*
X195170367Y-78320742D01*
X195170366Y-78320737D01*
X195109169Y-78145847D01*
X195105607Y-78076068D01*
X195130356Y-78026229D01*
X195185910Y-77958538D01*
X195186931Y-77956629D01*
X195278811Y-77784733D01*
X195278811Y-77784732D01*
X195278814Y-77784727D01*
X195336024Y-77596132D01*
X195355341Y-77400000D01*
X195336024Y-77203868D01*
X195278814Y-77015273D01*
X195278811Y-77015269D01*
X195278811Y-77015266D01*
X195185913Y-76841467D01*
X195185909Y-76841460D01*
X195060883Y-76689116D01*
X194908539Y-76564090D01*
X194908532Y-76564086D01*
X194734733Y-76471188D01*
X194734727Y-76471186D01*
X194552313Y-76415851D01*
X194546129Y-76413975D01*
X194350000Y-76394659D01*
X194153870Y-76413975D01*
X193965266Y-76471188D01*
X193791467Y-76564086D01*
X193791460Y-76564090D01*
X193639116Y-76689116D01*
X193514090Y-76841460D01*
X193514088Y-76841463D01*
X193419269Y-77018857D01*
X193370306Y-77068701D01*
X193302169Y-77084161D01*
X193236489Y-77060329D01*
X193200552Y-77018855D01*
X193185911Y-76991463D01*
X193185909Y-76991460D01*
X193060883Y-76839116D01*
X192908539Y-76714090D01*
X192908532Y-76714086D01*
X192734733Y-76621188D01*
X192734727Y-76621186D01*
X192586017Y-76576075D01*
X192546129Y-76563975D01*
X192350000Y-76544659D01*
X192153869Y-76563975D01*
X191997029Y-76611553D01*
X191927163Y-76612176D01*
X191868050Y-76574928D01*
X191838459Y-76511634D01*
X191847784Y-76442389D01*
X191851676Y-76434438D01*
X191878348Y-76384537D01*
X191935531Y-76196032D01*
X191954838Y-76000000D01*
X191935531Y-75803967D01*
X191878348Y-75615462D01*
X191812076Y-75491476D01*
X191126777Y-76176777D01*
X190441476Y-76862076D01*
X190565462Y-76928348D01*
X190753969Y-76985531D01*
X190753965Y-76985531D01*
X190950000Y-77004838D01*
X191146034Y-76985531D01*
X191146036Y-76985530D01*
X191302626Y-76938029D01*
X191372493Y-76937405D01*
X191431606Y-76974653D01*
X191461197Y-77037947D01*
X191451872Y-77107191D01*
X191447981Y-77115141D01*
X191421188Y-77165268D01*
X191421187Y-77165270D01*
X191421186Y-77165273D01*
X191392265Y-77260613D01*
X191363975Y-77353870D01*
X191344659Y-77550000D01*
X191363975Y-77746129D01*
X191421188Y-77934733D01*
X191514086Y-78108532D01*
X191514090Y-78108539D01*
X191639116Y-78260883D01*
X191791460Y-78385909D01*
X191791467Y-78385913D01*
X191965266Y-78478811D01*
X191965269Y-78478811D01*
X191965273Y-78478814D01*
X192153868Y-78536024D01*
X192183329Y-78538925D01*
X192186513Y-78539239D01*
X192251300Y-78565399D01*
X192291660Y-78622433D01*
X192292291Y-78624324D01*
X192322818Y-78718277D01*
X192322821Y-78718284D01*
X192417467Y-78882216D01*
X192544129Y-79022888D01*
X192697265Y-79134148D01*
X192697270Y-79134151D01*
X192820957Y-79189221D01*
X192874194Y-79234471D01*
X192894515Y-79301320D01*
X192875469Y-79368544D01*
X192823103Y-79414799D01*
X192770521Y-79426500D01*
X172402097Y-79426500D01*
X172335058Y-79406815D01*
X172314416Y-79390181D01*
X172280700Y-79356465D01*
X172247215Y-79295142D01*
X172245163Y-79282686D01*
X172235368Y-79195745D01*
X172175789Y-79025478D01*
X172079816Y-78872738D01*
X171952262Y-78745184D01*
X171928996Y-78730565D01*
X171799523Y-78649211D01*
X171629254Y-78589631D01*
X171629249Y-78589630D01*
X171450004Y-78569435D01*
X171449996Y-78569435D01*
X171427966Y-78571917D01*
X171359144Y-78559862D01*
X171307765Y-78512513D01*
X171290141Y-78444902D01*
X171311868Y-78378497D01*
X171326397Y-78361021D01*
X171730791Y-77956627D01*
X174812000Y-77956627D01*
X174812000Y-78065373D01*
X174840145Y-78170412D01*
X174894518Y-78264588D01*
X174971412Y-78341482D01*
X175065588Y-78395855D01*
X175170627Y-78424000D01*
X175170629Y-78424000D01*
X175279371Y-78424000D01*
X175279373Y-78424000D01*
X175384412Y-78395855D01*
X175478588Y-78341482D01*
X175555482Y-78264588D01*
X175609855Y-78170412D01*
X175638000Y-78065373D01*
X175638000Y-77956627D01*
X175609855Y-77851588D01*
X175555482Y-77757412D01*
X175478588Y-77680518D01*
X175384412Y-77626145D01*
X175279373Y-77598000D01*
X175170627Y-77598000D01*
X175065587Y-77626145D01*
X174971412Y-77680518D01*
X174971409Y-77680520D01*
X174894520Y-77757409D01*
X174894518Y-77757412D01*
X174840145Y-77851587D01*
X174823902Y-77912207D01*
X174812000Y-77956627D01*
X171730791Y-77956627D01*
X174801528Y-74885890D01*
X174862849Y-74852407D01*
X174932541Y-74857391D01*
X174988474Y-74899263D01*
X175012427Y-74959690D01*
X175014630Y-74979249D01*
X175014631Y-74979254D01*
X175074211Y-75149523D01*
X175160408Y-75286703D01*
X175170184Y-75302262D01*
X175297738Y-75429816D01*
X175388080Y-75486582D01*
X175442025Y-75520478D01*
X175450478Y-75525789D01*
X175537399Y-75556204D01*
X175620745Y-75585368D01*
X175620750Y-75585369D01*
X175799996Y-75605565D01*
X175800000Y-75605565D01*
X175800004Y-75605565D01*
X175979249Y-75585369D01*
X175979252Y-75585368D01*
X175979255Y-75585368D01*
X176149522Y-75525789D01*
X176275700Y-75446505D01*
X176341672Y-75427500D01*
X178619755Y-75427500D01*
X178701309Y-75411276D01*
X178740984Y-75403385D01*
X178794813Y-75381088D01*
X178855181Y-75356083D01*
X178957956Y-75287411D01*
X179045359Y-75200008D01*
X179045359Y-75200007D01*
X179233412Y-75011954D01*
X179235547Y-75009819D01*
X179296870Y-74976334D01*
X179323228Y-74973500D01*
X183642886Y-74973500D01*
X183709925Y-74993185D01*
X183755680Y-75045989D01*
X183765624Y-75115147D01*
X183759927Y-75138455D01*
X183734633Y-75210737D01*
X183734630Y-75210750D01*
X183714435Y-75389996D01*
X183714435Y-75390003D01*
X183734630Y-75569249D01*
X183734631Y-75569254D01*
X183794211Y-75739523D01*
X183821233Y-75782528D01*
X183840233Y-75849765D01*
X183819865Y-75916600D01*
X183766597Y-75961814D01*
X183716239Y-75972500D01*
X177941672Y-75972500D01*
X177875700Y-75953494D01*
X177749523Y-75874211D01*
X177579254Y-75814631D01*
X177579249Y-75814630D01*
X177400004Y-75794435D01*
X177399996Y-75794435D01*
X177220750Y-75814630D01*
X177220745Y-75814631D01*
X177050476Y-75874211D01*
X176897737Y-75970184D01*
X176770184Y-76097737D01*
X176674211Y-76250476D01*
X176614631Y-76420745D01*
X176614630Y-76420750D01*
X176594435Y-76599996D01*
X176594435Y-76600000D01*
X176614630Y-76779249D01*
X176614631Y-76779254D01*
X176674211Y-76949523D01*
X176715525Y-77015273D01*
X176770184Y-77102262D01*
X176897738Y-77229816D01*
X176960277Y-77269112D01*
X177009417Y-77299989D01*
X177050478Y-77325789D01*
X177130729Y-77353870D01*
X177220745Y-77385368D01*
X177220750Y-77385369D01*
X177399996Y-77405565D01*
X177400000Y-77405565D01*
X177400004Y-77405565D01*
X177579249Y-77385369D01*
X177579252Y-77385368D01*
X177579255Y-77385368D01*
X177749522Y-77325789D01*
X177875700Y-77246505D01*
X177941672Y-77227500D01*
X179043499Y-77227500D01*
X179110538Y-77247185D01*
X179156293Y-77299989D01*
X179166237Y-77369147D01*
X179148493Y-77417472D01*
X179049211Y-77575476D01*
X178989631Y-77745745D01*
X178989630Y-77745750D01*
X178969435Y-77924996D01*
X178969435Y-77925003D01*
X178989630Y-78104249D01*
X178989631Y-78104254D01*
X179049211Y-78274523D01*
X179141663Y-78421658D01*
X179145184Y-78427262D01*
X179272738Y-78554816D01*
X179337669Y-78595615D01*
X179422966Y-78649211D01*
X179425478Y-78650789D01*
X179575946Y-78703440D01*
X179595745Y-78710368D01*
X179595750Y-78710369D01*
X179774996Y-78730565D01*
X179775000Y-78730565D01*
X179775004Y-78730565D01*
X179954249Y-78710369D01*
X179954252Y-78710368D01*
X179954255Y-78710368D01*
X180124522Y-78650789D01*
X180277262Y-78554816D01*
X180404816Y-78427262D01*
X180500789Y-78274522D01*
X180560368Y-78104255D01*
X180561115Y-78097624D01*
X180577002Y-77956627D01*
X181812000Y-77956627D01*
X181812000Y-78065373D01*
X181840145Y-78170412D01*
X181894518Y-78264588D01*
X181971412Y-78341482D01*
X182065588Y-78395855D01*
X182170627Y-78424000D01*
X182170629Y-78424000D01*
X182279371Y-78424000D01*
X182279373Y-78424000D01*
X182384412Y-78395855D01*
X182478588Y-78341482D01*
X182555482Y-78264588D01*
X182578341Y-78224996D01*
X186244435Y-78224996D01*
X186244435Y-78225003D01*
X186264630Y-78404249D01*
X186264631Y-78404254D01*
X186324211Y-78574523D01*
X186405216Y-78703440D01*
X186420184Y-78727262D01*
X186547738Y-78854816D01*
X186591342Y-78882214D01*
X186648735Y-78918277D01*
X186700478Y-78950789D01*
X186802837Y-78986606D01*
X186870745Y-79010368D01*
X186870750Y-79010369D01*
X187049996Y-79030565D01*
X187050000Y-79030565D01*
X187050004Y-79030565D01*
X187229249Y-79010369D01*
X187229252Y-79010368D01*
X187229255Y-79010368D01*
X187399522Y-78950789D01*
X187552262Y-78854816D01*
X187679816Y-78727262D01*
X187775789Y-78574522D01*
X187835368Y-78404255D01*
X187835901Y-78399523D01*
X187855565Y-78225003D01*
X187855565Y-78224996D01*
X187835369Y-78045750D01*
X187835368Y-78045745D01*
X187821292Y-78005518D01*
X187775789Y-77875478D01*
X187775597Y-77875173D01*
X187717650Y-77782950D01*
X187679816Y-77722738D01*
X187552262Y-77595184D01*
X187509451Y-77568284D01*
X187399523Y-77499211D01*
X187229254Y-77439631D01*
X187229249Y-77439630D01*
X187050004Y-77419435D01*
X187049996Y-77419435D01*
X186870750Y-77439630D01*
X186870745Y-77439631D01*
X186700476Y-77499211D01*
X186547737Y-77595184D01*
X186420184Y-77722737D01*
X186324211Y-77875476D01*
X186264631Y-78045745D01*
X186264630Y-78045750D01*
X186244435Y-78224996D01*
X182578341Y-78224996D01*
X182609855Y-78170412D01*
X182638000Y-78065373D01*
X182638000Y-77956627D01*
X182609855Y-77851588D01*
X182555482Y-77757412D01*
X182478588Y-77680518D01*
X182384412Y-77626145D01*
X182279373Y-77598000D01*
X182170627Y-77598000D01*
X182065587Y-77626145D01*
X181971412Y-77680518D01*
X181971409Y-77680520D01*
X181894520Y-77757409D01*
X181894518Y-77757412D01*
X181840145Y-77851587D01*
X181823902Y-77912207D01*
X181812000Y-77956627D01*
X180577002Y-77956627D01*
X180580565Y-77925003D01*
X180580565Y-77924996D01*
X180560369Y-77745750D01*
X180560368Y-77745745D01*
X180554387Y-77728651D01*
X180500789Y-77575478D01*
X180490918Y-77559769D01*
X180415431Y-77439632D01*
X180404816Y-77422738D01*
X180404815Y-77422737D01*
X180401507Y-77417472D01*
X180382507Y-77350236D01*
X180402875Y-77283400D01*
X180456142Y-77238186D01*
X180506501Y-77227500D01*
X185861804Y-77227500D01*
X185861805Y-77227499D01*
X185983035Y-77203386D01*
X186075046Y-77165273D01*
X186097233Y-77156083D01*
X186200008Y-77087411D01*
X186287411Y-77000008D01*
X189369600Y-73917819D01*
X189430923Y-73884334D01*
X189457281Y-73881500D01*
X190106119Y-73881500D01*
X190173158Y-73901185D01*
G37*
G04 #@! TD.AperFunction*
G04 #@! TA.AperFunction,Conductor*
G36*
X246715539Y-74701185D02*
G01*
X246761294Y-74753989D01*
X246772500Y-74805500D01*
X246772500Y-75938197D01*
X246772500Y-76061803D01*
X246778762Y-76093284D01*
X246791262Y-76156130D01*
X246785033Y-76225722D01*
X246742170Y-76280898D01*
X246695425Y-76301610D01*
X246520197Y-76338855D01*
X246520192Y-76338857D01*
X246347270Y-76415848D01*
X246347265Y-76415851D01*
X246194129Y-76527111D01*
X246067466Y-76667785D01*
X246042825Y-76710463D01*
X245992257Y-76758678D01*
X245923650Y-76771899D01*
X245858786Y-76745930D01*
X245835120Y-76721346D01*
X245832538Y-76717793D01*
X245832533Y-76717784D01*
X245705871Y-76577112D01*
X245702865Y-76574928D01*
X245552734Y-76465851D01*
X245552729Y-76465848D01*
X245379807Y-76388857D01*
X245379802Y-76388855D01*
X245232067Y-76357454D01*
X245194646Y-76349500D01*
X245005354Y-76349500D01*
X244972897Y-76356398D01*
X244820197Y-76388855D01*
X244820192Y-76388857D01*
X244647270Y-76465848D01*
X244647265Y-76465851D01*
X244494129Y-76577111D01*
X244367465Y-76717785D01*
X244269571Y-76887344D01*
X244266925Y-76885816D01*
X244230397Y-76929006D01*
X244163598Y-76949491D01*
X244162115Y-76949500D01*
X243503476Y-76949500D01*
X243436437Y-76929815D01*
X243390682Y-76877011D01*
X243380738Y-76807853D01*
X243409763Y-76744297D01*
X243437504Y-76720506D01*
X243502262Y-76679816D01*
X243629816Y-76552262D01*
X243725789Y-76399522D01*
X243785368Y-76229255D01*
X243785766Y-76225722D01*
X243805565Y-76050003D01*
X243805565Y-76049996D01*
X243785369Y-75870750D01*
X243785368Y-75870745D01*
X243778027Y-75849765D01*
X243725789Y-75700478D01*
X243725174Y-75699500D01*
X243675423Y-75620321D01*
X243629816Y-75547738D01*
X243502262Y-75420184D01*
X243475525Y-75403384D01*
X243349523Y-75324211D01*
X243179254Y-75264631D01*
X243179249Y-75264630D01*
X243000004Y-75244435D01*
X242999996Y-75244435D01*
X242820750Y-75264630D01*
X242820745Y-75264631D01*
X242650476Y-75324211D01*
X242497737Y-75420184D01*
X242370184Y-75547737D01*
X242274211Y-75700476D01*
X242214631Y-75870745D01*
X242214630Y-75870750D01*
X242194435Y-76049996D01*
X242194435Y-76050003D01*
X242214630Y-76229249D01*
X242214631Y-76229254D01*
X242274211Y-76399523D01*
X242354381Y-76527112D01*
X242370184Y-76552262D01*
X242497738Y-76679816D01*
X242562496Y-76720506D01*
X242608787Y-76772841D01*
X242619435Y-76841894D01*
X242591060Y-76905743D01*
X242532670Y-76944115D01*
X242496524Y-76949500D01*
X235846227Y-76949500D01*
X235779188Y-76929815D01*
X235758546Y-76913181D01*
X235084546Y-76239181D01*
X235051061Y-76177858D01*
X235056045Y-76108166D01*
X235097917Y-76052233D01*
X235163381Y-76027816D01*
X235172227Y-76027500D01*
X235327751Y-76027500D01*
X235327752Y-76027499D01*
X235448982Y-76003386D01*
X235533724Y-75968284D01*
X235563180Y-75956083D01*
X235665955Y-75887411D01*
X235753358Y-75800008D01*
X236435547Y-75117819D01*
X236496870Y-75084334D01*
X236523228Y-75081500D01*
X238482060Y-75081500D01*
X238549099Y-75101185D01*
X238594854Y-75153989D01*
X238604798Y-75223147D01*
X238575773Y-75286703D01*
X238569741Y-75293181D01*
X238495184Y-75367738D01*
X238471674Y-75405154D01*
X238399211Y-75520476D01*
X238339631Y-75690745D01*
X238339630Y-75690750D01*
X238319435Y-75869996D01*
X238319435Y-75870003D01*
X238339630Y-76049249D01*
X238339631Y-76049254D01*
X238399211Y-76219523D01*
X238486256Y-76358053D01*
X238495184Y-76372262D01*
X238622738Y-76499816D01*
X238775478Y-76595789D01*
X238910725Y-76643114D01*
X238945745Y-76655368D01*
X238945750Y-76655369D01*
X239124996Y-76675565D01*
X239125000Y-76675565D01*
X239125004Y-76675565D01*
X239304249Y-76655369D01*
X239304252Y-76655368D01*
X239304255Y-76655368D01*
X239474522Y-76595789D01*
X239627262Y-76499816D01*
X239754816Y-76372262D01*
X239850789Y-76219522D01*
X239910368Y-76049255D01*
X239910712Y-76046203D01*
X239930565Y-75870003D01*
X239930565Y-75869996D01*
X239910369Y-75690750D01*
X239910368Y-75690745D01*
X239906608Y-75680000D01*
X239850789Y-75520478D01*
X239754816Y-75367738D01*
X239680259Y-75293181D01*
X239646774Y-75231858D01*
X239651758Y-75162166D01*
X239693630Y-75106233D01*
X239759094Y-75081816D01*
X239767940Y-75081500D01*
X240126254Y-75081500D01*
X240126259Y-75081501D01*
X240188063Y-75081500D01*
X240249856Y-75081500D01*
X240249861Y-75081499D01*
X240249866Y-75081499D01*
X240330504Y-75065458D01*
X240354338Y-75060717D01*
X240354338Y-75060716D01*
X240365899Y-75058417D01*
X240369280Y-75057893D01*
X240374459Y-75056714D01*
X240388401Y-75053941D01*
X240399779Y-75045501D01*
X240434577Y-75031087D01*
X240479704Y-75012394D01*
X240484420Y-75010707D01*
X240487717Y-75008612D01*
X240488314Y-75008250D01*
X240490720Y-75006452D01*
X240540765Y-74973013D01*
X240584483Y-74943801D01*
X240587807Y-74941744D01*
X240588134Y-74941511D01*
X240590793Y-74938681D01*
X240642059Y-74887413D01*
X240642061Y-74887411D01*
X240675464Y-74854008D01*
X240675465Y-74854006D01*
X240682521Y-74846950D01*
X240682526Y-74846943D01*
X240811653Y-74717817D01*
X240872976Y-74684334D01*
X240899333Y-74681500D01*
X246648500Y-74681500D01*
X246715539Y-74701185D01*
G37*
G04 #@! TD.AperFunction*
G04 #@! TA.AperFunction,Conductor*
G36*
X186306758Y-74993185D02*
G01*
X186352513Y-75045989D01*
X186362457Y-75115147D01*
X186333432Y-75178703D01*
X186327400Y-75185181D01*
X185576400Y-75936181D01*
X185515077Y-75969666D01*
X185488719Y-75972500D01*
X185323761Y-75972500D01*
X185256722Y-75952815D01*
X185210967Y-75900011D01*
X185201023Y-75830853D01*
X185218767Y-75782528D01*
X185237436Y-75752815D01*
X185245789Y-75739522D01*
X185305368Y-75569255D01*
X185305369Y-75569249D01*
X185325565Y-75390003D01*
X185325565Y-75389996D01*
X185305369Y-75210750D01*
X185305366Y-75210737D01*
X185280073Y-75138455D01*
X185276510Y-75068677D01*
X185311239Y-75008049D01*
X185373232Y-74975822D01*
X185397114Y-74973500D01*
X186239719Y-74973500D01*
X186306758Y-74993185D01*
G37*
G04 #@! TD.AperFunction*
G04 #@! TA.AperFunction,Conductor*
G36*
X201366942Y-66620185D02*
G01*
X201387584Y-66636819D01*
X203000202Y-68249437D01*
X203033687Y-68310760D01*
X203029563Y-68378071D01*
X203014631Y-68420745D01*
X203014631Y-68420746D01*
X202994435Y-68599996D01*
X202994435Y-68600003D01*
X203014630Y-68779249D01*
X203014631Y-68779254D01*
X203074211Y-68949523D01*
X203170184Y-69102262D01*
X203223275Y-69155353D01*
X203256760Y-69216676D01*
X203251776Y-69286368D01*
X203223275Y-69330715D01*
X201617810Y-70936181D01*
X201556487Y-70969666D01*
X201530129Y-70972500D01*
X200938195Y-70972500D01*
X200816970Y-70996613D01*
X200816960Y-70996616D01*
X200702773Y-71043913D01*
X200702760Y-71043920D01*
X200599992Y-71112588D01*
X200599988Y-71112591D01*
X199576400Y-72136181D01*
X199515077Y-72169666D01*
X199488719Y-72172500D01*
X188896141Y-72172500D01*
X188774917Y-72196613D01*
X188774907Y-72196616D01*
X188660721Y-72243913D01*
X188660703Y-72243923D01*
X188557939Y-72312587D01*
X188557932Y-72312593D01*
X187946227Y-72924300D01*
X187745993Y-73124534D01*
X187745991Y-73124536D01*
X187454070Y-73416458D01*
X187188347Y-73682181D01*
X187127024Y-73715666D01*
X187100666Y-73718500D01*
X178950139Y-73718500D01*
X178828920Y-73742612D01*
X178828912Y-73742614D01*
X178768148Y-73767784D01*
X178768147Y-73767784D01*
X178714720Y-73789913D01*
X178714707Y-73789920D01*
X178623873Y-73850615D01*
X178623871Y-73850616D01*
X178611940Y-73858587D01*
X178611935Y-73858591D01*
X178345990Y-74124538D01*
X178334347Y-74136181D01*
X178273024Y-74169666D01*
X178246666Y-74172500D01*
X176341672Y-74172500D01*
X176275700Y-74153494D01*
X176149523Y-74074211D01*
X175979253Y-74014631D01*
X175959685Y-74012426D01*
X175895272Y-73985357D01*
X175855719Y-73927761D01*
X175853584Y-73857924D01*
X175885890Y-73801527D01*
X180847491Y-68839926D01*
X180908812Y-68806443D01*
X180978504Y-68811427D01*
X181034437Y-68853299D01*
X181052211Y-68886654D01*
X181074208Y-68949519D01*
X181156524Y-69080522D01*
X181170184Y-69102262D01*
X181297738Y-69229816D01*
X181368392Y-69274211D01*
X181450479Y-69325790D01*
X181490410Y-69339762D01*
X181547187Y-69380483D01*
X181572935Y-69445436D01*
X181559479Y-69513997D01*
X181554451Y-69522776D01*
X181474211Y-69650476D01*
X181414631Y-69820745D01*
X181414630Y-69820750D01*
X181394435Y-69999996D01*
X181394435Y-70000003D01*
X181414630Y-70179249D01*
X181414631Y-70179254D01*
X181474211Y-70349523D01*
X181554381Y-70477112D01*
X181570184Y-70502262D01*
X181697738Y-70629816D01*
X181850478Y-70725789D01*
X182003275Y-70779255D01*
X182020745Y-70785368D01*
X182020750Y-70785369D01*
X182092712Y-70793476D01*
X182147391Y-70799637D01*
X182211805Y-70826703D01*
X182250549Y-70881902D01*
X182274209Y-70949518D01*
X182274210Y-70949522D01*
X182333523Y-71043917D01*
X182370184Y-71102262D01*
X182497738Y-71229816D01*
X182562865Y-71270738D01*
X182642539Y-71320801D01*
X182650478Y-71325789D01*
X182718306Y-71349523D01*
X182820745Y-71385368D01*
X182820750Y-71385369D01*
X182999996Y-71405565D01*
X183000000Y-71405565D01*
X183000004Y-71405565D01*
X183179249Y-71385369D01*
X183179252Y-71385368D01*
X183179255Y-71385368D01*
X183349522Y-71325789D01*
X183502262Y-71229816D01*
X183629816Y-71102262D01*
X183725789Y-70949522D01*
X183785368Y-70779255D01*
X183795161Y-70692329D01*
X183822226Y-70627918D01*
X183830690Y-70618543D01*
X185212416Y-69236819D01*
X185273739Y-69203334D01*
X185300097Y-69200500D01*
X193044703Y-69200500D01*
X193044719Y-69200501D01*
X193052315Y-69200501D01*
X193210426Y-69200501D01*
X193210429Y-69200501D01*
X193363157Y-69159577D01*
X193424412Y-69124211D01*
X193500088Y-69080520D01*
X193611892Y-68968716D01*
X193611892Y-68968714D01*
X193622096Y-68958511D01*
X193622099Y-68958506D01*
X195943788Y-66636819D01*
X196005111Y-66603334D01*
X196031469Y-66600500D01*
X201299903Y-66600500D01*
X201366942Y-66620185D01*
G37*
G04 #@! TD.AperFunction*
G04 #@! TA.AperFunction,Conductor*
G36*
X195617777Y-61184330D02*
G01*
X195620741Y-61185367D01*
X195620742Y-61185367D01*
X195620745Y-61185368D01*
X195664635Y-61190313D01*
X195729048Y-61217378D01*
X195738433Y-61225852D01*
X198112589Y-63600008D01*
X198189837Y-63677256D01*
X198199994Y-63687413D01*
X198199996Y-63687414D01*
X198302756Y-63756076D01*
X198302760Y-63756078D01*
X198302767Y-63756083D01*
X198335000Y-63769434D01*
X198335001Y-63769435D01*
X198364044Y-63781465D01*
X198416965Y-63803386D01*
X198538192Y-63827499D01*
X198538196Y-63827500D01*
X198538197Y-63827500D01*
X198661803Y-63827500D01*
X202507489Y-63827500D01*
X202574528Y-63847185D01*
X202620283Y-63899989D01*
X202630227Y-63969147D01*
X202624531Y-63992454D01*
X202614632Y-64020742D01*
X202614630Y-64020750D01*
X202594435Y-64199996D01*
X202594435Y-64200003D01*
X202614630Y-64379249D01*
X202614631Y-64379254D01*
X202674211Y-64549523D01*
X202727071Y-64633648D01*
X202770184Y-64702262D01*
X202897738Y-64829816D01*
X202942359Y-64857853D01*
X203048461Y-64924522D01*
X203050478Y-64925789D01*
X203220745Y-64985368D01*
X203220750Y-64985369D01*
X203399996Y-65005565D01*
X203400000Y-65005565D01*
X203400002Y-65005565D01*
X203449391Y-65000000D01*
X203469395Y-64997746D01*
X203538217Y-65009800D01*
X203589596Y-65057149D01*
X203606499Y-65107082D01*
X203614630Y-65179250D01*
X203614631Y-65179254D01*
X203674211Y-65349523D01*
X203757273Y-65481715D01*
X203770184Y-65502262D01*
X203897738Y-65629816D01*
X204050478Y-65725789D01*
X204220745Y-65785368D01*
X204307669Y-65795161D01*
X204372080Y-65822226D01*
X204381465Y-65830700D01*
X204515139Y-65964374D01*
X204515149Y-65964385D01*
X204519479Y-65968715D01*
X204519480Y-65968716D01*
X204631284Y-66080520D01*
X204718095Y-66130639D01*
X204718097Y-66130641D01*
X204756151Y-66152611D01*
X204768215Y-66159577D01*
X204920943Y-66200500D01*
X205883678Y-66200500D01*
X205950717Y-66220185D01*
X205996472Y-66272989D01*
X206006898Y-66310617D01*
X206014630Y-66379249D01*
X206074210Y-66549521D01*
X206152558Y-66674211D01*
X206170184Y-66702262D01*
X206297738Y-66829816D01*
X206359117Y-66868383D01*
X206440432Y-66919477D01*
X206450478Y-66925789D01*
X206620745Y-66985368D01*
X206662384Y-66990059D01*
X206726795Y-67017124D01*
X206766352Y-67074718D01*
X206772500Y-67113279D01*
X206772500Y-68025724D01*
X206752815Y-68092763D01*
X206700011Y-68138518D01*
X206630853Y-68148462D01*
X206567297Y-68119437D01*
X206531459Y-68066679D01*
X206525790Y-68050480D01*
X206512806Y-68029816D01*
X206429816Y-67897738D01*
X206302262Y-67770184D01*
X206204701Y-67708882D01*
X206149523Y-67674211D01*
X205979254Y-67614631D01*
X205979249Y-67614630D01*
X205800004Y-67594435D01*
X205799996Y-67594435D01*
X205620750Y-67614630D01*
X205620742Y-67614632D01*
X205526179Y-67647721D01*
X205456400Y-67651282D01*
X205395773Y-67616553D01*
X205368183Y-67571633D01*
X205325789Y-67450478D01*
X205229816Y-67297738D01*
X205102262Y-67170184D01*
X205011778Y-67113329D01*
X204949521Y-67074210D01*
X204779249Y-67014630D01*
X204692330Y-67004837D01*
X204627916Y-66977770D01*
X204618533Y-66969298D01*
X202887590Y-65238355D01*
X202887588Y-65238352D01*
X202768717Y-65119481D01*
X202768709Y-65119475D01*
X202666936Y-65060717D01*
X202666934Y-65060716D01*
X202631790Y-65040425D01*
X202631789Y-65040424D01*
X202614995Y-65035924D01*
X202479057Y-64999499D01*
X202320943Y-64999499D01*
X202313347Y-64999499D01*
X202313331Y-64999500D01*
X196749096Y-64999500D01*
X196682057Y-64979815D01*
X196636302Y-64927011D01*
X196626358Y-64857853D01*
X196655383Y-64794297D01*
X196661394Y-64787840D01*
X196818536Y-64630697D01*
X196879856Y-64597215D01*
X196892311Y-64595163D01*
X196979255Y-64585368D01*
X197149522Y-64525789D01*
X197302262Y-64429816D01*
X197429816Y-64302262D01*
X197525789Y-64149522D01*
X197585368Y-63979255D01*
X197599878Y-63850478D01*
X197605565Y-63800003D01*
X197605565Y-63799996D01*
X197585369Y-63620750D01*
X197585368Y-63620745D01*
X197553352Y-63529249D01*
X197525789Y-63450478D01*
X197429816Y-63297738D01*
X197302262Y-63170184D01*
X197260505Y-63143946D01*
X197149523Y-63074211D01*
X196979254Y-63014631D01*
X196979249Y-63014630D01*
X196800004Y-62994435D01*
X196799996Y-62994435D01*
X196620750Y-63014630D01*
X196620745Y-63014631D01*
X196450476Y-63074211D01*
X196297737Y-63170184D01*
X196170184Y-63297737D01*
X196074210Y-63450478D01*
X196014630Y-63620750D01*
X196004837Y-63707668D01*
X195977770Y-63772082D01*
X195969298Y-63781465D01*
X194631284Y-65119481D01*
X192587584Y-67163181D01*
X192526261Y-67196666D01*
X192499903Y-67199500D01*
X182787280Y-67199500D01*
X182720241Y-67179815D01*
X182674486Y-67127011D01*
X182664542Y-67057853D01*
X182693567Y-66994297D01*
X182699599Y-66987819D01*
X184456133Y-65231286D01*
X186396600Y-63290819D01*
X186457923Y-63257334D01*
X186484281Y-63254500D01*
X192258328Y-63254500D01*
X192324299Y-63273505D01*
X192450478Y-63352789D01*
X192601303Y-63405565D01*
X192620745Y-63412368D01*
X192620750Y-63412369D01*
X192799996Y-63432565D01*
X192800000Y-63432565D01*
X192800004Y-63432565D01*
X192979249Y-63412369D01*
X192979252Y-63412368D01*
X192979255Y-63412368D01*
X193149522Y-63352789D01*
X193302262Y-63256816D01*
X193429816Y-63129262D01*
X193525789Y-62976522D01*
X193585368Y-62806255D01*
X193588411Y-62779255D01*
X193593102Y-62737617D01*
X193620168Y-62673203D01*
X193677763Y-62633648D01*
X193716322Y-62627500D01*
X194261804Y-62627500D01*
X194261805Y-62627499D01*
X194383035Y-62603386D01*
X194463784Y-62569937D01*
X194497233Y-62556083D01*
X194600008Y-62487411D01*
X194687411Y-62400008D01*
X195287411Y-61800008D01*
X195291135Y-61794435D01*
X195356083Y-61697233D01*
X195403385Y-61583035D01*
X195427500Y-61461803D01*
X195427500Y-61341671D01*
X195446505Y-61275701D01*
X195449816Y-61270432D01*
X195471828Y-61235398D01*
X195524159Y-61189109D01*
X195593213Y-61178459D01*
X195617777Y-61184330D01*
G37*
G04 #@! TD.AperFunction*
G04 #@! TA.AperFunction,Conductor*
G36*
X194073960Y-60220185D02*
G01*
X194119715Y-60272989D01*
X194129659Y-60342147D01*
X194111915Y-60390472D01*
X194074211Y-60450476D01*
X194014631Y-60620745D01*
X194014630Y-60620750D01*
X193994435Y-60799996D01*
X193994435Y-60800003D01*
X194014630Y-60979249D01*
X194014633Y-60979262D01*
X194071507Y-61141796D01*
X194075069Y-61211575D01*
X194042148Y-61270432D01*
X193976400Y-61336181D01*
X193915077Y-61369666D01*
X193888718Y-61372500D01*
X190857985Y-61372500D01*
X190790946Y-61352815D01*
X190745191Y-61300011D01*
X190734765Y-61234617D01*
X190755565Y-61050003D01*
X190755565Y-61049996D01*
X190735369Y-60870750D01*
X190735368Y-60870745D01*
X190675788Y-60700476D01*
X190631389Y-60629816D01*
X190579816Y-60547738D01*
X190452262Y-60420184D01*
X190447338Y-60415260D01*
X190448609Y-60413988D01*
X190413705Y-60364260D01*
X190410855Y-60294448D01*
X190446200Y-60234178D01*
X190508518Y-60202584D01*
X190531158Y-60200500D01*
X194006921Y-60200500D01*
X194073960Y-60220185D01*
G37*
G04 #@! TD.AperFunction*
G04 #@! TA.AperFunction,Conductor*
G36*
X203366942Y-60220185D02*
G01*
X203387584Y-60236819D01*
X203511584Y-60360819D01*
X203545069Y-60422142D01*
X203540085Y-60491834D01*
X203498213Y-60547767D01*
X203432749Y-60572184D01*
X203423903Y-60572500D01*
X198311281Y-60572500D01*
X198244242Y-60552815D01*
X198223600Y-60536181D01*
X198099600Y-60412181D01*
X198066115Y-60350858D01*
X198071099Y-60281166D01*
X198112971Y-60225233D01*
X198178435Y-60200816D01*
X198187281Y-60200500D01*
X203299903Y-60200500D01*
X203366942Y-60220185D01*
G37*
G04 #@! TD.AperFunction*
M02*
